M48
;Layer_Color=9474304
;FILE_FORMAT=2:5
INCH,LZ
;TYPE=PLATED
T2F00S00C0.01000
;TYPE=NON_PLATED
%
T02
X00665Y0053
X04085Y00905
X0397582Y0210929
X0311557Y0178537
X0294Y0181437
X0279Y0180337
X0263
X0283Y0193237
X0229Y00735
Y00585
X01985Y00725
X01575Y0083
X01555Y0149073
X0106Y0134
X0066571Y0073082
X0066Y0059
X0057Y00825
X0048602Y02669
X00325Y02655
X0017Y0265
X0136Y02345
X02505Y0244
X0247672Y0260438
X02515Y0288
X0318Y02775
X0335Y0269
X03155Y02385
X03145Y0221
X036Y0318418
X04175Y0309
X0438491Y0253991
X0437337Y0232242
X0397755Y0224817
X0398181Y0216046
M30
