M48
;Layer_Color=9474304
;FILE_FORMAT=2:5
INCH,LZ
;TYPE=PLATED
T1F00S00C0.00600
T2F00S00C0.01000
;TYPE=NON_PLATED
%
T01
X0400925Y0271425
Y0273
X04025
T02
X00645Y00305
X01045Y00255
X0199Y003
X0203386Y0045323
X0229Y00435
X02305Y00315
X0268Y0020694
X036Y00335
Y00455
X0366Y00745
X03665Y0171337
X03654Y0176058
X037957Y0173812
X03885Y0170837
X0366694Y0203237
X04235Y02095
X0430071Y0201918
X0359699Y0159852
X03546Y0160615
X0344Y0160337
X034
X0327Y0159837
X0323Y0159337
X03095
X03056Y0159234
X0291Y0159337
X0275
X0259Y0160337
X0242
X0248503Y0198388
X0134Y01945
X0076Y0185
X0080051Y0174449
X00565Y0137
X01209Y0133721
X00665Y00675
X0042051Y0136449
X0025464Y0136858
X0063638Y02679
X0079721Y02644
X00945Y02645
X01095Y0265
X011843Y0264683
X02355Y0253
X0233161Y0250532
X02495Y02525
X02454Y02721
X02395Y0274
X0235Y02915
X02395Y02295
X0251023Y0226194
X0248536Y0213948
X0327194Y0252443
X03405Y0244
X0345918Y0246477
X0355176Y0234889
X0362702Y0217635
X0359Y0274
X0316Y02895
X0379315Y0281315
X03805Y02725
X0417Y02545
X0402Y0239
X0364668Y0231299
X0366Y02165
X0434Y0217
M30
