M48
;Layer_Color=9474304
;FILE_FORMAT=2:5
INCH,LZ
;TYPE=PLATED
T2F00S00C0.01000
;TYPE=NON_PLATED
%
T02
X054522Y0147768
X054842Y0150568
X0551475Y0147774
X0554624Y0150568
X0557774Y0147774
X056102Y0150568
X056402Y0147768
X0567241Y0150568
X05705Y0147768
X05735Y0150568
X0576596Y014768
X0580034Y0150568
X0583Y0147768
X0589196Y0147781
X05925Y0150568
X0595496Y0147956
X0598696Y0150356
X0601841Y0147956
X0605041Y0150356
X0608241Y0147956
X0611409Y0150356
X06145Y0148
X0617713Y0150356
X0621029Y0147956
X0624Y0150356
X0627Y0148
X0630241Y0150356
X0633441Y0148
X0636496Y0150356
X0639696Y0148
X0645629
X0649Y0150356
X06525Y0148
X0655188Y0150356
X0585847Y0152595
X0550951Y0155637
X05475Y01555
X0491Y015
X0462
X03605Y0203693
Y020763
Y0211567
X0356918Y020962
Y0205683
X01645Y0128
X0356918Y0213557
Y0217494
Y0221431
Y0225368
Y0229305
Y0233242
Y0237179
Y0241116
Y0245053
Y024899
X03605Y0247
X0360329Y0243234
X03605Y0239126
Y0235189
Y0231252
Y0227315
Y0223378
Y0219441
Y0215504
X0476Y02625
X0538858Y0267334
X0541996Y0269751
X0545138Y0267334
X0548296Y0269751
X05515Y0267334
X05545Y0269751
X0557754Y0267334
X0561Y0269751
X0564Y0267334
X0567296Y0269751
X0570396Y0267334
X0573496Y0269751
X0576935Y0267334
X0580098Y0269751
X0582983Y0267334
X0586196Y0269751
X0589283Y0267334
X0592496Y0269751
X0595583Y0267334
X0598796Y0269751
X0601832Y0267334
X0604996Y0269751
X0608196Y0266851
X0614496
X0611598Y0269751
X0617596
X0620796Y0266851
X0623896Y0269751
X0627096Y0266851
X0630196Y0269751
X0633396Y0266851
X0636496Y0269751
X0639696Y0266851
X0645996
X06565Y0268
M30
