M48
;Layer_Color=9474304
;FILE_FORMAT=2:5
INCH,LZ
;TYPE=PLATED
T2F00S00C0.01000
T3F00S00C0.02800
T4F00S00C0.03500
T5F00S00C0.04331
T6F00S00C0.09843
T7F00S00C0.15748
;TYPE=NON_PLATED
T8F00S00C0.04000
T9F00S00C0.05906
T10F00S00C0.15748
%
T02
X0117379Y0049889
X0115497Y0052469
X0156214Y0052162
X0154546Y0048841
X028Y0051
X0282Y00485
X0316591Y005016
X0319191Y0052549
X07915Y0105
X06615Y0148
X0642629Y0150356
X0542041Y0150568
X0538941Y0147768
X0339574Y0189569
X0342Y0192254
X0335Y0191337
X03309
X0326937Y01914
X0323Y0191337
X0319
X0317084Y018842
X0321Y0188337
X0325
X0329
X0333
X0311991Y0188846
X0313026Y0191337
X0309049
X0305167
X0301367
X0297415
X029898Y0188317
X0303187Y0188337
X0307108
X0293Y0193237
X0283206Y0203783
X0283Y0207647
Y021158
X0280313Y0209739
X0280407Y0205812
X0316591Y006816
X0154Y0070191
X0125522Y0176522
X0109877Y0176
X01065Y01777
X0066035Y0180754
X0050839Y0177804
X0048535Y0182454
X0047964Y021692
X0050433Y0219424
X0108896Y0214999
X0106411Y0212512
X0280599Y0213422
Y0217231
Y0221296
X0282854Y0219292
X0283Y0215389
X0283Y0223247
X0282428Y0227328
X0283Y0231252
X0282929Y0235282
X0283011Y0239137
Y0243074
X0280105Y0241127
Y023719
X0279169Y0233395
X0280105Y0245064
X0283011Y0248979
X02807Y0296
X0279Y02995
X03155
X031705Y0296766
X0316221Y03164
X0397Y02605
X0401Y02628
X03993Y02562
X04035Y0256
X0522425Y02545
X0642796Y0269751
X0661696
X0334Y0406
T03
X0015Y002
X0045
X0049Y0055
X0213
X0405Y002
Y008
X03895Y0076
X0315Y008
X0285
X0225Y02
X0185Y014
X0135
X0135495Y0076
X0015Y02
X003Y035
X0075Y032
X0383Y03195
X0435Y032
X0348Y0393
X02865
X02265
X024Y041
X01675Y0393
X0107
X00495Y0389
X0015Y038
T04
X0680991Y0059214
X0688865
X0696739
X0704613
X0712487
X0720361
X0728235
X0736109
X0743983
X0751857
X0759731
X0767605
X0775479
Y0067088
X0767605
X0759731
X0751857
X0743983
X0736109
X0728235
X0720361
X0712487
X0704613
X0696739
X0688865
X0680991
X0783353
X0791227
Y0059214
X0783353
X0673116
Y0067088
X0665242
Y0059214
X0657368
Y0067088
X0649494
Y0059214
X064162
Y0067088
X0610124
X060225
X0594376
X0586502
X0578628
Y0059214
X0586502
X0594376
X060225
X0610124
X0570754
X056288
X0555006
X0547132
X0539258
X0531384
X052351
Y0067088
X0531384
X0539258
X0547132
X0555006
X056288
X0570754
X0515636
X0507762
X0499888
X0492014
X048414
Y0059214
X0492014
X0499888
X0507762
X0515636
X0476266
X0468392
X0460518
Y0067088
X0468392
X0476266
Y0350553
Y0358427
X0468392
Y0350553
X0460518
Y0358427
X048414
X0492014
X0499888
X0507762
X0515636
Y0350553
X0507762
X0499888
X0492014
X048414
X052351
X0531384
X0539258
X0547132
X0555006
X056288
X0570754
Y0358427
X056288
X0555006
X0547132
X0539258
X0531384
X052351
X0578628
X0586502
X0594376
X060225
X0610124
Y0350553
X060225
X0594376
X0586502
X0578628
X064162
X0649494
X0657368
X0665242
X0673116
Y0358427
X0665242
X0657368
X0649494
X064162
X0680991
X0688865
X0696739
X0704613
X0712487
X0720361
X0728235
X0736109
X0743983
X0751857
X0759731
X0767605
X0775479
Y0350553
X0767605
X0759731
X0751857
X0743983
X0736109
X0728235
X0720361
X0712487
X0704613
X0696739
X0688865
X0680991
X0783353
X0791227
Y0358427
X0783353
T05
X03865Y0025
X03965
X03945Y0109337
X04045
X0425505Y0108913
X0435505
Y0096983
X0425505
Y0084983
X0435505
X03815Y0109337
X03715
X0401479Y0158615
Y0168615
Y0181139
Y0191139
X0415422
Y0181139
Y0168615
Y0158615
X0429103
Y0168615
Y0181139
Y0191139
X03585Y0109337
X03485
X0335852
X0325852
X03135
X03035
X02905
X02805
X02675
X02575
X02445
X02345
X02215
X02115
X0213279Y0143918
Y0153918
Y0166918
Y0176918
Y0189918
Y0199917
X0175336Y0201965
Y0211965
Y0188965
Y0178965
Y0165965
Y0155965
X01755Y0109337
X01655
X01515
X01415
X01285
X01185
X01055
X00955
X00825
X00725
X00595
X01885
X01985
X00495
X0049Y0354
Y0364
X0108
Y0354
X0130908Y0319101
Y0309101
Y0299101
X0175336Y0303965
Y0293965
Y0280965
Y0270965
Y0257965
Y0247965
Y0234965
Y0224965
X0169Y0354
Y0364
X0064437Y0319101
Y0309101
Y0299101
X0213279Y0304918
Y0314917
Y0291917
Y0281918
Y0268917
Y0258917
Y0245918
Y0235917
Y0222918
Y0212917
X0227629Y0353545
Y0363545
X02895Y03635
Y03535
X03485
Y03635
X0392452Y0345446
Y0335446
X0404452
Y0345446
Y03235
X0414452
X0411889Y0394428
X0401889
X0401886Y0406819
X0411886
X0411852Y041898
X0401852
X03485Y03735
X02895
X0227629Y0373545
X0169Y0374
X0108
X0049
T06
X0783353Y0122206
Y0295435
T07
X0781Y04
T08
X0532427Y0122069
X066816
Y0279549
X0532427
T09
X0319Y0207652
Y0247022
T10
X0029Y003
X0781
X0029Y04
M30
