G04*
G04 #@! TF.GenerationSoftware,Altium Limited,Altium Designer,22.4.2 (48)*
G04*
G04 Layer_Color=65535*
%FSLAX25Y25*%
%MOIN*%
G70*
G04*
G04 #@! TF.SameCoordinates,2DCEC4E4-29E6-4739-8FF7-65C193B2F985*
G04*
G04*
G04 #@! TF.FilePolarity,Positive*
G04*
G01*
G75*
%ADD10C,0.01575*%
%ADD11C,0.00787*%
%ADD12C,0.00472*%
%ADD13C,0.00394*%
%ADD14C,0.00300*%
%ADD15C,0.01000*%
%ADD16C,0.00400*%
D10*
X375693Y203715D02*
G03*
X375693Y203715I-787J0D01*
G01*
D11*
X798116Y67088D02*
G03*
X798116Y67088I-394J0D01*
G01*
X662105Y267864D02*
G03*
X661711Y267864I-197J0D01*
G01*
D02*
G03*
X662105Y267864I197J0D01*
G01*
D02*
G03*
X661711Y267864I-197J0D01*
G01*
X662105Y110383D02*
G03*
X661711Y110383I-197J0D01*
G01*
D02*
G03*
X662105Y110383I197J0D01*
G01*
D02*
G03*
X661711Y110383I-197J0D01*
G01*
X617014Y358427D02*
G03*
X617014Y358427I-394J0D01*
G01*
X798116Y358427D02*
G03*
X798116Y358427I-394J0D01*
G01*
X617014Y67088D02*
G03*
X617014Y67088I-394J0D01*
G01*
X591039Y161461D02*
X593961Y158538D01*
X135652Y294101D02*
Y319101D01*
X126164Y294101D02*
X135652D01*
X126164D02*
Y324101D01*
X130908D01*
X419452Y323500D02*
Y328500D01*
X399452D02*
X419452D01*
X399452Y318500D02*
Y328500D01*
Y318500D02*
X414452D01*
X795164Y55297D02*
Y71006D01*
X637683Y55297D02*
Y71006D01*
Y55297D02*
X795164D01*
X637683Y71006D02*
X795164D01*
X543933Y251124D02*
X548067D01*
X763268Y90315D02*
Y101043D01*
Y90315D02*
X771732D01*
Y101043D01*
X773433Y97500D02*
X777567D01*
X779768Y90315D02*
Y101043D01*
Y90315D02*
X788232D01*
Y101043D01*
X164256Y354000D02*
Y379000D01*
X173744D01*
Y349000D02*
Y379000D01*
X169000Y349000D02*
X173744D01*
X44256Y354000D02*
Y379000D01*
X53744D01*
Y349000D02*
Y379000D01*
X49000Y349000D02*
X53744D01*
X227629Y348545D02*
X232373D01*
Y378545D01*
X222885D02*
X232373D01*
X222885Y353545D02*
Y378545D01*
X366500Y104337D02*
X381500D01*
X366500D02*
Y114337D01*
X386500D01*
Y109337D02*
Y114337D01*
X208279Y143918D02*
Y158917D01*
X218279D01*
Y138918D02*
Y158917D01*
X213279Y138918D02*
X218279D01*
X208279Y166918D02*
Y181918D01*
X218279D01*
Y161917D02*
Y181918D01*
X213279Y161917D02*
X218279D01*
X208279Y189918D02*
Y204918D01*
X218279D01*
Y184917D02*
Y204918D01*
X213279Y184917D02*
X218279D01*
X208279Y212917D02*
Y227918D01*
X218279D01*
Y207917D02*
Y227918D01*
X213279Y207917D02*
X218279D01*
X103256Y354000D02*
Y379000D01*
X112744D01*
Y349000D02*
Y379000D01*
X108000Y349000D02*
X112744D01*
X389500Y104337D02*
X404500D01*
X389500D02*
Y114337D01*
X409500D01*
Y109337D02*
Y114337D01*
X343500Y104337D02*
X358500D01*
X343500D02*
Y114337D01*
X363500D01*
Y109337D02*
Y114337D01*
X320852Y104337D02*
X335852D01*
X320852D02*
Y114337D01*
X340852D01*
Y109337D02*
Y114337D01*
X396889Y389428D02*
X411889D01*
X396889D02*
Y399428D01*
X416889D01*
Y394428D02*
Y399428D01*
X396852Y413980D02*
X411852D01*
X396852D02*
Y423980D01*
X416852D01*
Y418980D02*
Y423980D01*
X396886Y401819D02*
X411886D01*
X396886D02*
Y411819D01*
X416886D01*
Y406819D02*
Y411819D01*
X409452Y330446D02*
Y345446D01*
X399452Y330446D02*
X409452D01*
X399452D02*
Y350446D01*
X404452D01*
X397452Y345446D02*
X397452Y330446D01*
X387452D02*
X397452D01*
X387452D02*
Y350446D01*
X392452Y350446D01*
X381500Y20000D02*
X396500D01*
X381500D02*
Y30000D01*
X401500D01*
Y25000D02*
Y30000D01*
X425505Y89983D02*
X440505D01*
Y79983D02*
Y89983D01*
X420505Y79983D02*
X440505D01*
X420505D02*
Y84983D01*
Y103913D02*
X420505Y108913D01*
X420505Y103913D02*
X440505D01*
Y113913D01*
X425505Y113913D02*
X440505Y113913D01*
X420505Y91983D02*
Y96983D01*
Y91983D02*
X440505D01*
Y101983D01*
X425505D02*
X440505D01*
X87500Y109337D02*
Y114337D01*
X67500D02*
X87500D01*
X67500Y104337D02*
Y114337D01*
Y104337D02*
X82500D01*
X410422Y173615D02*
X415422Y173615D01*
X410422Y153615D02*
Y173615D01*
Y153615D02*
X420422D01*
X420422Y168615D02*
X420422Y153615D01*
X420422Y191139D02*
X420422Y176139D01*
X410422D02*
X420422D01*
X410422D02*
Y196139D01*
X415422Y196139D01*
X396479Y196139D02*
X401479Y196139D01*
X396479Y176139D02*
Y196139D01*
Y176139D02*
X406479D01*
X406479Y191139D02*
X406479Y176139D01*
X396479Y173615D02*
X401479Y173615D01*
X396479Y153615D02*
Y173615D01*
Y153615D02*
X406479D01*
X406479Y168615D02*
X406479Y153615D01*
X156500Y109337D02*
Y114337D01*
X136500D02*
X156500D01*
X136500Y104337D02*
Y114337D01*
Y104337D02*
X151500D01*
X180500Y109337D02*
Y114337D01*
X160500D02*
X180500D01*
X160500Y104337D02*
Y114337D01*
Y104337D02*
X175500D01*
X110500Y109337D02*
Y114337D01*
X90500D02*
X110500D01*
X90500Y104337D02*
Y114337D01*
Y104337D02*
X105500D01*
X133500Y109337D02*
Y114337D01*
X113500D02*
X133500D01*
X113500Y104337D02*
Y114337D01*
Y104337D02*
X128500D01*
X208279Y258917D02*
Y273918D01*
X218279D01*
Y253918D02*
Y273918D01*
X213279Y253918D02*
X218279D01*
X170335Y247965D02*
Y262965D01*
X180335D01*
Y242965D02*
Y262965D01*
X175336Y242965D02*
X180335D01*
X284756Y353500D02*
Y378500D01*
X294244D01*
Y348500D02*
Y378500D01*
X289500Y348500D02*
X294244D01*
X343756Y353500D02*
Y378500D01*
X353244D01*
Y348500D02*
Y378500D01*
X348500Y348500D02*
X353244D01*
X298500Y104337D02*
X313500D01*
X298500D02*
Y114337D01*
X318500D01*
Y109337D02*
Y114337D01*
X170335Y201965D02*
Y216965D01*
X180335D01*
Y196965D02*
Y216965D01*
X175336Y196965D02*
X180335D01*
X424103Y173615D02*
X429103Y173615D01*
X424103Y153615D02*
Y173615D01*
Y153615D02*
X434103D01*
X434103Y168615D02*
X434103Y153615D01*
X424103Y196139D02*
X429103Y196139D01*
X424103Y176139D02*
Y196139D01*
Y176139D02*
X434103D01*
X434103Y191139D02*
X434103Y176139D01*
X208279Y235917D02*
Y250918D01*
X218279D01*
Y230918D02*
Y250918D01*
X213279Y230918D02*
X218279D01*
X170335Y293965D02*
Y308965D01*
X180335D01*
Y288965D02*
Y308965D01*
X175336Y288965D02*
X180335D01*
X170335Y270965D02*
Y285965D01*
X180335D01*
Y265965D02*
Y285965D01*
X175336Y265965D02*
X180335D01*
X69181Y294101D02*
Y319101D01*
X59693Y294101D02*
X69181D01*
X59693D02*
Y324101D01*
X64437D01*
X208279Y281918D02*
Y296918D01*
X218279D01*
Y276918D02*
Y296918D01*
X213279Y276918D02*
X218279D01*
X64500Y109337D02*
Y114337D01*
X44500D02*
X64500D01*
X44500Y104337D02*
Y114337D01*
Y104337D02*
X59500D01*
X203500Y109337D02*
Y114337D01*
X183500D02*
X203500D01*
X183500Y104337D02*
Y114337D01*
Y104337D02*
X198500D01*
X275500D02*
X290500D01*
X275500D02*
Y114337D01*
X295500D01*
Y109337D02*
Y114337D01*
X252500Y104337D02*
X267500D01*
X252500D02*
Y114337D01*
X272500D01*
Y109337D02*
Y114337D01*
X229500Y104337D02*
X244500D01*
X229500D02*
Y114337D01*
X249500D01*
Y109337D02*
Y114337D01*
X206500Y104337D02*
X221500D01*
X206500D02*
Y114337D01*
X226500D01*
Y109337D02*
Y114337D01*
X208279Y304918D02*
Y319917D01*
X218279D01*
Y299918D02*
Y319917D01*
X213279Y299918D02*
X218279D01*
X170335Y155965D02*
Y170965D01*
X180335D01*
Y150965D02*
Y170965D01*
X175336Y150965D02*
X180335D01*
X170335Y178965D02*
Y193965D01*
X180335D01*
Y173965D02*
Y193965D01*
X175336Y173965D02*
X180335D01*
X175336Y219965D02*
X180335D01*
Y239965D01*
X170335D02*
X180335D01*
X170335Y224965D02*
Y239965D01*
X614061Y346636D02*
Y362344D01*
X456581Y346636D02*
Y362344D01*
Y346636D02*
X614061D01*
X456581Y362344D02*
X614061D01*
X795164Y346636D02*
Y362344D01*
X637683Y346636D02*
Y362344D01*
Y346636D02*
X795164D01*
X637683Y362344D02*
X795164D01*
X456581Y71006D02*
X614061D01*
X456581Y55297D02*
X614061D01*
X456581D02*
Y71006D01*
X614061Y55297D02*
Y71006D01*
D12*
X265850Y280486D02*
X372150D01*
X265850Y174187D02*
Y280486D01*
Y174187D02*
X372150D01*
Y280486D01*
X464933Y105912D02*
X760209D01*
X465396Y301546D02*
X760164D01*
D13*
X529427Y275797D02*
X535333D01*
X529427D02*
X535333D01*
X529427D02*
Y299297D01*
Y275797D02*
Y299297D01*
X535333D01*
X529427D02*
X535333D01*
X671160D02*
Y299360D01*
X665254Y299297D02*
X671160D01*
X665254D02*
Y299360D01*
X671160D01*
Y275738D02*
Y299360D01*
Y275738D02*
Y299360D01*
X665254Y275738D02*
X671160D01*
X665254D02*
X671160D01*
X665254Y118257D02*
X671160D01*
X665254D02*
X671160D01*
Y141879D01*
Y118257D02*
Y141879D01*
X665254D02*
X671160D01*
X665254Y141816D02*
Y141879D01*
Y141816D02*
X671160D01*
Y141879D01*
X529427Y141816D02*
X535333D01*
X529427D02*
X535333D01*
X529427Y118316D02*
Y141816D01*
Y118316D02*
Y141816D01*
Y118316D02*
X535333D01*
X529427D02*
X535333D01*
D14*
X598722Y166400D02*
X598250D01*
X597779Y165928D01*
X597779Y165457D01*
X598722Y164515D01*
X599193D01*
X599664Y164986D01*
X599664Y165457D01*
X600371Y165693D02*
X600842Y166164D01*
X600606Y165928D01*
X599193Y167342D01*
X599193Y166871D01*
X601785Y166635D02*
X602727Y167578D01*
X602727Y170405D02*
X602256D01*
X601785Y169934D01*
Y169463D01*
X602727Y168520D01*
X603198D01*
X603670Y168992D01*
X603670Y169463D01*
X604612Y169463D02*
X605555Y170405D01*
X604377Y172526D02*
X605319Y171583D01*
X606262D01*
Y172526D01*
X605319Y173468D01*
X606968Y174647D02*
X606497D01*
X606026Y174175D01*
X606026Y173704D01*
X606968Y172762D01*
X607440D01*
X607911Y173233D01*
X607911Y173704D01*
X608382Y176060D02*
X607911D01*
X607440Y175589D01*
X607440Y175118D01*
X608382Y174175D01*
X608853D01*
X609325Y174647D01*
X609325Y175118D01*
X609325Y177474D02*
X608853Y177003D01*
Y176532D01*
X609796Y175589D01*
X610267D01*
X610739Y176060D01*
X610738Y176532D01*
X609796Y177474D01*
X609325D01*
X611445Y176767D02*
X611917Y177238D01*
X611681Y177003D01*
X610267Y178417D01*
X610267Y177945D01*
X612859Y177710D02*
X613802Y178652D01*
X613566Y181715D02*
X612624Y180773D01*
X613330Y180066D01*
X613802Y180537D01*
X613330Y180066D01*
X614037Y179359D01*
X615451Y180773D02*
X614037Y182187D01*
X614744Y182894D01*
X615215D01*
X615687Y182422D01*
Y181951D01*
X614980Y181244D01*
X616629Y184307D02*
X616158D01*
X615687Y183836D01*
Y183365D01*
X616629Y182422D01*
X617100D01*
X617572Y182894D01*
X617572Y183365D01*
X617100Y183836D01*
X616629Y183365D01*
X618279Y183600D02*
X617336Y184543D01*
Y185485D01*
X618279D01*
X619221Y184543D01*
X618514Y185250D01*
X617572Y184307D01*
X591604Y171782D02*
X591132D01*
X590661Y171311D01*
X590661Y170839D01*
X591604Y169897D01*
X592075D01*
X592546Y170368D01*
X592546Y170839D01*
X594196Y172018D02*
X593253Y171075D01*
Y172960D01*
X593017Y173196D01*
X592546D01*
X592075Y172724D01*
X592075Y172253D01*
X594903Y172253D02*
X595845Y173196D01*
X595845Y176023D02*
X595374D01*
X594903Y175552D01*
X594903Y175081D01*
X595845Y174138D01*
X596316D01*
X596788Y174609D01*
Y175081D01*
X597730D02*
X598672Y176023D01*
X597494Y178144D02*
X598437Y177201D01*
X599379D01*
Y178144D01*
X598437Y179086D01*
X600086Y180264D02*
X599615D01*
X599144Y179793D01*
X599144Y179322D01*
X600086Y178379D01*
X600558D01*
X601029Y178851D01*
Y179322D01*
X601500Y181678D02*
X601029D01*
X600558Y181207D01*
Y180736D01*
X601500Y179793D01*
X601971D01*
X602443Y180264D01*
X602443Y180736D01*
X602443Y183092D02*
X601971Y182621D01*
X601971Y182149D01*
X602914Y181207D01*
X603385D01*
X603856Y181678D01*
X603856Y182149D01*
X602914Y183092D01*
X602443D01*
X604563Y182385D02*
X605034Y182856D01*
X604799Y182621D01*
X603385Y184034D01*
X603385Y183563D01*
X605977Y183327D02*
X606919Y184270D01*
X606684Y187333D02*
X605741Y186391D01*
X606448Y185684D01*
X606919Y186155D01*
X606448Y185684D01*
X607155Y184977D01*
X608569Y186391D02*
X607155Y187804D01*
X607862Y188511D01*
X608333D01*
X608804Y188040D01*
Y187569D01*
X608098Y186862D01*
X609747Y189925D02*
X609276D01*
X608804Y189454D01*
Y188982D01*
X609747Y188040D01*
X610218D01*
X610689Y188511D01*
X610689Y188982D01*
X610218Y189454D01*
X609747Y188982D01*
X611396Y189218D02*
X610454Y190161D01*
Y191103D01*
X611396D01*
X612339Y190161D01*
X611632Y190867D01*
X610689Y189925D01*
X586604Y178782D02*
X586132D01*
X585661Y178311D01*
X585661Y177839D01*
X586604Y176897D01*
X587075D01*
X587546Y177368D01*
X587546Y177839D01*
X587075Y179253D02*
X587075Y179724D01*
X587546Y180196D01*
X588018D01*
X588253Y179960D01*
Y179489D01*
X588018Y179253D01*
X588253Y179489D01*
X588724D01*
X588960Y179253D01*
Y178782D01*
X588489Y178311D01*
X588018D01*
X589902Y179253D02*
X590845Y180196D01*
X590845Y183023D02*
X590374D01*
X589902Y182552D01*
X589902Y182081D01*
X590845Y181138D01*
X591316D01*
X591787Y181609D01*
Y182081D01*
X592730D02*
X593673Y183023D01*
X592494Y185144D02*
X593437Y184201D01*
X594379D01*
Y185144D01*
X593437Y186086D01*
X595086Y187264D02*
X594615D01*
X594144Y186793D01*
X594144Y186322D01*
X595086Y185379D01*
X595557D01*
X596029Y185851D01*
Y186322D01*
X596500Y188678D02*
X596029D01*
X595557Y188207D01*
Y187736D01*
X596500Y186793D01*
X596971D01*
X597442Y187264D01*
X597442Y187736D01*
X597442Y190092D02*
X596971Y189621D01*
X596971Y189149D01*
X597914Y188207D01*
X598385D01*
X598856Y188678D01*
X598856Y189149D01*
X597914Y190092D01*
X597442D01*
X599563Y189385D02*
X600034Y189856D01*
X599799Y189621D01*
X598385Y191034D01*
X598385Y190563D01*
X600977Y190328D02*
X601919Y191270D01*
X601684Y194333D02*
X600741Y193391D01*
X601448Y192684D01*
X601919Y193155D01*
X601448Y192684D01*
X602155Y191977D01*
X603569Y193391D02*
X602155Y194804D01*
X602862Y195511D01*
X603333D01*
X603804Y195040D01*
Y194569D01*
X603097Y193862D01*
X604747Y196925D02*
X604276D01*
X603804Y196454D01*
Y195983D01*
X604747Y195040D01*
X605218D01*
X605689Y195511D01*
X605689Y195983D01*
X605218Y196454D01*
X604747Y195983D01*
X606396Y196218D02*
X605454Y197161D01*
Y198103D01*
X606396D01*
X607339Y197161D01*
X606632Y197868D01*
X605689Y196925D01*
X408000Y273350D02*
Y274350D01*
X408500Y274850D01*
X409000Y274350D01*
Y273350D01*
Y274100D01*
X408000D01*
X408000Y268350D02*
Y266850D01*
X408750D01*
X409000Y267100D01*
Y268100D01*
X408750Y268350D01*
X408000D01*
X401850Y278712D02*
X400351D01*
X401100Y277962D01*
Y278962D01*
X406575Y277962D02*
Y278462D01*
Y278212D01*
X405076D01*
X405325Y277962D01*
D15*
X264800Y291598D02*
X266799D01*
X265800D01*
Y285600D01*
X264800D01*
X266799D01*
X273797Y291598D02*
X269798D01*
Y288599D01*
X271798D01*
X269798D01*
Y285600D01*
X275796D02*
Y289599D01*
X277796Y291598D01*
X279795Y289599D01*
Y285600D01*
Y288599D01*
X275796D01*
X281795Y291598D02*
X285793D01*
X283794D01*
Y285600D01*
X291791Y291598D02*
X289792Y290598D01*
X287793Y288599D01*
Y286600D01*
X288792Y285600D01*
X290792D01*
X291791Y286600D01*
Y287599D01*
X290792Y288599D01*
X287793D01*
X640932Y80098D02*
X639266D01*
X640099D01*
Y75933D01*
X639266Y75100D01*
X638433D01*
X637600Y75933D01*
X642598Y75100D02*
X644265D01*
X643431D01*
Y80098D01*
X642598Y79265D01*
X459832Y80098D02*
X458166D01*
X458999D01*
Y75933D01*
X458166Y75100D01*
X457333D01*
X456500Y75933D01*
X464831Y75100D02*
X461498D01*
X464831Y78432D01*
Y79265D01*
X463998Y80098D01*
X462331D01*
X461498Y79265D01*
X640928Y371379D02*
X639262D01*
X640095D01*
Y367214D01*
X639262Y366381D01*
X638429D01*
X637596Y367214D01*
X642594Y370546D02*
X643428Y371379D01*
X645094D01*
X645927Y370546D01*
Y369713D01*
X645094Y368880D01*
X644261D01*
X645094D01*
X645927Y368047D01*
Y367214D01*
X645094Y366381D01*
X643428D01*
X642594Y367214D01*
X460167Y371499D02*
X458501D01*
X459334D01*
Y367334D01*
X458501Y366501D01*
X457668D01*
X456835Y367334D01*
X464332Y366501D02*
Y371499D01*
X461833Y369000D01*
X465165D01*
X526300Y309700D02*
Y314698D01*
X527966Y313032D01*
X529632Y314698D01*
Y309700D01*
X534631Y313865D02*
X533798Y314698D01*
X532131D01*
X531298Y313865D01*
Y310533D01*
X532131Y309700D01*
X533798D01*
X534631Y310533D01*
X539629Y309700D02*
X536297D01*
X539629Y313032D01*
Y313865D01*
X538796Y314698D01*
X537130D01*
X536297Y313865D01*
X526300Y152200D02*
Y157198D01*
X527966Y155532D01*
X529632Y157198D01*
Y152200D01*
X534631Y156365D02*
X533798Y157198D01*
X532131D01*
X531298Y156365D01*
Y153033D01*
X532131Y152200D01*
X533798D01*
X534631Y153033D01*
X536297Y152200D02*
X537963D01*
X537130D01*
Y157198D01*
X536297Y156365D01*
D16*
X412622Y332666D02*
Y330667D01*
Y331667D01*
X413955D01*
Y332666D01*
Y330667D01*
X414621Y330334D02*
X415954D01*
X416621Y330667D02*
Y332666D01*
X417620D01*
X417954Y332333D01*
Y331667D01*
X417620Y331333D01*
X416621D01*
X418620Y332666D02*
Y330667D01*
X419286Y331333D01*
X419953Y330667D01*
Y332666D01*
X420619Y330667D02*
Y332666D01*
X421619D01*
X421952Y332333D01*
Y331667D01*
X421619Y331333D01*
X420619D01*
X421286D02*
X421952Y330667D01*
X422619Y330334D02*
X423952D01*
X424618Y332666D02*
Y330667D01*
X425618D01*
X425951Y331000D01*
Y332333D01*
X425618Y332666D01*
X424618D01*
X426617Y330667D02*
Y332000D01*
X427284Y332666D01*
X427950Y332000D01*
Y330667D01*
Y331667D01*
X426617D01*
X429950Y332333D02*
X429616Y332666D01*
X428950D01*
X428617Y332333D01*
Y331000D01*
X428950Y330667D01*
X429616D01*
X429950Y331000D01*
X430616Y330667D02*
X431283D01*
X430949D01*
Y332666D01*
X430616Y332333D01*
X184669Y242295D02*
X182669D01*
X183669D01*
Y240962D01*
X184669D01*
X182669D01*
X182336Y240295D02*
Y238962D01*
X184669Y238296D02*
X182669D01*
X183335Y237629D01*
X182669Y236963D01*
X184669D01*
Y236297D02*
Y235630D01*
Y235963D01*
X182669D01*
Y236297D01*
Y235630D01*
X184669Y234630D02*
X182669D01*
Y233631D01*
X183002Y233297D01*
X184335D01*
X184669Y233631D01*
Y234630D01*
Y232631D02*
Y231298D01*
Y231965D01*
X182669D01*
X184669Y230632D02*
X182669D01*
X183669D01*
Y229299D01*
X184669D01*
X182669D01*
X182336Y228632D02*
Y227299D01*
X184669Y226633D02*
X182669D01*
Y225633D01*
X183002Y225300D01*
X183335D01*
X183669Y225633D01*
Y226633D01*
Y225633D01*
X184002Y225300D01*
X184335D01*
X184669Y225633D01*
Y226633D01*
Y224634D02*
Y223967D01*
Y224300D01*
X182669D01*
Y224634D01*
Y223967D01*
Y222968D02*
X184002D01*
X184669Y222301D01*
X184002Y221635D01*
X182669D01*
X183669D01*
Y222968D01*
X184335Y219635D02*
X184669Y219969D01*
Y220635D01*
X184335Y220968D01*
X184002D01*
X183669Y220635D01*
Y219969D01*
X183335Y219635D01*
X183002D01*
X182669Y219969D01*
Y220635D01*
X183002Y220968D01*
X184669Y194462D02*
X182669D01*
X183669D01*
Y193129D01*
X184669D01*
X182669D01*
X182336Y192462D02*
Y191129D01*
X184669Y190463D02*
X183335D01*
X182669Y189796D01*
X183335Y189130D01*
X184669D01*
Y188463D02*
X182669D01*
X183335Y187797D01*
X182669Y187130D01*
X184669D01*
Y186464D02*
Y185798D01*
Y186131D01*
X182669D01*
Y186464D01*
Y185798D01*
X184669Y184798D02*
X182669D01*
Y183798D01*
X183002Y183465D01*
X184335D01*
X184669Y183798D01*
Y184798D01*
Y182799D02*
Y181466D01*
Y182132D01*
X182669D01*
X184669Y180799D02*
X182669D01*
X183669D01*
Y179466D01*
X184669D01*
X182669D01*
X182336Y178800D02*
Y177467D01*
X184669Y176801D02*
X182669D01*
Y175468D01*
X184669Y173802D02*
Y174468D01*
X184335Y174801D01*
X183002D01*
X182669Y174468D01*
Y173802D01*
X183002Y173468D01*
X184335D01*
X184669Y173802D01*
Y171128D02*
X182669D01*
X183669D01*
Y169795D01*
X184669D01*
X182669D01*
X182336Y169129D02*
Y167796D01*
X184669Y167130D02*
X183335D01*
X182669Y166463D01*
X183335Y165797D01*
X184669D01*
Y165130D02*
X182669D01*
X183335Y164464D01*
X182669Y163797D01*
X184669D01*
Y163131D02*
Y162464D01*
Y162798D01*
X182669D01*
Y163131D01*
Y162464D01*
X184669Y161465D02*
X182669D01*
Y160465D01*
X183002Y160132D01*
X184335D01*
X184669Y160465D01*
Y161465D01*
Y159465D02*
Y158133D01*
Y158799D01*
X182669D01*
X184669Y157466D02*
X182669D01*
X183669D01*
Y156133D01*
X184669D01*
X182669D01*
X182336Y155467D02*
Y154134D01*
X184669Y153467D02*
X182669D01*
X183669D01*
Y152134D01*
X184669D01*
X182669D01*
X184669Y151468D02*
Y150802D01*
Y151135D01*
X182669D01*
Y151468D01*
Y150802D01*
X222446Y318581D02*
X220446D01*
X221446D01*
Y317248D01*
X222446D01*
X220446D01*
X220113Y316582D02*
Y315249D01*
X222446Y314583D02*
X221113D01*
X220446Y313916D01*
X221113Y313250D01*
X222446D01*
Y312583D02*
Y311250D01*
Y311917D01*
X220446D01*
X222446Y310584D02*
X220446D01*
X221446D01*
Y309251D01*
X222446D01*
X220446D01*
Y308585D02*
X222446D01*
Y307585D01*
X222112Y307252D01*
X221446D01*
X221113Y307585D01*
Y308585D01*
Y307918D02*
X220446Y307252D01*
X222446Y305252D02*
Y306585D01*
X220446D01*
Y305252D01*
X221446Y306585D02*
Y305919D01*
X222112Y303253D02*
X222446Y303586D01*
Y304253D01*
X222112Y304586D01*
X221779D01*
X221446Y304253D01*
Y303586D01*
X221113Y303253D01*
X220780D01*
X220446Y303586D01*
Y304253D01*
X220780Y304586D01*
X222446Y302587D02*
X220446D01*
X221446D01*
Y301254D01*
X222446D01*
X220446D01*
X208836Y118503D02*
Y116504D01*
Y117503D01*
X210168D01*
Y118503D01*
Y116504D01*
X210835Y116170D02*
X212168D01*
X212834Y118503D02*
Y117170D01*
X213501Y116504D01*
X214167Y117170D01*
Y118503D01*
X214834D02*
X216166D01*
X215500D01*
Y116504D01*
X216833D02*
Y117836D01*
X217499Y118503D01*
X218166Y117836D01*
Y116504D01*
Y117503D01*
X216833D01*
X218832Y118503D02*
Y116837D01*
X219165Y116504D01*
X219832D01*
X220165Y116837D01*
Y118503D01*
X220832Y118170D02*
X221165Y118503D01*
X221831D01*
X222165Y118170D01*
Y117836D01*
X221831Y117503D01*
X221498D01*
X221831D01*
X222165Y117170D01*
Y116837D01*
X221831Y116504D01*
X221165D01*
X220832Y116837D01*
X232836Y118503D02*
Y116504D01*
Y117503D01*
X234168D01*
Y118503D01*
Y116504D01*
X234835Y116170D02*
X236168D01*
X236834Y118503D02*
Y117170D01*
X237501Y116504D01*
X238167Y117170D01*
Y118503D01*
X238834D02*
X240166D01*
X239500D01*
Y116504D01*
X240833D02*
Y117836D01*
X241499Y118503D01*
X242166Y117836D01*
Y116504D01*
Y117503D01*
X240833D01*
X242832Y118503D02*
Y116837D01*
X243165Y116504D01*
X243832D01*
X244165Y116837D01*
Y118503D01*
X246164Y116504D02*
X244832D01*
X246164Y117836D01*
Y118170D01*
X245831Y118503D01*
X245165D01*
X244832Y118170D01*
X255169Y118503D02*
Y116504D01*
Y117503D01*
X256502D01*
Y118503D01*
Y116504D01*
X257168Y116170D02*
X258501D01*
X259168Y118503D02*
Y117170D01*
X259834Y116504D01*
X260500Y117170D01*
Y118503D01*
X261167D02*
X262500D01*
X261833D01*
Y116504D01*
X263166D02*
Y117836D01*
X263833Y118503D01*
X264499Y117836D01*
Y116504D01*
Y117503D01*
X263166D01*
X265165Y118503D02*
Y116837D01*
X265499Y116504D01*
X266165D01*
X266498Y116837D01*
Y118503D01*
X267165Y116504D02*
X267831D01*
X267498D01*
Y118503D01*
X267165Y118170D01*
X278836Y118503D02*
Y116504D01*
Y117503D01*
X280168D01*
Y118503D01*
Y116504D01*
X280835Y116170D02*
X282168D01*
X282834Y118503D02*
Y117170D01*
X283501Y116504D01*
X284167Y117170D01*
Y118503D01*
X284834D02*
X286167D01*
X285500D01*
Y116504D01*
X286833D02*
Y117836D01*
X287499Y118503D01*
X288166Y117836D01*
Y116504D01*
Y117503D01*
X286833D01*
X288832Y118503D02*
Y116837D01*
X289165Y116504D01*
X289832D01*
X290165Y116837D01*
Y118503D01*
X290832Y118170D02*
X291165Y118503D01*
X291831D01*
X292164Y118170D01*
Y116837D01*
X291831Y116504D01*
X291165D01*
X290832Y116837D01*
Y118170D01*
X184836Y118503D02*
Y116504D01*
Y117503D01*
X186169D01*
Y118503D01*
Y116504D01*
X186836Y116170D02*
X188168D01*
X188835Y118503D02*
Y117170D01*
X189501Y116504D01*
X190168Y117170D01*
Y118503D01*
X192167Y118170D02*
X191834Y118503D01*
X191167D01*
X190834Y118170D01*
Y117836D01*
X191167Y117503D01*
X191834D01*
X192167Y117170D01*
Y116837D01*
X191834Y116504D01*
X191167D01*
X190834Y116837D01*
X194167Y118170D02*
X193833Y118503D01*
X193167D01*
X192834Y118170D01*
Y117836D01*
X193167Y117503D01*
X193833D01*
X194167Y117170D01*
Y116837D01*
X193833Y116504D01*
X193167D01*
X192834Y116837D01*
X194833Y116170D02*
X196166D01*
X198165Y118170D02*
X197832Y118503D01*
X197166D01*
X196832Y118170D01*
Y117836D01*
X197166Y117503D01*
X197832D01*
X198165Y117170D01*
Y116837D01*
X197832Y116504D01*
X197166D01*
X196832Y116837D01*
X198832Y118503D02*
Y118170D01*
X199498Y117503D01*
X200165Y118170D01*
Y118503D01*
X199498Y117503D02*
Y116504D01*
X200831D02*
Y118503D01*
X202164Y116504D01*
Y118503D01*
X44003D02*
Y116504D01*
Y117503D01*
X45335D01*
Y118503D01*
Y116504D01*
X46002Y116170D02*
X47335D01*
X48001Y118503D02*
Y117170D01*
X48668Y116504D01*
X49334Y117170D01*
Y118503D01*
X51333Y118170D02*
X51000Y118503D01*
X50334D01*
X50001Y118170D01*
Y117836D01*
X50334Y117503D01*
X51000D01*
X51333Y117170D01*
Y116837D01*
X51000Y116504D01*
X50334D01*
X50001Y116837D01*
X52000Y116504D02*
Y118503D01*
X53000D01*
X53333Y118170D01*
Y117503D01*
X53000Y117170D01*
X52000D01*
X53999Y118503D02*
X54666D01*
X54332D01*
Y116504D01*
X53999D01*
X54666D01*
X55665Y118503D02*
Y116504D01*
Y117170D01*
X56998Y118503D01*
X55999Y117503D01*
X56998Y116504D01*
X58998Y118503D02*
X57665D01*
Y116504D01*
X58998D01*
X57665Y117503D02*
X58331D01*
X222446Y294582D02*
X220446D01*
X221446D01*
Y293249D01*
X222446D01*
X220446D01*
X220113Y292582D02*
Y291249D01*
X222446Y290583D02*
X221113D01*
X220446Y289916D01*
X221113Y289250D01*
X222446D01*
X220446Y288584D02*
X222446D01*
Y287584D01*
X222112Y287251D01*
X221446D01*
X221113Y287584D01*
Y288584D01*
Y287917D02*
X220446Y287251D01*
X222446Y285251D02*
Y286584D01*
X220446D01*
Y285251D01*
X221446Y286584D02*
Y285918D01*
X222112Y283252D02*
X222446Y283585D01*
Y284252D01*
X222112Y284585D01*
X221779D01*
X221446Y284252D01*
Y283585D01*
X221113Y283252D01*
X220780D01*
X220446Y283585D01*
Y284252D01*
X220780Y284585D01*
X222446Y281253D02*
Y282586D01*
X220446D01*
Y281253D01*
X221446Y282586D02*
Y281919D01*
X222446Y280586D02*
Y279253D01*
Y279920D01*
X220446D01*
X122336Y328666D02*
Y326667D01*
Y327667D01*
X123669D01*
Y328666D01*
Y326667D01*
X124335Y326334D02*
X125668D01*
X126335Y328666D02*
Y327333D01*
X127001Y326667D01*
X127667Y327333D01*
Y328666D01*
X128334Y326667D02*
Y328666D01*
X129334D01*
X129667Y328333D01*
Y327667D01*
X129334Y327333D01*
X128334D01*
X129000D02*
X129667Y326667D01*
X131666Y328666D02*
X130333D01*
Y326667D01*
X131666D01*
X130333Y327667D02*
X131000D01*
X133666Y328666D02*
X132333D01*
Y327667D01*
X132999D01*
X132333D01*
Y326667D01*
X134332Y326334D02*
X135665D01*
X137664Y326667D02*
X136331D01*
X137664Y328000D01*
Y328333D01*
X137331Y328666D01*
X136664D01*
X136331Y328333D01*
X55170Y328666D02*
Y326667D01*
Y327667D01*
X56503D01*
Y328666D01*
Y326667D01*
X57169Y326334D02*
X58502D01*
X59168Y328666D02*
Y327333D01*
X59835Y326667D01*
X60501Y327333D01*
Y328666D01*
X61168Y326667D02*
Y328666D01*
X62167D01*
X62501Y328333D01*
Y327667D01*
X62167Y327333D01*
X61168D01*
X61834D02*
X62501Y326667D01*
X64500Y328666D02*
X63167D01*
Y326667D01*
X64500D01*
X63167Y327667D02*
X63834D01*
X66499Y328666D02*
X65166D01*
Y327667D01*
X65833D01*
X65166D01*
Y326667D01*
X67166Y326334D02*
X68499D01*
X69165Y326667D02*
X69832D01*
X69498D01*
Y328666D01*
X69165Y328333D01*
X70831Y326667D02*
Y327000D01*
X71165D01*
Y326667D01*
X70831D01*
X72497Y328333D02*
X72831Y328666D01*
X73497D01*
X73830Y328333D01*
Y328000D01*
X73497Y327667D01*
X73830Y327333D01*
Y327000D01*
X73497Y326667D01*
X72831D01*
X72497Y327000D01*
Y327333D01*
X72831Y327667D01*
X72497Y328000D01*
Y328333D01*
X72831Y327667D02*
X73497D01*
X184669Y284629D02*
X182669D01*
X183669D01*
Y283296D01*
X184669D01*
X182669D01*
X182336Y282629D02*
Y281296D01*
X184669Y280630D02*
X183335D01*
X182669Y279964D01*
X183335Y279297D01*
X184669D01*
X182003Y278631D02*
X184002D01*
Y277631D01*
X183669Y277298D01*
X183002D01*
X182669Y277631D01*
Y278631D01*
X184002Y276631D02*
X183002D01*
X182669Y276298D01*
Y275299D01*
X184002D01*
X182003Y274632D02*
X184002D01*
Y273632D01*
X183669Y273299D01*
X183002D01*
X182669Y273632D01*
Y274632D01*
Y272633D02*
X184669D01*
Y271633D01*
X184335Y271300D01*
X183669D01*
X183335Y271633D01*
Y272633D01*
Y271966D02*
X182669Y271300D01*
Y269634D02*
Y270300D01*
X183002Y270633D01*
X183669D01*
X184002Y270300D01*
Y269634D01*
X183669Y269300D01*
X183335D01*
Y270633D01*
X182003Y267301D02*
X184002D01*
Y268301D01*
X183669Y268634D01*
X183002D01*
X182669Y268301D01*
Y267301D01*
X184669Y308628D02*
X182669D01*
X183669D01*
Y307295D01*
X184669D01*
X182669D01*
X182336Y306629D02*
Y305296D01*
X184669Y304630D02*
X183335D01*
X182669Y303963D01*
X183335Y303297D01*
X184669D01*
X182003Y302630D02*
X184002D01*
Y301631D01*
X183669Y301297D01*
X183002D01*
X182669Y301631D01*
Y302630D01*
X184002Y300631D02*
X183002D01*
X182669Y300298D01*
Y299298D01*
X184002D01*
X182003Y298632D02*
X184002D01*
Y297632D01*
X183669Y297299D01*
X183002D01*
X182669Y297632D01*
Y298632D01*
X182336Y296632D02*
Y295299D01*
X184002Y294300D02*
Y293633D01*
X183669Y293300D01*
X182669D01*
Y294300D01*
X183002Y294633D01*
X183335Y294300D01*
Y293300D01*
X184002Y292634D02*
X182669D01*
X183335D01*
X183669Y292300D01*
X184002Y291967D01*
Y291634D01*
X184669Y290634D02*
X182669D01*
Y289635D01*
X183002Y289301D01*
X183335D01*
X183669D01*
X184002Y289635D01*
Y290634D01*
X222446Y246582D02*
X220446D01*
X221446D01*
Y245249D01*
X222446D01*
X220446D01*
X220113Y244583D02*
Y243250D01*
X222446Y242584D02*
X221113D01*
X220446Y241917D01*
X221113Y241251D01*
X222446D01*
X220446Y240584D02*
X222446D01*
Y239585D01*
X222112Y239251D01*
X221446D01*
X221113Y239585D01*
Y240584D01*
X222446Y238585D02*
X220446D01*
Y237585D01*
X220780Y237252D01*
X222112D01*
X222446Y237585D01*
Y238585D01*
X220446Y236585D02*
X222446D01*
X220446Y235253D01*
X222446D01*
X423503Y200166D02*
Y198167D01*
Y199167D01*
X424836D01*
Y200166D01*
Y198167D01*
X425503Y197834D02*
X426836D01*
X427502Y200166D02*
Y198833D01*
X428169Y198167D01*
X428835Y198833D01*
Y200166D01*
X429501Y198167D02*
Y200166D01*
X430168Y199500D01*
X430834Y200166D01*
Y198167D01*
X431501Y197834D02*
X432834D01*
X433500Y200166D02*
Y198167D01*
X434500D01*
X434833Y198500D01*
Y199833D01*
X434500Y200166D01*
X433500D01*
X435499D02*
X436166D01*
X435833D01*
Y198167D01*
X435499D01*
X436166D01*
X438498Y199833D02*
X438165Y200166D01*
X437499D01*
X437166Y199833D01*
Y199500D01*
X437499Y199167D01*
X438165D01*
X438498Y198833D01*
Y198500D01*
X438165Y198167D01*
X437499D01*
X437166Y198500D01*
X439165Y200166D02*
X440498D01*
X439831D01*
Y198167D01*
X441164D02*
Y199500D01*
X441831Y200166D01*
X442497Y199500D01*
Y198167D01*
Y199167D01*
X441164D01*
X443164Y200166D02*
Y198167D01*
X444497D01*
X424161Y151666D02*
Y149667D01*
Y150667D01*
X425494D01*
Y151666D01*
Y149667D01*
X426160Y149334D02*
X427493D01*
X428160Y151666D02*
Y150333D01*
X428826Y149667D01*
X429492Y150333D01*
Y151666D01*
X430159Y149334D02*
X431492D01*
X432158Y151666D02*
Y150000D01*
X432491Y149667D01*
X433158D01*
X433491Y150000D01*
Y151666D01*
X435490Y149667D02*
X434158D01*
X435490Y151000D01*
Y151333D01*
X435157Y151666D01*
X434491D01*
X434158Y151333D01*
X184669Y217128D02*
X182669D01*
X183669D01*
Y215795D01*
X184669D01*
X182669D01*
X182336Y215129D02*
Y213796D01*
X184669Y213130D02*
X183335D01*
X182669Y212463D01*
X183335Y211797D01*
X184669D01*
Y211130D02*
Y210464D01*
Y210797D01*
X182669D01*
Y211130D01*
Y210464D01*
Y209464D02*
X184669D01*
X182669Y208131D01*
X184669D01*
X182336Y207465D02*
Y206132D01*
X184669Y205465D02*
Y204799D01*
Y205132D01*
X182669D01*
Y205465D01*
Y204799D01*
X184669Y203799D02*
X182669D01*
Y202800D01*
X183002Y202466D01*
X183335D01*
X183669Y202800D01*
Y203799D01*
Y202800D01*
X184002Y202466D01*
X184335D01*
X184669Y202800D01*
Y203799D01*
Y201800D02*
Y201133D01*
Y201467D01*
X182669D01*
Y201800D01*
Y201133D01*
Y200134D02*
X184002D01*
X184669Y199467D01*
X184002Y198801D01*
X182669D01*
X183669D01*
Y200134D01*
X184335Y196801D02*
X184669Y197135D01*
Y197801D01*
X184335Y198134D01*
X184002D01*
X183669Y197801D01*
Y197135D01*
X183335Y196801D01*
X183002D01*
X182669Y197135D01*
Y197801D01*
X183002Y198134D01*
X301835Y118503D02*
Y116504D01*
Y117503D01*
X303168D01*
Y118503D01*
Y116504D01*
X303835Y116170D02*
X305168D01*
X305834Y118503D02*
Y117170D01*
X306500Y116504D01*
X307167Y117170D01*
Y118503D01*
X309166D02*
X307833D01*
Y116504D01*
X309166D01*
X307833Y117503D02*
X308500D01*
X311165Y118503D02*
X309833D01*
Y117503D01*
X310499D01*
X309833D01*
Y116504D01*
X311832D02*
Y118503D01*
X312832D01*
X313165Y118170D01*
Y117503D01*
X312832Y117170D01*
X311832D01*
X312498D02*
X313165Y116504D01*
X336003Y383166D02*
Y381167D01*
Y382167D01*
X337336D01*
Y383166D01*
Y381167D01*
X338002Y380834D02*
X339335D01*
X340002Y383166D02*
Y381833D01*
X340668Y381167D01*
X341334Y381833D01*
Y383166D01*
X342001D02*
Y381167D01*
X343001D01*
X343334Y381500D01*
Y382833D01*
X343001Y383166D01*
X342001D01*
X344000D02*
Y381167D01*
X345000D01*
X345333Y381500D01*
Y382833D01*
X345000Y383166D01*
X344000D01*
X346000Y380834D02*
X347332D01*
X347999Y382833D02*
X348332Y383166D01*
X348998D01*
X349332Y382833D01*
Y382500D01*
X348998Y382167D01*
X348665D01*
X348998D01*
X349332Y381833D01*
Y381500D01*
X348998Y381167D01*
X348332D01*
X347999Y381500D01*
X349998Y381167D02*
Y381500D01*
X350331D01*
Y381167D01*
X349998D01*
X351664Y382833D02*
X351998Y383166D01*
X352664D01*
X352997Y382833D01*
Y382500D01*
X352664Y382167D01*
X352331D01*
X352664D01*
X352997Y381833D01*
Y381500D01*
X352664Y381167D01*
X351998D01*
X351664Y381500D01*
X277169Y383166D02*
Y381167D01*
Y382167D01*
X278502D01*
Y383166D01*
Y381167D01*
X279169Y380834D02*
X280502D01*
X281168Y383166D02*
Y381833D01*
X281835Y381167D01*
X282501Y381833D01*
Y383166D01*
X283167D02*
Y381167D01*
X284167D01*
X284500Y381500D01*
Y382833D01*
X284167Y383166D01*
X283167D01*
X285167D02*
Y381167D01*
X286166D01*
X286500Y381500D01*
Y382833D01*
X286166Y383166D01*
X285167D01*
X287166Y380834D02*
X288499D01*
X289165Y381167D02*
X289832D01*
X289499D01*
Y383166D01*
X289165Y382833D01*
X290832Y381167D02*
Y381500D01*
X291165D01*
Y381167D01*
X290832D01*
X293831D02*
X292498D01*
X293831Y382500D01*
Y382833D01*
X293497Y383166D01*
X292831D01*
X292498Y382833D01*
X184669Y257630D02*
X182669D01*
X183669D01*
Y256297D01*
X184669D01*
X182669D01*
X182336Y255631D02*
Y254298D01*
X184669Y253631D02*
X183335D01*
X182669Y252965D01*
X183335Y252298D01*
X184669D01*
Y251632D02*
X182669D01*
Y250632D01*
X183002Y250299D01*
X183335D01*
X183669Y250632D01*
Y251632D01*
Y250632D01*
X184002Y250299D01*
X184335D01*
X184669Y250632D01*
Y251632D01*
X182669Y249633D02*
X184669D01*
Y248633D01*
X184335Y248300D01*
X183669D01*
X183335Y248633D01*
Y249633D01*
X222446Y270415D02*
X220446D01*
X221446D01*
Y269082D01*
X222446D01*
X220446D01*
X220113Y268416D02*
Y267083D01*
X222446Y266417D02*
X221113D01*
X220446Y265750D01*
X221113Y265084D01*
X222446D01*
Y264417D02*
X220446D01*
Y263418D01*
X220780Y263084D01*
X221113D01*
X221446Y263418D01*
Y264417D01*
Y263418D01*
X221779Y263084D01*
X222112D01*
X222446Y263418D01*
Y264417D01*
Y262418D02*
Y261752D01*
Y262085D01*
X220446D01*
Y262418D01*
Y261752D01*
Y260752D02*
X221779D01*
X222446Y260085D01*
X221779Y259419D01*
X220446D01*
X221446D01*
Y260752D01*
X222112Y257420D02*
X222446Y257753D01*
Y258419D01*
X222112Y258752D01*
X221779D01*
X221446Y258419D01*
Y257753D01*
X221113Y257420D01*
X220780D01*
X220446Y257753D01*
Y258419D01*
X220780Y258752D01*
X114003Y118503D02*
Y116504D01*
Y117503D01*
X115336D01*
Y118503D01*
Y116504D01*
X116003Y116170D02*
X117335D01*
X118002Y118503D02*
Y117170D01*
X118668Y116504D01*
X119335Y117170D01*
Y118503D01*
X120001D02*
Y116504D01*
X121001D01*
X121334Y116837D01*
Y117170D01*
X121001Y117503D01*
X120001D01*
X121001D01*
X121334Y117836D01*
Y118170D01*
X121001Y118503D01*
X120001D01*
X122001D02*
X122667D01*
X122334D01*
Y116504D01*
X122001D01*
X122667D01*
X123667D02*
Y117836D01*
X124333Y118503D01*
X124999Y117836D01*
Y116504D01*
Y117503D01*
X123667D01*
X126999Y118170D02*
X126666Y118503D01*
X125999D01*
X125666Y118170D01*
Y117836D01*
X125999Y117503D01*
X126666D01*
X126999Y117170D01*
Y116837D01*
X126666Y116504D01*
X125999D01*
X125666Y116837D01*
X127665Y116170D02*
X128998D01*
X130998Y118170D02*
X130664Y118503D01*
X129998D01*
X129665Y118170D01*
Y117836D01*
X129998Y117503D01*
X130664D01*
X130998Y117170D01*
Y116837D01*
X130664Y116504D01*
X129998D01*
X129665Y116837D01*
X132997Y118503D02*
X131664D01*
Y117503D01*
X132331D01*
X131664D01*
Y116504D01*
X89004Y118503D02*
Y116504D01*
Y117503D01*
X90337D01*
Y118503D01*
Y116504D01*
X91003Y116170D02*
X92336D01*
X93002Y118503D02*
Y117170D01*
X93669Y116504D01*
X94335Y117170D01*
Y118503D01*
X95002D02*
Y116504D01*
X96001D01*
X96335Y116837D01*
Y117170D01*
X96001Y117503D01*
X95002D01*
X96001D01*
X96335Y117836D01*
Y118170D01*
X96001Y118503D01*
X95002D01*
X97001D02*
X97668D01*
X97334D01*
Y116504D01*
X97001D01*
X97668D01*
X98667D02*
Y117836D01*
X99334Y118503D01*
X100000Y117836D01*
Y116504D01*
Y117503D01*
X98667D01*
X101999Y118170D02*
X101666Y118503D01*
X101000D01*
X100667Y118170D01*
Y117836D01*
X101000Y117503D01*
X101666D01*
X101999Y117170D01*
Y116837D01*
X101666Y116504D01*
X101000D01*
X100667Y116837D01*
X102666Y116170D02*
X103999D01*
X104665Y118503D02*
Y116504D01*
X105665D01*
X105998Y116837D01*
Y117170D01*
X105665Y117503D01*
X104665D01*
X105665D01*
X105998Y117836D01*
Y118170D01*
X105665Y118503D01*
X104665D01*
X106665D02*
Y116837D01*
X106998Y116504D01*
X107664D01*
X107998Y116837D01*
Y118503D01*
X109997D02*
X108664D01*
Y117503D01*
X109330D01*
X108664D01*
Y116504D01*
X111996Y118503D02*
X110663D01*
Y117503D01*
X111330D01*
X110663D01*
Y116504D01*
X160837Y118503D02*
Y116504D01*
Y117503D01*
X162169D01*
Y118503D01*
Y116504D01*
X162836Y116170D02*
X164169D01*
X164835Y118503D02*
Y117170D01*
X165502Y116504D01*
X166168Y117170D01*
Y118503D01*
X166834Y116504D02*
Y117836D01*
X167501Y118503D01*
X168167Y117836D01*
Y116504D01*
Y117503D01*
X166834D01*
X168834Y116504D02*
Y118503D01*
X169500Y117836D01*
X170167Y118503D01*
Y116504D01*
X170833D02*
Y118503D01*
X171833D01*
X172166Y118170D01*
Y117503D01*
X171833Y117170D01*
X170833D01*
X172833Y116170D02*
X174165D01*
X174832Y118503D02*
Y116504D01*
X176165D01*
X177831Y118503D02*
X177164D01*
X176831Y118170D01*
Y116837D01*
X177164Y116504D01*
X177831D01*
X178164Y116837D01*
Y118170D01*
X177831Y118503D01*
X178831D02*
Y116504D01*
X179497Y117170D01*
X180164Y116504D01*
Y118503D01*
X136003D02*
Y116504D01*
Y117503D01*
X137336D01*
Y118503D01*
Y116504D01*
X138003Y116170D02*
X139336D01*
X140002Y118503D02*
Y117170D01*
X140669Y116504D01*
X141335Y117170D01*
Y118503D01*
X142001Y116504D02*
Y117836D01*
X142668Y118503D01*
X143334Y117836D01*
Y116504D01*
Y117503D01*
X142001D01*
X144001Y116504D02*
Y118503D01*
X144667Y117836D01*
X145334Y118503D01*
Y116504D01*
X146000D02*
Y118503D01*
X147000D01*
X147333Y118170D01*
Y117503D01*
X147000Y117170D01*
X146000D01*
X148000Y116170D02*
X149332D01*
X149999Y118503D02*
Y116504D01*
Y117503D01*
X151332D01*
Y118503D01*
Y116504D01*
X151998Y118503D02*
X152665D01*
X152331D01*
Y116504D01*
X151998D01*
X152665D01*
X154997Y118170D02*
X154664Y118503D01*
X153998D01*
X153664Y118170D01*
Y116837D01*
X153998Y116504D01*
X154664D01*
X154997Y116837D01*
Y117503D01*
X154331D01*
X155664Y118503D02*
Y116504D01*
Y117503D01*
X156997D01*
Y118503D01*
Y116504D01*
X392334Y147504D02*
X394333D01*
X393333D01*
Y148837D01*
X392334D01*
X394333D01*
X394666Y149503D02*
Y150836D01*
X392334Y151503D02*
X393667D01*
X394333Y152169D01*
X393667Y152836D01*
X392334D01*
X394333Y153502D02*
X392334D01*
X393000Y154169D01*
X392334Y154835D01*
X394333D01*
X394666Y155501D02*
Y156834D01*
X394333Y157501D02*
X392334D01*
Y158501D01*
X392667Y158834D01*
X393333D01*
X393667Y158501D01*
Y157501D01*
X394333Y159500D02*
X392334D01*
Y160500D01*
X392667Y160833D01*
X393333D01*
X393667Y160500D01*
Y159500D01*
Y160167D02*
X394333Y160833D01*
X392334Y162499D02*
Y161833D01*
X392667Y161500D01*
X394000D01*
X394333Y161833D01*
Y162499D01*
X394000Y162832D01*
X392667D01*
X392334Y162499D01*
Y163499D02*
X394333Y164832D01*
X392334D02*
X394333Y163499D01*
X392334Y165498D02*
Y166165D01*
Y165831D01*
X394333D01*
Y165498D01*
Y166165D01*
Y167164D02*
X392334D01*
X393000Y167831D01*
X392334Y168497D01*
X394333D01*
Y169164D02*
X393000D01*
X392334Y169830D01*
X393000Y170497D01*
X394333D01*
X393333D01*
Y169164D01*
X392334Y171163D02*
X394333D01*
Y172496D01*
X392334Y181335D02*
X394333D01*
X393333D01*
Y182668D01*
X392334D01*
X394333D01*
X394666Y183335D02*
Y184667D01*
X392334Y185334D02*
X393667D01*
X394333Y186000D01*
X393667Y186667D01*
X392334D01*
X394666Y187333D02*
Y188666D01*
X392334Y189333D02*
X394000D01*
X394333Y189666D01*
Y190332D01*
X394000Y190665D01*
X392334D01*
X392667Y191332D02*
X392334Y191665D01*
Y192332D01*
X392667Y192665D01*
X393000D01*
X393333Y192332D01*
Y191998D01*
Y192332D01*
X393667Y192665D01*
X394000D01*
X394333Y192332D01*
Y191665D01*
X394000Y191332D01*
X409835Y200166D02*
Y198167D01*
Y199167D01*
X411168D01*
Y200166D01*
Y198167D01*
X411834Y197834D02*
X413167D01*
X413834Y200166D02*
Y198833D01*
X414500Y198167D01*
X415167Y198833D01*
Y200166D01*
X415833Y197834D02*
X417166D01*
X417833Y200166D02*
Y198500D01*
X418166Y198167D01*
X418832D01*
X419166Y198500D01*
Y200166D01*
X419832Y199833D02*
X420165Y200166D01*
X420832D01*
X421165Y199833D01*
Y198500D01*
X420832Y198167D01*
X420165D01*
X419832Y198500D01*
Y199833D01*
X409835Y151666D02*
Y149667D01*
Y150667D01*
X411168D01*
Y151666D01*
Y149667D01*
X411834Y149334D02*
X413167D01*
X413834Y151666D02*
Y150333D01*
X414500Y149667D01*
X415167Y150333D01*
Y151666D01*
X415833Y149334D02*
X417166D01*
X417833Y151666D02*
Y150000D01*
X418166Y149667D01*
X418832D01*
X419166Y150000D01*
Y151666D01*
X419832Y149667D02*
X420498D01*
X420165D01*
Y151666D01*
X419832Y151333D01*
X61004Y118503D02*
Y116504D01*
Y117503D01*
X62337D01*
Y118503D01*
Y116504D01*
X63003Y116170D02*
X64336D01*
X66336Y118170D02*
X66003Y118503D01*
X65336D01*
X65003Y118170D01*
Y117836D01*
X65336Y117503D01*
X66003D01*
X66336Y117170D01*
Y116837D01*
X66003Y116504D01*
X65336D01*
X65003Y116837D01*
X67002Y118503D02*
Y118170D01*
X67669Y117503D01*
X68335Y118170D01*
Y118503D01*
X67669Y117503D02*
Y116504D01*
X69002D02*
Y118503D01*
X70334Y116504D01*
Y118503D01*
X71001Y116170D02*
X72334D01*
X73000Y118503D02*
Y116504D01*
X74000D01*
X74333Y116837D01*
Y118170D01*
X74000Y118503D01*
X73000D01*
X74999Y116504D02*
Y118503D01*
X75999D01*
X76332Y118170D01*
Y117503D01*
X75999Y117170D01*
X74999D01*
X75666D02*
X76332Y116504D01*
X76999Y118503D02*
X77665D01*
X77332D01*
Y116504D01*
X76999D01*
X77665D01*
X78665Y118503D02*
Y117170D01*
X79331Y116504D01*
X79998Y117170D01*
Y118503D01*
X81997D02*
X80664D01*
Y116504D01*
X81997D01*
X80664Y117503D02*
X81331D01*
X82664Y118503D02*
Y116504D01*
X83997D01*
X85663Y118503D02*
X84996D01*
X84663Y118170D01*
Y116837D01*
X84996Y116504D01*
X85663D01*
X85996Y116837D01*
Y118170D01*
X85663Y118503D01*
X442336Y102166D02*
Y100167D01*
Y101167D01*
X443668D01*
Y102166D01*
Y100167D01*
X444335Y99834D02*
X445668D01*
X447667Y101833D02*
X447334Y102166D01*
X446667D01*
X446334Y101833D01*
Y101500D01*
X446667Y101167D01*
X447334D01*
X447667Y100833D01*
Y100500D01*
X447334Y100167D01*
X446667D01*
X446334Y100500D01*
X448334Y102166D02*
Y100167D01*
Y101167D01*
X449666D01*
Y102166D01*
Y100167D01*
X450333Y102166D02*
Y100167D01*
X451333D01*
X451666Y100500D01*
Y101833D01*
X451333Y102166D01*
X450333D01*
X452332Y100167D02*
Y102166D01*
X453665Y100167D01*
Y102166D01*
X454332Y101833D02*
X454665Y102166D01*
X455331D01*
X455664Y101833D01*
Y101500D01*
X455331Y101167D01*
X454998D01*
X455331D01*
X455664Y100833D01*
Y100500D01*
X455331Y100167D01*
X454665D01*
X454332Y100500D01*
X442336Y114166D02*
Y112167D01*
Y113167D01*
X443668D01*
Y114166D01*
Y112167D01*
X444335Y111834D02*
X445668D01*
X447667Y113833D02*
X447334Y114166D01*
X446667D01*
X446334Y113833D01*
Y113500D01*
X446667Y113167D01*
X447334D01*
X447667Y112833D01*
Y112500D01*
X447334Y112167D01*
X446667D01*
X446334Y112500D01*
X448334Y114166D02*
Y112167D01*
Y113167D01*
X449666D01*
Y114166D01*
Y112167D01*
X450333Y114166D02*
Y112167D01*
X451333D01*
X451666Y112500D01*
Y113833D01*
X451333Y114166D01*
X450333D01*
X452332Y112167D02*
Y114166D01*
X453665Y112167D01*
Y114166D01*
X455664Y112167D02*
X454332D01*
X455664Y113500D01*
Y113833D01*
X455331Y114166D01*
X454665D01*
X454332Y113833D01*
X442169Y90666D02*
Y88667D01*
Y89667D01*
X443502D01*
Y90666D01*
Y88667D01*
X444168Y88334D02*
X445501D01*
X447500Y90333D02*
X447167Y90666D01*
X446501D01*
X446167Y90333D01*
Y90000D01*
X446501Y89667D01*
X447167D01*
X447500Y89333D01*
Y89000D01*
X447167Y88667D01*
X446501D01*
X446167Y89000D01*
X448167Y90666D02*
Y88667D01*
Y89667D01*
X449500D01*
Y90666D01*
Y88667D01*
X450166Y90666D02*
Y88667D01*
X451166D01*
X451499Y89000D01*
Y90333D01*
X451166Y90666D01*
X450166D01*
X452166Y88667D02*
Y90666D01*
X453498Y88667D01*
Y90666D01*
X454165Y88667D02*
X454831D01*
X454498D01*
Y90666D01*
X454165Y90333D01*
X380836Y34166D02*
Y32167D01*
Y33167D01*
X382169D01*
Y34166D01*
Y32167D01*
X382836Y31834D02*
X384168D01*
X384835Y32167D02*
Y34166D01*
X385835D01*
X386168Y33833D01*
Y33167D01*
X385835Y32833D01*
X384835D01*
X386834Y34166D02*
Y32167D01*
X387501Y32833D01*
X388167Y32167D01*
Y34166D01*
X388834Y32167D02*
Y34166D01*
X389833D01*
X390166Y33833D01*
Y33167D01*
X389833Y32833D01*
X388834D01*
X389500D02*
X390166Y32167D01*
X390833Y31834D02*
X392166D01*
X392832Y34166D02*
Y32167D01*
X393832D01*
X394165Y32500D01*
Y33833D01*
X393832Y34166D01*
X392832D01*
X394832Y32167D02*
Y33500D01*
X395498Y34166D01*
X396164Y33500D01*
Y32167D01*
Y33167D01*
X394832D01*
X398164Y33833D02*
X397831Y34166D01*
X397164D01*
X396831Y33833D01*
Y32500D01*
X397164Y32167D01*
X397831D01*
X398164Y32500D01*
X376337Y354666D02*
Y352667D01*
Y353667D01*
X377669D01*
Y354666D01*
Y352667D01*
X378336Y352334D02*
X379669D01*
X380335Y352667D02*
Y354666D01*
X381335D01*
X381668Y354333D01*
Y353667D01*
X381335Y353333D01*
X380335D01*
X382334Y354666D02*
Y352667D01*
X383001Y353333D01*
X383667Y352667D01*
Y354666D01*
X384334Y352667D02*
Y354666D01*
X385334D01*
X385667Y354333D01*
Y353667D01*
X385334Y353333D01*
X384334D01*
X385000D02*
X385667Y352667D01*
X386333Y352334D02*
X387666D01*
X388333Y354666D02*
Y352667D01*
X389332D01*
X389666Y353000D01*
Y353333D01*
X389332Y353667D01*
X388333D01*
X389332D01*
X389666Y354000D01*
Y354333D01*
X389332Y354666D01*
X388333D01*
X390332D02*
Y353000D01*
X390665Y352667D01*
X391332D01*
X391665Y353000D01*
Y354666D01*
X393664D02*
X392331D01*
Y353667D01*
X392998D01*
X392331D01*
Y352667D01*
X395663Y354666D02*
X394331D01*
Y353667D01*
X394997D01*
X394331D01*
Y352667D01*
X398836Y354666D02*
Y352667D01*
Y353667D01*
X400169D01*
Y354666D01*
Y352667D01*
X400836Y352334D02*
X402168D01*
X402835Y352667D02*
Y354666D01*
X403834D01*
X404168Y354333D01*
Y353667D01*
X403834Y353333D01*
X402835D01*
X404834Y354666D02*
Y352667D01*
X405501Y353333D01*
X406167Y352667D01*
Y354666D01*
X406834Y352667D02*
Y354666D01*
X407833D01*
X408166Y354333D01*
Y353667D01*
X407833Y353333D01*
X406834D01*
X407500D02*
X408166Y352667D01*
X408833Y352334D02*
X410166D01*
X410832Y352667D02*
Y354000D01*
X411499Y354666D01*
X412165Y354000D01*
Y352667D01*
Y353667D01*
X410832D01*
X412832Y354666D02*
Y352667D01*
X413831D01*
X414164Y353000D01*
Y354333D01*
X413831Y354666D01*
X412832D01*
X416164Y354333D02*
X415831Y354666D01*
X415164D01*
X414831Y354333D01*
Y353000D01*
X415164Y352667D01*
X415831D01*
X416164Y353000D01*
X419222Y408985D02*
Y406986D01*
Y407986D01*
X420555D01*
Y408985D01*
Y406986D01*
X421222Y406653D02*
X422555D01*
X423221Y406986D02*
Y408985D01*
X424221D01*
X424554Y408652D01*
Y407986D01*
X424221Y407653D01*
X423221D01*
X425220Y408985D02*
Y406986D01*
X425887Y407653D01*
X426553Y406986D01*
Y408985D01*
X427220Y406986D02*
Y408985D01*
X428220D01*
X428553Y408652D01*
Y407986D01*
X428220Y407653D01*
X427220D01*
X427886D02*
X428553Y406986D01*
X429219Y406653D02*
X430552D01*
X432551Y408985D02*
X431218D01*
Y407986D01*
X431885Y408319D01*
X432218D01*
X432551Y407986D01*
Y407319D01*
X432218Y406986D01*
X431552D01*
X431218Y407319D01*
X433218Y408985D02*
Y407653D01*
X433884Y406986D01*
X434551Y407653D01*
Y408985D01*
X418855Y419647D02*
Y417647D01*
Y418647D01*
X420188D01*
Y419647D01*
Y417647D01*
X420854Y417314D02*
X422187D01*
X422854Y417647D02*
Y419647D01*
X423853D01*
X424187Y419313D01*
Y418647D01*
X423853Y418314D01*
X422854D01*
X424853Y419647D02*
Y417647D01*
X425520Y418314D01*
X426186Y417647D01*
Y419647D01*
X426853Y417647D02*
Y419647D01*
X427852D01*
X428185Y419313D01*
Y418647D01*
X427852Y418314D01*
X426853D01*
X427519D02*
X428185Y417647D01*
X428852Y417314D02*
X430185D01*
X430851Y419313D02*
X431184Y419647D01*
X431851D01*
X432184Y419313D01*
Y418980D01*
X431851Y418647D01*
X431518D01*
X431851D01*
X432184Y418314D01*
Y417980D01*
X431851Y417647D01*
X431184D01*
X430851Y417980D01*
X432851Y417647D02*
Y417980D01*
X433184D01*
Y417647D01*
X432851D01*
X434517Y419313D02*
X434850Y419647D01*
X435516D01*
X435850Y419313D01*
Y418980D01*
X435516Y418647D01*
X435183D01*
X435516D01*
X435850Y418314D01*
Y417980D01*
X435516Y417647D01*
X434850D01*
X434517Y417980D01*
X436516Y419647D02*
Y418314D01*
X437182Y417647D01*
X437849Y418314D01*
Y419647D01*
X419225Y395094D02*
Y393094D01*
Y394094D01*
X420558D01*
Y395094D01*
Y393094D01*
X421225Y392761D02*
X422557D01*
X423224Y393094D02*
Y395094D01*
X424224D01*
X424557Y394761D01*
Y394094D01*
X424224Y393761D01*
X423224D01*
X425223Y395094D02*
Y393094D01*
X425890Y393761D01*
X426556Y393094D01*
Y395094D01*
X427223Y393094D02*
Y395094D01*
X428222D01*
X428555Y394761D01*
Y394094D01*
X428222Y393761D01*
X427223D01*
X427889D02*
X428555Y393094D01*
X429222Y392761D02*
X430555D01*
X431221Y393094D02*
X431888D01*
X431555D01*
Y395094D01*
X431221Y394761D01*
X432888Y393094D02*
Y393428D01*
X433221D01*
Y393094D01*
X432888D01*
X434554Y394761D02*
X434887Y395094D01*
X435553D01*
X435886Y394761D01*
Y394427D01*
X435553Y394094D01*
X435886Y393761D01*
Y393428D01*
X435553Y393094D01*
X434887D01*
X434554Y393428D01*
Y393761D01*
X434887Y394094D01*
X434554Y394427D01*
Y394761D01*
X434887Y394094D02*
X435553D01*
X436553Y395094D02*
Y393761D01*
X437219Y393094D01*
X437886Y393761D01*
Y395094D01*
X323188Y118503D02*
Y116504D01*
Y117503D01*
X324521D01*
Y118503D01*
Y116504D01*
X325187Y116170D02*
X326520D01*
X328519Y118170D02*
X328186Y118503D01*
X327520D01*
X327186Y118170D01*
Y116837D01*
X327520Y116504D01*
X328186D01*
X328519Y116837D01*
Y117503D01*
X327853D01*
X329186Y118503D02*
Y116504D01*
X330519D01*
X332518Y118503D02*
X331185D01*
Y116504D01*
X332518D01*
X331185Y117503D02*
X331852D01*
X333185Y116504D02*
Y117836D01*
X333851Y118503D01*
X334518Y117836D01*
Y116504D01*
Y117503D01*
X333185D01*
X335184Y118503D02*
Y116504D01*
Y117170D01*
X336517Y118503D01*
X335517Y117503D01*
X336517Y116504D01*
X337183D02*
Y118503D01*
X338183D01*
X338516Y118170D01*
Y117503D01*
X338183Y117170D01*
X337183D01*
X345836Y118503D02*
Y116504D01*
Y117503D01*
X347169D01*
Y118503D01*
Y116504D01*
X347835Y116170D02*
X349168D01*
X351167Y118170D02*
X350834Y118503D01*
X350168D01*
X349834Y118170D01*
Y116837D01*
X350168Y116504D01*
X350834D01*
X351167Y116837D01*
Y117503D01*
X350501D01*
X351834Y118503D02*
Y116504D01*
X353167D01*
X355166Y118503D02*
X353833D01*
Y116504D01*
X355166D01*
X353833Y117503D02*
X354500D01*
X355833Y116504D02*
Y117836D01*
X356499Y118503D01*
X357166Y117836D01*
Y116504D01*
Y117503D01*
X355833D01*
X357832Y118503D02*
Y116504D01*
Y117170D01*
X359165Y118503D01*
X358165Y117503D01*
X359165Y116504D01*
X359831Y118503D02*
Y116504D01*
X360831D01*
X361164Y116837D01*
Y118170D01*
X360831Y118503D01*
X359831D01*
X391835D02*
Y116504D01*
Y117503D01*
X393168D01*
Y118503D01*
Y116504D01*
X393835Y116170D02*
X395168D01*
X397167Y118170D02*
X396834Y118503D01*
X396167D01*
X395834Y118170D01*
Y116837D01*
X396167Y116504D01*
X396834D01*
X397167Y116837D01*
Y117503D01*
X396501D01*
X399166Y118170D02*
X398833Y118503D01*
X398167D01*
X397834Y118170D01*
Y116837D01*
X398167Y116504D01*
X398833D01*
X399166Y116837D01*
X400833Y118503D02*
X400166D01*
X399833Y118170D01*
Y116837D01*
X400166Y116504D01*
X400833D01*
X401166Y116837D01*
Y118170D01*
X400833Y118503D01*
X401832Y116504D02*
Y118503D01*
X402499Y117836D01*
X403165Y118503D01*
Y116504D01*
X403832D02*
Y118503D01*
X404831D01*
X405164Y118170D01*
Y117503D01*
X404831Y117170D01*
X403832D01*
X102335Y383166D02*
Y381167D01*
Y382167D01*
X103668D01*
Y383166D01*
Y381167D01*
X104334Y380834D02*
X105667D01*
X107667Y383166D02*
X106334D01*
Y381167D01*
X107667D01*
X106334Y382167D02*
X107000D01*
X108333Y383166D02*
Y381833D01*
X109000Y381167D01*
X109666Y381833D01*
Y383166D01*
X110333D02*
Y381167D01*
X111332D01*
X111665Y381500D01*
Y382833D01*
X111332Y383166D01*
X110333D01*
X112332D02*
Y381167D01*
X113332D01*
X113665Y381500D01*
Y382833D01*
X113332Y383166D01*
X112332D01*
X222446Y225582D02*
X220446D01*
X221446D01*
Y224249D01*
X222446D01*
X220446D01*
X220113Y223583D02*
Y222250D01*
X222446Y220250D02*
Y221583D01*
X220446D01*
Y220250D01*
X221446Y221583D02*
Y220917D01*
X220446Y219584D02*
X222446D01*
Y218584D01*
X222112Y218251D01*
X221446D01*
X221113Y218584D01*
Y219584D01*
Y218917D02*
X220446Y218251D01*
X222446Y216252D02*
Y217585D01*
X220446D01*
Y216252D01*
X221446Y217585D02*
Y216918D01*
X222446Y215585D02*
X221113D01*
X220446Y214919D01*
X221113Y214252D01*
X222446D01*
X222112Y213586D02*
X222446Y213253D01*
Y212586D01*
X222112Y212253D01*
X221779D01*
X221446Y212586D01*
Y212919D01*
Y212586D01*
X221113Y212253D01*
X220780D01*
X220446Y212586D01*
Y213253D01*
X220780Y213586D01*
X222446Y202582D02*
X220446D01*
X221446D01*
Y201249D01*
X222446D01*
X220446D01*
X220113Y200583D02*
Y199250D01*
X222446Y197250D02*
Y198583D01*
X220446D01*
Y197250D01*
X221446Y198583D02*
Y197917D01*
X220446Y196584D02*
X222446D01*
Y195584D01*
X222112Y195251D01*
X221446D01*
X221113Y195584D01*
Y196584D01*
Y195917D02*
X220446Y195251D01*
X222446Y193252D02*
Y194585D01*
X220446D01*
Y193252D01*
X221446Y194585D02*
Y193918D01*
X222446Y192585D02*
X221113D01*
X220446Y191919D01*
X221113Y191252D01*
X222446D01*
X220446Y189253D02*
Y190586D01*
X221779Y189253D01*
X222112D01*
X222446Y189586D01*
Y190253D01*
X222112Y190586D01*
X222446Y178249D02*
X220446D01*
X221446D01*
Y176916D01*
X222446D01*
X220446D01*
X220113Y176249D02*
Y174917D01*
X222446Y172917D02*
Y174250D01*
X220446D01*
Y172917D01*
X221446Y174250D02*
Y173584D01*
X220446Y172251D02*
X222446D01*
Y171251D01*
X222112Y170918D01*
X221446D01*
X221113Y171251D01*
Y172251D01*
Y171584D02*
X220446Y170918D01*
X222446Y168918D02*
Y170251D01*
X220446D01*
Y168918D01*
X221446Y170251D02*
Y169585D01*
X222446Y168252D02*
X221113D01*
X220446Y167586D01*
X221113Y166919D01*
X222446D01*
X220446Y166253D02*
Y165586D01*
Y165919D01*
X222446D01*
X222112Y166253D01*
X222446Y156582D02*
X220446D01*
X221446D01*
Y155249D01*
X222446D01*
X220446D01*
X220113Y154583D02*
Y153250D01*
X222446Y151250D02*
Y152583D01*
X220446D01*
Y151250D01*
X221446Y152583D02*
Y151917D01*
X220446Y150584D02*
X222446D01*
Y149584D01*
X222112Y149251D01*
X221446D01*
X221113Y149584D01*
Y150584D01*
Y149917D02*
X220446Y149251D01*
X222446Y147252D02*
Y148585D01*
X220446D01*
Y147252D01*
X221446Y148585D02*
Y147918D01*
X222446Y146585D02*
X221113D01*
X220446Y145919D01*
X221113Y145252D01*
X222446D01*
X222112Y144586D02*
X222446Y144253D01*
Y143586D01*
X222112Y143253D01*
X220780D01*
X220446Y143586D01*
Y144253D01*
X220780Y144586D01*
X222112D01*
X369835Y118503D02*
Y116504D01*
Y117503D01*
X371168D01*
Y118503D01*
Y116504D01*
X371835Y116170D02*
X373168D01*
X375167Y118503D02*
X373834D01*
Y116504D01*
X375167D01*
X373834Y117503D02*
X374501D01*
X375834Y118503D02*
Y116504D01*
X377167D01*
X379166Y118503D02*
X377833D01*
Y116504D01*
X379166D01*
X377833Y117503D02*
X378499D01*
X379832Y116504D02*
Y117836D01*
X380499Y118503D01*
X381165Y117836D01*
Y116504D01*
Y117503D01*
X379832D01*
X381832Y118503D02*
Y116504D01*
Y117170D01*
X383165Y118503D01*
X382165Y117503D01*
X383165Y116504D01*
X220835Y383166D02*
Y381167D01*
Y382167D01*
X222168D01*
Y383166D01*
Y381167D01*
X222834Y380834D02*
X224167D01*
X224834Y383166D02*
Y381167D01*
X225834D01*
X226167Y381500D01*
Y382833D01*
X225834Y383166D01*
X224834D01*
X226833D02*
Y381833D01*
X227500Y381167D01*
X228166Y381833D01*
Y383166D01*
X228833D02*
Y381167D01*
X229832D01*
X230166Y381500D01*
Y382833D01*
X229832Y383166D01*
X228833D01*
X230832D02*
Y381167D01*
X231832D01*
X232165Y381500D01*
Y382833D01*
X231832Y383166D01*
X230832D01*
X32503D02*
Y381167D01*
Y382167D01*
X33836D01*
Y383166D01*
Y381167D01*
X34503Y380834D02*
X35836D01*
X36502Y383166D02*
Y381167D01*
X37502D01*
X37835Y381500D01*
Y382833D01*
X37502Y383166D01*
X36502D01*
X38502D02*
Y381833D01*
X39168Y381167D01*
X39834Y381833D01*
Y383166D01*
X40501D02*
Y381167D01*
X41500D01*
X41834Y381500D01*
Y382833D01*
X41500Y383166D01*
X40501D01*
X42500D02*
Y381167D01*
X43500D01*
X43833Y381500D01*
Y382833D01*
X43500Y383166D01*
X42500D01*
X44499Y380834D02*
X45832D01*
X46499Y383166D02*
Y381167D01*
Y382167D01*
X47832D01*
Y383166D01*
Y381167D01*
X48498Y383166D02*
X49165D01*
X48831D01*
Y381167D01*
X48498D01*
X49165D01*
X51497Y382833D02*
X51164Y383166D01*
X50498D01*
X50164Y382833D01*
Y381500D01*
X50498Y381167D01*
X51164D01*
X51497Y381500D01*
Y382167D01*
X50831D01*
X52164Y383166D02*
Y381167D01*
Y382167D01*
X53497D01*
Y383166D01*
Y381167D01*
X162335Y383166D02*
Y381167D01*
Y382167D01*
X163668D01*
Y383166D01*
Y381167D01*
X164334Y380834D02*
X165667D01*
X166334Y381167D02*
Y382500D01*
X167000Y383166D01*
X167667Y382500D01*
Y381167D01*
Y382167D01*
X166334D01*
X168333Y383166D02*
Y381833D01*
X169000Y381167D01*
X169666Y381833D01*
Y383166D01*
X170333D02*
Y381167D01*
X171332D01*
X171666Y381500D01*
Y382833D01*
X171332Y383166D01*
X170333D01*
X172332D02*
Y381167D01*
X173332D01*
X173665Y381500D01*
Y382833D01*
X173332Y383166D01*
X172332D01*
M02*
