G04*
G04 #@! TF.GenerationSoftware,Altium Limited,Altium Designer,22.4.2 (48)*
G04*
G04 Layer_Color=8421504*
%FSLAX25Y25*%
%MOIN*%
G70*
G04*
G04 #@! TF.SameCoordinates,2DCEC4E4-29E6-4739-8FF7-65C193B2F985*
G04*
G04*
G04 #@! TF.FilePolarity,Positive*
G04*
G01*
G75*
G04:AMPARAMS|DCode=17|XSize=50.79mil|YSize=31.89mil|CornerRadius=0mil|HoleSize=0mil|Usage=FLASHONLY|Rotation=135.000|XOffset=0mil|YOffset=0mil|HoleType=Round|Shape=Rectangle|*
%AMROTATEDRECTD17*
4,1,4,0.02923,-0.00668,0.00668,-0.02923,-0.02923,0.00668,-0.00668,0.02923,0.02923,-0.00668,0.0*
%
%ADD17ROTATEDRECTD17*%

G04:AMPARAMS|DCode=18|XSize=35.04mil|YSize=26.77mil|CornerRadius=0mil|HoleSize=0mil|Usage=FLASHONLY|Rotation=315.000|XOffset=0mil|YOffset=0mil|HoleType=Round|Shape=Rectangle|*
%AMROTATEDRECTD18*
4,1,4,-0.02185,0.00292,-0.00292,0.02185,0.02185,-0.00292,0.00292,-0.02185,-0.02185,0.00292,0.0*
%
%ADD18ROTATEDRECTD18*%

G04:AMPARAMS|DCode=19|XSize=53.94mil|YSize=36.22mil|CornerRadius=0mil|HoleSize=0mil|Usage=FLASHONLY|Rotation=315.000|XOffset=0mil|YOffset=0mil|HoleType=Round|Shape=Rectangle|*
%AMROTATEDRECTD19*
4,1,4,-0.03188,0.00626,-0.00626,0.03188,0.03188,-0.00626,0.00626,-0.03188,-0.03188,0.00626,0.0*
%
%ADD19ROTATEDRECTD19*%

%ADD20P,0.05568X4X270.0*%
%ADD21P,0.05568X4X180.0*%
%ADD22R,0.00787X0.06102*%
%ADD23R,0.06102X0.00787*%
%ADD24R,0.01406X0.05307*%
%ADD25R,0.05394X0.03622*%
%ADD26R,0.05079X0.03189*%
%ADD27R,0.05315X0.04134*%
%ADD28R,0.03504X0.02677*%
D17*
X590217Y157717D02*
D03*
X594783Y162283D02*
D03*
D18*
X588449Y167449D02*
D03*
X584551Y163551D02*
D03*
D19*
X578773Y169773D02*
D03*
X583227Y174227D02*
D03*
D20*
X287264Y195600D02*
D03*
X350736Y259073D02*
D03*
D21*
X287264D02*
D03*
X350736Y195600D02*
D03*
D22*
X342622Y196923D02*
D03*
X340653D02*
D03*
X338685D02*
D03*
X336717D02*
D03*
X334748D02*
D03*
X332780D02*
D03*
X330811D02*
D03*
X328842D02*
D03*
X326874D02*
D03*
X324905D02*
D03*
X322937D02*
D03*
X320969D02*
D03*
X319000D02*
D03*
X317032D02*
D03*
X315063D02*
D03*
X313094D02*
D03*
X311126D02*
D03*
X309157D02*
D03*
X307189D02*
D03*
X305221D02*
D03*
X303252D02*
D03*
X301284D02*
D03*
X299315D02*
D03*
X297346D02*
D03*
X295378D02*
D03*
Y257750D02*
D03*
X297346D02*
D03*
X299315D02*
D03*
X301284D02*
D03*
X303252D02*
D03*
X305221D02*
D03*
X307189D02*
D03*
X309157D02*
D03*
X311126D02*
D03*
X313094D02*
D03*
X315063D02*
D03*
X317032D02*
D03*
X319000D02*
D03*
X320969D02*
D03*
X322937D02*
D03*
X324905D02*
D03*
X326874D02*
D03*
X328842D02*
D03*
X330811D02*
D03*
X332780D02*
D03*
X334748D02*
D03*
X336717D02*
D03*
X338685D02*
D03*
X340653D02*
D03*
X342622D02*
D03*
D23*
X288587Y203715D02*
D03*
Y205683D02*
D03*
Y207652D02*
D03*
Y209620D02*
D03*
Y211589D02*
D03*
Y213557D02*
D03*
Y215526D02*
D03*
Y217494D02*
D03*
Y219463D02*
D03*
Y221431D02*
D03*
Y223400D02*
D03*
Y225368D02*
D03*
Y227337D02*
D03*
Y229305D02*
D03*
Y231274D02*
D03*
Y233242D02*
D03*
Y235211D02*
D03*
Y237179D02*
D03*
Y239148D02*
D03*
Y241116D02*
D03*
Y243085D02*
D03*
Y245053D02*
D03*
Y247022D02*
D03*
Y248990D02*
D03*
Y250959D02*
D03*
X349413D02*
D03*
Y248990D02*
D03*
Y247022D02*
D03*
Y245053D02*
D03*
Y243085D02*
D03*
Y241116D02*
D03*
Y239148D02*
D03*
Y237179D02*
D03*
Y235211D02*
D03*
Y233242D02*
D03*
Y231274D02*
D03*
Y229305D02*
D03*
Y227337D02*
D03*
Y225368D02*
D03*
Y223400D02*
D03*
Y221431D02*
D03*
Y219463D02*
D03*
Y217494D02*
D03*
Y215526D02*
D03*
Y213557D02*
D03*
Y211589D02*
D03*
Y209620D02*
D03*
Y207652D02*
D03*
Y205683D02*
D03*
Y203715D02*
D03*
D24*
X538876Y299698D02*
D03*
Y275399D02*
D03*
X542026Y299698D02*
D03*
Y275399D02*
D03*
X545176Y299698D02*
D03*
Y275399D02*
D03*
X548325Y299698D02*
D03*
Y275399D02*
D03*
X551475Y299698D02*
D03*
Y275399D02*
D03*
X554624Y299698D02*
D03*
Y275399D02*
D03*
X557774Y299698D02*
D03*
Y275399D02*
D03*
X560924Y299698D02*
D03*
Y275399D02*
D03*
X564073Y299698D02*
D03*
Y275399D02*
D03*
X567223Y299698D02*
D03*
Y275399D02*
D03*
X570372Y299698D02*
D03*
Y275399D02*
D03*
X573522Y299698D02*
D03*
Y275399D02*
D03*
X576672Y299698D02*
D03*
Y275399D02*
D03*
X579821Y299698D02*
D03*
Y275399D02*
D03*
X582971Y299698D02*
D03*
Y275399D02*
D03*
X586120Y299698D02*
D03*
Y275399D02*
D03*
X589270Y299698D02*
D03*
Y275399D02*
D03*
X592420Y299698D02*
D03*
Y275399D02*
D03*
X595569Y299698D02*
D03*
Y275399D02*
D03*
X598719Y299698D02*
D03*
Y275399D02*
D03*
X601868Y299698D02*
D03*
Y275399D02*
D03*
X605018Y299698D02*
D03*
Y275399D02*
D03*
X608168Y299698D02*
D03*
Y275399D02*
D03*
X611317Y299698D02*
D03*
Y275399D02*
D03*
X614467Y299698D02*
D03*
Y275399D02*
D03*
X617616Y299698D02*
D03*
Y275399D02*
D03*
X620766Y299698D02*
D03*
Y275399D02*
D03*
X623916Y299698D02*
D03*
Y275399D02*
D03*
X627065Y299698D02*
D03*
Y275399D02*
D03*
X630215Y299698D02*
D03*
Y275399D02*
D03*
X633364Y299698D02*
D03*
Y275399D02*
D03*
X636514Y299698D02*
D03*
Y275399D02*
D03*
X639664Y299698D02*
D03*
Y275399D02*
D03*
X642813Y299698D02*
D03*
Y275399D02*
D03*
X645963Y299698D02*
D03*
Y275399D02*
D03*
X649113Y299698D02*
D03*
Y275399D02*
D03*
X652262Y299698D02*
D03*
Y275399D02*
D03*
X655412Y299698D02*
D03*
Y275399D02*
D03*
X658561Y299698D02*
D03*
Y275399D02*
D03*
X661711Y299698D02*
D03*
Y275399D02*
D03*
Y117919D02*
D03*
Y142218D02*
D03*
X658561Y117919D02*
D03*
Y142218D02*
D03*
X655412Y117919D02*
D03*
Y142218D02*
D03*
X652262Y117919D02*
D03*
Y142218D02*
D03*
X649113Y117919D02*
D03*
Y142218D02*
D03*
X645963Y117919D02*
D03*
Y142218D02*
D03*
X642813Y117919D02*
D03*
Y142218D02*
D03*
X639664Y117919D02*
D03*
Y142218D02*
D03*
X636514Y117919D02*
D03*
Y142218D02*
D03*
X633364Y117919D02*
D03*
Y142218D02*
D03*
X630215Y117919D02*
D03*
Y142218D02*
D03*
X627065Y117919D02*
D03*
Y142218D02*
D03*
X623916Y117919D02*
D03*
Y142218D02*
D03*
X620766Y117919D02*
D03*
Y142218D02*
D03*
X617616Y117919D02*
D03*
Y142218D02*
D03*
X614467Y117919D02*
D03*
Y142218D02*
D03*
X611317Y117919D02*
D03*
Y142218D02*
D03*
X608168Y117919D02*
D03*
Y142218D02*
D03*
X605018Y117919D02*
D03*
Y142218D02*
D03*
X601868Y117919D02*
D03*
Y142218D02*
D03*
X598719Y117919D02*
D03*
Y142218D02*
D03*
X595569Y117919D02*
D03*
Y142218D02*
D03*
X592420Y117919D02*
D03*
Y142218D02*
D03*
X589270Y117919D02*
D03*
Y142218D02*
D03*
X586120Y117919D02*
D03*
Y142218D02*
D03*
X582971Y117919D02*
D03*
Y142218D02*
D03*
X579821Y117919D02*
D03*
Y142218D02*
D03*
X576672Y117919D02*
D03*
Y142218D02*
D03*
X573522Y117919D02*
D03*
Y142218D02*
D03*
X570372Y117919D02*
D03*
Y142218D02*
D03*
X567223Y117919D02*
D03*
Y142218D02*
D03*
X564073Y117919D02*
D03*
Y142218D02*
D03*
X560924Y117919D02*
D03*
Y142218D02*
D03*
X557774Y117919D02*
D03*
Y142218D02*
D03*
X554624Y117919D02*
D03*
Y142218D02*
D03*
X551475Y117919D02*
D03*
Y142218D02*
D03*
X548325Y117919D02*
D03*
Y142218D02*
D03*
X545176Y117919D02*
D03*
Y142218D02*
D03*
X542026Y117919D02*
D03*
Y142218D02*
D03*
X538876Y117919D02*
D03*
Y142218D02*
D03*
D25*
X758750Y93992D02*
D03*
Y100291D02*
D03*
X563379Y247837D02*
D03*
Y254136D02*
D03*
D26*
X546000Y254352D02*
D03*
Y247896D02*
D03*
X775500Y100728D02*
D03*
Y94272D02*
D03*
D27*
X767500Y93957D02*
D03*
Y101043D02*
D03*
X784000Y93957D02*
D03*
Y101043D02*
D03*
D28*
X554750Y253976D02*
D03*
Y248465D02*
D03*
M02*
