G04*
G04 #@! TF.GenerationSoftware,Altium Limited,Altium Designer,22.4.2 (48)*
G04*
G04 Layer_Color=8388736*
%FSLAX25Y25*%
%MOIN*%
G70*
G04*
G04 #@! TF.SameCoordinates,2DCEC4E4-29E6-4739-8FF7-65C193B2F985*
G04*
G04*
G04 #@! TF.FilePolarity,Negative*
G04*
G01*
G75*
%ADD20P,0.05568X4X270.0*%
%ADD21P,0.05568X4X180.0*%
G04:AMPARAMS|DCode=29|XSize=62.72mil|YSize=43.83mil|CornerRadius=0mil|HoleSize=0mil|Usage=FLASHONLY|Rotation=135.000|XOffset=0mil|YOffset=0mil|HoleType=Round|Shape=Rectangle|*
%AMROTATEDRECTD29*
4,1,4,0.03767,-0.00668,0.00668,-0.03767,-0.03767,0.00668,-0.00668,0.03767,0.03767,-0.00668,0.0*
%
%ADD29ROTATEDRECTD29*%

G04:AMPARAMS|DCode=30|XSize=46.98mil|YSize=38.71mil|CornerRadius=0mil|HoleSize=0mil|Usage=FLASHONLY|Rotation=315.000|XOffset=0mil|YOffset=0mil|HoleType=Round|Shape=Rectangle|*
%AMROTATEDRECTD30*
4,1,4,-0.03029,0.00292,-0.00292,0.03029,0.03029,-0.00292,0.00292,-0.03029,-0.03029,0.00292,0.0*
%
%ADD30ROTATEDRECTD30*%

G04:AMPARAMS|DCode=31|XSize=65.87mil|YSize=48.16mil|CornerRadius=0mil|HoleSize=0mil|Usage=FLASHONLY|Rotation=315.000|XOffset=0mil|YOffset=0mil|HoleType=Round|Shape=Rectangle|*
%AMROTATEDRECTD31*
4,1,4,-0.04032,0.00626,-0.00626,0.04032,0.04032,-0.00626,0.00626,-0.04032,-0.04032,0.00626,0.0*
%
%ADD31ROTATEDRECTD31*%

%ADD32R,0.01981X0.07296*%
%ADD33R,0.07296X0.01981*%
%ADD34R,0.02599X0.06501*%
%ADD35R,0.06587X0.04816*%
%ADD36R,0.06272X0.04383*%
%ADD37R,0.06509X0.05328*%
%ADD38R,0.04698X0.03871*%
%ADD39C,0.05906*%
%ADD40C,0.07296*%
%ADD41R,0.07296X0.07296*%
%ADD42R,0.07296X0.07296*%
%ADD43R,0.05678X0.05678*%
%ADD44C,0.05678*%
%ADD45C,0.02800*%
%ADD46C,0.20485*%
%ADD47C,0.02600*%
%ADD48C,0.05800*%
D20*
X287264Y195600D02*
D03*
X350736Y259073D02*
D03*
D21*
X287264D02*
D03*
X350736Y195600D02*
D03*
D29*
X590217Y157717D02*
D03*
X594783Y162283D02*
D03*
D30*
X588449Y167449D02*
D03*
X584551Y163551D02*
D03*
D31*
X578773Y169773D02*
D03*
X583227Y174227D02*
D03*
D32*
X342622Y196923D02*
D03*
X340653D02*
D03*
X338685D02*
D03*
X336717D02*
D03*
X334748D02*
D03*
X332780D02*
D03*
X330811D02*
D03*
X328842D02*
D03*
X326874D02*
D03*
X324905D02*
D03*
X322937D02*
D03*
X320969D02*
D03*
X319000D02*
D03*
X317032D02*
D03*
X315063D02*
D03*
X313094D02*
D03*
X311126D02*
D03*
X309157D02*
D03*
X307189D02*
D03*
X305221D02*
D03*
X303252D02*
D03*
X301284D02*
D03*
X299315D02*
D03*
X297346D02*
D03*
X295378D02*
D03*
Y257750D02*
D03*
X297346D02*
D03*
X299315D02*
D03*
X301284D02*
D03*
X303252D02*
D03*
X305221D02*
D03*
X307189D02*
D03*
X309157D02*
D03*
X311126D02*
D03*
X313094D02*
D03*
X315063D02*
D03*
X317032D02*
D03*
X319000D02*
D03*
X320969D02*
D03*
X322937D02*
D03*
X324905D02*
D03*
X326874D02*
D03*
X328842D02*
D03*
X330811D02*
D03*
X332780D02*
D03*
X334748D02*
D03*
X336717D02*
D03*
X338685D02*
D03*
X340653D02*
D03*
X342622D02*
D03*
D33*
X288587Y203715D02*
D03*
Y205683D02*
D03*
Y207652D02*
D03*
Y209620D02*
D03*
Y211589D02*
D03*
Y213557D02*
D03*
Y215526D02*
D03*
Y217494D02*
D03*
Y219463D02*
D03*
Y221431D02*
D03*
Y223400D02*
D03*
Y225368D02*
D03*
Y227337D02*
D03*
Y229305D02*
D03*
Y231274D02*
D03*
Y233242D02*
D03*
Y235211D02*
D03*
Y237179D02*
D03*
Y239148D02*
D03*
Y241116D02*
D03*
Y243085D02*
D03*
Y245053D02*
D03*
Y247022D02*
D03*
Y248990D02*
D03*
Y250959D02*
D03*
X349413D02*
D03*
Y248990D02*
D03*
Y247022D02*
D03*
Y245053D02*
D03*
Y243085D02*
D03*
Y241116D02*
D03*
Y239148D02*
D03*
Y237179D02*
D03*
Y235211D02*
D03*
Y233242D02*
D03*
Y231274D02*
D03*
Y229305D02*
D03*
Y227337D02*
D03*
Y225368D02*
D03*
Y223400D02*
D03*
Y221431D02*
D03*
Y219463D02*
D03*
Y217494D02*
D03*
Y215526D02*
D03*
Y213557D02*
D03*
Y211589D02*
D03*
Y209620D02*
D03*
Y207652D02*
D03*
Y205683D02*
D03*
Y203715D02*
D03*
D34*
X538876Y299698D02*
D03*
Y275399D02*
D03*
X542026Y299698D02*
D03*
Y275399D02*
D03*
X545176Y299698D02*
D03*
Y275399D02*
D03*
X548325Y299698D02*
D03*
Y275399D02*
D03*
X551475Y299698D02*
D03*
Y275399D02*
D03*
X554624Y299698D02*
D03*
Y275399D02*
D03*
X557774Y299698D02*
D03*
Y275399D02*
D03*
X560924Y299698D02*
D03*
Y275399D02*
D03*
X564073Y299698D02*
D03*
Y275399D02*
D03*
X567223Y299698D02*
D03*
Y275399D02*
D03*
X570372Y299698D02*
D03*
Y275399D02*
D03*
X573522Y299698D02*
D03*
Y275399D02*
D03*
X576672Y299698D02*
D03*
Y275399D02*
D03*
X579821Y299698D02*
D03*
Y275399D02*
D03*
X582971Y299698D02*
D03*
Y275399D02*
D03*
X586120Y299698D02*
D03*
Y275399D02*
D03*
X589270Y299698D02*
D03*
Y275399D02*
D03*
X592420Y299698D02*
D03*
Y275399D02*
D03*
X595569Y299698D02*
D03*
Y275399D02*
D03*
X598719Y299698D02*
D03*
Y275399D02*
D03*
X601868Y299698D02*
D03*
Y275399D02*
D03*
X605018Y299698D02*
D03*
Y275399D02*
D03*
X608168Y299698D02*
D03*
Y275399D02*
D03*
X611317Y299698D02*
D03*
Y275399D02*
D03*
X614467Y299698D02*
D03*
Y275399D02*
D03*
X617616Y299698D02*
D03*
Y275399D02*
D03*
X620766Y299698D02*
D03*
Y275399D02*
D03*
X623916Y299698D02*
D03*
Y275399D02*
D03*
X627065Y299698D02*
D03*
Y275399D02*
D03*
X630215Y299698D02*
D03*
Y275399D02*
D03*
X633364Y299698D02*
D03*
Y275399D02*
D03*
X636514Y299698D02*
D03*
Y275399D02*
D03*
X639664Y299698D02*
D03*
Y275399D02*
D03*
X642813Y299698D02*
D03*
Y275399D02*
D03*
X645963Y299698D02*
D03*
Y275399D02*
D03*
X649113Y299698D02*
D03*
Y275399D02*
D03*
X652262Y299698D02*
D03*
Y275399D02*
D03*
X655412Y299698D02*
D03*
Y275399D02*
D03*
X658561Y299698D02*
D03*
Y275399D02*
D03*
X661711Y299698D02*
D03*
Y275399D02*
D03*
Y117919D02*
D03*
Y142218D02*
D03*
X658561Y117919D02*
D03*
Y142218D02*
D03*
X655412Y117919D02*
D03*
Y142218D02*
D03*
X652262Y117919D02*
D03*
Y142218D02*
D03*
X649113Y117919D02*
D03*
Y142218D02*
D03*
X645963Y117919D02*
D03*
Y142218D02*
D03*
X642813Y117919D02*
D03*
Y142218D02*
D03*
X639664Y117919D02*
D03*
Y142218D02*
D03*
X636514Y117919D02*
D03*
Y142218D02*
D03*
X633364Y117919D02*
D03*
Y142218D02*
D03*
X630215Y117919D02*
D03*
Y142218D02*
D03*
X627065Y117919D02*
D03*
Y142218D02*
D03*
X623916Y117919D02*
D03*
Y142218D02*
D03*
X620766Y117919D02*
D03*
Y142218D02*
D03*
X617616Y117919D02*
D03*
Y142218D02*
D03*
X614467Y117919D02*
D03*
Y142218D02*
D03*
X611317Y117919D02*
D03*
Y142218D02*
D03*
X608168Y117919D02*
D03*
Y142218D02*
D03*
X605018Y117919D02*
D03*
Y142218D02*
D03*
X601868Y117919D02*
D03*
Y142218D02*
D03*
X598719Y117919D02*
D03*
Y142218D02*
D03*
X595569Y117919D02*
D03*
Y142218D02*
D03*
X592420Y117919D02*
D03*
Y142218D02*
D03*
X589270Y117919D02*
D03*
Y142218D02*
D03*
X586120Y117919D02*
D03*
Y142218D02*
D03*
X582971Y117919D02*
D03*
Y142218D02*
D03*
X579821Y117919D02*
D03*
Y142218D02*
D03*
X576672Y117919D02*
D03*
Y142218D02*
D03*
X573522Y117919D02*
D03*
Y142218D02*
D03*
X570372Y117919D02*
D03*
Y142218D02*
D03*
X567223Y117919D02*
D03*
Y142218D02*
D03*
X564073Y117919D02*
D03*
Y142218D02*
D03*
X560924Y117919D02*
D03*
Y142218D02*
D03*
X557774Y117919D02*
D03*
Y142218D02*
D03*
X554624Y117919D02*
D03*
Y142218D02*
D03*
X551475Y117919D02*
D03*
Y142218D02*
D03*
X548325Y117919D02*
D03*
Y142218D02*
D03*
X545176Y117919D02*
D03*
Y142218D02*
D03*
X542026Y117919D02*
D03*
Y142218D02*
D03*
X538876Y117919D02*
D03*
Y142218D02*
D03*
D35*
X758750Y93992D02*
D03*
Y100291D02*
D03*
X563379Y247837D02*
D03*
Y254136D02*
D03*
D36*
X546000Y254352D02*
D03*
Y247896D02*
D03*
X775500Y100728D02*
D03*
Y94272D02*
D03*
D37*
X767500Y93957D02*
D03*
Y101043D02*
D03*
X784000Y93957D02*
D03*
Y101043D02*
D03*
D38*
X554750Y253976D02*
D03*
Y248465D02*
D03*
D39*
X319000Y247022D02*
D03*
Y207652D02*
D03*
D40*
X130908Y299101D02*
D03*
Y309101D02*
D03*
X404452Y323500D02*
D03*
X169000Y374000D02*
D03*
Y364000D02*
D03*
X49000Y374000D02*
D03*
Y364000D02*
D03*
X227629Y363545D02*
D03*
Y373545D02*
D03*
X371500Y109337D02*
D03*
X213279Y153918D02*
D03*
Y176918D02*
D03*
Y199917D02*
D03*
Y222918D02*
D03*
X108000Y374000D02*
D03*
Y364000D02*
D03*
X394500Y109337D02*
D03*
X348500D02*
D03*
X325852D02*
D03*
X401889Y394428D02*
D03*
X401852Y418980D02*
D03*
X401886Y406819D02*
D03*
X404452Y335446D02*
D03*
X392452D02*
D03*
X386500Y25000D02*
D03*
X435505Y84983D02*
D03*
Y108913D02*
D03*
Y96983D02*
D03*
X72500Y109337D02*
D03*
X415422Y158615D02*
D03*
Y181139D02*
D03*
X401479D02*
D03*
Y158615D02*
D03*
X141500Y109337D02*
D03*
X165500D02*
D03*
X95500D02*
D03*
X118500D02*
D03*
X213279Y268917D02*
D03*
X175336Y257965D02*
D03*
X289500Y373500D02*
D03*
Y363500D02*
D03*
X348500Y373500D02*
D03*
Y363500D02*
D03*
X303500Y109337D02*
D03*
X175336Y211965D02*
D03*
X429103Y158615D02*
D03*
Y181139D02*
D03*
X213279Y245918D02*
D03*
X175336Y303965D02*
D03*
Y280965D02*
D03*
X64437Y299101D02*
D03*
Y309101D02*
D03*
X213279Y291917D02*
D03*
X49500Y109337D02*
D03*
X188500D02*
D03*
X280500D02*
D03*
X257500D02*
D03*
X234500D02*
D03*
X211500D02*
D03*
X213279Y314917D02*
D03*
X175336Y165965D02*
D03*
Y188965D02*
D03*
Y234965D02*
D03*
D41*
X130908Y319101D02*
D03*
X169000Y354000D02*
D03*
X49000D02*
D03*
X227629Y353545D02*
D03*
X213279Y143918D02*
D03*
Y166918D02*
D03*
Y189918D02*
D03*
Y212917D02*
D03*
X108000Y354000D02*
D03*
X404452Y345446D02*
D03*
X392452D02*
D03*
X415422Y168615D02*
D03*
Y191139D02*
D03*
X401479D02*
D03*
Y168615D02*
D03*
X213279Y258917D02*
D03*
X175336Y247965D02*
D03*
X289500Y353500D02*
D03*
X348500D02*
D03*
X175336Y201965D02*
D03*
X429103Y168615D02*
D03*
Y191139D02*
D03*
X213279Y235917D02*
D03*
X175336Y293965D02*
D03*
Y270965D02*
D03*
X64437Y319101D02*
D03*
X213279Y281918D02*
D03*
Y304918D02*
D03*
X175336Y155965D02*
D03*
Y178965D02*
D03*
Y224965D02*
D03*
D42*
X414452Y323500D02*
D03*
X381500Y109337D02*
D03*
X404500D02*
D03*
X358500D02*
D03*
X335852D02*
D03*
X411889Y394428D02*
D03*
X411852Y418980D02*
D03*
X411886Y406819D02*
D03*
X396500Y25000D02*
D03*
X425505Y84983D02*
D03*
Y108913D02*
D03*
Y96983D02*
D03*
X82500Y109337D02*
D03*
X151500D02*
D03*
X175500D02*
D03*
X105500D02*
D03*
X128500D02*
D03*
X313500D02*
D03*
X59500D02*
D03*
X198500D02*
D03*
X290500D02*
D03*
X267500D02*
D03*
X244500D02*
D03*
X221500D02*
D03*
D43*
X791227Y67088D02*
D03*
X610124Y358427D02*
D03*
X791227D02*
D03*
X610124Y67088D02*
D03*
D44*
X791227Y59214D02*
D03*
X783353Y67088D02*
D03*
Y59214D02*
D03*
X775479Y67088D02*
D03*
Y59214D02*
D03*
X767605Y67088D02*
D03*
Y59214D02*
D03*
X759731Y67088D02*
D03*
Y59214D02*
D03*
X751857Y67088D02*
D03*
Y59214D02*
D03*
X743983Y67088D02*
D03*
Y59214D02*
D03*
X736109Y67088D02*
D03*
Y59214D02*
D03*
X728235Y67088D02*
D03*
Y59214D02*
D03*
X720361Y67088D02*
D03*
Y59214D02*
D03*
X712487Y67088D02*
D03*
Y59214D02*
D03*
X704613Y67088D02*
D03*
Y59214D02*
D03*
X696739Y67088D02*
D03*
Y59214D02*
D03*
X688865Y67088D02*
D03*
Y59214D02*
D03*
X680991Y67088D02*
D03*
Y59214D02*
D03*
X673116Y67088D02*
D03*
Y59214D02*
D03*
X665242Y67088D02*
D03*
Y59214D02*
D03*
X657368Y67088D02*
D03*
Y59214D02*
D03*
X649494Y67088D02*
D03*
Y59214D02*
D03*
X641620Y67088D02*
D03*
Y59214D02*
D03*
X610124Y350553D02*
D03*
X602250Y358427D02*
D03*
Y350553D02*
D03*
X594376Y358427D02*
D03*
Y350553D02*
D03*
X586502Y358427D02*
D03*
Y350553D02*
D03*
X578628Y358427D02*
D03*
Y350553D02*
D03*
X570754Y358427D02*
D03*
Y350553D02*
D03*
X562880Y358427D02*
D03*
Y350553D02*
D03*
X555006Y358427D02*
D03*
Y350553D02*
D03*
X547132Y358427D02*
D03*
Y350553D02*
D03*
X539258Y358427D02*
D03*
Y350553D02*
D03*
X531384Y358427D02*
D03*
Y350553D02*
D03*
X523510Y358427D02*
D03*
Y350553D02*
D03*
X515636Y358427D02*
D03*
Y350553D02*
D03*
X507762Y358427D02*
D03*
Y350553D02*
D03*
X499888Y358427D02*
D03*
Y350553D02*
D03*
X492014Y358427D02*
D03*
Y350553D02*
D03*
X484140Y358427D02*
D03*
Y350553D02*
D03*
X476266Y358427D02*
D03*
Y350553D02*
D03*
X468392Y358427D02*
D03*
Y350553D02*
D03*
X460518Y358427D02*
D03*
Y350553D02*
D03*
X791227D02*
D03*
X783353Y358427D02*
D03*
Y350553D02*
D03*
X775479Y358427D02*
D03*
Y350553D02*
D03*
X767605Y358427D02*
D03*
Y350553D02*
D03*
X759731Y358427D02*
D03*
Y350553D02*
D03*
X751857Y358427D02*
D03*
Y350553D02*
D03*
X743983Y358427D02*
D03*
Y350553D02*
D03*
X736109Y358427D02*
D03*
Y350553D02*
D03*
X728235Y358427D02*
D03*
Y350553D02*
D03*
X720361Y358427D02*
D03*
Y350553D02*
D03*
X712487Y358427D02*
D03*
Y350553D02*
D03*
X704613Y358427D02*
D03*
Y350553D02*
D03*
X696739Y358427D02*
D03*
Y350553D02*
D03*
X688865Y358427D02*
D03*
Y350553D02*
D03*
X680991Y358427D02*
D03*
Y350553D02*
D03*
X673116Y358427D02*
D03*
Y350553D02*
D03*
X665242Y358427D02*
D03*
Y350553D02*
D03*
X657368Y358427D02*
D03*
Y350553D02*
D03*
X649494Y358427D02*
D03*
Y350553D02*
D03*
X641620Y358427D02*
D03*
Y350553D02*
D03*
X460518Y59214D02*
D03*
Y67088D02*
D03*
X468392Y59214D02*
D03*
Y67088D02*
D03*
X476266Y59214D02*
D03*
Y67088D02*
D03*
X484140Y59214D02*
D03*
Y67088D02*
D03*
X492014Y59214D02*
D03*
Y67088D02*
D03*
X499888Y59214D02*
D03*
Y67088D02*
D03*
X507762Y59214D02*
D03*
Y67088D02*
D03*
X515636Y59214D02*
D03*
Y67088D02*
D03*
X523510Y59214D02*
D03*
Y67088D02*
D03*
X531384Y59214D02*
D03*
Y67088D02*
D03*
X539258Y59214D02*
D03*
Y67088D02*
D03*
X547132Y59214D02*
D03*
Y67088D02*
D03*
X555006Y59214D02*
D03*
Y67088D02*
D03*
X562880Y59214D02*
D03*
Y67088D02*
D03*
X570754Y59214D02*
D03*
Y67088D02*
D03*
X578628Y59214D02*
D03*
Y67088D02*
D03*
X586502Y59214D02*
D03*
Y67088D02*
D03*
X594376Y59214D02*
D03*
Y67088D02*
D03*
X602250Y59214D02*
D03*
Y67088D02*
D03*
X610124Y59214D02*
D03*
D45*
X532427Y279549D02*
D03*
X668160D02*
D03*
Y122069D02*
D03*
X532427D02*
D03*
X317050Y296766D02*
D03*
X551475Y147774D02*
D03*
X614500Y148000D02*
D03*
X567241Y150568D02*
D03*
X561020D02*
D03*
X522425Y254500D02*
D03*
X538858Y267334D02*
D03*
X545138D02*
D03*
X109877Y176000D02*
D03*
X280700Y296000D02*
D03*
X656500Y268000D02*
D03*
X554624Y150568D02*
D03*
X557774Y147774D02*
D03*
X583000Y147768D02*
D03*
X592500Y150568D02*
D03*
X791500Y105000D02*
D03*
X491000Y150000D02*
D03*
X462000D02*
D03*
X280000Y51000D02*
D03*
X282000Y48500D02*
D03*
X106500Y177700D02*
D03*
X48535Y182454D02*
D03*
X106411Y212512D02*
D03*
X316221Y316400D02*
D03*
X66035Y180754D02*
D03*
X627000Y148000D02*
D03*
X542041Y150568D02*
D03*
X339574Y189569D02*
D03*
X282854Y219292D02*
D03*
X115497Y52469D02*
D03*
X117379Y49889D02*
D03*
X541996Y269751D02*
D03*
X315500Y299500D02*
D03*
X283206Y203783D02*
D03*
X283000Y207647D02*
D03*
X293000Y193237D02*
D03*
X280407Y205812D02*
D03*
X283000Y231252D02*
D03*
X282428Y227328D02*
D03*
X604996Y269751D02*
D03*
X598796D02*
D03*
X595583Y267334D02*
D03*
X601832D02*
D03*
X573496Y269751D02*
D03*
X576935Y267334D02*
D03*
X570396D02*
D03*
X580098Y269751D02*
D03*
X360500Y239126D02*
D03*
X360329Y243234D02*
D03*
X360500Y247000D02*
D03*
X356918Y205683D02*
D03*
X360500Y203693D02*
D03*
X356918Y209620D02*
D03*
X360500Y207630D02*
D03*
X356918Y213557D02*
D03*
X360500Y211567D02*
D03*
X356918Y217494D02*
D03*
X360500Y215504D02*
D03*
X356918Y221431D02*
D03*
X360500Y219441D02*
D03*
X356918Y225368D02*
D03*
X360500Y223378D02*
D03*
X356918Y229305D02*
D03*
X360500Y227315D02*
D03*
X356918Y233242D02*
D03*
X360500Y231252D02*
D03*
X356918Y237179D02*
D03*
X360500Y235189D02*
D03*
X356918Y241116D02*
D03*
Y245053D02*
D03*
Y248990D02*
D03*
X282929Y235282D02*
D03*
X297415Y191337D02*
D03*
X301367D02*
D03*
X50839Y177804D02*
D03*
X108896Y214999D02*
D03*
X316591Y50160D02*
D03*
X154000Y70191D02*
D03*
X642796Y269751D02*
D03*
X589283Y267334D02*
D03*
X582983D02*
D03*
X611598Y269751D02*
D03*
X548296D02*
D03*
X567296D02*
D03*
X342000Y192254D02*
D03*
X335000Y191337D02*
D03*
X330900D02*
D03*
X280599Y213422D02*
D03*
X283011Y248979D02*
D03*
X298980Y188317D02*
D03*
X303187Y188337D02*
D03*
X305167Y191337D02*
D03*
X307108Y188337D02*
D03*
X309049Y191337D02*
D03*
X311991Y188846D02*
D03*
X313026Y191337D02*
D03*
X317084Y188420D02*
D03*
X329000Y188337D02*
D03*
X333000D02*
D03*
X283000Y215389D02*
D03*
X154546Y48841D02*
D03*
X279169Y233395D02*
D03*
X661500Y148000D02*
D03*
X279000Y299500D02*
D03*
X617713Y150356D02*
D03*
X630241D02*
D03*
X605041D02*
D03*
X636496D02*
D03*
X624000D02*
D03*
X642629D02*
D03*
X598696D02*
D03*
X655188D02*
D03*
X633441Y148000D02*
D03*
X639696D02*
D03*
X649000Y150356D02*
D03*
X645629Y148000D02*
D03*
X652500D02*
D03*
X621029Y147956D02*
D03*
X545220Y147768D02*
D03*
X608241Y147956D02*
D03*
X601841D02*
D03*
X595496D02*
D03*
X592496Y269751D02*
D03*
X586196D02*
D03*
X661696D02*
D03*
X620796Y266851D02*
D03*
X623896Y269751D02*
D03*
X639696Y266851D02*
D03*
X633396D02*
D03*
X630196Y269751D02*
D03*
X636496D02*
D03*
X334000Y406000D02*
D03*
X283011Y243074D02*
D03*
Y239137D02*
D03*
X283000Y223247D02*
D03*
X280105Y245064D02*
D03*
Y241127D02*
D03*
X125522Y176522D02*
D03*
X50433Y219424D02*
D03*
X47964Y216920D02*
D03*
X319000Y191337D02*
D03*
X326937Y191400D02*
D03*
X323000Y191337D02*
D03*
X280599Y221296D02*
D03*
X156214Y52162D02*
D03*
X319191Y52549D02*
D03*
X316591Y68160D02*
D03*
X576596Y147680D02*
D03*
X280105Y237190D02*
D03*
X280599Y217231D02*
D03*
X283000Y211580D02*
D03*
X280313Y209739D02*
D03*
X325000Y188337D02*
D03*
X321000D02*
D03*
X538941Y147768D02*
D03*
X645996Y266851D02*
D03*
X564020Y147768D02*
D03*
X589196Y147781D02*
D03*
X617596Y269751D02*
D03*
X614496Y266851D02*
D03*
X608196D02*
D03*
X627096D02*
D03*
D46*
X783353Y122206D02*
D03*
Y295435D02*
D03*
X29000Y400000D02*
D03*
Y30000D02*
D03*
X781000D02*
D03*
Y400000D02*
D03*
D47*
X585847Y152595D02*
D03*
X476000Y262500D02*
D03*
X547500Y155500D02*
D03*
X550951Y155637D02*
D03*
X548420Y150568D02*
D03*
X611409Y150356D02*
D03*
X580034Y150568D02*
D03*
X573500D02*
D03*
X570500Y147768D02*
D03*
X401000Y262800D02*
D03*
X551500Y267334D02*
D03*
X564000D02*
D03*
X554500Y269751D02*
D03*
X557754Y267334D02*
D03*
X561000Y269751D02*
D03*
X397000Y260500D02*
D03*
X164500Y128000D02*
D03*
X403500Y256000D02*
D03*
X399300Y256200D02*
D03*
D48*
X348000Y393000D02*
D03*
X185000Y140000D02*
D03*
X435000Y320000D02*
D03*
X405000Y80000D02*
D03*
Y20000D02*
D03*
X315000Y80000D02*
D03*
X285000D02*
D03*
X240000Y410000D02*
D03*
X225000Y200000D02*
D03*
X135000Y140000D02*
D03*
X75000Y320000D02*
D03*
X45000Y20000D02*
D03*
X15000Y380000D02*
D03*
X30000Y350000D02*
D03*
X15000Y200000D02*
D03*
Y20000D02*
D03*
X135495Y76000D02*
D03*
X389500D02*
D03*
X213000Y55000D02*
D03*
X383000Y319500D02*
D03*
X286500Y393000D02*
D03*
X49500Y389000D02*
D03*
X107000Y393000D02*
D03*
X167500D02*
D03*
X226500D02*
D03*
X49000Y55000D02*
D03*
M02*
