G04*
G04 #@! TF.GenerationSoftware,Altium Limited,Altium Designer,22.4.2 (48)*
G04*
G04 Layer_Color=128*
%FSLAX25Y25*%
%MOIN*%
G70*
G04*
G04 #@! TF.SameCoordinates,2DCEC4E4-29E6-4739-8FF7-65C193B2F985*
G04*
G04*
G04 #@! TF.FilePolarity,Positive*
G04*
G01*
G75*
G04:AMPARAMS|DCode=17|XSize=50.79mil|YSize=31.89mil|CornerRadius=0mil|HoleSize=0mil|Usage=FLASHONLY|Rotation=135.000|XOffset=0mil|YOffset=0mil|HoleType=Round|Shape=Rectangle|*
%AMROTATEDRECTD17*
4,1,4,0.02923,-0.00668,0.00668,-0.02923,-0.02923,0.00668,-0.00668,0.02923,0.02923,-0.00668,0.0*
%
%ADD17ROTATEDRECTD17*%

G04:AMPARAMS|DCode=18|XSize=35.04mil|YSize=26.77mil|CornerRadius=0mil|HoleSize=0mil|Usage=FLASHONLY|Rotation=315.000|XOffset=0mil|YOffset=0mil|HoleType=Round|Shape=Rectangle|*
%AMROTATEDRECTD18*
4,1,4,-0.02185,0.00292,-0.00292,0.02185,0.02185,-0.00292,0.00292,-0.02185,-0.02185,0.00292,0.0*
%
%ADD18ROTATEDRECTD18*%

G04:AMPARAMS|DCode=19|XSize=53.94mil|YSize=36.22mil|CornerRadius=0mil|HoleSize=0mil|Usage=FLASHONLY|Rotation=315.000|XOffset=0mil|YOffset=0mil|HoleType=Round|Shape=Rectangle|*
%AMROTATEDRECTD19*
4,1,4,-0.03188,0.00626,-0.00626,0.03188,0.03188,-0.00626,0.00626,-0.03188,-0.03188,0.00626,0.0*
%
%ADD19ROTATEDRECTD19*%

%ADD25R,0.05394X0.03622*%
%ADD26R,0.05079X0.03189*%
%ADD27R,0.05315X0.04134*%
%ADD28R,0.03504X0.02677*%
%ADD75C,0.00800*%
%ADD88R,0.03150X0.03543*%
%ADD89R,0.03543X0.03937*%
%ADD90R,0.02648X0.02707*%
%ADD91R,0.03937X0.02953*%
%ADD96R,0.02953X0.03937*%
%ADD97R,0.03937X0.03543*%
%ADD98R,0.02707X0.02648*%
%ADD142R,0.02677X0.03504*%
G04:AMPARAMS|DCode=143|XSize=53.15mil|YSize=41.34mil|CornerRadius=0mil|HoleSize=0mil|Usage=FLASHONLY|Rotation=315.000|XOffset=0mil|YOffset=0mil|HoleType=Round|Shape=Rectangle|*
%AMROTATEDRECTD143*
4,1,4,-0.03341,0.00418,-0.00418,0.03341,0.03341,-0.00418,0.00418,-0.03341,-0.03341,0.00418,0.0*
%
%ADD143ROTATEDRECTD143*%

%ADD144R,0.03622X0.05394*%
%ADD145R,0.03189X0.05079*%
%ADD146O,0.00984X0.07480*%
G04:AMPARAMS|DCode=147|XSize=51.18mil|YSize=7.87mil|CornerRadius=0mil|HoleSize=0mil|Usage=FLASHONLY|Rotation=135.000|XOffset=0mil|YOffset=0mil|HoleType=Round|Shape=Rectangle|*
%AMROTATEDRECTD147*
4,1,4,0.02088,-0.01531,0.01531,-0.02088,-0.02088,0.01531,-0.01531,0.02088,0.02088,-0.01531,0.0*
%
%ADD147ROTATEDRECTD147*%

G04:AMPARAMS|DCode=148|XSize=35.43mil|YSize=34.25mil|CornerRadius=7.58mil|HoleSize=0mil|Usage=FLASHONLY|Rotation=180.000|XOffset=0mil|YOffset=0mil|HoleType=Round|Shape=RoundedRectangle|*
%AMROUNDEDRECTD148*
21,1,0.03543,0.01909,0,0,180.0*
21,1,0.02028,0.03425,0,0,180.0*
1,1,0.01516,-0.01014,0.00955*
1,1,0.01516,0.01014,0.00955*
1,1,0.01516,0.01014,-0.00955*
1,1,0.01516,-0.01014,-0.00955*
%
%ADD148ROUNDEDRECTD148*%
%ADD149R,0.06772X0.03819*%
%ADD150R,0.06693X0.04724*%
%ADD151R,0.03937X0.06102*%
%ADD152R,0.05315X0.04331*%
G04:AMPARAMS|DCode=153|XSize=51.18mil|YSize=37.4mil|CornerRadius=0mil|HoleSize=0mil|Usage=FLASHONLY|Rotation=135.000|XOffset=0mil|YOffset=0mil|HoleType=Round|Shape=Rectangle|*
%AMROTATEDRECTD153*
4,1,4,0.03132,-0.00487,0.00487,-0.03132,-0.03132,0.00487,-0.00487,0.03132,0.03132,-0.00487,0.0*
%
%ADD153ROTATEDRECTD153*%

%ADD154R,0.03150X0.02165*%
%ADD155R,0.01378X0.05217*%
%ADD156R,0.11209X0.06508*%
%ADD157O,0.07480X0.00984*%
%ADD158R,0.00787X0.05118*%
%ADD159R,0.05118X0.00787*%
%ADD160R,0.04134X0.05315*%
%ADD161R,0.05118X0.03740*%
%ADD162R,0.03740X0.05118*%
G04:AMPARAMS|DCode=163|XSize=51.18mil|YSize=37.4mil|CornerRadius=0mil|HoleSize=0mil|Usage=FLASHONLY|Rotation=225.000|XOffset=0mil|YOffset=0mil|HoleType=Round|Shape=Rectangle|*
%AMROTATEDRECTD163*
4,1,4,0.00487,0.03132,0.03132,0.00487,-0.00487,-0.03132,-0.03132,-0.00487,0.00487,0.03132,0.0*
%
%ADD163ROTATEDRECTD163*%

G04:AMPARAMS|DCode=164|XSize=35.43mil|YSize=34.25mil|CornerRadius=7.58mil|HoleSize=0mil|Usage=FLASHONLY|Rotation=45.000|XOffset=0mil|YOffset=0mil|HoleType=Round|Shape=RoundedRectangle|*
%AMROUNDEDRECTD164*
21,1,0.03543,0.01909,0,0,45.0*
21,1,0.02028,0.03425,0,0,45.0*
1,1,0.01516,0.01392,0.00042*
1,1,0.01516,-0.00042,-0.01392*
1,1,0.01516,-0.01392,-0.00042*
1,1,0.01516,0.00042,0.01392*
%
%ADD164ROUNDEDRECTD164*%
G04:AMPARAMS|DCode=165|XSize=35.43mil|YSize=34.25mil|CornerRadius=7.58mil|HoleSize=0mil|Usage=FLASHONLY|Rotation=315.000|XOffset=0mil|YOffset=0mil|HoleType=Round|Shape=RoundedRectangle|*
%AMROUNDEDRECTD165*
21,1,0.03543,0.01909,0,0,315.0*
21,1,0.02028,0.03425,0,0,315.0*
1,1,0.01516,0.00042,-0.01392*
1,1,0.01516,-0.01392,0.00042*
1,1,0.01516,-0.00042,0.01392*
1,1,0.01516,0.01392,-0.00042*
%
%ADD165ROUNDEDRECTD165*%
G04:AMPARAMS|DCode=166|XSize=35.43mil|YSize=34.25mil|CornerRadius=7.58mil|HoleSize=0mil|Usage=FLASHONLY|Rotation=270.000|XOffset=0mil|YOffset=0mil|HoleType=Round|Shape=RoundedRectangle|*
%AMROUNDEDRECTD166*
21,1,0.03543,0.01909,0,0,270.0*
21,1,0.02028,0.03425,0,0,270.0*
1,1,0.01516,-0.00955,-0.01014*
1,1,0.01516,-0.00955,0.01014*
1,1,0.01516,0.00955,0.01014*
1,1,0.01516,0.00955,-0.01014*
%
%ADD166ROUNDEDRECTD166*%
G04:AMPARAMS|DCode=167|XSize=61.02mil|YSize=39.37mil|CornerRadius=0mil|HoleSize=0mil|Usage=FLASHONLY|Rotation=135.000|XOffset=0mil|YOffset=0mil|HoleType=Round|Shape=Rectangle|*
%AMROTATEDRECTD167*
4,1,4,0.03550,-0.00766,0.00766,-0.03550,-0.03550,0.00766,-0.00766,0.03550,0.03550,-0.00766,0.0*
%
%ADD167ROTATEDRECTD167*%

G04:AMPARAMS|DCode=168|XSize=61.02mil|YSize=39.37mil|CornerRadius=0mil|HoleSize=0mil|Usage=FLASHONLY|Rotation=45.000|XOffset=0mil|YOffset=0mil|HoleType=Round|Shape=Rectangle|*
%AMROTATEDRECTD168*
4,1,4,-0.00766,-0.03550,-0.03550,-0.00766,0.00766,0.03550,0.03550,0.00766,-0.00766,-0.03550,0.0*
%
%ADD168ROTATEDRECTD168*%

%ADD169R,0.06102X0.03937*%
D17*
X578283Y219783D02*
D03*
X573717Y215217D02*
D03*
X348430Y255805D02*
D03*
X352996Y260371D02*
D03*
X614424Y365478D02*
D03*
X618989Y370044D02*
D03*
D18*
X343977Y260454D02*
D03*
X347874Y264351D02*
D03*
D19*
X551727Y246727D02*
D03*
X547273Y242273D02*
D03*
X598934Y390488D02*
D03*
X594479Y386034D02*
D03*
X343389Y269768D02*
D03*
X338934Y265314D02*
D03*
D25*
X652000Y418799D02*
D03*
Y412500D02*
D03*
X336948Y313870D02*
D03*
Y307571D02*
D03*
X342780Y291690D02*
D03*
Y297990D02*
D03*
X251757Y340018D02*
D03*
Y333719D02*
D03*
X353791Y54130D02*
D03*
Y60429D02*
D03*
X336940Y329269D02*
D03*
Y322970D02*
D03*
X353791Y75599D02*
D03*
Y69300D02*
D03*
X336948Y38850D02*
D03*
Y45150D02*
D03*
Y23359D02*
D03*
Y29658D02*
D03*
X80754Y52056D02*
D03*
Y58355D02*
D03*
X235500Y58599D02*
D03*
Y52300D02*
D03*
X253408Y36988D02*
D03*
Y43287D02*
D03*
X235500Y21300D02*
D03*
Y27599D02*
D03*
X274254Y20143D02*
D03*
Y26443D02*
D03*
X176638Y22774D02*
D03*
Y29073D02*
D03*
Y39350D02*
D03*
Y45650D02*
D03*
X127750Y19850D02*
D03*
Y26150D02*
D03*
X80759Y21162D02*
D03*
Y27461D02*
D03*
X282250Y283130D02*
D03*
Y289429D02*
D03*
X127750Y34972D02*
D03*
Y41272D02*
D03*
X293092Y41588D02*
D03*
Y35288D02*
D03*
X251750Y324370D02*
D03*
Y318071D02*
D03*
X260067Y302265D02*
D03*
Y308564D02*
D03*
X292852Y329429D02*
D03*
Y323130D02*
D03*
X235500Y67020D02*
D03*
Y73319D02*
D03*
X97662Y67020D02*
D03*
Y73319D02*
D03*
X176500Y75237D02*
D03*
Y68938D02*
D03*
X80754Y36988D02*
D03*
Y43287D02*
D03*
X176638Y53992D02*
D03*
Y60291D02*
D03*
X485049Y395941D02*
D03*
Y402240D02*
D03*
Y412350D02*
D03*
Y418650D02*
D03*
X392294Y231096D02*
D03*
X392294Y224797D02*
D03*
X333625Y226008D02*
D03*
Y219709D02*
D03*
X319750Y232250D02*
D03*
Y238549D02*
D03*
X269142Y273482D02*
D03*
Y267183D02*
D03*
X308875Y270907D02*
D03*
Y264608D02*
D03*
X267250Y219008D02*
D03*
Y212709D02*
D03*
X295202Y256053D02*
D03*
Y249753D02*
D03*
X295000Y231563D02*
D03*
Y225264D02*
D03*
X267253Y205298D02*
D03*
Y198998D02*
D03*
X269537Y259766D02*
D03*
Y253467D02*
D03*
X270250Y232624D02*
D03*
Y226325D02*
D03*
X270250Y246008D02*
D03*
Y239709D02*
D03*
X308500Y207224D02*
D03*
Y200925D02*
D03*
Y213425D02*
D03*
Y219724D02*
D03*
X308750Y244549D02*
D03*
Y238250D02*
D03*
D26*
X455250Y402457D02*
D03*
Y396000D02*
D03*
Y419165D02*
D03*
Y412709D02*
D03*
X384750Y231291D02*
D03*
X384750Y224835D02*
D03*
X319875Y219492D02*
D03*
Y225949D02*
D03*
X333500Y238766D02*
D03*
Y232309D02*
D03*
X255392Y266967D02*
D03*
Y273423D02*
D03*
X295125Y264392D02*
D03*
Y270848D02*
D03*
X253500Y212492D02*
D03*
Y218949D02*
D03*
X308952Y249813D02*
D03*
Y256269D02*
D03*
X308750Y225323D02*
D03*
Y231780D02*
D03*
X253503Y198782D02*
D03*
Y205239D02*
D03*
X255787Y253250D02*
D03*
Y259707D02*
D03*
X256500Y226108D02*
D03*
Y232565D02*
D03*
X256500Y239492D02*
D03*
Y245949D02*
D03*
X294750Y200709D02*
D03*
Y207165D02*
D03*
Y219665D02*
D03*
Y213209D02*
D03*
X295000Y244490D02*
D03*
Y238034D02*
D03*
X689221Y412640D02*
D03*
Y419097D02*
D03*
X353448Y307492D02*
D03*
Y313949D02*
D03*
X325781Y298206D02*
D03*
Y291749D02*
D03*
X268757Y333503D02*
D03*
Y339959D02*
D03*
X336791Y60508D02*
D03*
Y54051D02*
D03*
X353940Y322754D02*
D03*
Y329210D02*
D03*
X336791Y68722D02*
D03*
Y75178D02*
D03*
X353948Y45102D02*
D03*
Y38645D02*
D03*
Y29756D02*
D03*
Y23300D02*
D03*
X97819Y58815D02*
D03*
Y52359D02*
D03*
X253250Y52115D02*
D03*
Y58572D02*
D03*
X235343Y43228D02*
D03*
Y36772D02*
D03*
X253250Y27678D02*
D03*
Y21221D02*
D03*
X292254Y27021D02*
D03*
Y20565D02*
D03*
X193246Y29756D02*
D03*
Y23300D02*
D03*
Y45228D02*
D03*
Y38772D02*
D03*
X110750Y25728D02*
D03*
Y19272D02*
D03*
X97509Y21359D02*
D03*
Y27815D02*
D03*
X299250Y288933D02*
D03*
Y282476D02*
D03*
X110750Y41213D02*
D03*
Y34756D02*
D03*
X276092Y35347D02*
D03*
Y41804D02*
D03*
X268750Y317854D02*
D03*
Y324311D02*
D03*
X243067Y308781D02*
D03*
Y302324D02*
D03*
X309852Y322913D02*
D03*
Y329370D02*
D03*
X253250Y73898D02*
D03*
Y67441D02*
D03*
X80912Y73898D02*
D03*
Y67441D02*
D03*
X193246Y69273D02*
D03*
Y75730D02*
D03*
X97509Y43228D02*
D03*
Y36772D02*
D03*
X193246Y60646D02*
D03*
Y54189D02*
D03*
D27*
X671000Y419043D02*
D03*
X671000Y411957D02*
D03*
X345448Y314264D02*
D03*
Y307177D02*
D03*
X334280Y291297D02*
D03*
Y298383D02*
D03*
X260257Y340412D02*
D03*
Y333325D02*
D03*
X345041Y53736D02*
D03*
Y60823D02*
D03*
X345440Y329663D02*
D03*
Y322576D02*
D03*
X345041Y75993D02*
D03*
Y68907D02*
D03*
Y38771D02*
D03*
Y45857D02*
D03*
Y23236D02*
D03*
Y30323D02*
D03*
X89250Y51906D02*
D03*
Y58992D02*
D03*
X261750Y51906D02*
D03*
Y58992D02*
D03*
X244750Y36457D02*
D03*
Y43543D02*
D03*
Y20406D02*
D03*
Y27492D02*
D03*
X301504Y19250D02*
D03*
Y26336D02*
D03*
X184991Y23236D02*
D03*
Y30323D02*
D03*
Y38457D02*
D03*
Y45543D02*
D03*
X119250Y18957D02*
D03*
Y26043D02*
D03*
X89255Y20406D02*
D03*
Y27492D02*
D03*
X291000Y282457D02*
D03*
Y289543D02*
D03*
X119250Y41823D02*
D03*
Y34736D02*
D03*
X284592Y41981D02*
D03*
Y34895D02*
D03*
X260250Y324764D02*
D03*
Y317677D02*
D03*
X251567Y301828D02*
D03*
Y308915D02*
D03*
X301352Y329822D02*
D03*
Y322736D02*
D03*
X244750Y73934D02*
D03*
Y66847D02*
D03*
X89250D02*
D03*
Y73934D02*
D03*
X184991Y75993D02*
D03*
Y68907D02*
D03*
X89250Y36457D02*
D03*
Y43543D02*
D03*
X184991Y53736D02*
D03*
Y60823D02*
D03*
X708500Y419087D02*
D03*
Y412000D02*
D03*
X328448Y314264D02*
D03*
Y307177D02*
D03*
X351280Y291297D02*
D03*
Y298383D02*
D03*
X243257Y340412D02*
D03*
Y333325D02*
D03*
X328750Y53736D02*
D03*
Y60823D02*
D03*
X328439Y329663D02*
D03*
Y322576D02*
D03*
X328750Y76037D02*
D03*
Y68950D02*
D03*
Y22965D02*
D03*
Y30052D02*
D03*
X72004Y51906D02*
D03*
Y58992D02*
D03*
X244750D02*
D03*
Y51906D02*
D03*
X261750Y36736D02*
D03*
Y43823D02*
D03*
Y20406D02*
D03*
Y27492D02*
D03*
X283254Y26336D02*
D03*
Y19250D02*
D03*
X167746Y22965D02*
D03*
Y30052D02*
D03*
Y38457D02*
D03*
Y45543D02*
D03*
X137000Y18957D02*
D03*
Y26043D02*
D03*
X72009Y20406D02*
D03*
Y27492D02*
D03*
X307750Y282736D02*
D03*
Y289823D02*
D03*
X137000Y35016D02*
D03*
Y42102D02*
D03*
X301592Y34895D02*
D03*
Y41981D02*
D03*
X243250Y324764D02*
D03*
Y317677D02*
D03*
X268567Y301828D02*
D03*
Y308915D02*
D03*
X284352Y329822D02*
D03*
Y322736D02*
D03*
X261750Y67126D02*
D03*
Y74213D02*
D03*
X72004Y67126D02*
D03*
Y74213D02*
D03*
X167746Y76037D02*
D03*
Y68950D02*
D03*
X72004Y36736D02*
D03*
Y43823D02*
D03*
X167746Y53736D02*
D03*
Y60823D02*
D03*
X206651Y407397D02*
D03*
Y414484D02*
D03*
X85823Y407104D02*
D03*
Y414191D02*
D03*
X259129Y406501D02*
D03*
Y413588D02*
D03*
X146500Y407006D02*
D03*
Y414092D02*
D03*
X321500Y406501D02*
D03*
Y413588D02*
D03*
X381646Y406501D02*
D03*
Y413588D02*
D03*
X38437Y274886D02*
D03*
Y281973D02*
D03*
X103250Y274736D02*
D03*
Y281823D02*
D03*
X196000Y372543D02*
D03*
Y365457D02*
D03*
X78500Y372543D02*
D03*
Y365457D02*
D03*
X255629Y372588D02*
D03*
Y365501D02*
D03*
X138500Y372543D02*
D03*
Y365457D02*
D03*
X316668Y372564D02*
D03*
Y365478D02*
D03*
X378000Y372564D02*
D03*
Y365478D02*
D03*
X35937Y323693D02*
D03*
Y316606D02*
D03*
X99658Y324693D02*
D03*
Y317606D02*
D03*
X194279Y145374D02*
D03*
Y152461D02*
D03*
Y168374D02*
D03*
Y175461D02*
D03*
Y191374D02*
D03*
Y198461D02*
D03*
Y214374D02*
D03*
Y221461D02*
D03*
Y260374D02*
D03*
Y267461D02*
D03*
X155927Y250022D02*
D03*
Y257109D02*
D03*
Y204022D02*
D03*
Y211109D02*
D03*
X194279Y237374D02*
D03*
Y244461D02*
D03*
X155927Y296566D02*
D03*
Y303652D02*
D03*
Y274022D02*
D03*
Y281109D02*
D03*
X194279Y283374D02*
D03*
Y290461D02*
D03*
Y306374D02*
D03*
Y313461D02*
D03*
X155927Y158022D02*
D03*
Y165109D02*
D03*
Y181022D02*
D03*
Y188109D02*
D03*
Y234109D02*
D03*
Y227022D02*
D03*
X328750Y38457D02*
D03*
Y45543D02*
D03*
D28*
X470000Y401847D02*
D03*
Y396335D02*
D03*
X470000Y418756D02*
D03*
X470000Y413244D02*
D03*
X378258Y225331D02*
D03*
X378258Y230843D02*
D03*
X326625Y219236D02*
D03*
Y224748D02*
D03*
X326750Y239022D02*
D03*
Y233510D02*
D03*
X262142Y266711D02*
D03*
Y272223D02*
D03*
X302125Y264136D02*
D03*
Y269648D02*
D03*
X260250Y212236D02*
D03*
Y217748D02*
D03*
X301952Y251013D02*
D03*
Y256525D02*
D03*
X301750Y226524D02*
D03*
Y232035D02*
D03*
X260253Y198526D02*
D03*
Y204038D02*
D03*
X262787Y252994D02*
D03*
Y258506D02*
D03*
X263250Y225852D02*
D03*
Y231364D02*
D03*
X263250Y239236D02*
D03*
Y244748D02*
D03*
X301750Y200453D02*
D03*
Y205965D02*
D03*
Y218465D02*
D03*
Y212953D02*
D03*
X302000Y237778D02*
D03*
Y243289D02*
D03*
D75*
X404075Y274575D02*
D03*
X402500D02*
D03*
X400925Y274575D02*
D03*
X404075Y273000D02*
D03*
X402500D02*
D03*
X400925D02*
D03*
X399350D02*
D03*
X404075Y271425D02*
D03*
X402500D02*
D03*
X400925D02*
D03*
X399350D02*
D03*
X404075Y269850D02*
D03*
X402500Y269850D02*
D03*
X400925D02*
D03*
X399350Y269850D02*
D03*
Y274575D02*
D03*
D88*
X82158Y317303D02*
D03*
Y323996D02*
D03*
D89*
X203279Y306374D02*
D03*
Y313461D02*
D03*
Y145374D02*
D03*
Y152461D02*
D03*
Y168374D02*
D03*
Y175461D02*
D03*
Y191374D02*
D03*
Y198461D02*
D03*
Y214374D02*
D03*
Y221461D02*
D03*
Y283374D02*
D03*
Y290461D02*
D03*
D90*
X165000Y184476D02*
D03*
Y188524D02*
D03*
Y161476D02*
D03*
Y165524D02*
D03*
D91*
X164927Y228613D02*
D03*
Y234518D02*
D03*
X203279Y266870D02*
D03*
Y260965D02*
D03*
X164927Y257518D02*
D03*
Y251613D02*
D03*
Y211518D02*
D03*
Y205613D02*
D03*
X203279Y243870D02*
D03*
Y237965D02*
D03*
X164927Y303518D02*
D03*
Y297613D02*
D03*
Y280518D02*
D03*
Y274613D02*
D03*
D96*
X396547Y99337D02*
D03*
X402453D02*
D03*
X350547D02*
D03*
X356453D02*
D03*
X327547D02*
D03*
X333453D02*
D03*
X102453D02*
D03*
X96547D02*
D03*
X119547D02*
D03*
X125453D02*
D03*
X303547D02*
D03*
X309453D02*
D03*
X282547D02*
D03*
X288453D02*
D03*
X259547D02*
D03*
X265453D02*
D03*
X236547D02*
D03*
X242453D02*
D03*
X212547D02*
D03*
X218453D02*
D03*
D97*
X380043Y98943D02*
D03*
X372957D02*
D03*
X81043Y98972D02*
D03*
X73957D02*
D03*
X57043D02*
D03*
X49957D02*
D03*
X197043Y99337D02*
D03*
X189957D02*
D03*
D98*
X147024Y99000D02*
D03*
X142976D02*
D03*
X170500Y98654D02*
D03*
X166452D02*
D03*
D142*
X252019Y172943D02*
D03*
X257530D02*
D03*
X235812D02*
D03*
X241324D02*
D03*
X316845D02*
D03*
X322357D02*
D03*
X333051D02*
D03*
X338563D02*
D03*
X349258D02*
D03*
X354770D02*
D03*
X284432D02*
D03*
X289944D02*
D03*
X300638D02*
D03*
X306150D02*
D03*
X431744Y372500D02*
D03*
X437256D02*
D03*
X224573Y277920D02*
D03*
X230085D02*
D03*
X329211Y205000D02*
D03*
X334722D02*
D03*
X346563Y205199D02*
D03*
X341051D02*
D03*
X305965Y147087D02*
D03*
X300453D02*
D03*
X289758D02*
D03*
X284246D02*
D03*
X273552D02*
D03*
X268040D02*
D03*
X257345D02*
D03*
X251833D02*
D03*
X365347Y187993D02*
D03*
X370859D02*
D03*
X380703Y188307D02*
D03*
X386215D02*
D03*
X322171Y147087D02*
D03*
X316659D02*
D03*
X273737Y172943D02*
D03*
X268225D02*
D03*
X370799Y158087D02*
D03*
X365288D02*
D03*
X387006D02*
D03*
X381494D02*
D03*
X338378Y147087D02*
D03*
X332866D02*
D03*
X354584D02*
D03*
X349072D02*
D03*
X276228Y267000D02*
D03*
X281740D02*
D03*
X241138Y147087D02*
D03*
X235627D02*
D03*
D143*
X592506Y206505D02*
D03*
X587495Y201495D02*
D03*
X566505Y232505D02*
D03*
X561494Y227495D02*
D03*
X609887Y381074D02*
D03*
X604876Y376063D02*
D03*
X589413Y400757D02*
D03*
X584402Y395746D02*
D03*
D144*
X438150Y363000D02*
D03*
X431850D02*
D03*
X412008Y283250D02*
D03*
X405709D02*
D03*
X428512Y280000D02*
D03*
X422213D02*
D03*
X81650Y201500D02*
D03*
X75350D02*
D03*
X186222Y382443D02*
D03*
X179923D02*
D03*
X245629Y382094D02*
D03*
X239330D02*
D03*
X66400Y382549D02*
D03*
X60100D02*
D03*
X125362Y382750D02*
D03*
X119063D02*
D03*
X305775Y381932D02*
D03*
X299475D02*
D03*
X366361Y381932D02*
D03*
X360062D02*
D03*
X46787Y290000D02*
D03*
X53087D02*
D03*
X116277Y290744D02*
D03*
X109977D02*
D03*
X88850Y156658D02*
D03*
X95150D02*
D03*
X104350D02*
D03*
X110650D02*
D03*
X125650Y139500D02*
D03*
X119350D02*
D03*
X140650Y161843D02*
D03*
X134350D02*
D03*
X124929Y240750D02*
D03*
X118630D02*
D03*
X10850Y259092D02*
D03*
X17150D02*
D03*
X92701Y220000D02*
D03*
X99000D02*
D03*
X33350Y203500D02*
D03*
X39650D02*
D03*
X57350Y259092D02*
D03*
X63650D02*
D03*
X50050Y159746D02*
D03*
X56349D02*
D03*
X103071Y240750D02*
D03*
X109370D02*
D03*
X42350Y259092D02*
D03*
X48650D02*
D03*
X26350D02*
D03*
X32650D02*
D03*
X140650Y218500D02*
D03*
X134350D02*
D03*
X389471Y293254D02*
D03*
X395770D02*
D03*
X88144Y240750D02*
D03*
X94443D02*
D03*
X73350Y258092D02*
D03*
X79650D02*
D03*
X71870Y159750D02*
D03*
X65571D02*
D03*
X18850Y159746D02*
D03*
X25150D02*
D03*
X40650D02*
D03*
X34350D02*
D03*
X230479Y271420D02*
D03*
X224180Y271420D02*
D03*
X334250Y212000D02*
D03*
X327951D02*
D03*
X341524Y198199D02*
D03*
X347823D02*
D03*
X300925Y140087D02*
D03*
X307224D02*
D03*
X284719D02*
D03*
X291018D02*
D03*
X268512D02*
D03*
X274811D02*
D03*
X252306D02*
D03*
X258605D02*
D03*
X370386Y194993D02*
D03*
X364087D02*
D03*
X385742Y195307D02*
D03*
X379443D02*
D03*
X349730Y165943D02*
D03*
X356030D02*
D03*
X333524D02*
D03*
X339823D02*
D03*
X317132Y140087D02*
D03*
X323431D02*
D03*
X301111Y165943D02*
D03*
X307410D02*
D03*
X284904D02*
D03*
X291203D02*
D03*
X268698D02*
D03*
X274997D02*
D03*
X252491D02*
D03*
X258790D02*
D03*
X365760Y151087D02*
D03*
X372059D02*
D03*
X381967D02*
D03*
X388266D02*
D03*
X333338Y140087D02*
D03*
X339638D02*
D03*
X349545D02*
D03*
X355844D02*
D03*
X283000Y260250D02*
D03*
X276701D02*
D03*
X317317Y165943D02*
D03*
X323617D02*
D03*
X236099Y154087D02*
D03*
X242398D02*
D03*
X236284Y165943D02*
D03*
X242584D02*
D03*
D145*
X438228Y381500D02*
D03*
X431772D02*
D03*
X224061Y264218D02*
D03*
X230517D02*
D03*
X328010Y198000D02*
D03*
X334467D02*
D03*
X347764Y212199D02*
D03*
X341307D02*
D03*
X307165Y154087D02*
D03*
X300709D02*
D03*
X290959D02*
D03*
X284502D02*
D03*
X274752D02*
D03*
X268296D02*
D03*
X258546D02*
D03*
X252089D02*
D03*
X364146Y180993D02*
D03*
X370603D02*
D03*
X379502Y181307D02*
D03*
X385959D02*
D03*
X355971Y179943D02*
D03*
X349514D02*
D03*
X339764D02*
D03*
X333307D02*
D03*
X323372Y154087D02*
D03*
X316915D02*
D03*
X307351Y179943D02*
D03*
X300894D02*
D03*
X291144D02*
D03*
X284688D02*
D03*
X274938D02*
D03*
X268481D02*
D03*
X258731D02*
D03*
X252275D02*
D03*
X372000Y165087D02*
D03*
X365544D02*
D03*
X388207D02*
D03*
X381750D02*
D03*
X339579Y154087D02*
D03*
X333122D02*
D03*
X355785D02*
D03*
X349328D02*
D03*
X276484Y274000D02*
D03*
X282941D02*
D03*
X323557Y179943D02*
D03*
X317101D02*
D03*
X242339Y140087D02*
D03*
X235882D02*
D03*
X242525Y179943D02*
D03*
X236068D02*
D03*
X406130Y300250D02*
D03*
X412587Y300250D02*
D03*
X421996Y299250D02*
D03*
X428453Y299250D02*
D03*
X81228Y219657D02*
D03*
X74772D02*
D03*
X179702Y398493D02*
D03*
X186159D02*
D03*
X238900Y398094D02*
D03*
X245357D02*
D03*
X60022Y398549D02*
D03*
X66478D02*
D03*
X119992Y398799D02*
D03*
X126449D02*
D03*
X298897Y398026D02*
D03*
X305353D02*
D03*
X359833Y398026D02*
D03*
X366290D02*
D03*
X53027Y308244D02*
D03*
X46571D02*
D03*
X109899Y308244D02*
D03*
X116355D02*
D03*
X94728Y139342D02*
D03*
X88272D02*
D03*
X110866D02*
D03*
X104409D02*
D03*
X119134Y156500D02*
D03*
X125591D02*
D03*
X134134Y178842D02*
D03*
X140591D02*
D03*
X118413Y258250D02*
D03*
X124870D02*
D03*
X16795Y241908D02*
D03*
X10339D02*
D03*
X99217Y202157D02*
D03*
X92760D02*
D03*
X39728Y221657D02*
D03*
X33272D02*
D03*
X63728Y241908D02*
D03*
X57272D02*
D03*
X56428Y142746D02*
D03*
X49971D02*
D03*
X109587Y258250D02*
D03*
X103130D02*
D03*
X48728Y241908D02*
D03*
X42272D02*
D03*
X32728D02*
D03*
X26272D02*
D03*
X134134Y201000D02*
D03*
X140591D02*
D03*
X389530Y310254D02*
D03*
X395987Y310254D02*
D03*
X94522Y258250D02*
D03*
X88065D02*
D03*
X79728Y240908D02*
D03*
X73272D02*
D03*
X65492Y142750D02*
D03*
X71949D02*
D03*
X25366Y142746D02*
D03*
X18909D02*
D03*
X34409Y142500D02*
D03*
X40866D02*
D03*
D146*
X65957Y187583D02*
D03*
X63398D02*
D03*
X60839D02*
D03*
X58280D02*
D03*
X55721D02*
D03*
X53161D02*
D03*
X50602D02*
D03*
X48043D02*
D03*
X63398Y210417D02*
D03*
X60839D02*
D03*
X58280D02*
D03*
X55721D02*
D03*
X53161D02*
D03*
X50602D02*
D03*
X48043D02*
D03*
X65957D02*
D03*
X107543Y205917D02*
D03*
X110102D02*
D03*
X112661D02*
D03*
X115220D02*
D03*
X117780D02*
D03*
X120339D02*
D03*
X122898D02*
D03*
X125457D02*
D03*
X107543Y183083D02*
D03*
X110102D02*
D03*
X112661D02*
D03*
X115220D02*
D03*
X117780D02*
D03*
X120339D02*
D03*
X122898D02*
D03*
X125457D02*
D03*
D147*
X353424Y242123D02*
D03*
X352032Y240731D02*
D03*
X350640Y239339D02*
D03*
X349248Y237948D02*
D03*
X347856Y236556D02*
D03*
X335607Y248805D02*
D03*
X336999Y250197D02*
D03*
X338391Y251589D02*
D03*
X339783Y252980D02*
D03*
X341175Y254372D02*
D03*
D148*
X372394Y264000D02*
D03*
X366606D02*
D03*
D149*
X90158Y317217D02*
D03*
Y328083D02*
D03*
X197651Y407594D02*
D03*
Y418460D02*
D03*
X76823Y407148D02*
D03*
Y418014D02*
D03*
X250129Y406567D02*
D03*
Y417433D02*
D03*
X137500Y407049D02*
D03*
Y417915D02*
D03*
X312500Y406567D02*
D03*
Y417433D02*
D03*
X372500Y406567D02*
D03*
Y417433D02*
D03*
X29437Y271067D02*
D03*
Y281933D02*
D03*
X94342Y270917D02*
D03*
Y281783D02*
D03*
X205000Y372433D02*
D03*
Y361567D02*
D03*
X87500Y372433D02*
D03*
Y361567D02*
D03*
X265129Y372478D02*
D03*
Y361612D02*
D03*
X147605Y372433D02*
D03*
Y361567D02*
D03*
X325668Y372410D02*
D03*
Y361543D02*
D03*
X387000Y372410D02*
D03*
Y361543D02*
D03*
X26937Y326933D02*
D03*
Y316067D02*
D03*
D150*
X334668Y361009D02*
D03*
Y372033D02*
D03*
X274129Y373057D02*
D03*
Y362033D02*
D03*
D151*
X374610Y272500D02*
D03*
X363390D02*
D03*
D152*
X395246Y372230D02*
D03*
Y365537D02*
D03*
D153*
X225355Y232855D02*
D03*
X230645Y238145D02*
D03*
X370449Y238518D02*
D03*
X375738Y243808D02*
D03*
X361800Y244346D02*
D03*
X367090Y249636D02*
D03*
D154*
X19437Y315646D02*
D03*
Y321354D02*
D03*
X213000Y372354D02*
D03*
Y366646D02*
D03*
X95000Y372354D02*
D03*
Y366646D02*
D03*
X156000Y372354D02*
D03*
Y366646D02*
D03*
D155*
X103556Y289892D02*
D03*
X100997D02*
D03*
X98438D02*
D03*
X95879D02*
D03*
X93319D02*
D03*
X90760D02*
D03*
Y307309D02*
D03*
X93319D02*
D03*
X95879D02*
D03*
X98438D02*
D03*
X100997D02*
D03*
X103556D02*
D03*
X193253Y398753D02*
D03*
X195812D02*
D03*
X198372D02*
D03*
X200931D02*
D03*
X203490D02*
D03*
X206049D02*
D03*
Y381336D02*
D03*
X203490D02*
D03*
X200931D02*
D03*
X198372D02*
D03*
X195812D02*
D03*
X193253D02*
D03*
X74102Y398709D02*
D03*
X76661D02*
D03*
X79220D02*
D03*
X81779D02*
D03*
X84339D02*
D03*
X86898D02*
D03*
Y381291D02*
D03*
X84339D02*
D03*
X81779D02*
D03*
X79220D02*
D03*
X76661D02*
D03*
X74102D02*
D03*
X252511Y398358D02*
D03*
X255070D02*
D03*
X257629D02*
D03*
X260188D02*
D03*
X262747D02*
D03*
X265306D02*
D03*
Y380940D02*
D03*
X262747D02*
D03*
X260188D02*
D03*
X257629D02*
D03*
X255070D02*
D03*
X252511D02*
D03*
X133102Y398753D02*
D03*
X135661D02*
D03*
X138221D02*
D03*
X140779D02*
D03*
X143339D02*
D03*
X145898D02*
D03*
Y381336D02*
D03*
X143339D02*
D03*
X140779D02*
D03*
X138221D02*
D03*
X135661D02*
D03*
X133102D02*
D03*
X312800Y380940D02*
D03*
X315359D02*
D03*
X317918D02*
D03*
X320477D02*
D03*
X323037D02*
D03*
X325595D02*
D03*
Y398358D02*
D03*
X323037D02*
D03*
X320477D02*
D03*
X317918D02*
D03*
X315359D02*
D03*
X312800D02*
D03*
X373164Y380940D02*
D03*
X375723D02*
D03*
X378282D02*
D03*
X380841D02*
D03*
X383400D02*
D03*
X385959D02*
D03*
Y398358D02*
D03*
X383400D02*
D03*
X380841D02*
D03*
X378282D02*
D03*
X375723D02*
D03*
X373164D02*
D03*
X39835Y289892D02*
D03*
X37276D02*
D03*
X34716D02*
D03*
X32157D02*
D03*
X29598D02*
D03*
X27039D02*
D03*
Y307309D02*
D03*
X29598D02*
D03*
X32157D02*
D03*
X34716D02*
D03*
X37276D02*
D03*
X39835D02*
D03*
D156*
X97158Y298601D02*
D03*
X199651Y390045D02*
D03*
X80500Y390000D02*
D03*
X258908Y389649D02*
D03*
X139500Y390045D02*
D03*
X319198Y389649D02*
D03*
X379562Y389649D02*
D03*
X33437Y298601D02*
D03*
D157*
X287185Y297122D02*
D03*
Y299681D02*
D03*
Y302240D02*
D03*
Y304799D02*
D03*
Y307358D02*
D03*
Y309917D02*
D03*
Y312476D02*
D03*
Y315035D02*
D03*
X310020Y297122D02*
D03*
Y299681D02*
D03*
Y302240D02*
D03*
Y304799D02*
D03*
Y307358D02*
D03*
Y309917D02*
D03*
Y312476D02*
D03*
Y315035D02*
D03*
X310008Y67957D02*
D03*
Y65398D02*
D03*
Y62839D02*
D03*
Y60280D02*
D03*
Y57721D02*
D03*
Y55161D02*
D03*
Y52602D02*
D03*
Y50043D02*
D03*
X287173Y67957D02*
D03*
Y65398D02*
D03*
Y62839D02*
D03*
Y60280D02*
D03*
Y57721D02*
D03*
Y55161D02*
D03*
Y52602D02*
D03*
Y50043D02*
D03*
X147417Y67957D02*
D03*
Y65398D02*
D03*
Y62839D02*
D03*
Y60280D02*
D03*
Y57721D02*
D03*
Y55161D02*
D03*
Y52602D02*
D03*
Y50043D02*
D03*
X124583Y67957D02*
D03*
Y65398D02*
D03*
Y62839D02*
D03*
Y60280D02*
D03*
Y57721D02*
D03*
Y55161D02*
D03*
Y52602D02*
D03*
Y50043D02*
D03*
D158*
X370569Y225563D02*
D03*
X368601D02*
D03*
X366632D02*
D03*
X364664D02*
D03*
X362695D02*
D03*
Y208240D02*
D03*
X364664D02*
D03*
X366632D02*
D03*
X368601D02*
D03*
X370569D02*
D03*
D159*
X241823Y258405D02*
D03*
X241823Y256437D02*
D03*
Y254468D02*
D03*
Y252500D02*
D03*
X241823Y250532D02*
D03*
X224500Y250532D02*
D03*
Y252500D02*
D03*
Y254468D02*
D03*
Y256437D02*
D03*
X224500Y258405D02*
D03*
D160*
X412902Y291750D02*
D03*
X405815D02*
D03*
X429264Y289750D02*
D03*
X422177Y289750D02*
D03*
X82043Y210147D02*
D03*
X74957D02*
D03*
X186474Y390440D02*
D03*
X179387D02*
D03*
X245172Y390045D02*
D03*
X238086D02*
D03*
X66913Y390497D02*
D03*
X59827D02*
D03*
X126264Y390747D02*
D03*
X119177D02*
D03*
X305668Y389976D02*
D03*
X298582D02*
D03*
X366105Y389976D02*
D03*
X359018D02*
D03*
X46394Y299244D02*
D03*
X53480D02*
D03*
X117170Y299244D02*
D03*
X110084D02*
D03*
X87957Y148000D02*
D03*
X95043D02*
D03*
X103457D02*
D03*
X110543D02*
D03*
X126043D02*
D03*
X118957D02*
D03*
X141043Y170500D02*
D03*
X133957D02*
D03*
X125323Y249750D02*
D03*
X118236D02*
D03*
X10244Y250500D02*
D03*
X17331D02*
D03*
X91945Y210647D02*
D03*
X99032D02*
D03*
X32913Y212147D02*
D03*
X40000D02*
D03*
X56957Y250750D02*
D03*
X64043D02*
D03*
X49656Y151246D02*
D03*
X56743D02*
D03*
X103177Y249750D02*
D03*
X110264D02*
D03*
X41457Y250500D02*
D03*
X48543D02*
D03*
X25957D02*
D03*
X33043D02*
D03*
X140823Y209750D02*
D03*
X133736D02*
D03*
X389077Y301754D02*
D03*
X396164Y301754D02*
D03*
X87750Y249750D02*
D03*
X94837D02*
D03*
X72457D02*
D03*
X79543D02*
D03*
X72264Y151250D02*
D03*
X65177D02*
D03*
X18457Y151246D02*
D03*
X25543D02*
D03*
X33957D02*
D03*
X41043D02*
D03*
X412902Y308750D02*
D03*
X405815D02*
D03*
X429264Y308750D02*
D03*
X422177Y308750D02*
D03*
X82043Y193000D02*
D03*
X74957D02*
D03*
X185474Y374493D02*
D03*
X178387D02*
D03*
X245172Y374094D02*
D03*
X238086D02*
D03*
X66793Y374549D02*
D03*
X59707D02*
D03*
X125764Y374799D02*
D03*
X118677D02*
D03*
X304948Y373750D02*
D03*
X297861D02*
D03*
X366095Y373750D02*
D03*
X359008D02*
D03*
X46394Y317150D02*
D03*
X53480D02*
D03*
X117245Y317150D02*
D03*
X110158D02*
D03*
X87957Y165000D02*
D03*
X95043D02*
D03*
X103457D02*
D03*
X110543D02*
D03*
X126043D02*
D03*
X118957D02*
D03*
X140823Y187500D02*
D03*
X133736D02*
D03*
X125602Y232250D02*
D03*
X118516D02*
D03*
X10024Y233250D02*
D03*
X17110D02*
D03*
X91945Y193500D02*
D03*
X99032D02*
D03*
X32898Y195000D02*
D03*
X39984D02*
D03*
X56957Y233250D02*
D03*
X64043D02*
D03*
X49656Y168246D02*
D03*
X56743D02*
D03*
X103177Y232250D02*
D03*
X110264D02*
D03*
X41457Y233250D02*
D03*
X48543D02*
D03*
X25957D02*
D03*
X33043D02*
D03*
X141043Y227250D02*
D03*
X133957D02*
D03*
X389077Y284754D02*
D03*
X396164Y284754D02*
D03*
X87750Y232250D02*
D03*
X94837D02*
D03*
X72457Y232250D02*
D03*
X79543D02*
D03*
X72264Y168250D02*
D03*
X65177D02*
D03*
X18457Y168246D02*
D03*
X25543D02*
D03*
X33957D02*
D03*
X41043D02*
D03*
X380587Y90337D02*
D03*
X373500D02*
D03*
X403043D02*
D03*
X395957D02*
D03*
X357043D02*
D03*
X349957D02*
D03*
X334543D02*
D03*
X327457D02*
D03*
X72957D02*
D03*
X80043D02*
D03*
X149923D02*
D03*
X142836D02*
D03*
X173587D02*
D03*
X166500D02*
D03*
X95957D02*
D03*
X103043D02*
D03*
X126043D02*
D03*
X118957D02*
D03*
X312043D02*
D03*
X304957D02*
D03*
X49957D02*
D03*
X57043D02*
D03*
X197043D02*
D03*
X189957D02*
D03*
X289043D02*
D03*
X281957D02*
D03*
X266043D02*
D03*
X258957D02*
D03*
X243043D02*
D03*
X235957D02*
D03*
X219043D02*
D03*
X211957D02*
D03*
D161*
X414500Y77260D02*
D03*
Y84740D02*
D03*
X425500Y126240D02*
D03*
Y118760D02*
D03*
X414500Y96834D02*
D03*
X414500Y104315D02*
D03*
D162*
X378260Y204500D02*
D03*
X385740D02*
D03*
D163*
X241355Y242145D02*
D03*
X246645Y236855D02*
D03*
X331035Y256944D02*
D03*
X325746Y262233D02*
D03*
D164*
X425454Y265454D02*
D03*
X429546Y269546D02*
D03*
X416516Y242438D02*
D03*
X412424Y238346D02*
D03*
X431784Y228101D02*
D03*
X427692Y224008D02*
D03*
D165*
X441954Y250046D02*
D03*
X446046Y245954D02*
D03*
D166*
X445822Y209394D02*
D03*
Y203606D02*
D03*
D167*
X440467Y265967D02*
D03*
X432533Y258033D02*
D03*
X404948Y242184D02*
D03*
X412882Y250118D02*
D03*
X426881Y237088D02*
D03*
X418947Y229154D02*
D03*
D168*
X441541Y236800D02*
D03*
X433606Y244734D02*
D03*
D169*
X436000Y201390D02*
D03*
Y212610D02*
D03*
M02*
