G04*
G04 #@! TF.GenerationSoftware,Altium Limited,Altium Designer,22.4.2 (48)*
G04*
G04 Layer_Color=32896*
%FSLAX25Y25*%
%MOIN*%
G70*
G04*
G04 #@! TF.SameCoordinates,2DCEC4E4-29E6-4739-8FF7-65C193B2F985*
G04*
G04*
G04 #@! TF.FilePolarity,Positive*
G04*
G01*
G75*
%ADD11C,0.00787*%
%ADD14C,0.00300*%
%ADD16C,0.00400*%
%ADD170C,0.02362*%
%ADD171C,0.00984*%
D11*
X377768Y264000D02*
G03*
X377768Y264000I-394J0D01*
G01*
X19634Y324701D02*
G03*
X19634Y324701I-197J0D01*
G01*
X213197Y363299D02*
G03*
X213197Y363299I-197J0D01*
G01*
X95197D02*
G03*
X95197Y363299I-197J0D01*
G01*
X156197D02*
G03*
X156197Y363299I-197J0D01*
G01*
X422326Y261932D02*
G03*
X422326Y261932I-394J0D01*
G01*
X438826Y253568D02*
G03*
X438826Y253568I-394J0D01*
G01*
X446216Y214374D02*
G03*
X446216Y214374I-394J0D01*
G01*
X420431Y245960D02*
G03*
X420431Y245960I-394J0D01*
G01*
X435700Y231622D02*
G03*
X435700Y231622I-394J0D01*
G01*
X581927Y201912D02*
X589513Y209498D01*
X581927Y201912D02*
X587912Y195927D01*
X595498Y203513D01*
X574539Y218962D02*
X577461Y216038D01*
X555927Y227912D02*
X563513Y235498D01*
X555927Y227912D02*
X561912Y221927D01*
X569498Y229513D01*
X435000Y379433D02*
Y383567D01*
X67039Y193095D02*
Y204906D01*
X46961Y193095D02*
Y204906D01*
Y193095D02*
X67039D01*
X46961Y204906D02*
X67039D01*
X345490Y252841D02*
X351893Y246438D01*
X337138Y244490D02*
X345490Y252841D01*
X337138Y244490D02*
X343541Y238087D01*
X351893Y246438D01*
X352867Y245464D02*
X356764Y241566D01*
X87402Y322650D02*
X92914D01*
X337818Y365143D02*
Y367899D01*
X331519Y365143D02*
Y367899D01*
X367032Y275354D02*
X370969D01*
X367032Y269646D02*
X370969Y269646D01*
X226538Y236962D02*
X229462Y234038D01*
X85337Y317282D02*
Y323975D01*
X79009Y317303D02*
Y323996D01*
X205051Y309819D02*
Y310016D01*
X201508Y309819D02*
Y310016D01*
X162101Y183122D02*
Y189878D01*
X167899Y183122D02*
Y189878D01*
X168471Y228416D02*
Y234715D01*
X161384Y228416D02*
Y234715D01*
X105819Y287085D02*
Y292695D01*
X292697Y296039D02*
Y316118D01*
X304508Y296039D02*
Y316118D01*
X292697Y296039D02*
X304508D01*
X292697Y316118D02*
X304508D01*
X292685Y69039D02*
X304496D01*
X292685Y48961D02*
X304496D01*
Y69039D01*
X292685Y48961D02*
Y69039D01*
X130095D02*
X141905D01*
X130095Y48961D02*
X141905D01*
Y69039D01*
X130095Y48961D02*
Y69039D01*
X106461Y200406D02*
X126539D01*
X106461Y188594D02*
X126539D01*
X106461D02*
Y200406D01*
X126539Y188594D02*
Y200406D01*
X396350Y95793D02*
X402650D01*
X396350Y102880D02*
X402650D01*
X270979Y366167D02*
Y368923D01*
X277278Y366167D02*
Y368923D01*
X376402Y100715D02*
X376598D01*
X376402Y97171D02*
X376598D01*
X205051Y148819D02*
Y149016D01*
X201508Y148819D02*
Y149016D01*
X205051Y171819D02*
Y172016D01*
X201508Y171819D02*
Y172016D01*
X205051Y194819D02*
Y195016D01*
X201508Y194819D02*
Y195016D01*
X205051Y217819D02*
Y218016D01*
X201508Y217819D02*
Y218016D01*
X350350Y95793D02*
X356650D01*
X350350Y102880D02*
X356650D01*
X327350Y95793D02*
X333650D01*
X327350Y102880D02*
X333650D01*
X77402Y100743D02*
X77599D01*
X77402Y97200D02*
X77599D01*
X141622Y96101D02*
X148378D01*
X141622Y101899D02*
X148378D01*
X165098Y95755D02*
X171854D01*
X165098Y101552D02*
X171854D01*
X96350Y102880D02*
X102650D01*
X96350Y95793D02*
X102650D01*
X119350D02*
X125650D01*
X119350Y102880D02*
X125650D01*
X199736Y260768D02*
Y267067D01*
X206823Y260768D02*
Y267067D01*
X161384Y251416D02*
Y257715D01*
X168471Y251416D02*
Y257715D01*
X161384Y205416D02*
Y211715D01*
X168471Y205416D02*
Y211715D01*
X199736Y237768D02*
Y244067D01*
X206823Y237768D02*
Y244067D01*
X161384Y297416D02*
Y303715D01*
X168471Y297416D02*
Y303715D01*
X161384Y274416D02*
Y280715D01*
X168471Y274416D02*
Y280715D01*
X303350Y95793D02*
X309650D01*
X303350Y102880D02*
X309650D01*
X205051Y286819D02*
Y287016D01*
X201508Y286819D02*
Y287016D01*
X53402Y100743D02*
X53598D01*
X53402Y97200D02*
X53598D01*
X193402Y101108D02*
X193598D01*
X193402Y97565D02*
X193598D01*
X282350Y95793D02*
X288650D01*
X282350Y102880D02*
X288650D01*
X259350Y95793D02*
X265650D01*
X259350Y102880D02*
X265650D01*
X236350Y95793D02*
X242650D01*
X236350Y102880D02*
X242650D01*
X212350Y95793D02*
X218650D01*
X212350Y102880D02*
X218650D01*
X162101Y160122D02*
Y166878D01*
X167899Y160122D02*
Y166878D01*
X372537Y205484D02*
Y210996D01*
X360726Y212374D02*
X372537D01*
X360726D02*
Y221429D01*
X372537D01*
Y212374D02*
Y221429D01*
X228634Y260374D02*
X237689D01*
X228634Y248563D02*
X228634Y260374D01*
X228634Y248563D02*
X237689Y248563D01*
Y260374D01*
X239067Y260374D02*
X244579Y260374D01*
X453183Y399228D02*
X457317D01*
X453183Y415937D02*
X457317D01*
X382683Y228063D02*
X386817D01*
X227289Y262151D02*
Y266285D01*
X349252Y259550D02*
X352175Y256627D01*
X317808Y222721D02*
X321942D01*
X331238Y195933D02*
Y200067D01*
X331433Y235537D02*
X335567D01*
X344535Y210132D02*
Y214266D01*
X253325Y270195D02*
X257459D01*
X293058Y267620D02*
X297192D01*
X303937Y152020D02*
Y156154D01*
X287731Y152020D02*
Y156154D01*
X271524Y152020D02*
Y156154D01*
X255317Y152020D02*
Y156154D01*
X367375Y178926D02*
Y183060D01*
X382730Y179240D02*
Y183374D01*
X352742Y177876D02*
Y182010D01*
X336536Y177876D02*
Y182010D01*
X320144Y152020D02*
Y156154D01*
X304123Y177876D02*
Y182010D01*
X287916Y177876D02*
Y182010D01*
X271709Y177876D02*
Y182010D01*
X255503Y177876D02*
Y182010D01*
X368772Y163020D02*
Y167154D01*
X384978Y163020D02*
Y167154D01*
X336350Y152020D02*
Y156154D01*
X352557Y152020D02*
Y156154D01*
X251433Y215721D02*
X255567D01*
X306885Y253041D02*
X311019D01*
X306683Y228551D02*
X310817D01*
X251436Y202010D02*
X255570D01*
X279713Y271933D02*
Y276067D01*
X253720Y256478D02*
X257854D01*
X320329Y177876D02*
Y182010D01*
X254433Y229337D02*
X258567D01*
X239111Y138020D02*
Y142154D01*
X239296Y177876D02*
Y182010D01*
X254433Y242721D02*
X258567D01*
X292683Y203937D02*
X296817D01*
X292683Y216437D02*
X296817D01*
X292933Y241262D02*
X297067D01*
X599309Y376480D02*
X606895Y384066D01*
X599309Y376480D02*
X605294Y370495D01*
X612880Y378081D01*
X666768Y411957D02*
Y422685D01*
X675232D01*
X675232Y411957D02*
X675232Y422685D01*
X402173Y295982D02*
X412902Y295982D01*
X402173Y287518D02*
Y295982D01*
Y287518D02*
X412902Y287518D01*
X341216Y303535D02*
Y314264D01*
Y303535D02*
X349680D01*
Y314264D01*
X418535Y293982D02*
X429264Y293982D01*
X418535Y293982D02*
X418535Y285518D01*
X429264D01*
X338513Y291297D02*
Y302025D01*
X330048D02*
X338513D01*
X330048Y291297D02*
Y302025D01*
X256025Y329684D02*
Y340412D01*
Y329684D02*
X264489D01*
Y340412D01*
X349273Y53736D02*
Y64465D01*
X340809D02*
X349273D01*
X340809Y53736D02*
Y64465D01*
X341207Y318935D02*
Y329663D01*
Y318935D02*
X349672D01*
Y329663D01*
X340809Y65265D02*
Y75993D01*
Y65265D02*
X349273D01*
Y75993D01*
Y38771D02*
Y49499D01*
X340809D02*
X349273D01*
X340809Y38771D02*
Y49499D01*
X349273Y23236D02*
Y33965D01*
X340809D02*
X349273D01*
X340809Y23236D02*
Y33965D01*
X71315Y214379D02*
X82043D01*
X71315Y205914D02*
Y214379D01*
Y205914D02*
X82043D01*
X93482Y51906D02*
Y62634D01*
X85018D02*
X93482D01*
X85018Y51906D02*
Y62634D01*
X179387Y394673D02*
X190116D01*
Y386208D02*
Y394673D01*
X179387Y386208D02*
X190116D01*
X238086Y394277D02*
X248814D01*
Y385812D02*
Y394277D01*
X238086Y385812D02*
X248814D01*
X59827Y394729D02*
X70555D01*
Y386265D02*
Y394729D01*
X59827Y386265D02*
X70555D01*
X119177Y394979D02*
X129905D01*
Y386515D02*
Y394979D01*
X119177Y386515D02*
X129905D01*
X298582Y394209D02*
X309310D01*
Y385744D02*
Y394209D01*
X298582Y385744D02*
X309310D01*
X359018Y394209D02*
X369747D01*
Y385744D02*
Y394209D01*
X359018Y385744D02*
X369747D01*
X42752Y295012D02*
X53480D01*
X42752D02*
Y303476D01*
X53480D01*
X106442Y303476D02*
X117170D01*
X106442Y295012D02*
Y303476D01*
Y295012D02*
X117170D01*
X87957Y143768D02*
X98685D01*
Y152232D01*
X87957D02*
X98685D01*
X103457Y143768D02*
X114185D01*
Y152232D01*
X103457D02*
X114185D01*
X115315D02*
X126043D01*
X115315Y143768D02*
Y152232D01*
Y143768D02*
X126043D01*
X130315Y174732D02*
X141043D01*
X130315Y166268D02*
Y174732D01*
Y166268D02*
X141043D01*
X265982Y51906D02*
Y62634D01*
X257518D02*
X265982D01*
X257518Y51906D02*
Y62634D01*
X248982Y36457D02*
Y47185D01*
X240518D02*
X248982D01*
X240518Y36457D02*
Y47185D01*
X248982Y20406D02*
Y31134D01*
X240518D02*
X248982D01*
X240518Y20406D02*
Y31134D01*
X305737Y19250D02*
Y29978D01*
X297272D02*
X305737D01*
X297272Y19250D02*
Y29978D01*
X189224Y23236D02*
Y33965D01*
X180759D02*
X189224D01*
X180759Y23236D02*
Y33965D01*
X189224Y38457D02*
Y49185D01*
X180759D02*
X189224D01*
X180759Y38457D02*
Y49185D01*
X114594Y253982D02*
X125323D01*
X114594Y245518D02*
Y253982D01*
Y245518D02*
X125323D01*
X123482Y18957D02*
Y29685D01*
X115018D02*
X123482D01*
X115018Y18957D02*
Y29685D01*
X93487Y20406D02*
Y31134D01*
X85022D02*
X93487D01*
X85022Y20406D02*
Y31134D01*
X10244Y246268D02*
X20972D01*
Y254732D01*
X10244D02*
X20972D01*
X295232Y282457D02*
Y293185D01*
X286768D02*
X295232D01*
X286768Y282457D02*
Y293185D01*
X115018Y34736D02*
Y45465D01*
X123482D01*
Y34736D02*
Y45465D01*
X91945Y206414D02*
X102673D01*
Y214879D01*
X91945D02*
X102673D01*
X32913Y207914D02*
X43642D01*
Y216379D01*
X32913D02*
X43642D01*
X280359Y34895D02*
Y45623D01*
X288824D01*
Y34895D02*
Y45623D01*
X56957Y246518D02*
X67685D01*
Y254982D01*
X56957D02*
X67685D01*
X49656Y147013D02*
X60384D01*
Y155478D01*
X49656D02*
X60384D01*
X103177Y245518D02*
X113906D01*
Y253982D01*
X103177D02*
X113906D01*
X41457Y246268D02*
X52185D01*
Y254732D01*
X41457D02*
X52185D01*
X25957Y246268D02*
X36685D01*
Y254732D01*
X25957D02*
X36685D01*
X256018Y314035D02*
Y324764D01*
Y314035D02*
X264482D01*
Y324764D01*
X255799Y301828D02*
Y312557D01*
X247335D02*
X255799D01*
X247335Y301828D02*
Y312557D01*
X297120Y319094D02*
Y329822D01*
Y319094D02*
X305585D01*
Y329822D01*
X240518Y66847D02*
Y77575D01*
X248982D01*
Y66847D02*
Y77575D01*
X93482Y66847D02*
Y77575D01*
X85018D02*
X93482D01*
X85018Y66847D02*
Y77575D01*
X130095Y213982D02*
X140823D01*
X130095Y205518D02*
Y213982D01*
Y205518D02*
X140823D01*
X389077Y297522D02*
X399805D01*
X399805Y305987D02*
X399805Y297522D01*
X389077Y305987D02*
X399805Y305987D01*
X180759Y65265D02*
Y75993D01*
Y65265D02*
X189224D01*
Y75993D01*
X87750Y245518D02*
X98478D01*
Y253982D01*
X87750D02*
X98478D01*
X93482Y36457D02*
Y47185D01*
X85018D02*
X93482D01*
X85018Y36457D02*
Y47185D01*
X189224Y53736D02*
Y64465D01*
X180759D02*
X189224D01*
X180759Y53736D02*
Y64465D01*
X72457Y245518D02*
X83185D01*
Y253982D01*
X72457D02*
X83185D01*
X61535Y155482D02*
X72264D01*
X61535Y147018D02*
Y155482D01*
Y147018D02*
X72264D01*
X18457Y147013D02*
X29185D01*
Y155478D01*
X18457D02*
X29185D01*
X33957Y147013D02*
X44685D01*
Y155478D01*
X33957D02*
X44685D01*
X615245Y369222D02*
X618168Y366299D01*
X687154Y415869D02*
X691288D01*
X409358Y298183D02*
Y302317D01*
X351381Y310720D02*
X355515D01*
X425224Y297183D02*
Y301317D01*
X323714Y294978D02*
X327847D01*
X266690Y336731D02*
X270824D01*
X334724Y57279D02*
X338858D01*
X351873Y325982D02*
X356006D01*
X334724Y71950D02*
X338858D01*
X351881Y41873D02*
X356015D01*
X351881Y26528D02*
X356015D01*
X78000Y217590D02*
Y221724D01*
X95752Y55587D02*
X99886D01*
X182931Y396426D02*
Y400560D01*
X242129Y396027D02*
Y400161D01*
X63250Y396482D02*
Y400616D01*
X123221Y396732D02*
Y400866D01*
X302125Y395959D02*
Y400093D01*
X363062Y395959D02*
Y400093D01*
X49799Y306177D02*
Y310311D01*
X113127Y306177D02*
Y310311D01*
X91500Y137276D02*
Y141409D01*
X107638Y137276D02*
Y141409D01*
X122362Y154433D02*
Y158567D01*
X137362Y176776D02*
Y180909D01*
X251183Y55343D02*
X255317D01*
X233276Y40000D02*
X237409D01*
X251183Y24449D02*
X255317D01*
X290187Y23793D02*
X294321D01*
X191179Y26528D02*
X195313D01*
X191179Y42000D02*
X195313D01*
X121642Y256183D02*
Y260317D01*
X108683Y22500D02*
X112817D01*
X95442Y24587D02*
X99576D01*
X13567Y239841D02*
Y243974D01*
X297183Y285705D02*
X301317D01*
X108683Y37984D02*
X112817D01*
X95988Y200091D02*
Y204224D01*
X36500Y219590D02*
Y223724D01*
X274025Y38576D02*
X278158D01*
X60500Y239841D02*
Y243974D01*
X53199Y140679D02*
Y144813D01*
X106358Y256183D02*
Y260317D01*
X45500Y239841D02*
Y243974D01*
X29500Y239841D02*
Y243974D01*
X266683Y321083D02*
X270817D01*
X241000Y305553D02*
X245134D01*
X307785Y326141D02*
X311919D01*
X251183Y70670D02*
X255317D01*
X78845D02*
X82979D01*
X137362Y198933D02*
Y203067D01*
X392758Y308187D02*
Y312321D01*
X191179Y72502D02*
X195313D01*
X91293Y256183D02*
Y260317D01*
X95442Y40000D02*
X99576D01*
X191179Y57417D02*
X195313D01*
X76500Y238841D02*
Y242974D01*
X68721Y140683D02*
Y144817D01*
X22138Y140679D02*
Y144813D01*
X37638Y140433D02*
Y144567D01*
X578834Y396164D02*
X586421Y403750D01*
X578834Y396164D02*
X584820Y390178D01*
X592406Y397764D01*
X704268Y412000D02*
Y422728D01*
X712732D01*
Y412000D02*
Y422728D01*
X402173Y312982D02*
X412902Y312982D01*
X402173Y304518D02*
X402173Y312982D01*
X402173Y304518D02*
X412902Y304518D01*
X324216Y303535D02*
Y314264D01*
Y303535D02*
X332680D01*
Y314264D01*
X418535Y312982D02*
X429264D01*
X418535Y304518D02*
Y312982D01*
Y304518D02*
X429264D01*
X355513Y291297D02*
Y302025D01*
X347048D02*
X355513D01*
X347048Y291297D02*
Y302025D01*
X239025Y329684D02*
Y340412D01*
Y329684D02*
X247489D01*
Y340412D01*
X332982Y53736D02*
Y64465D01*
X324518D02*
X332982D01*
X324518Y53736D02*
Y64465D01*
X324207Y318935D02*
Y329663D01*
Y318935D02*
X332672D01*
Y329663D01*
X324518Y65308D02*
Y76037D01*
Y65308D02*
X332982D01*
Y76037D01*
Y22965D02*
Y33693D01*
X324518D02*
X332982D01*
X324518Y22965D02*
Y33693D01*
X71315Y197232D02*
X82043D01*
X71315Y188768D02*
Y197232D01*
Y188768D02*
X82043D01*
X76237Y51906D02*
Y62634D01*
X67772D02*
X76237D01*
X67772Y51906D02*
Y62634D01*
X178387Y378725D02*
X189116D01*
Y370260D02*
Y378725D01*
X178387Y370260D02*
X189116D01*
X238086Y378326D02*
X248814D01*
Y369862D02*
Y378326D01*
X238086Y369862D02*
X248814D01*
X59707Y378782D02*
X70435D01*
Y370317D02*
Y378782D01*
X59707Y370317D02*
X70435D01*
X118677Y379031D02*
X129405D01*
Y370567D02*
Y379031D01*
X118677Y370567D02*
X129405D01*
X297861Y377982D02*
X308590D01*
Y369518D02*
Y377982D01*
X297861Y369518D02*
X308590D01*
X359008Y377982D02*
X369737D01*
Y369518D02*
Y377982D01*
X359008Y369518D02*
X369737D01*
X42752Y312917D02*
X53480D01*
X42752D02*
Y321382D01*
X53480D01*
X106516Y321382D02*
X117245D01*
X106516Y312917D02*
Y321382D01*
Y312917D02*
X117245D01*
X87957Y160768D02*
X98685D01*
Y169232D01*
X87957D02*
X98685D01*
X103457Y160768D02*
X114185D01*
Y169232D01*
X103457D02*
X114185D01*
X115315D02*
X126043D01*
X115315Y160768D02*
Y169232D01*
Y160768D02*
X126043D01*
X130095Y191732D02*
X140823D01*
X130095Y183268D02*
Y191732D01*
Y183268D02*
X140823D01*
X240518Y51906D02*
Y62634D01*
X248982D01*
Y51906D02*
Y62634D01*
X265982Y36736D02*
Y47465D01*
X257518D02*
X265982D01*
X257518Y36736D02*
Y47465D01*
X265982Y20406D02*
Y31134D01*
X257518D02*
X265982D01*
X257518Y20406D02*
Y31134D01*
X279022Y19250D02*
Y29978D01*
X287487D01*
Y19250D02*
Y29978D01*
X171978Y22965D02*
Y33693D01*
X163513D02*
X171978D01*
X163513Y22965D02*
Y33693D01*
X171978Y38457D02*
Y49185D01*
X163513D02*
X171978D01*
X163513Y38457D02*
Y49185D01*
X114874Y236482D02*
X125602D01*
X114874Y228018D02*
Y236482D01*
Y228018D02*
X125602D01*
X141232Y18957D02*
Y29685D01*
X132768D02*
X141232D01*
X132768Y18957D02*
Y29685D01*
X76241Y20406D02*
Y31134D01*
X67777D02*
X76241D01*
X67777Y20406D02*
Y31134D01*
X10024Y229018D02*
X20752D01*
Y237482D01*
X10024D02*
X20752D01*
X311982Y282736D02*
Y293465D01*
X303518D02*
X311982D01*
X303518Y282736D02*
Y293465D01*
X141232Y35016D02*
Y45744D01*
X132768D02*
X141232D01*
X132768Y35016D02*
Y45744D01*
X91945Y189268D02*
X102673D01*
Y197732D01*
X91945D02*
X102673D01*
X32898Y190768D02*
X43626D01*
Y199232D01*
X32898D02*
X43626D01*
X305824Y34895D02*
Y45623D01*
X297359D02*
X305824D01*
X297359Y34895D02*
Y45623D01*
X56957Y229018D02*
X67685D01*
Y237482D01*
X56957D02*
X67685D01*
X49656Y164013D02*
X60384D01*
Y172478D01*
X49656D02*
X60384D01*
X103177Y228018D02*
X113906D01*
Y236482D01*
X103177D02*
X113906D01*
X41457Y229018D02*
X52185D01*
Y237482D01*
X41457D02*
X52185D01*
X25957Y229018D02*
X36685D01*
Y237482D01*
X25957D02*
X36685D01*
X239018Y314035D02*
Y324764D01*
Y314035D02*
X247482D01*
Y324764D01*
X272799Y301828D02*
Y312557D01*
X264335D02*
X272799D01*
X264335Y301828D02*
Y312557D01*
X280120Y319094D02*
Y329822D01*
Y319094D02*
X288585D01*
Y329822D01*
X265982Y67126D02*
Y77855D01*
X257518D02*
X265982D01*
X257518Y67126D02*
Y77855D01*
X76237Y67126D02*
Y77855D01*
X67772D02*
X76237D01*
X67772Y67126D02*
Y77855D01*
X130315Y231482D02*
X141043D01*
X130315Y223018D02*
Y231482D01*
Y223018D02*
X141043D01*
X389077Y280522D02*
X399805Y280522D01*
X399805Y288987D01*
X389077Y288987D02*
X399805Y288987D01*
X163513Y65308D02*
Y76037D01*
Y65308D02*
X171978D01*
Y76037D01*
X87750Y228018D02*
X98478D01*
Y236482D01*
X87750D02*
X98478D01*
X76237Y36736D02*
Y47465D01*
X67772D02*
X76237D01*
X67772Y36736D02*
Y47465D01*
X171978Y53736D02*
Y64465D01*
X163513D02*
X171978D01*
X163513Y53736D02*
Y64465D01*
X72457Y228018D02*
X83185D01*
Y236482D01*
X72457D02*
X83185D01*
X61535Y172482D02*
X72264D01*
X61535Y164018D02*
Y172482D01*
Y164018D02*
X72264D01*
X18457Y164013D02*
X29185D01*
Y172478D01*
X18457D02*
X29185D01*
X33957Y164013D02*
X44685D01*
Y172478D01*
X33957D02*
X44685D01*
X210883Y403755D02*
Y414484D01*
X202419Y403755D02*
X210883D01*
X202419D02*
Y414484D01*
X90055Y403463D02*
Y414191D01*
X81591Y403463D02*
X90055D01*
X81591D02*
Y414191D01*
X263361Y402860D02*
Y413588D01*
X254896Y402860D02*
X263361D01*
X254896D02*
Y413588D01*
X150732Y403364D02*
Y414092D01*
X142268Y403364D02*
X150732D01*
X142268D02*
Y414092D01*
X325732Y402860D02*
Y413588D01*
X317268Y402860D02*
X325732D01*
X317268D02*
Y413588D01*
X385878Y402860D02*
Y413588D01*
X377413Y402860D02*
X385878D01*
X377413D02*
Y413588D01*
X42669Y274886D02*
Y285614D01*
X34205D02*
X42669D01*
X34205Y274886D02*
Y285614D01*
X107482Y274736D02*
Y285465D01*
X99018D02*
X107482D01*
X99018Y274736D02*
Y285465D01*
X194895Y413027D02*
X200407D01*
X74067Y412581D02*
X79579D01*
X247373Y412000D02*
X252885D01*
X134744Y412482D02*
X140256D01*
X309744Y412000D02*
X315256D01*
X369744D02*
X375256D01*
X26681Y276500D02*
X32193D01*
X91586Y276350D02*
X97098D01*
X191768Y365457D02*
Y376185D01*
X200232D01*
Y365457D02*
Y376185D01*
X74268Y365457D02*
Y376185D01*
X82732D01*
Y365457D02*
Y376185D01*
X251396Y365501D02*
Y376230D01*
X259861D01*
Y365501D02*
Y376230D01*
X134268Y365457D02*
Y376185D01*
X142732D01*
Y365457D02*
Y376185D01*
X312436Y365478D02*
Y376206D01*
X320901D01*
Y365478D02*
Y376206D01*
X373768Y365478D02*
Y376206D01*
X382232D01*
Y365478D02*
Y376206D01*
X31705Y312965D02*
Y323693D01*
Y312965D02*
X40169D01*
Y323693D01*
X95426Y313965D02*
Y324693D01*
Y313965D02*
X103890D01*
Y324693D01*
X202244Y367000D02*
X207756D01*
X84744D02*
X90256D01*
X262373Y367045D02*
X267885D01*
X144849Y367000D02*
X150361D01*
X322912Y366976D02*
X328424D01*
X384244D02*
X389756D01*
X24181Y321500D02*
X29693D01*
X373500Y94569D02*
X384228D01*
Y86104D02*
Y94569D01*
X373500Y86104D02*
X384228D01*
X198512Y141732D02*
Y152461D01*
X190047Y141732D02*
X198512D01*
X190047D02*
Y152461D01*
X198512Y164732D02*
Y175461D01*
X190047Y164732D02*
X198512D01*
X190047D02*
Y175461D01*
X198512Y187732D02*
Y198461D01*
X190047Y187732D02*
X198512D01*
X190047D02*
Y198461D01*
X198512Y210732D02*
Y221461D01*
X190047Y210732D02*
X198512D01*
X190047D02*
Y221461D01*
X395957Y94569D02*
X406685D01*
Y86104D02*
Y94569D01*
X395957Y86104D02*
X406685D01*
X349957Y94569D02*
X360685D01*
Y86104D02*
Y94569D01*
X349957Y86104D02*
X360685D01*
X327457Y94569D02*
X338185D01*
Y86104D02*
Y94569D01*
X327457Y86104D02*
X338185D01*
X72957D02*
X83685D01*
Y94569D01*
X72957D02*
X83685D01*
X142836D02*
X153565D01*
Y86104D02*
Y94569D01*
X142836Y86104D02*
X153565D01*
X166500Y94569D02*
X177228D01*
Y86104D02*
Y94569D01*
X166500Y86104D02*
X177228D01*
X95957D02*
X106685D01*
Y94569D01*
X95957D02*
X106685D01*
X118957D02*
X129685D01*
Y86104D02*
Y94569D01*
X118957Y86104D02*
X129685D01*
X198512Y256732D02*
Y267461D01*
X190047Y256732D02*
X198512D01*
X190047D02*
Y267461D01*
X160160Y246380D02*
Y257109D01*
X151695Y246380D02*
X160160D01*
X151695D02*
Y257109D01*
X160160Y200380D02*
Y211109D01*
X151695Y200380D02*
X160160D01*
X151695D02*
Y211109D01*
X198512Y233732D02*
Y244461D01*
X190047Y233732D02*
X198512D01*
X190047D02*
Y244461D01*
X160160Y292924D02*
Y303652D01*
X151695Y292924D02*
X160160D01*
X151695D02*
Y303652D01*
X160160Y270380D02*
Y281109D01*
X151695Y270380D02*
X160160D01*
X151695D02*
Y281109D01*
X304957Y94569D02*
X315685D01*
Y86104D02*
Y94569D01*
X304957Y86104D02*
X315685D01*
X198512Y279732D02*
Y290461D01*
X190047Y279732D02*
X198512D01*
X190047D02*
Y290461D01*
X49957Y86104D02*
X60685D01*
Y94569D01*
X49957D02*
X60685D01*
X189957D02*
X200685D01*
Y86104D02*
Y94569D01*
X189957Y86104D02*
X200685D01*
X281957Y94569D02*
X292685D01*
Y86104D02*
Y94569D01*
X281957Y86104D02*
X292685D01*
X258957Y94569D02*
X269685D01*
Y86104D02*
Y94569D01*
X258957Y86104D02*
X269685D01*
X235957Y94569D02*
X246685D01*
Y86104D02*
Y94569D01*
X235957Y86104D02*
X246685D01*
X211957Y94569D02*
X222685D01*
Y86104D02*
Y94569D01*
X211957Y86104D02*
X222685D01*
X198512Y302732D02*
Y313461D01*
X190047Y302732D02*
X198512D01*
X190047D02*
Y313461D01*
X160160Y154381D02*
Y165109D01*
X151695Y154381D02*
X160160D01*
X151695D02*
Y165109D01*
X160160Y177381D02*
Y188109D01*
X151695Y177381D02*
X160160D01*
X151695D02*
Y188109D01*
Y223380D02*
Y234109D01*
Y223380D02*
X160160D01*
Y234109D01*
X190990Y395950D02*
Y401560D01*
X71839Y395905D02*
Y401516D01*
X250247Y395555D02*
Y401165D01*
X130839Y395950D02*
Y401560D01*
X310537Y395555D02*
Y401165D01*
X370900Y395554D02*
Y401165D01*
X42098Y287085D02*
Y292695D01*
X412433Y81000D02*
X416567D01*
X423433Y122500D02*
X427567D01*
X412433Y100575D02*
X416567D01*
X382000Y202433D02*
Y206567D01*
X371632Y242624D02*
X374555Y239701D01*
X362983Y248453D02*
X365906Y245530D01*
X242538Y238038D02*
X245462Y240962D01*
X326929Y258127D02*
X329852Y261050D01*
X433090Y262626D02*
X435874Y265410D01*
X437126Y258590D02*
X439910Y261374D01*
X438200Y244178D02*
X440984Y241394D01*
X434163Y240141D02*
X436947Y237357D01*
X438854Y208968D02*
X438854Y205031D01*
X433146D02*
X433146Y208968D01*
X409541Y242741D02*
X412325Y245524D01*
X405504Y246777D02*
X408288Y249561D01*
X419504Y233748D02*
X422288Y236532D01*
X423541Y229711D02*
X426325Y232495D01*
X332982Y38457D02*
Y49185D01*
X324518D02*
X332982D01*
X324518Y38457D02*
Y49185D01*
D14*
X577078Y199900D02*
Y199428D01*
X576607Y198957D01*
X576135Y198957D01*
X575193Y199900D01*
Y200371D01*
X575664Y200842D01*
X576135Y200842D01*
X577078Y202256D02*
X578491Y200842D01*
X577078Y200842D01*
X578020Y201785D01*
X577549Y203198D02*
X578491Y204141D01*
X579905Y203670D02*
X580848Y204612D01*
Y203670D02*
X579905Y204612D01*
X582026Y204377D02*
X581083Y205319D01*
Y206261D01*
X582026D01*
X582968Y205319D01*
X583440Y205790D02*
X582026Y207204D01*
X582733Y207911D01*
X583204Y207911D01*
X584147Y206968D01*
Y206497D01*
X583440Y205790D01*
X585560Y208382D02*
Y207911D01*
X585089Y207440D01*
X584618Y207440D01*
X583675Y208382D01*
Y208853D01*
X584147Y209325D01*
X584618D01*
X584618Y210267D02*
X585560Y211210D01*
X588623Y210974D02*
X587681Y210032D01*
X586974Y210738D01*
X587445Y211210D01*
X586974Y210738D01*
X586267Y211445D01*
X587681Y212859D02*
X589095Y211445D01*
X589802Y212152D01*
Y212623D01*
X589330Y213095D01*
X588859D01*
X588152Y212388D01*
X591215Y214037D02*
Y213566D01*
X590744Y213095D01*
X590273D01*
X589330Y214037D01*
Y214508D01*
X589802Y214980D01*
X590273Y214980D01*
X590744Y214508D01*
X590273Y214037D01*
X590508Y215686D02*
X591451Y214744D01*
X592393D01*
Y215686D01*
X591451Y216629D01*
X592158Y215922D01*
X591215Y214980D01*
X592629Y217807D02*
X594043Y216393D01*
X592629D01*
X593572Y217336D01*
X564078Y211400D02*
Y210928D01*
X563607Y210457D01*
X563135Y210457D01*
X562193Y211400D01*
Y211871D01*
X562664Y212342D01*
X563135Y212342D01*
X564549Y211871D02*
X565020Y211871D01*
X565491Y212342D01*
Y212813D01*
X565256Y213049D01*
X564785D01*
X564549Y212813D01*
X564785Y213049D01*
Y213520D01*
X564549Y213756D01*
X564078D01*
X563607Y213285D01*
Y212813D01*
X564549Y214698D02*
X565491Y215641D01*
X566905Y215170D02*
X567848Y216112D01*
Y215170D02*
X566905Y216112D01*
X569026Y215877D02*
X568083Y216819D01*
Y217761D01*
X569026D01*
X569968Y216819D01*
X570440Y217290D02*
X569026Y218704D01*
X569733Y219411D01*
X570204Y219411D01*
X571147Y218468D01*
Y217997D01*
X570440Y217290D01*
X572560Y219882D02*
Y219411D01*
X572089Y218940D01*
X571618Y218940D01*
X570675Y219882D01*
Y220353D01*
X571147Y220825D01*
X571618D01*
X571618Y221767D02*
X572560Y222710D01*
X575623Y222474D02*
X574681Y221532D01*
X573974Y222238D01*
X574445Y222710D01*
X573974Y222238D01*
X573267Y222945D01*
X574681Y224359D02*
X576095Y222945D01*
X576802Y223652D01*
Y224123D01*
X576330Y224595D01*
X575859D01*
X575152Y223888D01*
X578215Y225537D02*
Y225066D01*
X577744Y224595D01*
X577273D01*
X576330Y225537D01*
Y226008D01*
X576802Y226480D01*
X577273Y226480D01*
X577744Y226008D01*
X577273Y225537D01*
X577508Y227186D02*
X578451Y226244D01*
X579393D01*
Y227186D01*
X578451Y228129D01*
X579158Y227422D01*
X578215Y226480D01*
X579629Y229307D02*
X581043Y227893D01*
X579629D01*
X580572Y228836D01*
X550078Y225400D02*
Y224928D01*
X549607Y224457D01*
X549135Y224457D01*
X548193Y225400D01*
Y225871D01*
X548664Y226342D01*
X549135Y226342D01*
X550313Y227992D02*
X549371Y227049D01*
X551256D01*
X551491Y226813D01*
Y226342D01*
X551020Y225871D01*
X550549Y225871D01*
X550549Y228698D02*
X551491Y229641D01*
X552905Y229170D02*
X553848Y230112D01*
Y229170D02*
X552905Y230112D01*
X555026Y229876D02*
X554083Y230819D01*
Y231762D01*
X555026D01*
X555968Y230819D01*
X556440Y231290D02*
X555026Y232704D01*
X555733Y233411D01*
X556204Y233411D01*
X557147Y232468D01*
Y231997D01*
X556440Y231290D01*
X558560Y233882D02*
Y233411D01*
X558089Y232940D01*
X557618Y232940D01*
X556675Y233882D01*
Y234353D01*
X557147Y234825D01*
X557618D01*
X557618Y235767D02*
X558560Y236710D01*
X561623Y236474D02*
X560681Y235531D01*
X559974Y236238D01*
X560445Y236710D01*
X559974Y236238D01*
X559267Y236945D01*
X560681Y238359D02*
X562095Y236945D01*
X562802Y237652D01*
Y238123D01*
X562330Y238595D01*
X561859D01*
X561152Y237888D01*
X564215Y239537D02*
Y239066D01*
X563744Y238595D01*
X563273D01*
X562330Y239537D01*
Y240008D01*
X562802Y240480D01*
X563273Y240480D01*
X563744Y240008D01*
X563273Y239537D01*
X563508Y241186D02*
X564451Y240244D01*
X565393D01*
Y241186D01*
X564451Y242129D01*
X565158Y241422D01*
X564215Y240480D01*
X565629Y243307D02*
X567043Y241893D01*
X565629D01*
X566572Y242836D01*
X536196Y239017D02*
Y238546D01*
X535724Y238075D01*
X535253Y238075D01*
X534311Y239017D01*
Y239489D01*
X534782Y239960D01*
X535253Y239960D01*
X535489Y240667D02*
X535960Y241138D01*
X535724Y240902D01*
X537138Y239489D01*
X536667Y239489D01*
X536431Y242081D02*
X537374Y243023D01*
X538788Y242552D02*
X539730Y243494D01*
Y242552D02*
X538788Y243494D01*
X540908Y243259D02*
X539966Y244201D01*
Y245144D01*
X540908D01*
X541851Y244201D01*
X542322Y244672D02*
X540908Y246086D01*
X541615Y246793D01*
X542086Y246793D01*
X543029Y245851D01*
Y245379D01*
X542322Y244672D01*
X544443Y247264D02*
Y246793D01*
X543971Y246322D01*
X543500Y246322D01*
X542557Y247264D01*
Y247736D01*
X543029Y248207D01*
X543500Y248207D01*
Y249149D02*
X544443Y250092D01*
X547506Y249856D02*
X546563Y248914D01*
X545856Y249621D01*
X546327Y250092D01*
X545856Y249621D01*
X545149Y250327D01*
X546563Y251741D02*
X547977Y250327D01*
X548684Y251034D01*
Y251506D01*
X548212Y251977D01*
X547741D01*
X547034Y251270D01*
X550098Y252919D02*
Y252448D01*
X549626Y251977D01*
X549155D01*
X548212Y252919D01*
Y253391D01*
X548684Y253862D01*
X549155Y253862D01*
X549626Y253391D01*
X549155Y252919D01*
X549391Y254569D02*
X550333Y253626D01*
X551276D01*
Y254569D01*
X550333Y255511D01*
X551040Y254804D01*
X550098Y253862D01*
X551511Y256689D02*
X552925Y255276D01*
X551511Y255276D01*
X552454Y256218D01*
X423670Y367167D02*
X423337Y366834D01*
X422671D01*
X422337Y367167D01*
Y368500D01*
X422671Y368833D01*
X423337D01*
X423670Y368500D01*
X424337Y367167D02*
X424670Y366834D01*
X425337D01*
X425670Y367167D01*
Y367500D01*
X425337Y367833D01*
X425003D01*
X425337D01*
X425670Y368167D01*
Y368500D01*
X425337Y368833D01*
X424670D01*
X424337Y368500D01*
X426336Y369166D02*
X427669D01*
X428336Y367833D02*
X429668D01*
X429002Y367167D02*
Y368500D01*
X430335Y366834D02*
Y368167D01*
X431001Y368833D01*
X431668Y368167D01*
Y366834D01*
X432334D02*
Y368833D01*
X433334D01*
X433667Y368500D01*
Y367167D01*
X433334Y366834D01*
X432334D01*
X435666Y367167D02*
X435333Y366834D01*
X434667D01*
X434334Y367167D01*
Y368500D01*
X434667Y368833D01*
X435333D01*
X435666Y368500D01*
X436333Y369166D02*
X437666D01*
X439665Y366834D02*
X438332D01*
Y367833D01*
X438999D01*
X438332D01*
Y368833D01*
X440332D02*
Y366834D01*
X441331D01*
X441665Y367167D01*
Y367833D01*
X441331Y368167D01*
X440332D01*
X443664Y367167D02*
X443331Y366834D01*
X442664D01*
X442331Y367167D01*
Y368500D01*
X442664Y368833D01*
X443331D01*
X443664Y368500D01*
Y367833D01*
X442997D01*
X444330Y368833D02*
Y367500D01*
X444997Y366834D01*
X445663Y367500D01*
Y368833D01*
Y367833D01*
X444330D01*
X446330Y366834D02*
X447662D01*
Y367167D01*
X446330Y368500D01*
Y368833D01*
X423670Y375667D02*
X423337Y375334D01*
X422671D01*
X422337Y375667D01*
Y377000D01*
X422671Y377333D01*
X423337D01*
X423670Y377000D01*
X425670Y377333D02*
X424337D01*
X425670Y376000D01*
Y375667D01*
X425337Y375334D01*
X424670D01*
X424337Y375667D01*
X426336Y377666D02*
X427669D01*
X428336Y376333D02*
X429668D01*
X429002Y375667D02*
Y377000D01*
X430335Y375334D02*
Y376667D01*
X431001Y377333D01*
X431668Y376667D01*
Y375334D01*
X432334D02*
Y377333D01*
X433334D01*
X433667Y377000D01*
Y375667D01*
X433334Y375334D01*
X432334D01*
X435666Y375667D02*
X435333Y375334D01*
X434667D01*
X434334Y375667D01*
Y377000D01*
X434667Y377333D01*
X435333D01*
X435666Y377000D01*
X436333Y377666D02*
X437666D01*
X439665Y375334D02*
X438332D01*
Y376333D01*
X438999D01*
X438332D01*
Y377333D01*
X440332D02*
Y375334D01*
X441331D01*
X441665Y375667D01*
Y376333D01*
X441331Y376667D01*
X440332D01*
X443664Y375667D02*
X443331Y375334D01*
X442664D01*
X442331Y375667D01*
Y377000D01*
X442664Y377333D01*
X443331D01*
X443664Y377000D01*
Y376333D01*
X442997D01*
X444330Y377333D02*
Y376000D01*
X444997Y375334D01*
X445663Y376000D01*
Y377333D01*
Y376333D01*
X444330D01*
X446330Y375334D02*
X447662D01*
Y375667D01*
X446330Y377000D01*
Y377333D01*
X423670Y385667D02*
X423337Y385334D01*
X422671D01*
X422337Y385667D01*
Y387000D01*
X422671Y387333D01*
X423337D01*
X423670Y387000D01*
X424337Y387333D02*
X425003D01*
X424670D01*
Y385334D01*
X424337Y385667D01*
X426003Y387666D02*
X427336D01*
X428002Y386333D02*
X429335D01*
X428669Y385667D02*
Y387000D01*
X430002Y385334D02*
Y386667D01*
X430668Y387333D01*
X431334Y386667D01*
Y385334D01*
X432001D02*
Y387333D01*
X433001D01*
X433334Y387000D01*
Y385667D01*
X433001Y385334D01*
X432001D01*
X435333Y385667D02*
X435000Y385334D01*
X434334D01*
X434000Y385667D01*
Y387000D01*
X434334Y387333D01*
X435000D01*
X435333Y387000D01*
X436000Y387666D02*
X437333D01*
X439332Y385334D02*
X437999D01*
Y386333D01*
X438665D01*
X437999D01*
Y387333D01*
X439998D02*
Y385334D01*
X440998D01*
X441331Y385667D01*
Y386333D01*
X440998Y386667D01*
X439998D01*
X443331Y385667D02*
X442997Y385334D01*
X442331D01*
X441998Y385667D01*
Y387000D01*
X442331Y387333D01*
X442997D01*
X443331Y387000D01*
Y386333D01*
X442664D01*
X443997Y387333D02*
Y386000D01*
X444663Y385334D01*
X445330Y386000D01*
Y387333D01*
Y386333D01*
X443997D01*
X445996Y385334D02*
X447329D01*
Y385667D01*
X445996Y387000D01*
Y387333D01*
X409000Y273000D02*
Y274000D01*
X408500Y274500D01*
X408000Y274000D01*
Y273000D01*
Y273750D01*
X409000D01*
Y268000D02*
Y266500D01*
X408250D01*
X408000Y266750D01*
Y267750D01*
X408250Y268000D01*
X409000D01*
X401500Y277500D02*
Y278000D01*
Y277750D01*
X402999D01*
X402750Y277500D01*
X396000Y278250D02*
X397499D01*
X396750Y277500D01*
Y278500D01*
D16*
X144748Y240141D02*
Y238142D01*
X145747D01*
X146081Y238475D01*
Y239141D01*
X145747Y239475D01*
X144748D01*
X145414D02*
X146081Y240141D01*
X146747Y240474D02*
X148080D01*
X148747Y238142D02*
Y240141D01*
X149413Y239475D01*
X150079Y240141D01*
Y238142D01*
X150746D02*
X151412D01*
X151079D01*
Y240141D01*
X150746D01*
X151412D01*
X152412Y238142D02*
Y240141D01*
X153412D01*
X153745Y239808D01*
Y238475D01*
X153412Y238142D01*
X152412D01*
X154411D02*
X155744D01*
X155078D01*
Y240141D01*
X156411Y238142D02*
Y240141D01*
Y239141D01*
X157744D01*
Y238142D01*
Y240141D01*
X158410Y240474D02*
X159743D01*
X160409Y238142D02*
Y240141D01*
X161409D01*
X161742Y239808D01*
Y239475D01*
X161409Y239141D01*
X160409D01*
X161409D01*
X161742Y238808D01*
Y238475D01*
X161409Y238142D01*
X160409D01*
X162409D02*
X163075D01*
X162742D01*
Y240141D01*
X162409D01*
X163075D01*
X164075D02*
Y238808D01*
X164741Y238142D01*
X165408Y238808D01*
Y240141D01*
Y239141D01*
X164075D01*
X167407Y238475D02*
X167074Y238142D01*
X166407D01*
X166074Y238475D01*
Y238808D01*
X166407Y239141D01*
X167074D01*
X167407Y239475D01*
Y239808D01*
X167074Y240141D01*
X166407D01*
X166074Y239808D01*
X147931Y242732D02*
X147598Y242399D01*
X146931D01*
X146598Y242732D01*
Y244065D01*
X146931Y244398D01*
X147598D01*
X147931Y244065D01*
X148597Y244732D02*
X149930D01*
X150596Y242399D02*
Y243732D01*
X151263Y244398D01*
X151929Y243732D01*
Y242399D01*
X152596D02*
Y244398D01*
X153595D01*
X153929Y244065D01*
Y243732D01*
X153595Y243399D01*
X152596D01*
X153595D01*
X153929Y243066D01*
Y242732D01*
X153595Y242399D01*
X152596D01*
X154595Y244398D02*
Y242399D01*
X155595D01*
X155928Y242732D01*
Y243399D01*
X155595Y243732D01*
X154595D01*
X332816Y242270D02*
X334230Y243684D01*
X334937Y242977D01*
X334937Y242506D01*
X334701Y242270D01*
X334230Y242270D01*
X333523Y242977D01*
X334230Y242270D01*
Y241799D01*
X333994Y241563D01*
X333523D01*
X332816Y242270D01*
X334701Y241328D02*
X335408Y242034D01*
X335879D01*
X336586Y241328D01*
X335644Y240385D01*
X337293Y240621D02*
X336115Y239442D01*
X336586Y239914D01*
X336351Y240149D01*
X336822Y239678D01*
X336586Y239914D01*
X336115Y239442D01*
Y238971D01*
X338471Y239442D02*
X337293Y238264D01*
X337764Y238736D01*
X337529Y238971D01*
X338000Y238500D01*
X337764Y238736D01*
X337293Y238264D01*
Y237793D01*
X340121Y237793D02*
X339649Y238264D01*
X339178D01*
X338707Y237793D01*
X338707Y237322D01*
X339178Y236851D01*
X339649D01*
X339885Y237086D01*
X338943Y238029D01*
X339885Y236144D02*
X340827Y237086D01*
X340356Y236615D01*
Y236144D01*
Y235672D01*
X340592Y235437D01*
X341063Y234494D02*
Y234023D01*
X341534Y233552D01*
X342006D01*
X342241Y233787D01*
Y234259D01*
X342006Y234494D01*
X342241Y234259D01*
X342712Y234259D01*
X342948Y234494D01*
X342948Y234966D01*
X342477Y235437D01*
X342006D01*
X363335Y280333D02*
Y278334D01*
X364335D01*
X364668Y278667D01*
Y279333D01*
X364335Y279667D01*
X363335D01*
X364002D02*
X364668Y280333D01*
X365335Y280666D02*
X366667D01*
X367334Y280333D02*
Y279000D01*
X368000Y278334D01*
X368667Y279000D01*
Y280333D01*
Y279333D01*
X367334D01*
X369333Y278334D02*
Y280333D01*
X370333D01*
X370666Y280000D01*
Y278667D01*
X370333Y278334D01*
X369333D01*
X372666Y278667D02*
X372332Y278334D01*
X371666D01*
X371333Y278667D01*
Y280000D01*
X371666Y280333D01*
X372332D01*
X372666Y280000D01*
X374665Y278334D02*
X373998Y278667D01*
X373332Y279333D01*
Y280000D01*
X373665Y280333D01*
X374332D01*
X374665Y280000D01*
Y279667D01*
X374332Y279333D01*
X373332D01*
X407405Y218583D02*
X408819Y217170D01*
X409526Y217877D01*
Y218348D01*
X409055Y218819D01*
X408583Y218819D01*
X407877Y218112D01*
X408348Y218583D02*
Y219526D01*
X408583Y220233D02*
X409526Y221175D01*
X410233Y221411D02*
X411175Y220468D01*
X412118D01*
Y221411D01*
X411175Y222353D01*
X411882Y221646D01*
X410940Y220704D01*
X413060Y221411D02*
X411647Y222825D01*
X412353Y223532D01*
X412825D01*
X413767Y222589D01*
Y222118D01*
X413060Y221411D01*
X415181Y224003D02*
Y223532D01*
X414710Y223060D01*
X414239Y223060D01*
X413296Y224003D01*
Y224474D01*
X413767Y224945D01*
X414239Y224945D01*
X416830Y225181D02*
X415888Y224238D01*
X415181Y224945D01*
X415888Y225181D01*
X416123Y225417D01*
Y225888D01*
X415652Y226359D01*
X415181Y226359D01*
X414710Y225888D01*
Y225417D01*
X392905Y240583D02*
X394319Y239170D01*
X395026Y239877D01*
Y240348D01*
X394555Y240819D01*
X394083Y240819D01*
X393377Y240112D01*
X393848Y240583D02*
Y241526D01*
X394083Y242233D02*
X395026Y243175D01*
X395733Y243411D02*
X396675Y242468D01*
X397618D01*
Y243411D01*
X396675Y244353D01*
X397382Y243647D01*
X396440Y242704D01*
X398560Y243411D02*
X397147Y244825D01*
X397853Y245532D01*
X398325D01*
X399267Y244589D01*
Y244118D01*
X398560Y243411D01*
X400681Y246003D02*
Y245532D01*
X400210Y245060D01*
X399739Y245060D01*
X398796Y246003D01*
Y246474D01*
X399267Y246945D01*
X399739Y246945D01*
X400681Y248359D02*
X402095Y246945D01*
X400681Y246945D01*
X401623Y247888D01*
X429167Y203835D02*
X431166D01*
Y204835D01*
X430833Y205168D01*
X430167D01*
X429833Y204835D01*
Y203835D01*
Y204502D02*
X429167Y205168D01*
X428834Y205835D02*
Y207167D01*
X429167Y207834D02*
X430500D01*
X431166Y208500D01*
X430500Y209167D01*
X429167D01*
X430167D01*
Y207834D01*
X431166Y209833D02*
X429167D01*
Y210833D01*
X429500Y211166D01*
X430833D01*
X431166Y210833D01*
Y209833D01*
X430833Y213165D02*
X431166Y212832D01*
Y212166D01*
X430833Y211833D01*
X429500D01*
X429167Y212166D01*
Y212832D01*
X429500Y213165D01*
X430833Y213832D02*
X431166Y214165D01*
Y214832D01*
X430833Y215165D01*
X430500D01*
X430167Y214832D01*
Y214498D01*
Y214832D01*
X429833Y215165D01*
X429500D01*
X429167Y214832D01*
Y214165D01*
X429500Y213832D01*
X441905Y229083D02*
X443319Y227670D01*
X444026Y228377D01*
Y228848D01*
X443555Y229319D01*
X443083Y229319D01*
X442377Y228612D01*
X442848Y229083D02*
Y230026D01*
X443083Y230733D02*
X444026Y231675D01*
X444733Y231911D02*
X445675Y230968D01*
X446618D01*
Y231911D01*
X445675Y232853D01*
X446382Y232147D01*
X445440Y231204D01*
X447560Y231911D02*
X446147Y233325D01*
X446853Y234032D01*
X447325D01*
X448267Y233089D01*
Y232618D01*
X447560Y231911D01*
X449681Y234503D02*
Y234032D01*
X449210Y233560D01*
X448738Y233560D01*
X447796Y234503D01*
Y234974D01*
X448267Y235445D01*
X448738Y235445D01*
X449917Y237095D02*
X448974Y236152D01*
X450859D01*
X451095Y235917D01*
Y235445D01*
X450624Y234974D01*
X450152D01*
X443641Y270319D02*
X445055Y268905D01*
X445761Y269612D01*
Y270083D01*
X445290Y270555D01*
X444819Y270555D01*
X444112Y269848D01*
X444583Y270319D02*
Y271262D01*
X444819Y271968D02*
X445761Y272911D01*
X446468Y273147D02*
X447411Y272204D01*
X448353D01*
Y273147D01*
X447411Y274089D01*
X448118Y273382D01*
X447175Y272440D01*
X449296Y273147D02*
X447882Y274560D01*
X448589Y275267D01*
X449060D01*
X450003Y274325D01*
Y273853D01*
X449296Y273147D01*
X451417Y275738D02*
Y275267D01*
X450945Y274796D01*
X450474Y274796D01*
X449532Y275738D01*
Y276210D01*
X450003Y276681D01*
X450474Y276681D01*
X450710Y277388D02*
X451181Y277859D01*
X450945Y277623D01*
X452359Y276210D01*
X451888D01*
X381668Y263667D02*
X381335Y263334D01*
X380668D01*
X380335Y263667D01*
Y265000D01*
X380668Y265333D01*
X381335D01*
X381668Y265000D01*
X382334Y265666D02*
X383667D01*
X384334Y265333D02*
Y264000D01*
X385000Y263334D01*
X385667Y264000D01*
Y265333D01*
Y264333D01*
X384334D01*
X386333Y263334D02*
Y265333D01*
X387333D01*
X387666Y265000D01*
Y263667D01*
X387333Y263334D01*
X386333D01*
X389666Y263667D02*
X389332Y263334D01*
X388666D01*
X388333Y263667D01*
Y265000D01*
X388666Y265333D01*
X389332D01*
X389666Y265000D01*
X391665Y263334D02*
X390998Y263667D01*
X390332Y264333D01*
Y265000D01*
X390665Y265333D01*
X391332D01*
X391665Y265000D01*
Y264667D01*
X391332Y264333D01*
X390332D01*
X417026Y212348D02*
Y211877D01*
X416555Y211405D01*
X416083Y211405D01*
X415141Y212348D01*
Y212819D01*
X415612Y213290D01*
X416083Y213290D01*
X416083Y214233D02*
X417026Y215175D01*
X417733Y215411D02*
X418675Y214468D01*
X419618D01*
Y215411D01*
X418675Y216353D01*
X419382Y215647D01*
X418440Y214704D01*
X420560Y215411D02*
X419147Y216825D01*
X419853Y217532D01*
X420325D01*
X421267Y216589D01*
Y216118D01*
X420560Y215411D01*
X422681Y218003D02*
Y217532D01*
X422210Y217060D01*
X421738Y217060D01*
X420796Y218003D01*
Y218474D01*
X421267Y218945D01*
X421738Y218945D01*
X424330Y219181D02*
X423388Y218238D01*
X422681Y218945D01*
X423388Y219181D01*
X423624Y219417D01*
Y219888D01*
X423152Y220359D01*
X422681Y220359D01*
X422210Y219888D01*
Y219417D01*
X403026Y227848D02*
Y227377D01*
X402555Y226905D01*
X402083Y226905D01*
X401141Y227848D01*
Y228319D01*
X401612Y228790D01*
X402083Y228790D01*
X402083Y229733D02*
X403026Y230675D01*
X403733Y230911D02*
X404675Y229968D01*
X405618D01*
Y230911D01*
X404675Y231853D01*
X405382Y231147D01*
X404440Y230204D01*
X406560Y230911D02*
X405147Y232325D01*
X405854Y233032D01*
X406325D01*
X407267Y232089D01*
Y231618D01*
X406560Y230911D01*
X408681Y233503D02*
Y233032D01*
X408210Y232560D01*
X407738Y232560D01*
X406796Y233503D01*
Y233974D01*
X407267Y234445D01*
X407738Y234445D01*
X408681Y235859D02*
X410095Y234445D01*
X408681Y234445D01*
X409623Y235388D01*
X450833Y202668D02*
X451166Y202335D01*
Y201668D01*
X450833Y201335D01*
X449500D01*
X449167Y201668D01*
Y202335D01*
X449500Y202668D01*
X448834Y203334D02*
Y204667D01*
X449167Y205334D02*
X450500D01*
X451166Y206000D01*
X450500Y206667D01*
X449167D01*
X450167D01*
Y205334D01*
X451166Y207333D02*
X449167D01*
Y208333D01*
X449500Y208666D01*
X450833D01*
X451166Y208333D01*
Y207333D01*
X450833Y210665D02*
X451166Y210332D01*
Y209666D01*
X450833Y209333D01*
X449500D01*
X449167Y209666D01*
Y210332D01*
X449500Y210665D01*
X450833Y211332D02*
X451166Y211665D01*
Y212332D01*
X450833Y212665D01*
X450500D01*
X450167Y212332D01*
Y211998D01*
Y212332D01*
X449833Y212665D01*
X449500D01*
X449167Y212332D01*
Y211665D01*
X449500Y211332D01*
X444848Y252474D02*
X444377D01*
X443905Y252945D01*
X443905Y253417D01*
X444848Y254359D01*
X445319D01*
X445790Y253888D01*
X445790Y253417D01*
X446733Y253417D02*
X447675Y252474D01*
X447911Y251767D02*
X446968Y250825D01*
Y249882D01*
X447911D01*
X448853Y250825D01*
X448147Y250118D01*
X447204Y251060D01*
X447911Y248940D02*
X449325Y250353D01*
X450032Y249646D01*
Y249175D01*
X449089Y248233D01*
X448618D01*
X447911Y248940D01*
X450503Y246819D02*
X450032D01*
X449560Y247290D01*
X449560Y247762D01*
X450503Y248704D01*
X450974D01*
X451445Y248233D01*
X451445Y247762D01*
X453095Y246583D02*
X452152Y247526D01*
Y245641D01*
X451917Y245405D01*
X451445D01*
X450974Y245877D01*
Y246348D01*
X434761Y273583D02*
Y273112D01*
X434290Y272641D01*
X433819Y272641D01*
X432876Y273583D01*
Y274055D01*
X433348Y274526D01*
X433819Y274526D01*
X433819Y275468D02*
X434761Y276411D01*
X435468Y276646D02*
X436411Y275704D01*
X437353D01*
Y276646D01*
X436411Y277589D01*
X437118Y276882D01*
X436175Y275940D01*
X438296Y276646D02*
X436882Y278060D01*
X437589Y278767D01*
X438060D01*
X439003Y277825D01*
Y277353D01*
X438296Y276646D01*
X440417Y279238D02*
Y278767D01*
X439945Y278296D01*
X439474Y278296D01*
X438531Y279238D01*
Y279710D01*
X439003Y280181D01*
X439474Y280181D01*
X439710Y280888D02*
X440181Y281359D01*
X439945Y281123D01*
X441359Y279710D01*
X440888D01*
X17167Y293670D02*
X19166D01*
Y294669D01*
X18833Y295003D01*
X18167D01*
X17833Y294669D01*
Y293670D01*
Y294336D02*
X17167Y295003D01*
X16834Y295669D02*
Y297002D01*
X19166Y297668D02*
X17833D01*
X17167Y298335D01*
X17833Y299001D01*
X19166D01*
X17167Y299668D02*
X19166D01*
Y300667D01*
X18833Y301001D01*
X18167D01*
X17833Y300667D01*
Y299668D01*
Y300334D02*
X17167Y301001D01*
X19166Y303000D02*
Y301667D01*
X17167D01*
Y303000D01*
X18167Y301667D02*
Y302333D01*
X19166Y304999D02*
Y303666D01*
X18167D01*
Y304333D01*
Y303666D01*
X17167D01*
X16834Y305666D02*
Y306999D01*
X17167Y307665D02*
Y308332D01*
Y307998D01*
X19166D01*
X18833Y307665D01*
X17167Y309331D02*
X17500D01*
Y309665D01*
X17167D01*
Y309331D01*
X18833Y310997D02*
X19166Y311331D01*
Y311997D01*
X18833Y312330D01*
X18500D01*
X18167Y311997D01*
X17833Y312330D01*
X17500D01*
X17167Y311997D01*
Y311331D01*
X17500Y310997D01*
X17833D01*
X18167Y311331D01*
X18500Y310997D01*
X18833D01*
X18167Y311331D02*
Y311997D01*
X160167Y363335D02*
X162166D01*
Y364335D01*
X161833Y364668D01*
X161167D01*
X160833Y364335D01*
Y363335D01*
Y364002D02*
X160167Y364668D01*
X159834Y365335D02*
Y366667D01*
X162166Y368667D02*
Y367334D01*
X160167D01*
Y368667D01*
X161167Y367334D02*
Y368000D01*
X162166Y369333D02*
X160833D01*
X160167Y370000D01*
X160833Y370666D01*
X162166D01*
Y371333D02*
X160167D01*
Y372332D01*
X160500Y372666D01*
X161833D01*
X162166Y372332D01*
Y371333D01*
Y373332D02*
X160167D01*
Y374332D01*
X160500Y374665D01*
X161833D01*
X162166Y374332D01*
Y373332D01*
X98667Y355003D02*
X100666D01*
Y356003D01*
X100333Y356336D01*
X99667D01*
X99333Y356003D01*
Y355003D01*
Y355670D02*
X98667Y356336D01*
X98334Y357003D02*
Y358336D01*
X100666Y359002D02*
X98667D01*
Y360002D01*
X99000Y360335D01*
X100333D01*
X100666Y360002D01*
Y359002D01*
Y361001D02*
X99333D01*
X98667Y361668D01*
X99333Y362334D01*
X100666D01*
Y363001D02*
X98667D01*
Y364001D01*
X99000Y364334D01*
X100333D01*
X100666Y364001D01*
Y363001D01*
Y365000D02*
X98667D01*
Y366000D01*
X99000Y366333D01*
X100333D01*
X100666Y366000D01*
Y365000D01*
X98334Y367000D02*
Y368332D01*
X100666Y368999D02*
X98667D01*
X99667D01*
Y370332D01*
X100666D01*
X98667D01*
X100666Y370998D02*
Y371665D01*
Y371331D01*
X98667D01*
Y370998D01*
Y371665D01*
X100333Y373997D02*
X100666Y373664D01*
Y372998D01*
X100333Y372664D01*
X99000D01*
X98667Y372998D01*
Y373664D01*
X99000Y373997D01*
X99667D01*
Y373331D01*
X100666Y374664D02*
X98667D01*
X99667D01*
Y375997D01*
X100666D01*
X98667D01*
X217167Y362335D02*
X219166D01*
Y363335D01*
X218833Y363668D01*
X218167D01*
X217833Y363335D01*
Y362335D01*
Y363002D02*
X217167Y363668D01*
X216834Y364335D02*
Y365667D01*
X217167Y366334D02*
X218500D01*
X219166Y367000D01*
X218500Y367667D01*
X217167D01*
X218167D01*
Y366334D01*
X219166Y368333D02*
X217833D01*
X217167Y369000D01*
X217833Y369666D01*
X219166D01*
Y370333D02*
X217167D01*
Y371332D01*
X217500Y371666D01*
X218833D01*
X219166Y371332D01*
Y370333D01*
Y372332D02*
X217167D01*
Y373332D01*
X217500Y373665D01*
X218833D01*
X219166Y373332D01*
Y372332D01*
X230167Y207004D02*
X232166D01*
Y208004D01*
X231833Y208337D01*
X231167D01*
X230833Y208004D01*
Y207004D01*
Y207670D02*
X230167Y208337D01*
X229834Y209003D02*
Y210336D01*
X232166Y211003D02*
X230833D01*
X230167Y211669D01*
X230833Y212336D01*
X232166D01*
X230167Y213002D02*
X232166D01*
X231500Y213669D01*
X232166Y214335D01*
X230167D01*
X229834Y215002D02*
Y216334D01*
X230167Y217001D02*
X232166D01*
Y218001D01*
X231833Y218334D01*
X231167D01*
X230833Y218001D01*
Y217001D01*
X230167Y219000D02*
X232166D01*
Y220000D01*
X231833Y220333D01*
X231167D01*
X230833Y220000D01*
Y219000D01*
Y219667D02*
X230167Y220333D01*
X232166Y221999D02*
Y221333D01*
X231833Y221000D01*
X230500D01*
X230167Y221333D01*
Y221999D01*
X230500Y222332D01*
X231833D01*
X232166Y221999D01*
Y222999D02*
X230167Y224332D01*
X232166D02*
X230167Y222999D01*
X232166Y224998D02*
Y225665D01*
Y225331D01*
X230167D01*
Y224998D01*
Y225665D01*
Y226664D02*
X232166D01*
X231500Y227331D01*
X232166Y227997D01*
X230167D01*
Y228664D02*
X231500D01*
X232166Y229330D01*
X231500Y229997D01*
X230167D01*
X231167D01*
Y228664D01*
X232166Y230663D02*
X230167D01*
Y231996D01*
X319489Y263667D02*
X320902Y262253D01*
X321609Y262960D01*
Y263431D01*
X321138Y263902D01*
X320667Y263902D01*
X319960Y263196D01*
X320431Y263667D02*
Y264609D01*
X320667Y265316D02*
X321609Y266259D01*
X323730Y265081D02*
X322787Y266023D01*
Y266966D01*
X323730D01*
X324673Y266023D01*
X323730Y267908D02*
X325144Y266494D01*
Y267437D01*
X326086D01*
X324673Y268851D01*
X324908Y269557D02*
X325851Y270500D01*
X327971Y269322D02*
X326557Y270736D01*
X327264Y271443D01*
X327736Y271443D01*
X328678Y270500D01*
Y270029D01*
X327971Y269322D01*
X329385Y270736D02*
X329856Y271207D01*
X329621Y270971D01*
X328207Y272385D01*
X327971Y272149D01*
X328443Y272621D01*
X331270Y273092D02*
Y272621D01*
X330799Y272149D01*
X330328Y272149D01*
X330092Y272385D01*
X330092Y272856D01*
X330563Y273327D01*
X330563Y273799D01*
X330328Y274034D01*
X329856Y274034D01*
X329385Y273563D01*
Y273092D01*
X331977Y273327D02*
X332919Y274270D01*
X332448Y273799D01*
X331034Y275213D01*
X331977Y276155D02*
X332919Y275213D01*
X333862D01*
Y276155D01*
X332919Y277098D01*
X333626Y276391D01*
X332684Y275448D01*
X334804Y276155D02*
X333391Y277569D01*
X334333Y278511D01*
X236583Y239595D02*
X235170Y238181D01*
X235877Y237474D01*
X236348D01*
X236819Y237945D01*
X236819Y238417D01*
X236112Y239123D01*
X236583Y238652D02*
X237526D01*
X238233Y238417D02*
X239175Y237474D01*
X237997Y235353D02*
X238940Y236296D01*
X239882D01*
Y235353D01*
X238940Y234411D01*
X241060Y235589D02*
X242003Y234647D01*
X240825Y232526D02*
X242003Y233704D01*
X242474D01*
X242945Y233233D01*
X242945Y232762D01*
X241767Y231583D01*
X242474Y231348D02*
Y230876D01*
X242945Y230405D01*
X243417D01*
X243652Y230641D01*
Y231112D01*
X243417Y231348D01*
X243652Y231112D01*
X244124Y231112D01*
X244359Y231348D01*
X244359Y231819D01*
X243888Y232290D01*
X243417D01*
X369405Y253083D02*
X370819Y251670D01*
X371526Y252377D01*
Y252848D01*
X371055Y253319D01*
X370583Y253319D01*
X369877Y252612D01*
X370348Y253083D02*
Y254026D01*
X370583Y254733D02*
X371526Y255675D01*
X373647Y254497D02*
X372704Y255440D01*
Y256382D01*
X373647D01*
X374589Y255440D01*
X373411Y257560D02*
X374354Y258503D01*
X376474Y257325D02*
X375296Y258503D01*
Y258974D01*
X375767Y259445D01*
X376238Y259445D01*
X377417Y258267D01*
Y261095D02*
X376474Y260152D01*
X378359D01*
X378595Y259917D01*
Y259445D01*
X378123Y258974D01*
X377652D01*
X378405Y246583D02*
X379819Y245170D01*
X380526Y245877D01*
Y246348D01*
X380055Y246819D01*
X379583Y246819D01*
X378877Y246112D01*
X379348Y246583D02*
Y247526D01*
X379583Y248233D02*
X380526Y249175D01*
X382647Y247997D02*
X381704Y248940D01*
Y249882D01*
X382647D01*
X383589Y248940D01*
X382411Y251060D02*
X383353Y252003D01*
X385474Y250825D02*
X384296Y252003D01*
Y252474D01*
X384767Y252945D01*
X385239Y252945D01*
X386417Y251767D01*
X386652Y252474D02*
X387123D01*
X387595Y252945D01*
Y253417D01*
X386652Y254359D01*
X386181Y254359D01*
X385710Y253888D01*
Y253417D01*
X386652Y252474D01*
X390168Y205833D02*
Y203834D01*
X391168D01*
X391501Y204167D01*
Y204833D01*
X391168Y205167D01*
X390168D01*
X390835D02*
X391501Y205833D01*
X392168Y206166D02*
X393501D01*
X394167Y203834D02*
Y205167D01*
X394834Y205833D01*
X395500Y205167D01*
Y203834D01*
X396166Y206166D02*
X397499D01*
X398166Y203834D02*
Y205500D01*
X398499Y205833D01*
X399166D01*
X399499Y205500D01*
Y203834D01*
X400165Y205833D02*
X400832D01*
X400498D01*
Y203834D01*
X400165Y204167D01*
X413667Y108835D02*
X415666D01*
Y109835D01*
X415333Y110168D01*
X414667D01*
X414333Y109835D01*
Y108835D01*
Y109502D02*
X413667Y110168D01*
X413334Y110835D02*
Y112168D01*
X415333Y114167D02*
X415666Y113834D01*
Y113167D01*
X415333Y112834D01*
X415000D01*
X414667Y113167D01*
Y113834D01*
X414333Y114167D01*
X414000D01*
X413667Y113834D01*
Y113167D01*
X414000Y112834D01*
X415666Y114833D02*
X413667D01*
X414667D01*
Y116166D01*
X415666D01*
X413667D01*
X415666Y116833D02*
X413667D01*
Y117833D01*
X414000Y118166D01*
X415333D01*
X415666Y117833D01*
Y116833D01*
X413667Y118832D02*
X415666D01*
X413667Y120165D01*
X415666D01*
X415333Y120832D02*
X415666Y121165D01*
Y121831D01*
X415333Y122164D01*
X415000D01*
X414667Y121831D01*
Y121498D01*
Y121831D01*
X414333Y122164D01*
X414000D01*
X413667Y121831D01*
Y121165D01*
X414000Y120832D01*
X424167Y130335D02*
X426166D01*
Y131335D01*
X425833Y131668D01*
X425167D01*
X424833Y131335D01*
Y130335D01*
Y131002D02*
X424167Y131668D01*
X423834Y132335D02*
Y133668D01*
X425833Y135667D02*
X426166Y135334D01*
Y134667D01*
X425833Y134334D01*
X425500D01*
X425167Y134667D01*
Y135334D01*
X424833Y135667D01*
X424500D01*
X424167Y135334D01*
Y134667D01*
X424500Y134334D01*
X426166Y136334D02*
X424167D01*
X425167D01*
Y137666D01*
X426166D01*
X424167D01*
X426166Y138333D02*
X424167D01*
Y139333D01*
X424500Y139666D01*
X425833D01*
X426166Y139333D01*
Y138333D01*
X424167Y140332D02*
X426166D01*
X424167Y141665D01*
X426166D01*
X424167Y143665D02*
Y142332D01*
X425500Y143665D01*
X425833D01*
X426166Y143331D01*
Y142665D01*
X425833Y142332D01*
X414167Y60169D02*
X416166D01*
Y61168D01*
X415833Y61502D01*
X415167D01*
X414833Y61168D01*
Y60169D01*
Y60835D02*
X414167Y61502D01*
X413834Y62168D02*
Y63501D01*
X415833Y65500D02*
X416166Y65167D01*
Y64501D01*
X415833Y64167D01*
X415500D01*
X415167Y64501D01*
Y65167D01*
X414833Y65500D01*
X414500D01*
X414167Y65167D01*
Y64501D01*
X414500Y64167D01*
X416166Y66167D02*
X414167D01*
X415167D01*
Y67500D01*
X416166D01*
X414167D01*
X416166Y68166D02*
X414167D01*
Y69166D01*
X414500Y69499D01*
X415833D01*
X416166Y69166D01*
Y68166D01*
X414167Y70165D02*
X416166D01*
X414167Y71498D01*
X416166D01*
X414167Y72165D02*
Y72831D01*
Y72498D01*
X416166D01*
X415833Y72165D01*
X88324Y287937D02*
X86325D01*
Y289270D01*
X88324Y289937D02*
X86325D01*
Y290936D01*
X86658Y291270D01*
X87991D01*
X88324Y290936D01*
Y289937D01*
Y292936D02*
Y292269D01*
X87991Y291936D01*
X86658D01*
X86325Y292269D01*
Y292936D01*
X86658Y293269D01*
X87991D01*
X88324Y292936D01*
X85992Y293935D02*
Y295268D01*
X88324Y295935D02*
X86992D01*
X86325Y296601D01*
X86992Y297268D01*
X88324D01*
X86325Y297934D02*
X88324D01*
Y298934D01*
X87991Y299267D01*
X87325D01*
X86992Y298934D01*
Y297934D01*
Y298601D02*
X86325Y299267D01*
X88324Y301266D02*
Y299934D01*
X86325D01*
Y301266D01*
X87325Y299934D02*
Y300600D01*
X88324Y303266D02*
Y301933D01*
X87325D01*
Y302599D01*
Y301933D01*
X86325D01*
X85992Y303932D02*
Y305265D01*
X86325Y307264D02*
Y305931D01*
X87658Y307264D01*
X87991D01*
X88324Y306931D01*
Y306265D01*
X87991Y305931D01*
X87658Y307931D02*
X86325Y308597D01*
X87658Y309264D01*
X23666Y285670D02*
X21667D01*
Y287003D01*
X23666Y287670D02*
X21667D01*
Y288669D01*
X22000Y289003D01*
X23333D01*
X23666Y288669D01*
Y287670D01*
Y290669D02*
Y290002D01*
X23333Y289669D01*
X22000D01*
X21667Y290002D01*
Y290669D01*
X22000Y291002D01*
X23333D01*
X23666Y290669D01*
X21334Y291668D02*
Y293001D01*
X23666Y293668D02*
X22333D01*
X21667Y294334D01*
X22333Y295001D01*
X23666D01*
X21667Y295667D02*
X23666D01*
Y296667D01*
X23333Y297000D01*
X22667D01*
X22333Y296667D01*
Y295667D01*
Y296334D02*
X21667Y297000D01*
X23666Y298999D02*
Y297666D01*
X21667D01*
Y298999D01*
X22667Y297666D02*
Y298333D01*
X23666Y300999D02*
Y299666D01*
X22667D01*
Y300332D01*
Y299666D01*
X21667D01*
X21334Y301665D02*
Y302998D01*
X21667Y303664D02*
Y304331D01*
Y303998D01*
X23666D01*
X23333Y303664D01*
X21667Y305331D02*
X22000D01*
Y305664D01*
X21667D01*
Y305331D01*
X23333Y306997D02*
X23666Y307330D01*
Y307996D01*
X23333Y308330D01*
X23000D01*
X22667Y307996D01*
X22333Y308330D01*
X22000D01*
X21667Y307996D01*
Y307330D01*
X22000Y306997D01*
X22333D01*
X22667Y307330D01*
X23000Y306997D01*
X23333D01*
X22667Y307330D02*
Y307996D01*
X394166Y378503D02*
X392167D01*
Y379836D01*
X394166Y380503D02*
X392167D01*
Y381502D01*
X392500Y381836D01*
X393833D01*
X394166Y381502D01*
Y380503D01*
Y383502D02*
Y382835D01*
X393833Y382502D01*
X392500D01*
X392167Y382835D01*
Y383502D01*
X392500Y383835D01*
X393833D01*
X394166Y383502D01*
X391834Y384502D02*
Y385834D01*
X394166Y386501D02*
X392833D01*
X392167Y387167D01*
X392833Y387834D01*
X394166D01*
Y388500D02*
X392167D01*
Y389500D01*
X392500Y389833D01*
X393833D01*
X394166Y389500D01*
Y388500D01*
Y390499D02*
X392167D01*
Y391499D01*
X392500Y391832D01*
X393833D01*
X394166Y391499D01*
Y390499D01*
X391834Y392499D02*
Y393832D01*
X393833Y394498D02*
X394166Y394831D01*
Y395498D01*
X393833Y395831D01*
X393500D01*
X393167Y395498D01*
Y395165D01*
Y395498D01*
X392833Y395831D01*
X392500D01*
X392167Y395498D01*
Y394831D01*
X392500Y394498D01*
X392167Y396498D02*
X392500D01*
Y396831D01*
X392167D01*
Y396498D01*
X393833Y398164D02*
X394166Y398497D01*
Y399163D01*
X393833Y399497D01*
X393500D01*
X393167Y399163D01*
Y398830D01*
Y399163D01*
X392833Y399497D01*
X392500D01*
X392167Y399163D01*
Y398497D01*
X392500Y398164D01*
X333666Y378670D02*
X331667D01*
Y380003D01*
X333666Y380669D02*
X331667D01*
Y381669D01*
X332000Y382002D01*
X333333D01*
X333666Y381669D01*
Y380669D01*
Y383668D02*
Y383002D01*
X333333Y382669D01*
X332000D01*
X331667Y383002D01*
Y383668D01*
X332000Y384002D01*
X333333D01*
X333666Y383668D01*
X331334Y384668D02*
Y386001D01*
X333666Y386667D02*
X332333D01*
X331667Y387334D01*
X332333Y388000D01*
X333666D01*
Y388667D02*
X331667D01*
Y389666D01*
X332000Y390000D01*
X333333D01*
X333666Y389666D01*
Y388667D01*
Y390666D02*
X331667D01*
Y391666D01*
X332000Y391999D01*
X333333D01*
X333666Y391666D01*
Y390666D01*
X331334Y392666D02*
Y393998D01*
X331667Y394665D02*
Y395331D01*
Y394998D01*
X333666D01*
X333333Y394665D01*
X331667Y396331D02*
X332000D01*
Y396664D01*
X331667D01*
Y396331D01*
Y399330D02*
Y397997D01*
X333000Y399330D01*
X333333D01*
X333666Y398997D01*
Y398330D01*
X333333Y397997D01*
X154666Y378672D02*
X152667D01*
Y380005D01*
X154666Y380672D02*
X152667D01*
Y381671D01*
X153000Y382005D01*
X154333D01*
X154666Y381671D01*
Y380672D01*
Y383671D02*
Y383004D01*
X154333Y382671D01*
X153000D01*
X152667Y383004D01*
Y383671D01*
X153000Y384004D01*
X154333D01*
X154666Y383671D01*
X152334Y384670D02*
Y386003D01*
X154666Y388003D02*
Y386670D01*
X152667D01*
Y388003D01*
X153667Y386670D02*
Y387336D01*
X154666Y388669D02*
X153333D01*
X152667Y389335D01*
X153333Y390002D01*
X154666D01*
Y390668D02*
X152667D01*
Y391668D01*
X153000Y392001D01*
X154333D01*
X154666Y391668D01*
Y390668D01*
Y392668D02*
X152667D01*
Y393667D01*
X153000Y394001D01*
X154333D01*
X154666Y393667D01*
Y392668D01*
X273166Y378672D02*
X271167D01*
Y380005D01*
X273166Y380672D02*
X271167D01*
Y381671D01*
X271500Y382004D01*
X272833D01*
X273166Y381671D01*
Y380672D01*
Y383671D02*
Y383004D01*
X272833Y382671D01*
X271500D01*
X271167Y383004D01*
Y383671D01*
X271500Y384004D01*
X272833D01*
X273166Y383671D01*
X270834Y384670D02*
Y386003D01*
X273166Y386670D02*
X271167D01*
Y387669D01*
X271500Y388003D01*
X272833D01*
X273166Y387669D01*
Y386670D01*
Y388669D02*
X271833D01*
X271167Y389335D01*
X271833Y390002D01*
X273166D01*
Y390668D02*
X271167D01*
Y391668D01*
X271500Y392001D01*
X272833D01*
X273166Y391668D01*
Y390668D01*
Y392668D02*
X271167D01*
Y393667D01*
X271500Y394001D01*
X272833D01*
X273166Y393667D01*
Y392668D01*
X94166Y378672D02*
X92167D01*
Y380005D01*
X94166Y380672D02*
X92167D01*
Y381671D01*
X92500Y382004D01*
X93833D01*
X94166Y381671D01*
Y380672D01*
Y383671D02*
Y383004D01*
X93833Y382671D01*
X92500D01*
X92167Y383004D01*
Y383671D01*
X92500Y384004D01*
X93833D01*
X94166Y383671D01*
X91834Y384670D02*
Y386003D01*
X94166Y386670D02*
X92167D01*
Y387669D01*
X92500Y388003D01*
X93833D01*
X94166Y387669D01*
Y386670D01*
Y388669D02*
X92833D01*
X92167Y389335D01*
X92833Y390002D01*
X94166D01*
Y390668D02*
X92167D01*
Y391668D01*
X92500Y392001D01*
X93833D01*
X94166Y391668D01*
Y390668D01*
Y392668D02*
X92167D01*
Y393667D01*
X92500Y394001D01*
X93833D01*
X94166Y393667D01*
Y392668D01*
X91834Y394667D02*
Y396000D01*
X94166Y396666D02*
X92167D01*
X93167D01*
Y397999D01*
X94166D01*
X92167D01*
X94166Y398666D02*
Y399332D01*
Y398999D01*
X92167D01*
Y398666D01*
Y399332D01*
X93833Y401665D02*
X94166Y401332D01*
Y400665D01*
X93833Y400332D01*
X92500D01*
X92167Y400665D01*
Y401332D01*
X92500Y401665D01*
X93167D01*
Y400998D01*
X94166Y402331D02*
X92167D01*
X93167D01*
Y403664D01*
X94166D01*
X92167D01*
X214666Y378672D02*
X212667D01*
Y380005D01*
X214666Y380672D02*
X212667D01*
Y381671D01*
X213000Y382005D01*
X214333D01*
X214666Y381671D01*
Y380672D01*
Y383671D02*
Y383004D01*
X214333Y382671D01*
X213000D01*
X212667Y383004D01*
Y383671D01*
X213000Y384004D01*
X214333D01*
X214666Y383671D01*
X212334Y384670D02*
Y386003D01*
X212667Y386670D02*
X214000D01*
X214666Y387336D01*
X214000Y388003D01*
X212667D01*
X213667D01*
Y386670D01*
X214666Y388669D02*
X213333D01*
X212667Y389335D01*
X213333Y390002D01*
X214666D01*
Y390668D02*
X212667D01*
Y391668D01*
X213000Y392001D01*
X214333D01*
X214666Y391668D01*
Y390668D01*
Y392668D02*
X212667D01*
Y393667D01*
X213000Y394001D01*
X214333D01*
X214666Y393667D01*
Y392668D01*
X147931Y219732D02*
X147598Y219399D01*
X146931D01*
X146598Y219732D01*
Y221065D01*
X146931Y221398D01*
X147598D01*
X147931Y221065D01*
X148597Y221732D02*
X149930D01*
X150596Y219399D02*
Y221398D01*
X151263Y220732D01*
X151929Y221398D01*
Y219399D01*
X152596D02*
X153262D01*
X152929D01*
Y221398D01*
X152596D01*
X153262D01*
X154262Y219399D02*
Y221398D01*
X155262D01*
X155595Y221065D01*
Y219732D01*
X155262Y219399D01*
X154262D01*
X156261D02*
X157594D01*
X156928D01*
Y221398D01*
X158261Y219399D02*
Y221398D01*
Y220399D01*
X159594D01*
Y219399D01*
Y221398D01*
X160260Y221732D02*
X161593D01*
X162259Y219399D02*
Y221398D01*
X163259D01*
X163592Y221065D01*
Y220732D01*
X163259Y220399D01*
X162259D01*
X163259D01*
X163592Y220066D01*
Y219732D01*
X163259Y219399D01*
X162259D01*
X164259D02*
X164925D01*
X164592D01*
Y221398D01*
X164259D01*
X164925D01*
X165925D02*
Y220066D01*
X166591Y219399D01*
X167258Y220066D01*
Y221398D01*
Y220399D01*
X165925D01*
X169257Y219732D02*
X168924Y219399D01*
X168257D01*
X167924Y219732D01*
Y220066D01*
X168257Y220399D01*
X168924D01*
X169257Y220732D01*
Y221065D01*
X168924Y221398D01*
X168257D01*
X167924Y221065D01*
X147931Y173732D02*
X147598Y173399D01*
X146931D01*
X146598Y173732D01*
Y175065D01*
X146931Y175399D01*
X147598D01*
X147931Y175065D01*
X148597Y175732D02*
X149930D01*
X150596Y173399D02*
Y174732D01*
X151263Y175399D01*
X151929Y174732D01*
Y173399D01*
X152596D02*
Y175399D01*
X153262Y174732D01*
X153929Y175399D01*
Y173399D01*
X154595D02*
X155262D01*
X154928D01*
Y175399D01*
X154595D01*
X155262D01*
X156261Y173399D02*
Y175399D01*
X157261D01*
X157594Y175065D01*
Y173732D01*
X157261Y173399D01*
X156261D01*
X158261D02*
X159594D01*
X158927D01*
Y175399D01*
X160260Y173399D02*
Y175399D01*
Y174399D01*
X161593D01*
Y173399D01*
Y175399D01*
X162259Y175732D02*
X163592D01*
X164259Y173399D02*
Y175399D01*
X165592D01*
X167258Y173399D02*
X166591D01*
X166258Y173732D01*
Y175065D01*
X166591Y175399D01*
X167258D01*
X167591Y175065D01*
Y173732D01*
X167258Y173399D01*
X147931Y150732D02*
X147598Y150399D01*
X146931D01*
X146598Y150732D01*
Y152065D01*
X146931Y152399D01*
X147598D01*
X147931Y152065D01*
X148597Y152732D02*
X149930D01*
X150596Y150399D02*
Y151732D01*
X151263Y152399D01*
X151929Y151732D01*
Y150399D01*
X152596D02*
Y152399D01*
X153262Y151732D01*
X153929Y152399D01*
Y150399D01*
X154595D02*
X155262D01*
X154928D01*
Y152399D01*
X154595D01*
X155262D01*
X156261Y150399D02*
Y152399D01*
X157261D01*
X157594Y152065D01*
Y150732D01*
X157261Y150399D01*
X156261D01*
X158261D02*
X159594D01*
X158927D01*
Y152399D01*
X160260Y150399D02*
Y152399D01*
Y151399D01*
X161593D01*
Y150399D01*
Y152399D01*
X162259Y152732D02*
X163592D01*
X164259Y150399D02*
Y152399D01*
Y151399D01*
X165592D01*
Y150399D01*
Y152399D01*
X166258Y150399D02*
X166925D01*
X166591D01*
Y152399D01*
X166258D01*
X166925D01*
X188949Y299084D02*
X188615Y298751D01*
X187949D01*
X187616Y299084D01*
Y300417D01*
X187949Y300750D01*
X188615D01*
X188949Y300417D01*
X189615Y301084D02*
X190948D01*
X191614Y298751D02*
Y300084D01*
X192281Y300750D01*
X192947Y300084D01*
Y298751D01*
X193614D02*
X194947D01*
X194280D01*
Y300750D01*
X195613Y298751D02*
Y300750D01*
Y299751D01*
X196946D01*
Y298751D01*
Y300750D01*
X197612D02*
Y298751D01*
X198612D01*
X198945Y299084D01*
Y299751D01*
X198612Y300084D01*
X197612D01*
X198279D02*
X198945Y300750D01*
X200945Y298751D02*
X199612D01*
Y300750D01*
X200945D01*
X199612Y299751D02*
X200278D01*
X202944Y299084D02*
X202611Y298751D01*
X201944D01*
X201611Y299084D01*
Y299418D01*
X201944Y299751D01*
X202611D01*
X202944Y300084D01*
Y300417D01*
X202611Y300750D01*
X201944D01*
X201611Y300417D01*
X203610Y298751D02*
Y300750D01*
Y299751D01*
X204943D01*
Y298751D01*
Y300750D01*
X210168Y82503D02*
X209835Y82170D01*
X209169D01*
X208836Y82503D01*
Y83836D01*
X209169Y84170D01*
X209835D01*
X210168Y83836D01*
X210835Y84503D02*
X212168D01*
X212834Y82170D02*
Y83503D01*
X213501Y84170D01*
X214167Y83503D01*
Y82170D01*
X214834D02*
X216166D01*
X215500D01*
Y84170D01*
X216833D02*
Y82837D01*
X217499Y82170D01*
X218166Y82837D01*
Y84170D01*
Y83170D01*
X216833D01*
X218832Y82170D02*
Y83836D01*
X219165Y84170D01*
X219832D01*
X220165Y83836D01*
Y82170D01*
X220832Y82503D02*
X221165Y82170D01*
X221831D01*
X222165Y82503D01*
Y82837D01*
X221831Y83170D01*
X221498D01*
X221831D01*
X222165Y83503D01*
Y83836D01*
X221831Y84170D01*
X221165D01*
X220832Y83836D01*
X234168Y82503D02*
X233835Y82170D01*
X233169D01*
X232836Y82503D01*
Y83836D01*
X233169Y84170D01*
X233835D01*
X234168Y83836D01*
X234835Y84503D02*
X236168D01*
X236834Y82170D02*
Y83503D01*
X237501Y84170D01*
X238167Y83503D01*
Y82170D01*
X238834D02*
X240166D01*
X239500D01*
Y84170D01*
X240833D02*
Y82837D01*
X241499Y82170D01*
X242166Y82837D01*
Y84170D01*
Y83170D01*
X240833D01*
X242832Y82170D02*
Y83836D01*
X243165Y84170D01*
X243832D01*
X244165Y83836D01*
Y82170D01*
X246164Y84170D02*
X244832D01*
X246164Y82837D01*
Y82503D01*
X245831Y82170D01*
X245165D01*
X244832Y82503D01*
X257502D02*
X257168Y82170D01*
X256502D01*
X256169Y82503D01*
Y83836D01*
X256502Y84170D01*
X257168D01*
X257502Y83836D01*
X258168Y84503D02*
X259501D01*
X260168Y82170D02*
Y83503D01*
X260834Y84170D01*
X261500Y83503D01*
Y82170D01*
X262167D02*
X263500D01*
X262833D01*
Y84170D01*
X264166D02*
Y82837D01*
X264833Y82170D01*
X265499Y82837D01*
Y84170D01*
Y83170D01*
X264166D01*
X266165Y82170D02*
Y83836D01*
X266499Y84170D01*
X267165D01*
X267498Y83836D01*
Y82170D01*
X268165Y84170D02*
X268831D01*
X268498D01*
Y82170D01*
X268165Y82503D01*
X281168D02*
X280835Y82170D01*
X280169D01*
X279836Y82503D01*
Y83836D01*
X280169Y84170D01*
X280835D01*
X281168Y83836D01*
X281835Y84503D02*
X283168D01*
X283834Y82170D02*
Y83503D01*
X284501Y84170D01*
X285167Y83503D01*
Y82170D01*
X285834D02*
X287167D01*
X286500D01*
Y84170D01*
X287833D02*
Y82837D01*
X288499Y82170D01*
X289166Y82837D01*
Y84170D01*
Y83170D01*
X287833D01*
X289832Y82170D02*
Y83836D01*
X290165Y84170D01*
X290832D01*
X291165Y83836D01*
Y82170D01*
X291832Y82503D02*
X292165Y82170D01*
X292831D01*
X293164Y82503D01*
Y83836D01*
X292831Y84170D01*
X292165D01*
X291832Y83836D01*
Y82503D01*
X189169D02*
X188836Y82170D01*
X188169D01*
X187836Y82503D01*
Y83836D01*
X188169Y84170D01*
X188836D01*
X189169Y83836D01*
X189836Y84503D02*
X191168D01*
X191835Y82170D02*
Y83503D01*
X192501Y84170D01*
X193168Y83503D01*
Y82170D01*
X195167Y82503D02*
X194834Y82170D01*
X194167D01*
X193834Y82503D01*
Y82837D01*
X194167Y83170D01*
X194834D01*
X195167Y83503D01*
Y83836D01*
X194834Y84170D01*
X194167D01*
X193834Y83836D01*
X197167Y82503D02*
X196833Y82170D01*
X196167D01*
X195834Y82503D01*
Y82837D01*
X196167Y83170D01*
X196833D01*
X197167Y83503D01*
Y83836D01*
X196833Y84170D01*
X196167D01*
X195834Y83836D01*
X197833Y84503D02*
X199166D01*
X201165Y82503D02*
X200832Y82170D01*
X200166D01*
X199832Y82503D01*
Y82837D01*
X200166Y83170D01*
X200832D01*
X201165Y83503D01*
Y83836D01*
X200832Y84170D01*
X200166D01*
X199832Y83836D01*
X201832Y82170D02*
Y82503D01*
X202498Y83170D01*
X203165Y82503D01*
Y82170D01*
X202498Y83170D02*
Y84170D01*
X203831D02*
Y82170D01*
X205164Y84170D01*
Y82170D01*
X64333Y84171D02*
X64666Y83838D01*
Y83171D01*
X64333Y82838D01*
X63000D01*
X62667Y83171D01*
Y83838D01*
X63000Y84171D01*
X62334Y84837D02*
Y86170D01*
X64666Y86837D02*
X63333D01*
X62667Y87503D01*
X63333Y88170D01*
X64666D01*
X64333Y90169D02*
X64666Y89836D01*
Y89169D01*
X64333Y88836D01*
X64000D01*
X63667Y89169D01*
Y89836D01*
X63333Y90169D01*
X63000D01*
X62667Y89836D01*
Y89169D01*
X63000Y88836D01*
X62667Y90835D02*
X64666D01*
Y91835D01*
X64333Y92168D01*
X63667D01*
X63333Y91835D01*
Y90835D01*
X64666Y92835D02*
Y93501D01*
Y93168D01*
X62667D01*
Y92835D01*
Y93501D01*
X64666Y94501D02*
X62667D01*
X63333D01*
X64666Y95834D01*
X63667Y94834D01*
X62667Y95834D01*
X64666Y97833D02*
Y96500D01*
X62667D01*
Y97833D01*
X63667Y96500D02*
Y97167D01*
X188949Y276084D02*
X188615Y275751D01*
X187949D01*
X187616Y276084D01*
Y277417D01*
X187949Y277750D01*
X188615D01*
X188949Y277417D01*
X189615Y278084D02*
X190948D01*
X191614Y275751D02*
Y277084D01*
X192281Y277750D01*
X192947Y277084D01*
Y275751D01*
X193614Y277750D02*
Y275751D01*
X194613D01*
X194947Y276084D01*
Y276751D01*
X194613Y277084D01*
X193614D01*
X194280D02*
X194947Y277750D01*
X196946Y275751D02*
X195613D01*
Y277750D01*
X196946D01*
X195613Y276751D02*
X196279D01*
X198945Y276084D02*
X198612Y275751D01*
X197946D01*
X197612Y276084D01*
Y276418D01*
X197946Y276751D01*
X198612D01*
X198945Y277084D01*
Y277417D01*
X198612Y277750D01*
X197946D01*
X197612Y277417D01*
X200945Y275751D02*
X199612D01*
Y277750D01*
X200945D01*
X199612Y276751D02*
X200278D01*
X201611Y275751D02*
X202944D01*
X202277D01*
Y277750D01*
X303168Y82503D02*
X302835Y82170D01*
X302169D01*
X301835Y82503D01*
Y83836D01*
X302169Y84170D01*
X302835D01*
X303168Y83836D01*
X303835Y84503D02*
X305168D01*
X305834Y82170D02*
Y83503D01*
X306501Y84170D01*
X307167Y83503D01*
Y82170D01*
X307834Y84170D02*
Y82170D01*
X308833D01*
X309167Y82503D01*
Y83170D01*
X308833Y83503D01*
X307834D01*
X308500D02*
X309167Y84170D01*
X311166Y82170D02*
X309833D01*
Y84170D01*
X311166D01*
X309833Y83170D02*
X310499D01*
X313165Y82170D02*
X311832D01*
Y83170D01*
X312499D01*
X311832D01*
Y84170D01*
X313832D02*
Y82170D01*
X314831D01*
X315164Y82503D01*
Y83170D01*
X314831Y83503D01*
X313832D01*
X314498D02*
X315164Y84170D01*
X147931Y265566D02*
X147598Y265233D01*
X146931D01*
X146598Y265566D01*
Y266899D01*
X146931Y267232D01*
X147598D01*
X147931Y266899D01*
X148597Y267565D02*
X149930D01*
X150596Y265233D02*
Y266565D01*
X151263Y267232D01*
X151929Y266565D01*
Y265233D01*
X152596Y267898D02*
Y265899D01*
X153595D01*
X153929Y266232D01*
Y266899D01*
X153595Y267232D01*
X152596D01*
X154595Y265899D02*
Y266899D01*
X154928Y267232D01*
X155928D01*
Y265899D01*
X156595Y267898D02*
Y265899D01*
X157594D01*
X157927Y266232D01*
Y266899D01*
X157594Y267232D01*
X156595D01*
X158594D02*
Y265233D01*
X159594D01*
X159927Y265566D01*
Y266232D01*
X159594Y266565D01*
X158594D01*
X159260D02*
X159927Y267232D01*
X161593D02*
X160926D01*
X160593Y266899D01*
Y266232D01*
X160926Y265899D01*
X161593D01*
X161926Y266232D01*
Y266565D01*
X160593D01*
X163926Y267898D02*
Y265899D01*
X162926D01*
X162593Y266232D01*
Y266899D01*
X162926Y267232D01*
X163926D01*
X147931Y288566D02*
X147598Y288233D01*
X146931D01*
X146598Y288566D01*
Y289899D01*
X146931Y290232D01*
X147598D01*
X147931Y289899D01*
X148597Y290565D02*
X149930D01*
X150596Y288233D02*
Y289565D01*
X151263Y290232D01*
X151929Y289565D01*
Y288233D01*
X152596Y290898D02*
Y288899D01*
X153595D01*
X153929Y289232D01*
Y289899D01*
X153595Y290232D01*
X152596D01*
X154595Y288899D02*
Y289899D01*
X154928Y290232D01*
X155928D01*
Y288899D01*
X156595Y290898D02*
Y288899D01*
X157594D01*
X157927Y289232D01*
Y289899D01*
X157594Y290232D01*
X156595D01*
X158594Y290565D02*
X159927D01*
X160926Y288899D02*
X161593D01*
X161926Y289232D01*
Y290232D01*
X160926D01*
X160593Y289899D01*
X160926Y289565D01*
X161926D01*
X162593Y288899D02*
Y290232D01*
Y289565D01*
X162926Y289232D01*
X163259Y288899D01*
X163592D01*
X164592Y288233D02*
Y290232D01*
X165592D01*
X165925Y289899D01*
Y289565D01*
Y289232D01*
X165592Y288899D01*
X164592D01*
X188949Y230084D02*
X188615Y229751D01*
X187949D01*
X187616Y230084D01*
Y231417D01*
X187949Y231750D01*
X188615D01*
X188949Y231417D01*
X189615Y232084D02*
X190948D01*
X191614Y229751D02*
Y231084D01*
X192281Y231750D01*
X192947Y231084D01*
Y229751D01*
X193614Y231750D02*
Y229751D01*
X194613D01*
X194947Y230084D01*
Y230751D01*
X194613Y231084D01*
X193614D01*
X195613Y229751D02*
Y231750D01*
X196613D01*
X196946Y231417D01*
Y230084D01*
X196613Y229751D01*
X195613D01*
X197612Y231750D02*
Y229751D01*
X198945Y231750D01*
Y229751D01*
X147931Y196732D02*
X147598Y196399D01*
X146931D01*
X146598Y196732D01*
Y198065D01*
X146931Y198398D01*
X147598D01*
X147931Y198065D01*
X148597Y198732D02*
X149930D01*
X150596Y196399D02*
Y197732D01*
X151263Y198398D01*
X151929Y197732D01*
Y196399D01*
X152596D02*
X153262D01*
X152929D01*
Y198398D01*
X152596D01*
X153262D01*
X154262D02*
Y196399D01*
X155595Y198398D01*
Y196399D01*
X156261Y198732D02*
X157594D01*
X158261Y196399D02*
X158927D01*
X158594D01*
Y198398D01*
X158261D01*
X158927D01*
X159927Y196399D02*
Y198398D01*
X160926D01*
X161260Y198065D01*
Y197732D01*
X160926Y197399D01*
X159927D01*
X160926D01*
X161260Y197066D01*
Y196732D01*
X160926Y196399D01*
X159927D01*
X161926D02*
X162593D01*
X162259D01*
Y198398D01*
X161926D01*
X162593D01*
X163592D02*
Y197066D01*
X164259Y196399D01*
X164925Y197066D01*
Y198398D01*
Y197399D01*
X163592D01*
X166925Y196732D02*
X166591Y196399D01*
X165925D01*
X165592Y196732D01*
Y197066D01*
X165925Y197399D01*
X166591D01*
X166925Y197732D01*
Y198065D01*
X166591Y198398D01*
X165925D01*
X165592Y198065D01*
X188949Y253084D02*
X188615Y252751D01*
X187949D01*
X187616Y253084D01*
Y254417D01*
X187949Y254750D01*
X188615D01*
X188949Y254417D01*
X189615Y255084D02*
X190948D01*
X191614Y252751D02*
Y254084D01*
X192281Y254750D01*
X192947Y254084D01*
Y252751D01*
X193614D02*
Y254750D01*
X194613D01*
X194947Y254417D01*
Y254084D01*
X194613Y253751D01*
X193614D01*
X194613D01*
X194947Y253418D01*
Y253084D01*
X194613Y252751D01*
X193614D01*
X195613D02*
X196279D01*
X195946D01*
Y254750D01*
X195613D01*
X196279D01*
X197279D02*
Y253418D01*
X197945Y252751D01*
X198612Y253418D01*
Y254750D01*
Y253751D01*
X197279D01*
X200611Y253084D02*
X200278Y252751D01*
X199612D01*
X199278Y253084D01*
Y253418D01*
X199612Y253751D01*
X200278D01*
X200611Y254084D01*
Y254417D01*
X200278Y254750D01*
X199612D01*
X199278Y254417D01*
X133333Y80172D02*
X133666Y79839D01*
Y79173D01*
X133333Y78839D01*
X132000D01*
X131667Y79173D01*
Y79839D01*
X132000Y80172D01*
X131334Y80839D02*
Y82172D01*
X133666Y82838D02*
X132333D01*
X131667Y83504D01*
X132333Y84171D01*
X133666D01*
Y84837D02*
X131667D01*
Y85837D01*
X132000Y86170D01*
X132333D01*
X132667Y85837D01*
Y84837D01*
Y85837D01*
X133000Y86170D01*
X133333D01*
X133666Y85837D01*
Y84837D01*
Y86837D02*
Y87503D01*
Y87170D01*
X131667D01*
Y86837D01*
Y87503D01*
Y88503D02*
X133000D01*
X133666Y89169D01*
X133000Y89836D01*
X131667D01*
X132667D01*
Y88503D01*
X133333Y91835D02*
X133666Y91502D01*
Y90835D01*
X133333Y90502D01*
X133000D01*
X132667Y90835D01*
Y91502D01*
X132333Y91835D01*
X132000D01*
X131667Y91502D01*
Y90835D01*
X132000Y90502D01*
X131334Y92502D02*
Y93835D01*
X133333Y95834D02*
X133666Y95501D01*
Y94834D01*
X133333Y94501D01*
X133000D01*
X132667Y94834D01*
Y95501D01*
X132333Y95834D01*
X132000D01*
X131667Y95501D01*
Y94834D01*
X132000Y94501D01*
X133666Y97833D02*
Y96500D01*
X132667D01*
Y97167D01*
Y96500D01*
X131667D01*
X110333Y76174D02*
X110666Y75840D01*
Y75174D01*
X110333Y74841D01*
X109000D01*
X108667Y75174D01*
Y75840D01*
X109000Y76174D01*
X108334Y76840D02*
Y78173D01*
X110666Y78839D02*
X109333D01*
X108667Y79506D01*
X109333Y80172D01*
X110666D01*
Y80839D02*
X108667D01*
Y81838D01*
X109000Y82172D01*
X109333D01*
X109667Y81838D01*
Y80839D01*
Y81838D01*
X110000Y82172D01*
X110333D01*
X110666Y81838D01*
Y80839D01*
Y82838D02*
Y83504D01*
Y83171D01*
X108667D01*
Y82838D01*
Y83504D01*
Y84504D02*
X110000D01*
X110666Y85171D01*
X110000Y85837D01*
X108667D01*
X109667D01*
Y84504D01*
X110333Y87836D02*
X110666Y87503D01*
Y86837D01*
X110333Y86504D01*
X110000D01*
X109667Y86837D01*
Y87503D01*
X109333Y87836D01*
X109000D01*
X108667Y87503D01*
Y86837D01*
X109000Y86504D01*
X108334Y88503D02*
Y89836D01*
X110666Y90502D02*
X108667D01*
Y91502D01*
X109000Y91835D01*
X109333D01*
X109667Y91502D01*
Y90502D01*
Y91502D01*
X110000Y91835D01*
X110333D01*
X110666Y91502D01*
Y90502D01*
Y92502D02*
X109000D01*
X108667Y92835D01*
Y93501D01*
X109000Y93835D01*
X110666D01*
Y95834D02*
Y94501D01*
X109667D01*
Y95167D01*
Y94501D01*
X108667D01*
X110666Y97833D02*
Y96500D01*
X109667D01*
Y97167D01*
Y96500D01*
X108667D01*
X181333Y79839D02*
X181666Y79506D01*
Y78839D01*
X181333Y78506D01*
X180000D01*
X179667Y78839D01*
Y79506D01*
X180000Y79839D01*
X179334Y80506D02*
Y81838D01*
X181666Y82505D02*
X180333D01*
X179667Y83171D01*
X180333Y83838D01*
X181666D01*
X179667Y84504D02*
X181000D01*
X181666Y85171D01*
X181000Y85837D01*
X179667D01*
X180667D01*
Y84504D01*
X179667Y86503D02*
X181666D01*
X181000Y87170D01*
X181666Y87836D01*
X179667D01*
Y88503D02*
X181666D01*
Y89503D01*
X181333Y89836D01*
X180667D01*
X180333Y89503D01*
Y88503D01*
X179334Y90502D02*
Y91835D01*
X181666Y92502D02*
X179667D01*
Y93835D01*
X181666Y95501D02*
Y94834D01*
X181333Y94501D01*
X180000D01*
X179667Y94834D01*
Y95501D01*
X180000Y95834D01*
X181333D01*
X181666Y95501D01*
Y96500D02*
X179667D01*
X180333Y97167D01*
X179667Y97833D01*
X181666D01*
X157333Y78173D02*
X157666Y77840D01*
Y77173D01*
X157333Y76840D01*
X156000D01*
X155667Y77173D01*
Y77840D01*
X156000Y78173D01*
X155334Y78839D02*
Y80172D01*
X157666Y80839D02*
X156333D01*
X155667Y81505D01*
X156333Y82172D01*
X157666D01*
X155667Y82838D02*
X157000D01*
X157666Y83504D01*
X157000Y84171D01*
X155667D01*
X156667D01*
Y82838D01*
X155667Y84837D02*
X157666D01*
X157000Y85504D01*
X157666Y86170D01*
X155667D01*
Y86837D02*
X157666D01*
Y87836D01*
X157333Y88170D01*
X156667D01*
X156333Y87836D01*
Y86837D01*
X155334Y88836D02*
Y90169D01*
X157666Y90835D02*
X155667D01*
X156667D01*
Y92168D01*
X157666D01*
X155667D01*
X157666Y92835D02*
Y93501D01*
Y93168D01*
X155667D01*
Y92835D01*
Y93501D01*
X157333Y95834D02*
X157666Y95501D01*
Y94834D01*
X157333Y94501D01*
X156000D01*
X155667Y94834D01*
Y95501D01*
X156000Y95834D01*
X156667D01*
Y95167D01*
X157666Y96500D02*
X155667D01*
X156667D01*
Y97833D01*
X157666D01*
X155667D01*
X87333Y81837D02*
X87666Y81504D01*
Y80837D01*
X87333Y80504D01*
X86000D01*
X85667Y80837D01*
Y81504D01*
X86000Y81837D01*
X85334Y82503D02*
Y83836D01*
X87333Y85836D02*
X87666Y85502D01*
Y84836D01*
X87333Y84503D01*
X87000D01*
X86667Y84836D01*
Y85502D01*
X86333Y85836D01*
X86000D01*
X85667Y85502D01*
Y84836D01*
X86000Y84503D01*
X87666Y86502D02*
X87333D01*
X86667Y87169D01*
X87333Y87835D01*
X87666D01*
X86667Y87169D02*
X85667D01*
Y88501D02*
X87666D01*
X85667Y89834D01*
X87666D01*
X85334Y90501D02*
Y91834D01*
X87666Y92500D02*
X85667D01*
Y93500D01*
X86000Y93833D01*
X87333D01*
X87666Y93500D01*
Y92500D01*
X85667Y94499D02*
X87666D01*
Y95499D01*
X87333Y95832D01*
X86667D01*
X86333Y95499D01*
Y94499D01*
Y95166D02*
X85667Y95832D01*
X87666Y96499D02*
Y97165D01*
Y96832D01*
X85667D01*
Y96499D01*
Y97165D01*
X87666Y98165D02*
X86333D01*
X85667Y98831D01*
X86333Y99498D01*
X87666D01*
Y101497D02*
Y100164D01*
X85667D01*
Y101497D01*
X86667Y100164D02*
Y100831D01*
X87666Y102164D02*
X85667D01*
Y103497D01*
X87666Y105163D02*
Y104496D01*
X87333Y104163D01*
X86000D01*
X85667Y104496D01*
Y105163D01*
X86000Y105496D01*
X87333D01*
X87666Y105163D01*
X341833Y87505D02*
X342166Y87172D01*
Y86506D01*
X341833Y86172D01*
X340500D01*
X340167Y86506D01*
Y87172D01*
X340500Y87505D01*
X339834Y88172D02*
Y89505D01*
X341833Y91504D02*
X342166Y91171D01*
Y90504D01*
X341833Y90171D01*
X340500D01*
X340167Y90504D01*
Y91171D01*
X340500Y91504D01*
X341167D01*
Y90838D01*
X342166Y92171D02*
X340167D01*
Y93503D01*
X342166Y95503D02*
Y94170D01*
X340167D01*
Y95503D01*
X341167Y94170D02*
Y94836D01*
X340167Y96169D02*
X341500D01*
X342166Y96836D01*
X341500Y97502D01*
X340167D01*
X341167D01*
Y96169D01*
X342166Y98169D02*
X340167D01*
X340833D01*
X342166Y99501D01*
X341167Y98502D01*
X340167Y99501D01*
Y100168D02*
X342166D01*
Y101168D01*
X341833Y101501D01*
X341167D01*
X340833Y101168D01*
Y100168D01*
X364333Y87505D02*
X364666Y87172D01*
Y86506D01*
X364333Y86172D01*
X363000D01*
X362667Y86506D01*
Y87172D01*
X363000Y87505D01*
X362334Y88172D02*
Y89505D01*
X364333Y91504D02*
X364666Y91171D01*
Y90504D01*
X364333Y90171D01*
X363000D01*
X362667Y90504D01*
Y91171D01*
X363000Y91504D01*
X363667D01*
Y90838D01*
X364666Y92171D02*
X362667D01*
Y93503D01*
X364666Y95503D02*
Y94170D01*
X362667D01*
Y95503D01*
X363667Y94170D02*
Y94836D01*
X362667Y96169D02*
X364000D01*
X364666Y96836D01*
X364000Y97502D01*
X362667D01*
X363667D01*
Y96169D01*
X364666Y98169D02*
X362667D01*
X363333D01*
X364666Y99501D01*
X363667Y98502D01*
X362667Y99501D01*
X364666Y100168D02*
X362667D01*
Y101168D01*
X363000Y101501D01*
X364333D01*
X364666Y101168D01*
Y100168D01*
X397168Y82503D02*
X396835Y82170D01*
X396169D01*
X395835Y82503D01*
Y83836D01*
X396169Y84170D01*
X396835D01*
X397168Y83836D01*
X397835Y84503D02*
X399168D01*
X401167Y82503D02*
X400834Y82170D01*
X400168D01*
X399834Y82503D01*
Y83836D01*
X400168Y84170D01*
X400834D01*
X401167Y83836D01*
Y83170D01*
X400501D01*
X403166Y82503D02*
X402833Y82170D01*
X402167D01*
X401834Y82503D01*
Y83836D01*
X402167Y84170D01*
X402833D01*
X403166Y83836D01*
X404833Y82170D02*
X404166D01*
X403833Y82503D01*
Y83836D01*
X404166Y84170D01*
X404833D01*
X405166Y83836D01*
Y82503D01*
X404833Y82170D01*
X405832Y84170D02*
Y82170D01*
X406499Y82837D01*
X407165Y82170D01*
Y84170D01*
X407832D02*
Y82170D01*
X408831D01*
X409164Y82503D01*
Y83170D01*
X408831Y83503D01*
X407832D01*
X188949Y207084D02*
X188615Y206751D01*
X187949D01*
X187616Y207084D01*
Y208417D01*
X187949Y208751D01*
X188615D01*
X188949Y208417D01*
X189615Y209084D02*
X190948D01*
X192947Y206751D02*
X191614D01*
Y208751D01*
X192947D01*
X191614Y207751D02*
X192281D01*
X193614Y208751D02*
Y206751D01*
X194613D01*
X194947Y207084D01*
Y207751D01*
X194613Y208084D01*
X193614D01*
X194280D02*
X194947Y208751D01*
X196946Y206751D02*
X195613D01*
Y208751D01*
X196946D01*
X195613Y207751D02*
X196279D01*
X197612Y206751D02*
Y208084D01*
X198279Y208751D01*
X198945Y208084D01*
Y206751D01*
X199612Y207084D02*
X199945Y206751D01*
X200611D01*
X200945Y207084D01*
Y207418D01*
X200611Y207751D01*
X200278D01*
X200611D01*
X200945Y208084D01*
Y208417D01*
X200611Y208751D01*
X199945D01*
X199612Y208417D01*
X188949Y184084D02*
X188615Y183751D01*
X187949D01*
X187616Y184084D01*
Y185417D01*
X187949Y185750D01*
X188615D01*
X188949Y185417D01*
X189615Y186084D02*
X190948D01*
X192947Y183751D02*
X191614D01*
Y185750D01*
X192947D01*
X191614Y184751D02*
X192281D01*
X193614Y185750D02*
Y183751D01*
X194613D01*
X194947Y184084D01*
Y184751D01*
X194613Y185084D01*
X193614D01*
X194280D02*
X194947Y185750D01*
X196946Y183751D02*
X195613D01*
Y185750D01*
X196946D01*
X195613Y184751D02*
X196279D01*
X197612Y183751D02*
Y185084D01*
X198279Y185750D01*
X198945Y185084D01*
Y183751D01*
X200945Y185750D02*
X199612D01*
X200945Y184418D01*
Y184084D01*
X200611Y183751D01*
X199945D01*
X199612Y184084D01*
X188949Y161084D02*
X188615Y160751D01*
X187949D01*
X187616Y161084D01*
Y162417D01*
X187949Y162750D01*
X188615D01*
X188949Y162417D01*
X189615Y163084D02*
X190948D01*
X192947Y160751D02*
X191614D01*
Y162750D01*
X192947D01*
X191614Y161751D02*
X192281D01*
X193614Y162750D02*
Y160751D01*
X194613D01*
X194947Y161084D01*
Y161751D01*
X194613Y162084D01*
X193614D01*
X194280D02*
X194947Y162750D01*
X196946Y160751D02*
X195613D01*
Y162750D01*
X196946D01*
X195613Y161751D02*
X196279D01*
X197612Y160751D02*
Y162084D01*
X198279Y162750D01*
X198945Y162084D01*
Y160751D01*
X199612Y162750D02*
X200278D01*
X199945D01*
Y160751D01*
X199612Y161084D01*
X188949Y138084D02*
X188615Y137751D01*
X187949D01*
X187616Y138084D01*
Y139417D01*
X187949Y139751D01*
X188615D01*
X188949Y139417D01*
X189615Y140084D02*
X190948D01*
X192947Y137751D02*
X191614D01*
Y139751D01*
X192947D01*
X191614Y138751D02*
X192281D01*
X193614Y139751D02*
Y137751D01*
X194613D01*
X194947Y138084D01*
Y138751D01*
X194613Y139084D01*
X193614D01*
X194280D02*
X194947Y139751D01*
X196946Y137751D02*
X195613D01*
Y139751D01*
X196946D01*
X195613Y138751D02*
X196279D01*
X197612Y137751D02*
Y139084D01*
X198279Y139751D01*
X198945Y139084D01*
Y137751D01*
X199612Y138084D02*
X199945Y137751D01*
X200611D01*
X200945Y138084D01*
Y139417D01*
X200611Y139751D01*
X199945D01*
X199612Y139417D01*
Y138084D01*
X387833Y87505D02*
X388166Y87172D01*
Y86505D01*
X387833Y86172D01*
X386500D01*
X386167Y86505D01*
Y87172D01*
X386500Y87505D01*
X385834Y88171D02*
Y89504D01*
X388166Y91504D02*
Y90171D01*
X386167D01*
Y91504D01*
X387167Y90171D02*
Y90837D01*
X388166Y92170D02*
X386167D01*
Y93503D01*
X388166Y95502D02*
Y94169D01*
X386167D01*
Y95502D01*
X387167Y94169D02*
Y94836D01*
X386167Y96169D02*
X387500D01*
X388166Y96835D01*
X387500Y97502D01*
X386167D01*
X387167D01*
Y96169D01*
X388166Y98168D02*
X386167D01*
X386833D01*
X388166Y99501D01*
X387167Y98501D01*
X386167Y99501D01*
X227169Y244500D02*
Y246500D01*
X228168D01*
X228502Y246166D01*
Y245833D01*
X228168Y245500D01*
X227169D01*
X228168D01*
X228502Y245167D01*
Y244833D01*
X228168Y244500D01*
X227169D01*
X229168Y245167D02*
Y246166D01*
X229501Y246500D01*
X230501D01*
Y245167D01*
X231501Y246500D02*
Y244833D01*
Y245500D01*
X231167D01*
X231834D01*
X231501D01*
Y244833D01*
X231834Y244500D01*
X233167Y246500D02*
Y244833D01*
Y245500D01*
X232834D01*
X233500D01*
X233167D01*
Y244833D01*
X233500Y244500D01*
X235499Y246500D02*
X234833D01*
X234500Y246166D01*
Y245500D01*
X234833Y245167D01*
X235499D01*
X235833Y245500D01*
Y245833D01*
X234500D01*
X236499Y245167D02*
Y246500D01*
Y245833D01*
X236832Y245500D01*
X237165Y245167D01*
X237499D01*
X239831Y246500D02*
X238498D01*
X239831Y245167D01*
Y244833D01*
X239498Y244500D01*
X238832D01*
X238498Y244833D01*
X358500Y211502D02*
X356500D01*
Y212502D01*
X356834Y212835D01*
X357167D01*
X357500Y212502D01*
Y211502D01*
Y212502D01*
X357833Y212835D01*
X358167D01*
X358500Y212502D01*
Y211502D01*
X357833Y213501D02*
X356834D01*
X356500Y213835D01*
Y214834D01*
X357833D01*
X356500Y215834D02*
X358167D01*
X357500D01*
Y215501D01*
Y216167D01*
Y215834D01*
X358167D01*
X358500Y216167D01*
X356500Y217500D02*
X358167D01*
X357500D01*
Y217167D01*
Y217833D01*
Y217500D01*
X358167D01*
X358500Y217833D01*
X356500Y219833D02*
Y219166D01*
X356834Y218833D01*
X357500D01*
X357833Y219166D01*
Y219833D01*
X357500Y220166D01*
X357167D01*
Y218833D01*
X357833Y220832D02*
X356500D01*
X357167D01*
X357500Y221165D01*
X357833Y221499D01*
Y221832D01*
X356500Y222832D02*
Y223498D01*
Y223165D01*
X358500D01*
X358167Y222832D01*
X404378Y264713D02*
Y266046D01*
X403712Y266712D01*
X403045Y266046D01*
Y264713D01*
Y265712D01*
X404378D01*
X402379Y266712D02*
Y264713D01*
X401379D01*
X401046Y265046D01*
Y266379D01*
X401379Y266712D01*
X402379D01*
X399047Y266379D02*
X399380Y266712D01*
X400046D01*
X400380Y266379D01*
Y265046D01*
X400046Y264713D01*
X399380D01*
X399047Y265046D01*
X148264Y194333D02*
Y192334D01*
X149264D01*
X149597Y192667D01*
Y193333D01*
X149264Y193667D01*
X148264D01*
X148930D02*
X149597Y194333D01*
X150263Y194666D02*
X151596D01*
X152263Y192334D02*
Y193667D01*
X152929Y194333D01*
X153595Y193667D01*
Y192334D01*
X154262D02*
Y194333D01*
X154928Y193667D01*
X155595Y194333D01*
Y192334D01*
X156261D02*
X156928D01*
X156595D01*
Y194333D01*
X156261D01*
X156928D01*
X157927Y192334D02*
Y194333D01*
X158927D01*
X159260Y194000D01*
Y192667D01*
X158927Y192334D01*
X157927D01*
X159927D02*
X161260D01*
X160593D01*
Y194333D01*
X161926Y192334D02*
Y194333D01*
Y193333D01*
X163259D01*
Y192334D01*
Y194333D01*
X163926Y194666D02*
X165258D01*
X165925Y192334D02*
Y194333D01*
X167258D01*
X168924Y192334D02*
X168257D01*
X167924Y192667D01*
Y194000D01*
X168257Y194333D01*
X168924D01*
X169257Y194000D01*
Y192667D01*
X168924Y192334D01*
X148837Y171333D02*
Y169334D01*
X149836D01*
X150170Y169667D01*
Y170333D01*
X149836Y170667D01*
X148837D01*
X149503D02*
X150170Y171333D01*
X150836Y171666D02*
X152169D01*
X152835Y169334D02*
Y170667D01*
X153502Y171333D01*
X154168Y170667D01*
Y169334D01*
X154835D02*
Y171333D01*
X155501Y170667D01*
X156168Y171333D01*
Y169334D01*
X156834D02*
X157501D01*
X157167D01*
Y171333D01*
X156834D01*
X157501D01*
X158500Y169334D02*
Y171333D01*
X159500D01*
X159833Y171000D01*
Y169667D01*
X159500Y169334D01*
X158500D01*
X160500D02*
X161832D01*
X161166D01*
Y171333D01*
X162499Y169334D02*
Y171333D01*
Y170333D01*
X163832D01*
Y169334D01*
Y171333D01*
X164498Y171666D02*
X165831D01*
X166498Y169334D02*
Y171333D01*
Y170333D01*
X167831D01*
Y169334D01*
Y171333D01*
X168497Y169334D02*
X169163D01*
X168830D01*
Y171333D01*
X168497D01*
X169163D01*
X189616Y320750D02*
Y318751D01*
X190616D01*
X190949Y319084D01*
Y319751D01*
X190616Y320084D01*
X189616D01*
X190283D02*
X190949Y320750D01*
X191616Y321084D02*
X192948D01*
X193615Y318751D02*
Y320084D01*
X194281Y320750D01*
X194948Y320084D01*
Y318751D01*
X195614D02*
X196947D01*
X196281D01*
Y320750D01*
X197614Y318751D02*
Y320750D01*
Y319751D01*
X198946D01*
Y318751D01*
Y320750D01*
X199613D02*
Y318751D01*
X200613D01*
X200946Y319084D01*
Y319751D01*
X200613Y320084D01*
X199613D01*
X200279D02*
X200946Y320750D01*
X202945Y318751D02*
X201612D01*
Y320750D01*
X202945D01*
X201612Y319751D02*
X202279D01*
X204945Y319084D02*
X204611Y318751D01*
X203945D01*
X203612Y319084D01*
Y319418D01*
X203945Y319751D01*
X204611D01*
X204945Y320084D01*
Y320417D01*
X204611Y320750D01*
X203945D01*
X203612Y320417D01*
X205611Y318751D02*
Y320750D01*
Y319751D01*
X206944D01*
Y318751D01*
Y320750D01*
X205667Y91167D02*
X207666D01*
Y92167D01*
X207333Y92500D01*
X206667D01*
X206333Y92167D01*
Y91167D01*
Y91834D02*
X205667Y92500D01*
X205334Y93167D02*
Y94499D01*
X207666Y95166D02*
X206333D01*
X205667Y95832D01*
X206333Y96499D01*
X207666D01*
Y97165D02*
Y98498D01*
Y97832D01*
X205667D01*
Y99165D02*
X207000D01*
X207666Y99831D01*
X207000Y100498D01*
X205667D01*
X206667D01*
Y99165D01*
X207666Y101164D02*
X206000D01*
X205667Y101497D01*
Y102164D01*
X206000Y102497D01*
X207666D01*
X207333Y103163D02*
X207666Y103497D01*
Y104163D01*
X207333Y104496D01*
X207000D01*
X206667Y104163D01*
Y103830D01*
Y104163D01*
X206333Y104496D01*
X206000D01*
X205667Y104163D01*
Y103497D01*
X206000Y103163D01*
X228667Y91167D02*
X230666D01*
Y92167D01*
X230333Y92500D01*
X229667D01*
X229333Y92167D01*
Y91167D01*
Y91834D02*
X228667Y92500D01*
X228334Y93167D02*
Y94499D01*
X230666Y95166D02*
X229333D01*
X228667Y95832D01*
X229333Y96499D01*
X230666D01*
Y97165D02*
Y98498D01*
Y97832D01*
X228667D01*
Y99165D02*
X230000D01*
X230666Y99831D01*
X230000Y100498D01*
X228667D01*
X229667D01*
Y99165D01*
X230666Y101164D02*
X229000D01*
X228667Y101497D01*
Y102164D01*
X229000Y102497D01*
X230666D01*
X228667Y104496D02*
Y103163D01*
X230000Y104496D01*
X230333D01*
X230666Y104163D01*
Y103497D01*
X230333Y103163D01*
X251667Y91834D02*
X253666D01*
Y92833D01*
X253333Y93167D01*
X252667D01*
X252333Y92833D01*
Y91834D01*
Y92500D02*
X251667Y93167D01*
X251334Y93833D02*
Y95166D01*
X253666Y95832D02*
X252333D01*
X251667Y96499D01*
X252333Y97165D01*
X253666D01*
Y97832D02*
Y99165D01*
Y98498D01*
X251667D01*
Y99831D02*
X253000D01*
X253666Y100498D01*
X253000Y101164D01*
X251667D01*
X252667D01*
Y99831D01*
X253666Y101830D02*
X252000D01*
X251667Y102164D01*
Y102830D01*
X252000Y103163D01*
X253666D01*
X251667Y103830D02*
Y104496D01*
Y104163D01*
X253666D01*
X253333Y103830D01*
X274667Y91167D02*
X276666D01*
Y92167D01*
X276333Y92500D01*
X275667D01*
X275333Y92167D01*
Y91167D01*
Y91834D02*
X274667Y92500D01*
X274334Y93167D02*
Y94499D01*
X276666Y95166D02*
X275333D01*
X274667Y95832D01*
X275333Y96499D01*
X276666D01*
Y97165D02*
Y98498D01*
Y97832D01*
X274667D01*
Y99165D02*
X276000D01*
X276666Y99831D01*
X276000Y100498D01*
X274667D01*
X275667D01*
Y99165D01*
X276666Y101164D02*
X275000D01*
X274667Y101497D01*
Y102164D01*
X275000Y102497D01*
X276666D01*
X276333Y103163D02*
X276666Y103497D01*
Y104163D01*
X276333Y104496D01*
X275000D01*
X274667Y104163D01*
Y103497D01*
X275000Y103163D01*
X276333D01*
X183667Y87169D02*
X185666D01*
Y88168D01*
X185333Y88502D01*
X184667D01*
X184333Y88168D01*
Y87169D01*
Y87835D02*
X183667Y88502D01*
X183334Y89168D02*
Y90501D01*
X185666Y91167D02*
X184333D01*
X183667Y91834D01*
X184333Y92500D01*
X185666D01*
X185333Y94499D02*
X185666Y94166D01*
Y93500D01*
X185333Y93167D01*
X185000D01*
X184667Y93500D01*
Y94166D01*
X184333Y94499D01*
X184000D01*
X183667Y94166D01*
Y93500D01*
X184000Y93167D01*
X185333Y96499D02*
X185666Y96166D01*
Y95499D01*
X185333Y95166D01*
X185000D01*
X184667Y95499D01*
Y96166D01*
X184333Y96499D01*
X184000D01*
X183667Y96166D01*
Y95499D01*
X184000Y95166D01*
X183334Y97165D02*
Y98498D01*
X185333Y100498D02*
X185666Y100164D01*
Y99498D01*
X185333Y99165D01*
X185000D01*
X184667Y99498D01*
Y100164D01*
X184333Y100498D01*
X184000D01*
X183667Y100164D01*
Y99498D01*
X184000Y99165D01*
X185666Y101164D02*
X185333D01*
X184667Y101830D01*
X185333Y102497D01*
X185666D01*
X184667Y101830D02*
X183667D01*
Y103163D02*
X185666D01*
X183667Y104496D01*
X185666D01*
X43667Y87838D02*
X45666D01*
Y88837D01*
X45333Y89171D01*
X44667D01*
X44333Y88837D01*
Y87838D01*
Y88504D02*
X43667Y89171D01*
X43334Y89837D02*
Y91170D01*
X45666Y91837D02*
X44333D01*
X43667Y92503D01*
X44333Y93169D01*
X45666D01*
X45333Y95169D02*
X45666Y94836D01*
Y94169D01*
X45333Y93836D01*
X45000D01*
X44667Y94169D01*
Y94836D01*
X44333Y95169D01*
X44000D01*
X43667Y94836D01*
Y94169D01*
X44000Y93836D01*
X43667Y95835D02*
X45666D01*
Y96835D01*
X45333Y97168D01*
X44667D01*
X44333Y96835D01*
Y95835D01*
X45666Y97834D02*
Y98501D01*
Y98168D01*
X43667D01*
Y97834D01*
Y98501D01*
X45666Y99501D02*
X43667D01*
X44333D01*
X45666Y100833D01*
X44667Y99834D01*
X43667Y100833D01*
X45666Y102833D02*
Y101500D01*
X43667D01*
Y102833D01*
X44667Y101500D02*
Y102166D01*
X191616Y296750D02*
Y294751D01*
X192615D01*
X192948Y295084D01*
Y295751D01*
X192615Y296084D01*
X191616D01*
X192282D02*
X192948Y296750D01*
X193615Y297084D02*
X194948D01*
X195614Y294751D02*
Y296084D01*
X196281Y296750D01*
X196947Y296084D01*
Y294751D01*
X197614Y296750D02*
Y294751D01*
X198613D01*
X198946Y295084D01*
Y295751D01*
X198613Y296084D01*
X197614D01*
X198280D02*
X198946Y296750D01*
X200946Y294751D02*
X199613D01*
Y296750D01*
X200946D01*
X199613Y295751D02*
X200279D01*
X202945Y295084D02*
X202612Y294751D01*
X201946D01*
X201612Y295084D01*
Y295418D01*
X201946Y295751D01*
X202612D01*
X202945Y296084D01*
Y296417D01*
X202612Y296750D01*
X201946D01*
X201612Y296417D01*
X204945Y294751D02*
X203612D01*
Y296750D01*
X204945D01*
X203612Y295751D02*
X204278D01*
X205611Y294751D02*
X206944D01*
X206277D01*
Y296750D01*
X298667Y91167D02*
X300666D01*
Y92167D01*
X300333Y92500D01*
X299667D01*
X299333Y92167D01*
Y91167D01*
Y91834D02*
X298667Y92500D01*
X298334Y93167D02*
Y94499D01*
X300666Y95166D02*
X299333D01*
X298667Y95832D01*
X299333Y96499D01*
X300666D01*
X298667Y97165D02*
X300666D01*
Y98165D01*
X300333Y98498D01*
X299667D01*
X299333Y98165D01*
Y97165D01*
Y97832D02*
X298667Y98498D01*
X300666Y100498D02*
Y99165D01*
X298667D01*
Y100498D01*
X299667Y99165D02*
Y99831D01*
X300666Y102497D02*
Y101164D01*
X299667D01*
Y101830D01*
Y101164D01*
X298667D01*
Y103163D02*
X300666D01*
Y104163D01*
X300333Y104496D01*
X299667D01*
X299333Y104163D01*
Y103163D01*
Y103830D02*
X298667Y104496D01*
X81075Y295937D02*
X83074D01*
Y296936D01*
X82741Y297270D01*
X82075D01*
X81741Y296936D01*
Y295937D01*
Y296603D02*
X81075Y297270D01*
X80742Y297936D02*
Y299269D01*
X83074Y299935D02*
X81741D01*
X81075Y300602D01*
X81741Y301268D01*
X83074D01*
X81075Y301935D02*
X83074D01*
Y302935D01*
X82741Y303268D01*
X82075D01*
X81741Y302935D01*
Y301935D01*
Y302601D02*
X81075Y303268D01*
X83074Y305267D02*
Y303934D01*
X81075D01*
Y305267D01*
X82075Y303934D02*
Y304601D01*
X83074Y307266D02*
Y305933D01*
X82075D01*
Y306600D01*
Y305933D01*
X81075D01*
X80742Y307933D02*
Y309266D01*
X81075Y311265D02*
Y309932D01*
X82408Y311265D01*
X82741D01*
X83074Y310932D01*
Y310265D01*
X82741Y309932D01*
X82408Y311931D02*
X81075Y312598D01*
X82408Y313264D01*
X151929Y286232D02*
Y284233D01*
X152929D01*
X153262Y284566D01*
Y285232D01*
X152929Y285565D01*
X151929D01*
X152596D02*
X153262Y286232D01*
X153929Y286565D02*
X155262D01*
X155928Y284233D02*
Y285565D01*
X156595Y286232D01*
X157261Y285565D01*
Y284233D01*
X157927Y286898D02*
Y284899D01*
X158927D01*
X159260Y285232D01*
Y285899D01*
X158927Y286232D01*
X157927D01*
X159927Y284899D02*
Y285899D01*
X160260Y286232D01*
X161260D01*
Y284899D01*
X161926Y286898D02*
Y284899D01*
X162926D01*
X163259Y285232D01*
Y285899D01*
X162926Y286232D01*
X161926D01*
X163926D02*
Y284233D01*
X164925D01*
X165258Y284566D01*
Y285232D01*
X164925Y285565D01*
X163926D01*
X164592D02*
X165258Y286232D01*
X166925D02*
X166258D01*
X165925Y285899D01*
Y285232D01*
X166258Y284899D01*
X166925D01*
X167258Y285232D01*
Y285565D01*
X165925D01*
X169257Y286898D02*
Y284899D01*
X168257D01*
X167924Y285232D01*
Y285899D01*
X168257Y286232D01*
X169257D01*
X149930Y309232D02*
Y307233D01*
X150930D01*
X151263Y307566D01*
Y308232D01*
X150930Y308565D01*
X149930D01*
X150596D02*
X151263Y309232D01*
X151929Y309565D02*
X153262D01*
X153929Y307233D02*
Y308565D01*
X154595Y309232D01*
X155262Y308565D01*
Y307233D01*
X155928Y309898D02*
Y307899D01*
X156928D01*
X157261Y308232D01*
Y308899D01*
X156928Y309232D01*
X155928D01*
X157928Y307899D02*
Y308899D01*
X158261Y309232D01*
X159260D01*
Y307899D01*
X159927Y309898D02*
Y307899D01*
X160926D01*
X161260Y308232D01*
Y308899D01*
X160926Y309232D01*
X159927D01*
X161926Y309565D02*
X163259D01*
X164259Y307899D02*
X164925D01*
X165258Y308232D01*
Y309232D01*
X164259D01*
X163926Y308899D01*
X164259Y308565D01*
X165258D01*
X165925Y307899D02*
Y309232D01*
Y308565D01*
X166258Y308232D01*
X166591Y307899D01*
X166925D01*
X167924Y307233D02*
Y309232D01*
X168924D01*
X169257Y308899D01*
Y308565D01*
Y308232D01*
X168924Y307899D01*
X167924D01*
X195614Y250750D02*
Y248751D01*
X196614D01*
X196947Y249084D01*
Y249751D01*
X196614Y250084D01*
X195614D01*
X196281D02*
X196947Y250750D01*
X197614Y251084D02*
X198946D01*
X199613Y248751D02*
Y250084D01*
X200279Y250750D01*
X200946Y250084D01*
Y248751D01*
X201612Y250750D02*
Y248751D01*
X202612D01*
X202945Y249084D01*
Y249751D01*
X202612Y250084D01*
X201612D01*
X203612Y248751D02*
Y250750D01*
X204611D01*
X204945Y250417D01*
Y249084D01*
X204611Y248751D01*
X203612D01*
X205611Y250750D02*
Y248751D01*
X206944Y250750D01*
Y248751D01*
X148930Y217399D02*
Y215399D01*
X149930D01*
X150263Y215732D01*
Y216399D01*
X149930Y216732D01*
X148930D01*
X149597D02*
X150263Y217399D01*
X150930Y217732D02*
X152263D01*
X152929Y215399D02*
Y216732D01*
X153595Y217399D01*
X154262Y216732D01*
Y215399D01*
X154928D02*
X155595D01*
X155262D01*
Y217399D01*
X154928D01*
X155595D01*
X156595D02*
Y215399D01*
X157927Y217399D01*
Y215399D01*
X158594Y217732D02*
X159927D01*
X160593Y215399D02*
X161260D01*
X160926D01*
Y217399D01*
X160593D01*
X161260D01*
X162259Y215399D02*
Y217399D01*
X163259D01*
X163592Y217065D01*
Y216732D01*
X163259Y216399D01*
X162259D01*
X163259D01*
X163592Y216066D01*
Y215732D01*
X163259Y215399D01*
X162259D01*
X164259D02*
X164925D01*
X164592D01*
Y217399D01*
X164259D01*
X164925D01*
X165925D02*
Y216066D01*
X166591Y215399D01*
X167258Y216066D01*
Y217399D01*
Y216399D01*
X165925D01*
X169257Y215732D02*
X168924Y215399D01*
X168257D01*
X167924Y215732D01*
Y216066D01*
X168257Y216399D01*
X168924D01*
X169257Y216732D01*
Y217065D01*
X168924Y217399D01*
X168257D01*
X167924Y217065D01*
X400167Y360970D02*
X402166D01*
Y361970D01*
X401833Y362303D01*
X401167D01*
X400833Y361970D01*
Y360970D01*
Y361637D02*
X400167Y362303D01*
X399834Y362970D02*
Y364303D01*
X402166Y364969D02*
X400833D01*
X400167Y365635D01*
X400833Y366302D01*
X402166D01*
Y366968D02*
X400167D01*
Y367968D01*
X400500Y368301D01*
X401833D01*
X402166Y367968D01*
Y366968D01*
Y368968D02*
X400167D01*
Y369967D01*
X400500Y370301D01*
X401833D01*
X402166Y369967D01*
Y368968D01*
X399834Y370967D02*
Y372300D01*
X401833Y372966D02*
X402166Y373300D01*
Y373966D01*
X401833Y374299D01*
X401500D01*
X401167Y373966D01*
Y373633D01*
Y373966D01*
X400833Y374299D01*
X400500D01*
X400167Y373966D01*
Y373300D01*
X400500Y372966D01*
X400167Y374966D02*
X400500D01*
Y375299D01*
X400167D01*
Y374966D01*
X401833Y376632D02*
X402166Y376965D01*
Y377632D01*
X401833Y377965D01*
X401500D01*
X401167Y377632D01*
Y377298D01*
Y377632D01*
X400833Y377965D01*
X400500D01*
X400167Y377632D01*
Y376965D01*
X400500Y376632D01*
X340167Y355048D02*
X342166D01*
Y356048D01*
X341833Y356381D01*
X341167D01*
X340833Y356048D01*
Y355048D01*
Y355715D02*
X340167Y356381D01*
X339834Y357048D02*
Y358381D01*
X342166Y359047D02*
X340833D01*
X340167Y359713D01*
X340833Y360380D01*
X342166D01*
Y361046D02*
X340167D01*
Y362046D01*
X340500Y362379D01*
X341833D01*
X342166Y362046D01*
Y361046D01*
Y363046D02*
X340167D01*
Y364045D01*
X340500Y364378D01*
X341833D01*
X342166Y364045D01*
Y363046D01*
X339834Y365045D02*
Y366378D01*
X340167Y367044D02*
Y367711D01*
Y367378D01*
X342166D01*
X341833Y367044D01*
X340167Y368710D02*
X340500D01*
Y369044D01*
X340167D01*
Y368710D01*
Y371709D02*
Y370377D01*
X341500Y371709D01*
X341833D01*
X342166Y371376D01*
Y370710D01*
X341833Y370377D01*
X159927Y263399D02*
Y261399D01*
X160926D01*
X161260Y261732D01*
Y262399D01*
X160926Y262732D01*
X159927D01*
X160593D02*
X161260Y263399D01*
X161926Y263732D02*
X163259D01*
X163926Y261399D02*
Y262732D01*
X164592Y263399D01*
X165258Y262732D01*
Y261399D01*
X165925D02*
Y263399D01*
X166925D01*
X167258Y263065D01*
Y262732D01*
X166925Y262399D01*
X165925D01*
X166925D01*
X167258Y262066D01*
Y261732D01*
X166925Y261399D01*
X165925D01*
X167924Y263399D02*
Y261399D01*
X168924D01*
X169257Y261732D01*
Y262399D01*
X168924Y262732D01*
X167924D01*
X193948Y273750D02*
Y271751D01*
X194948D01*
X195281Y272084D01*
Y272751D01*
X194948Y273084D01*
X193948D01*
X194615D02*
X195281Y273750D01*
X195948Y274084D02*
X197280D01*
X197947Y271751D02*
Y273084D01*
X198613Y273750D01*
X199280Y273084D01*
Y271751D01*
X199946D02*
Y273750D01*
X200946D01*
X201279Y273417D01*
Y273084D01*
X200946Y272751D01*
X199946D01*
X200946D01*
X201279Y272418D01*
Y272084D01*
X200946Y271751D01*
X199946D01*
X201945D02*
X202612D01*
X202279D01*
Y273750D01*
X201945D01*
X202612D01*
X203612D02*
Y272418D01*
X204278Y271751D01*
X204945Y272418D01*
Y273750D01*
Y272751D01*
X203612D01*
X206944Y272084D02*
X206611Y271751D01*
X205944D01*
X205611Y272084D01*
Y272418D01*
X205944Y272751D01*
X206611D01*
X206944Y273084D01*
Y273417D01*
X206611Y273750D01*
X205944D01*
X205611Y273417D01*
X112667Y85502D02*
X114666D01*
Y86502D01*
X114333Y86835D01*
X113667D01*
X113333Y86502D01*
Y85502D01*
Y86169D02*
X112667Y86835D01*
X112334Y87502D02*
Y88835D01*
X114666Y89501D02*
X113333D01*
X112667Y90168D01*
X113333Y90834D01*
X114666D01*
Y91501D02*
X112667D01*
Y92500D01*
X113000Y92833D01*
X113333D01*
X113667Y92500D01*
Y91501D01*
Y92500D01*
X114000Y92833D01*
X114333D01*
X114666Y92500D01*
Y91501D01*
Y93500D02*
Y94166D01*
Y93833D01*
X112667D01*
Y93500D01*
Y94166D01*
Y95166D02*
X114000D01*
X114666Y95832D01*
X114000Y96499D01*
X112667D01*
X113667D01*
Y95166D01*
X114333Y98498D02*
X114666Y98165D01*
Y97499D01*
X114333Y97165D01*
X114000D01*
X113667Y97499D01*
Y98165D01*
X113333Y98498D01*
X113000D01*
X112667Y98165D01*
Y97499D01*
X113000Y97165D01*
X112334Y99165D02*
Y100498D01*
X114333Y102497D02*
X114666Y102164D01*
Y101497D01*
X114333Y101164D01*
X114000D01*
X113667Y101497D01*
Y102164D01*
X113333Y102497D01*
X113000D01*
X112667Y102164D01*
Y101497D01*
X113000Y101164D01*
X114666Y104496D02*
Y103163D01*
X113667D01*
Y103830D01*
Y103163D01*
X112667D01*
X90667Y81504D02*
X92666D01*
Y82503D01*
X92333Y82837D01*
X91667D01*
X91333Y82503D01*
Y81504D01*
Y82170D02*
X90667Y82837D01*
X90334Y83503D02*
Y84836D01*
X92666Y85502D02*
X91333D01*
X90667Y86169D01*
X91333Y86835D01*
X92666D01*
Y87502D02*
X90667D01*
Y88502D01*
X91000Y88835D01*
X91333D01*
X91667Y88502D01*
Y87502D01*
Y88502D01*
X92000Y88835D01*
X92333D01*
X92666Y88502D01*
Y87502D01*
Y89501D02*
Y90168D01*
Y89834D01*
X90667D01*
Y89501D01*
Y90168D01*
Y91167D02*
X92000D01*
X92666Y91834D01*
X92000Y92500D01*
X90667D01*
X91667D01*
Y91167D01*
X92333Y94499D02*
X92666Y94166D01*
Y93500D01*
X92333Y93167D01*
X92000D01*
X91667Y93500D01*
Y94166D01*
X91333Y94499D01*
X91000D01*
X90667Y94166D01*
Y93500D01*
X91000Y93167D01*
X90334Y95166D02*
Y96499D01*
X92666Y97165D02*
X90667D01*
Y98165D01*
X91000Y98498D01*
X91333D01*
X91667Y98165D01*
Y97165D01*
Y98165D01*
X92000Y98498D01*
X92333D01*
X92666Y98165D01*
Y97165D01*
Y99165D02*
X91000D01*
X90667Y99498D01*
Y100164D01*
X91000Y100498D01*
X92666D01*
Y102497D02*
Y101164D01*
X91667D01*
Y101830D01*
Y101164D01*
X90667D01*
X92666Y104496D02*
Y103163D01*
X91667D01*
Y103830D01*
Y103163D01*
X90667D01*
X160667Y85169D02*
X162666D01*
Y86169D01*
X162333Y86502D01*
X161667D01*
X161333Y86169D01*
Y85169D01*
Y85836D02*
X160667Y86502D01*
X160334Y87169D02*
Y88502D01*
X162666Y89168D02*
X161333D01*
X160667Y89834D01*
X161333Y90501D01*
X162666D01*
X160667Y91167D02*
X162000D01*
X162666Y91834D01*
X162000Y92500D01*
X160667D01*
X161667D01*
Y91167D01*
X160667Y93167D02*
X162666D01*
X162000Y93833D01*
X162666Y94499D01*
X160667D01*
Y95166D02*
X162666D01*
Y96166D01*
X162333Y96499D01*
X161667D01*
X161333Y96166D01*
Y95166D01*
X160334Y97165D02*
Y98498D01*
X162666Y99165D02*
X160667D01*
Y100498D01*
X162666Y102164D02*
Y101497D01*
X162333Y101164D01*
X161000D01*
X160667Y101497D01*
Y102164D01*
X161000Y102497D01*
X162333D01*
X162666Y102164D01*
Y103163D02*
X160667D01*
X161333Y103830D01*
X160667Y104496D01*
X162666D01*
X136667Y83503D02*
X138666D01*
Y84503D01*
X138333Y84836D01*
X137667D01*
X137333Y84503D01*
Y83503D01*
Y84170D02*
X136667Y84836D01*
X136334Y85502D02*
Y86835D01*
X138666Y87502D02*
X137333D01*
X136667Y88168D01*
X137333Y88835D01*
X138666D01*
X136667Y89501D02*
X138000D01*
X138666Y90168D01*
X138000Y90834D01*
X136667D01*
X137667D01*
Y89501D01*
X136667Y91501D02*
X138666D01*
X138000Y92167D01*
X138666Y92833D01*
X136667D01*
Y93500D02*
X138666D01*
Y94499D01*
X138333Y94833D01*
X137667D01*
X137333Y94499D01*
Y93500D01*
X136334Y95499D02*
Y96832D01*
X138666Y97499D02*
X136667D01*
X137667D01*
Y98831D01*
X138666D01*
X136667D01*
X138666Y99498D02*
Y100164D01*
Y99831D01*
X136667D01*
Y99498D01*
Y100164D01*
X138333Y102497D02*
X138666Y102164D01*
Y101497D01*
X138333Y101164D01*
X137000D01*
X136667Y101497D01*
Y102164D01*
X137000Y102497D01*
X137667D01*
Y101830D01*
X138666Y103163D02*
X136667D01*
X137667D01*
Y104496D01*
X138666D01*
X136667D01*
X67167Y79504D02*
X69166D01*
Y80504D01*
X68833Y80837D01*
X68167D01*
X67833Y80504D01*
Y79504D01*
Y80171D02*
X67167Y80837D01*
X66834Y81504D02*
Y82837D01*
X68833Y84836D02*
X69166Y84503D01*
Y83836D01*
X68833Y83503D01*
X68500D01*
X68167Y83836D01*
Y84503D01*
X67833Y84836D01*
X67500D01*
X67167Y84503D01*
Y83836D01*
X67500Y83503D01*
X69166Y85502D02*
X68833D01*
X68167Y86169D01*
X68833Y86835D01*
X69166D01*
X68167Y86169D02*
X67167D01*
Y87502D02*
X69166D01*
X67167Y88835D01*
X69166D01*
X66834Y89501D02*
Y90834D01*
X69166Y91501D02*
X67167D01*
Y92500D01*
X67500Y92833D01*
X68833D01*
X69166Y92500D01*
Y91501D01*
X67167Y93500D02*
X69166D01*
Y94499D01*
X68833Y94833D01*
X68167D01*
X67833Y94499D01*
Y93500D01*
Y94166D02*
X67167Y94833D01*
X69166Y95499D02*
Y96166D01*
Y95832D01*
X67167D01*
Y95499D01*
Y96166D01*
X69166Y97165D02*
X67833D01*
X67167Y97832D01*
X67833Y98498D01*
X69166D01*
Y100498D02*
Y99165D01*
X67167D01*
Y100498D01*
X68167Y99165D02*
Y99831D01*
X69166Y101164D02*
X67167D01*
Y102497D01*
X69166Y104163D02*
Y103497D01*
X68833Y103163D01*
X67500D01*
X67167Y103497D01*
Y104163D01*
X67500Y104496D01*
X68833D01*
X69166Y104163D01*
X319667Y89168D02*
X321666D01*
Y90168D01*
X321333Y90501D01*
X320667D01*
X320333Y90168D01*
Y89168D01*
Y89834D02*
X319667Y90501D01*
X319334Y91167D02*
Y92500D01*
X321333Y94499D02*
X321666Y94166D01*
Y93500D01*
X321333Y93167D01*
X320000D01*
X319667Y93500D01*
Y94166D01*
X320000Y94499D01*
X320667D01*
Y93833D01*
X321666Y95166D02*
X319667D01*
Y96499D01*
X321666Y98498D02*
Y97165D01*
X319667D01*
Y98498D01*
X320667Y97165D02*
Y97832D01*
X319667Y99165D02*
X321000D01*
X321666Y99831D01*
X321000Y100498D01*
X319667D01*
X320667D01*
Y99165D01*
X321666Y101164D02*
X319667D01*
X320333D01*
X321666Y102497D01*
X320667Y101497D01*
X319667Y102497D01*
Y103163D02*
X321666D01*
Y104163D01*
X321333Y104496D01*
X320667D01*
X320333Y104163D01*
Y103163D01*
X344167Y89168D02*
X346166D01*
Y90168D01*
X345833Y90501D01*
X345167D01*
X344833Y90168D01*
Y89168D01*
Y89834D02*
X344167Y90501D01*
X343834Y91167D02*
Y92500D01*
X345833Y94499D02*
X346166Y94166D01*
Y93500D01*
X345833Y93167D01*
X344500D01*
X344167Y93500D01*
Y94166D01*
X344500Y94499D01*
X345167D01*
Y93833D01*
X346166Y95166D02*
X344167D01*
Y96499D01*
X346166Y98498D02*
Y97165D01*
X344167D01*
Y98498D01*
X345167Y97165D02*
Y97832D01*
X344167Y99165D02*
X345500D01*
X346166Y99831D01*
X345500Y100498D01*
X344167D01*
X345167D01*
Y99165D01*
X346166Y101164D02*
X344167D01*
X344833D01*
X346166Y102497D01*
X345167Y101497D01*
X344167Y102497D01*
X346166Y103163D02*
X344167D01*
Y104163D01*
X344500Y104496D01*
X345833D01*
X346166Y104163D01*
Y103163D01*
X193615Y227750D02*
Y225751D01*
X194615D01*
X194948Y226084D01*
Y226751D01*
X194615Y227084D01*
X193615D01*
X194281D02*
X194948Y227750D01*
X195614Y228084D02*
X196947D01*
X198946Y225751D02*
X197614D01*
Y227750D01*
X198946D01*
X197614Y226751D02*
X198280D01*
X199613Y227750D02*
Y225751D01*
X200613D01*
X200946Y226084D01*
Y226751D01*
X200613Y227084D01*
X199613D01*
X200279D02*
X200946Y227750D01*
X202945Y225751D02*
X201612D01*
Y227750D01*
X202945D01*
X201612Y226751D02*
X202279D01*
X203612Y225751D02*
Y227084D01*
X204278Y227750D01*
X204945Y227084D01*
Y225751D01*
X205611Y226084D02*
X205944Y225751D01*
X206611D01*
X206944Y226084D01*
Y226418D01*
X206611Y226751D01*
X206277D01*
X206611D01*
X206944Y227084D01*
Y227417D01*
X206611Y227750D01*
X205944D01*
X205611Y227417D01*
X193615Y204750D02*
Y202751D01*
X194615D01*
X194948Y203084D01*
Y203751D01*
X194615Y204084D01*
X193615D01*
X194281D02*
X194948Y204750D01*
X195614Y205084D02*
X196947D01*
X198946Y202751D02*
X197614D01*
Y204750D01*
X198946D01*
X197614Y203751D02*
X198280D01*
X199613Y204750D02*
Y202751D01*
X200613D01*
X200946Y203084D01*
Y203751D01*
X200613Y204084D01*
X199613D01*
X200279D02*
X200946Y204750D01*
X202945Y202751D02*
X201612D01*
Y204750D01*
X202945D01*
X201612Y203751D02*
X202279D01*
X203612Y202751D02*
Y204084D01*
X204278Y204750D01*
X204945Y204084D01*
Y202751D01*
X206944Y204750D02*
X205611D01*
X206944Y203418D01*
Y203084D01*
X206611Y202751D01*
X205944D01*
X205611Y203084D01*
X194281Y181751D02*
Y179751D01*
X195281D01*
X195614Y180084D01*
Y180751D01*
X195281Y181084D01*
X194281D01*
X194948D02*
X195614Y181751D01*
X196281Y182084D02*
X197614D01*
X199613Y179751D02*
X198280D01*
Y181751D01*
X199613D01*
X198280Y180751D02*
X198946D01*
X200279Y181751D02*
Y179751D01*
X201279D01*
X201612Y180084D01*
Y180751D01*
X201279Y181084D01*
X200279D01*
X200946D02*
X201612Y181751D01*
X203612Y179751D02*
X202279D01*
Y181751D01*
X203612D01*
X202279Y180751D02*
X202945D01*
X204278Y179751D02*
Y181084D01*
X204945Y181751D01*
X205611Y181084D01*
Y179751D01*
X206277Y181751D02*
X206944D01*
X206611D01*
Y179751D01*
X206277Y180084D01*
X193615Y158750D02*
Y156751D01*
X194615D01*
X194948Y157084D01*
Y157751D01*
X194615Y158084D01*
X193615D01*
X194281D02*
X194948Y158750D01*
X195614Y159084D02*
X196947D01*
X198946Y156751D02*
X197614D01*
Y158750D01*
X198946D01*
X197614Y157751D02*
X198280D01*
X199613Y158750D02*
Y156751D01*
X200613D01*
X200946Y157084D01*
Y157751D01*
X200613Y158084D01*
X199613D01*
X200279D02*
X200946Y158750D01*
X202945Y156751D02*
X201612D01*
Y158750D01*
X202945D01*
X201612Y157751D02*
X202279D01*
X203612Y156751D02*
Y158084D01*
X204278Y158750D01*
X204945Y158084D01*
Y156751D01*
X205611Y157084D02*
X205944Y156751D01*
X206611D01*
X206944Y157084D01*
Y158417D01*
X206611Y158750D01*
X205944D01*
X205611Y158417D01*
Y157084D01*
X366667Y91167D02*
X368666D01*
Y92167D01*
X368333Y92500D01*
X367667D01*
X367333Y92167D01*
Y91167D01*
Y91834D02*
X366667Y92500D01*
X366334Y93167D02*
Y94499D01*
X368666Y96499D02*
Y95166D01*
X366667D01*
Y96499D01*
X367667Y95166D02*
Y95832D01*
X368666Y97165D02*
X366667D01*
Y98498D01*
X368666Y100498D02*
Y99165D01*
X366667D01*
Y100498D01*
X367667Y99165D02*
Y99831D01*
X366667Y101164D02*
X368000D01*
X368666Y101830D01*
X368000Y102497D01*
X366667D01*
X367667D01*
Y101164D01*
X368666Y103163D02*
X366667D01*
X367333D01*
X368666Y104496D01*
X367667Y103497D01*
X366667Y104496D01*
X279796Y361380D02*
X281795D01*
Y362380D01*
X281462Y362713D01*
X280795D01*
X280462Y362380D01*
Y361380D01*
Y362046D02*
X279796Y362713D01*
X279463Y363379D02*
Y364712D01*
X281795Y365379D02*
X279796D01*
Y366378D01*
X280129Y366711D01*
X281462D01*
X281795Y366378D01*
Y365379D01*
Y367378D02*
X280462D01*
X279796Y368044D01*
X280462Y368711D01*
X281795D01*
Y369377D02*
X279796D01*
Y370377D01*
X280129Y370710D01*
X281462D01*
X281795Y370377D01*
Y369377D01*
Y371377D02*
X279796D01*
Y372376D01*
X280129Y372709D01*
X281462D01*
X281795Y372376D01*
Y371377D01*
X390167Y93167D02*
X392166D01*
Y94166D01*
X391833Y94499D01*
X391167D01*
X390833Y94166D01*
Y93167D01*
Y93833D02*
X390167Y94499D01*
X389834Y95166D02*
Y96499D01*
X391833Y98498D02*
X392166Y98165D01*
Y97499D01*
X391833Y97165D01*
X390500D01*
X390167Y97499D01*
Y98165D01*
X390500Y98498D01*
X392166Y100164D02*
Y99498D01*
X391833Y99165D01*
X390500D01*
X390167Y99498D01*
Y100164D01*
X390500Y100498D01*
X391833D01*
X392166Y100164D01*
X390167Y101164D02*
X392166D01*
X391500Y101830D01*
X392166Y102497D01*
X390167D01*
Y103163D02*
X392166D01*
Y104163D01*
X391833Y104496D01*
X391167D01*
X390833Y104163D01*
Y103163D01*
X71500Y178834D02*
X69500D01*
Y179834D01*
X69834Y180167D01*
X71166D01*
X71500Y179834D01*
Y178834D01*
X69500Y180834D02*
X70833D01*
X71500Y181500D01*
X70833Y182167D01*
X69500D01*
X70500D01*
Y180834D01*
X71166Y184166D02*
X71500Y183833D01*
Y183167D01*
X71166Y182833D01*
X69834D01*
X69500Y183167D01*
Y183833D01*
X69834Y184166D01*
X71500Y186165D02*
Y184833D01*
X70500D01*
X70833Y185499D01*
Y185832D01*
X70500Y186165D01*
X69834D01*
X69500Y185832D01*
Y185166D01*
X69834Y184833D01*
X103500Y179334D02*
X101500D01*
Y180334D01*
X101834Y180667D01*
X103166D01*
X103500Y180334D01*
Y179334D01*
X101500Y181334D02*
X102833D01*
X103500Y182000D01*
X102833Y182667D01*
X101500D01*
X102500D01*
Y181334D01*
X103166Y184666D02*
X103500Y184333D01*
Y183667D01*
X103166Y183333D01*
X101834D01*
X101500Y183667D01*
Y184333D01*
X101834Y184666D01*
X101500Y186332D02*
X103500D01*
X102500Y185333D01*
Y186665D01*
X132834Y71000D02*
Y73000D01*
X133834D01*
X134167Y72666D01*
Y71333D01*
X133834Y71000D01*
X132834D01*
X134834Y73000D02*
Y71667D01*
X135500Y71000D01*
X136167Y71667D01*
Y73000D01*
Y72000D01*
X134834D01*
X138166Y71333D02*
X137833Y71000D01*
X137167D01*
X136833Y71333D01*
Y72666D01*
X137167Y73000D01*
X137833D01*
X138166Y72666D01*
X138833Y71333D02*
X139166Y71000D01*
X139832D01*
X140165Y71333D01*
Y71667D01*
X139832Y72000D01*
X139499D01*
X139832D01*
X140165Y72333D01*
Y72666D01*
X139832Y73000D01*
X139166D01*
X138833Y72666D01*
X293335Y70678D02*
Y72677D01*
X294334D01*
X294668Y72344D01*
Y71011D01*
X294334Y70678D01*
X293335D01*
X295334Y72677D02*
Y71344D01*
X296000Y70678D01*
X296667Y71344D01*
Y72677D01*
Y71677D01*
X295334D01*
X298666Y71011D02*
X298333Y70678D01*
X297667D01*
X297333Y71011D01*
Y72344D01*
X297667Y72677D01*
X298333D01*
X298666Y72344D01*
X300665Y72677D02*
X299333D01*
X300665Y71344D01*
Y71011D01*
X300332Y70678D01*
X299666D01*
X299333Y71011D01*
X322000Y302668D02*
X320000D01*
Y303667D01*
X320334Y304001D01*
X321667D01*
X322000Y303667D01*
Y302668D01*
X320000Y304667D02*
X321333D01*
X322000Y305334D01*
X321333Y306000D01*
X320000D01*
X321000D01*
Y304667D01*
X321667Y307999D02*
X322000Y307666D01*
Y307000D01*
X321667Y306666D01*
X320334D01*
X320000Y307000D01*
Y307666D01*
X320334Y307999D01*
X320000Y308666D02*
Y309332D01*
Y308999D01*
X322000D01*
X321667Y308666D01*
D170*
X52079Y200969D02*
G03*
X52079Y200969I-1181J0D01*
G01*
X297815Y299976D02*
G03*
X297815Y299976I-1181J0D01*
G01*
X297803Y52898D02*
G03*
X297803Y52898I-1181J0D01*
G01*
X135213D02*
G03*
X135213Y52898I-1181J0D01*
G01*
X111579Y196468D02*
G03*
X111579Y196468I-1181J0D01*
G01*
D171*
X45681Y210417D02*
G03*
X45681Y210417I-492J0D01*
G01*
X287677Y294267D02*
G03*
X287677Y294267I-492J0D01*
G01*
X287665Y47189D02*
G03*
X287665Y47189I-492J0D01*
G01*
X125075D02*
G03*
X125075Y47189I-492J0D01*
G01*
X105181Y205917D02*
G03*
X105181Y205917I-492J0D01*
G01*
M02*
