G04*
G04 #@! TF.GenerationSoftware,Altium Limited,Altium Designer,22.4.2 (48)*
G04*
G04 Layer_Physical_Order=1*
G04 Layer_Color=255*
%FSLAX25Y25*%
%MOIN*%
G70*
G04*
G04 #@! TF.SameCoordinates,2DCEC4E4-29E6-4739-8FF7-65C193B2F985*
G04*
G04*
G04 #@! TF.FilePolarity,Positive*
G04*
G01*
G75*
%ADD15C,0.01000*%
G04:AMPARAMS|DCode=49|XSize=54.72mil|YSize=35.83mil|CornerRadius=0mil|HoleSize=0mil|Usage=FLASHONLY|Rotation=135.000|XOffset=0mil|YOffset=0mil|HoleType=Round|Shape=Rectangle|*
%AMROTATEDRECTD49*
4,1,4,0.03202,-0.00668,0.00668,-0.03202,-0.03202,0.00668,-0.00668,0.03202,0.03202,-0.00668,0.0*
%
%ADD49ROTATEDRECTD49*%

G04:AMPARAMS|DCode=50|XSize=38.98mil|YSize=30.71mil|CornerRadius=0mil|HoleSize=0mil|Usage=FLASHONLY|Rotation=315.000|XOffset=0mil|YOffset=0mil|HoleType=Round|Shape=Rectangle|*
%AMROTATEDRECTD50*
4,1,4,-0.02464,0.00292,-0.00292,0.02464,0.02464,-0.00292,0.00292,-0.02464,-0.02464,0.00292,0.0*
%
%ADD50ROTATEDRECTD50*%

G04:AMPARAMS|DCode=51|XSize=57.87mil|YSize=40.16mil|CornerRadius=0mil|HoleSize=0mil|Usage=FLASHONLY|Rotation=315.000|XOffset=0mil|YOffset=0mil|HoleType=Round|Shape=Rectangle|*
%AMROTATEDRECTD51*
4,1,4,-0.03466,0.00626,-0.00626,0.03466,0.03466,-0.00626,0.00626,-0.03466,-0.03466,0.00626,0.0*
%
%ADD51ROTATEDRECTD51*%

%ADD52R,0.01181X0.06496*%
%ADD53R,0.06496X0.01181*%
%ADD54R,0.01799X0.05701*%
%ADD55R,0.05787X0.04016*%
%ADD56R,0.05472X0.03583*%
%ADD57R,0.05709X0.04528*%
%ADD58R,0.03898X0.03071*%
%ADD59C,0.05000*%
%ADD60C,0.00600*%
%ADD61C,0.01600*%
%ADD62C,0.01500*%
%ADD63C,0.02000*%
%ADD64C,0.03000*%
%ADD65C,0.02953*%
%ADD66C,0.06496*%
%ADD67R,0.06496X0.06496*%
%ADD68R,0.06496X0.06496*%
%ADD69R,0.04878X0.04878*%
%ADD70C,0.04878*%
%ADD71C,0.02000*%
%ADD72C,0.19685*%
%ADD73C,0.05000*%
G36*
X802961Y2039D02*
X427539D01*
Y32500D01*
X427384Y33280D01*
X426942Y33942D01*
X426280Y34384D01*
X425500Y34539D01*
X102539D01*
Y56655D01*
X110845Y64961D01*
X138500D01*
X139280Y65116D01*
X139942Y65558D01*
X145345Y70961D01*
X152354D01*
X152631Y70545D01*
X152600Y70469D01*
Y69912D01*
X152813Y69398D01*
X153207Y69004D01*
X153721Y68791D01*
X154279D01*
X154358Y68824D01*
X176206Y46976D01*
X176015Y46514D01*
X162872D01*
X157581Y51805D01*
X157614Y51884D01*
Y52441D01*
X157401Y52956D01*
X157007Y53349D01*
X156492Y53562D01*
X155936D01*
X155421Y53349D01*
X155027Y52956D01*
X154814Y52441D01*
Y51884D01*
X155027Y51369D01*
X155421Y50976D01*
X155936Y50762D01*
X156492D01*
X156572Y50795D01*
X161391Y45976D01*
X161200Y45514D01*
X156478D01*
X155013Y46979D01*
X155131Y47568D01*
X155339Y47654D01*
X155733Y48048D01*
X155946Y48562D01*
Y49119D01*
X155733Y49634D01*
X155339Y50028D01*
X154825Y50241D01*
X154268D01*
X153753Y50028D01*
X153359Y49634D01*
X153273Y49426D01*
X152684Y49308D01*
X149019Y52973D01*
X148787Y53128D01*
X148514Y53182D01*
X116716D01*
X116683Y53262D01*
X116290Y53656D01*
X115775Y53869D01*
X115218D01*
X114704Y53656D01*
X114310Y53262D01*
X114097Y52747D01*
Y52190D01*
X114310Y51676D01*
X114704Y51282D01*
X115218Y51069D01*
X115775D01*
X115941Y51138D01*
X116224Y50714D01*
X116192Y50682D01*
X115979Y50167D01*
Y49610D01*
X116192Y49096D01*
X116586Y48702D01*
X117101Y48489D01*
X117658D01*
X117737Y48522D01*
X122963Y43295D01*
X123195Y43141D01*
X123468Y43086D01*
X488913D01*
X489186Y43141D01*
X489418Y43295D01*
X501053Y54931D01*
X501602Y55078D01*
X502614Y55662D01*
X503440Y56489D01*
X503575Y56722D01*
X504075D01*
X504210Y56489D01*
X505037Y55662D01*
X506049Y55078D01*
X507178Y54775D01*
X508347D01*
X509476Y55078D01*
X510488Y55662D01*
X511314Y56489D01*
X511449Y56722D01*
X511949D01*
X512084Y56489D01*
X512911Y55662D01*
X513923Y55078D01*
X515052Y54775D01*
X516221D01*
X517350Y55078D01*
X518362Y55662D01*
X519188Y56489D01*
X519323Y56722D01*
X519823D01*
X519958Y56489D01*
X520785Y55662D01*
X521797Y55078D01*
X522926Y54775D01*
X524095D01*
X525224Y55078D01*
X526236Y55662D01*
X527062Y56489D01*
X527197Y56722D01*
X527697D01*
X527832Y56489D01*
X528659Y55662D01*
X529671Y55078D01*
X530800Y54775D01*
X531969D01*
X533098Y55078D01*
X534110Y55662D01*
X534936Y56489D01*
X535071Y56722D01*
X535571D01*
X535706Y56489D01*
X536533Y55662D01*
X537545Y55078D01*
X538674Y54775D01*
X539843D01*
X540972Y55078D01*
X541984Y55662D01*
X542810Y56489D01*
X542945Y56722D01*
X543445D01*
X543580Y56489D01*
X544407Y55662D01*
X545419Y55078D01*
X546548Y54775D01*
X547717D01*
X548846Y55078D01*
X549858Y55662D01*
X550684Y56489D01*
X550819Y56722D01*
X551319D01*
X551454Y56489D01*
X552281Y55662D01*
X553293Y55078D01*
X554422Y54775D01*
X555591D01*
X556720Y55078D01*
X557732Y55662D01*
X558558Y56489D01*
X558693Y56722D01*
X559193D01*
X559328Y56489D01*
X560155Y55662D01*
X561167Y55078D01*
X562296Y54775D01*
X563465D01*
X564594Y55078D01*
X565606Y55662D01*
X566432Y56489D01*
X566567Y56722D01*
X567067D01*
X567202Y56489D01*
X568029Y55662D01*
X569041Y55078D01*
X570170Y54775D01*
X571339D01*
X572468Y55078D01*
X573480Y55662D01*
X574306Y56489D01*
X574441Y56723D01*
X574941D01*
X575076Y56489D01*
X575903Y55662D01*
X576915Y55078D01*
X578044Y54775D01*
X579213D01*
X580342Y55078D01*
X581354Y55662D01*
X582181Y56489D01*
X582315Y56722D01*
X582815D01*
X582950Y56489D01*
X583777Y55662D01*
X584789Y55078D01*
X585918Y54775D01*
X587087D01*
X588216Y55078D01*
X589228Y55662D01*
X590055Y56489D01*
X590189Y56722D01*
X590689D01*
X590824Y56489D01*
X591651Y55662D01*
X592663Y55078D01*
X593792Y54775D01*
X594961D01*
X596090Y55078D01*
X597102Y55662D01*
X597928Y56489D01*
X598063Y56722D01*
X598563D01*
X598698Y56489D01*
X599525Y55662D01*
X600537Y55078D01*
X601666Y54775D01*
X602835D01*
X603964Y55078D01*
X604976Y55662D01*
X605802Y56489D01*
X605937Y56722D01*
X606437D01*
X606572Y56489D01*
X607399Y55662D01*
X608411Y55078D01*
X609540Y54775D01*
X610709D01*
X611838Y55078D01*
X612850Y55662D01*
X613677Y56489D01*
X614261Y57501D01*
X614563Y58630D01*
Y59799D01*
X614261Y60928D01*
X613677Y61940D01*
X613429Y62187D01*
X613620Y62649D01*
X614563D01*
Y71527D01*
X610883D01*
Y86589D01*
X610829Y86862D01*
X610674Y87094D01*
X599466Y98302D01*
Y114669D01*
X600018D01*
Y121169D01*
X597419D01*
Y114669D01*
X598038D01*
Y98006D01*
X598093Y97733D01*
X598247Y97502D01*
X609455Y86294D01*
Y71527D01*
X605686D01*
Y70584D01*
X605224Y70393D01*
X604976Y70640D01*
X603964Y71225D01*
X602835Y71527D01*
X601666D01*
X600537Y71225D01*
X599641Y70707D01*
X596316Y74032D01*
Y114669D01*
X596869D01*
Y121169D01*
X594270D01*
Y114669D01*
X594889D01*
Y73736D01*
X594943Y73463D01*
X595098Y73232D01*
X597125Y71205D01*
X596818Y70804D01*
X596090Y71225D01*
X594961Y71527D01*
X593792D01*
X593563Y71466D01*
X593166Y71770D01*
Y114669D01*
X593719D01*
Y121169D01*
X591120D01*
Y114669D01*
X591739D01*
Y70691D01*
X591651Y70640D01*
X590824Y69814D01*
X590788Y69750D01*
X590241Y69710D01*
X589984Y69995D01*
Y114669D01*
X590570D01*
Y121169D01*
X587970D01*
Y114669D01*
X588556D01*
Y71546D01*
X588056Y71267D01*
X587087Y71527D01*
X585918D01*
X584789Y71225D01*
X584061Y70804D01*
X583754Y71205D01*
X586658Y74109D01*
X586813Y74340D01*
X586867Y74613D01*
Y114669D01*
X587420D01*
Y121169D01*
X584821D01*
Y114669D01*
X585440D01*
Y74909D01*
X581238Y70707D01*
X580342Y71225D01*
X579213Y71527D01*
X578044D01*
X576915Y71225D01*
X576187Y70804D01*
X575879Y71204D01*
X583508Y78833D01*
X583663Y79065D01*
X583718Y79338D01*
Y114669D01*
X584270D01*
Y121169D01*
X581671D01*
Y114669D01*
X582290D01*
Y79634D01*
X573364Y70707D01*
X572468Y71225D01*
X571339Y71527D01*
X570170D01*
X569041Y71225D01*
X568313Y70804D01*
X568006Y71205D01*
X580359Y83558D01*
X580514Y83789D01*
X580568Y84062D01*
Y114669D01*
X581121D01*
Y121169D01*
X578522D01*
Y114669D01*
X579141D01*
Y84358D01*
X565490Y70707D01*
X564594Y71225D01*
X563465Y71527D01*
X562296D01*
X561731Y71376D01*
X561473Y71824D01*
X577537Y87889D01*
X577802Y88285D01*
X577895Y88754D01*
Y114669D01*
X577971D01*
Y121169D01*
X575372D01*
Y114669D01*
X575448D01*
Y89261D01*
X557159Y70971D01*
X556720Y71225D01*
X555591Y71527D01*
X554422D01*
X553293Y71225D01*
X552565Y70804D01*
X552258Y71205D01*
X574027Y92974D01*
X574181Y93205D01*
X574236Y93478D01*
Y114669D01*
X574822D01*
Y121169D01*
X572222D01*
Y114669D01*
X572808D01*
Y93774D01*
X549742Y70707D01*
X548846Y71225D01*
X547717Y71527D01*
X546548D01*
X545419Y71225D01*
X544691Y70804D01*
X544384Y71205D01*
X570910Y97731D01*
X571065Y97962D01*
X571119Y98235D01*
Y114669D01*
X571672D01*
Y121169D01*
X569073D01*
Y114669D01*
X569692D01*
Y98531D01*
X541868Y70707D01*
X540972Y71225D01*
X539843Y71527D01*
X538674D01*
X537545Y71225D01*
X536817Y70804D01*
X536510Y71205D01*
X567761Y102455D01*
X567915Y102687D01*
X567970Y102960D01*
Y114669D01*
X568522D01*
Y121169D01*
X565923D01*
Y114669D01*
X566542D01*
Y103256D01*
X533994Y70707D01*
X533098Y71225D01*
X531969Y71527D01*
X530800D01*
X529671Y71225D01*
X528943Y70804D01*
X528636Y71205D01*
X564611Y107180D01*
X564766Y107411D01*
X564820Y107684D01*
Y114669D01*
X565373D01*
Y121169D01*
X562774D01*
Y114669D01*
X563392D01*
Y107980D01*
X526120Y70707D01*
X525224Y71225D01*
X524095Y71527D01*
X522926D01*
X521797Y71225D01*
X520785Y70640D01*
X519958Y69814D01*
X519823Y69580D01*
X519338D01*
X519268Y69677D01*
X519188Y69814D01*
X519110Y69892D01*
X519054Y69969D01*
X561461Y112376D01*
X561616Y112607D01*
X561670Y112881D01*
Y114669D01*
X562223D01*
Y121169D01*
X559624D01*
Y114669D01*
X560243D01*
Y113176D01*
X517947Y70880D01*
X517350Y71225D01*
X516221Y71527D01*
X515052D01*
X513923Y71225D01*
X513195Y70804D01*
X512888Y71205D01*
X530740Y89057D01*
X534270D01*
X534544Y89111D01*
X534775Y89266D01*
X558279Y112769D01*
X558433Y113001D01*
X558488Y113274D01*
Y114669D01*
X559074D01*
Y121169D01*
X556474D01*
Y114669D01*
X557060D01*
Y113570D01*
X533975Y90484D01*
X533137D01*
X532946Y90946D01*
X555129Y113129D01*
X555284Y113361D01*
X555338Y113634D01*
Y114669D01*
X555924D01*
Y121169D01*
X553325D01*
Y114669D01*
X553911D01*
Y113929D01*
X531692Y91711D01*
X531552Y91737D01*
X531385Y92277D01*
X551979Y112872D01*
X552134Y113103D01*
X552189Y113377D01*
Y114669D01*
X552774D01*
Y121169D01*
X550175D01*
Y114669D01*
X550761D01*
Y113672D01*
X529562Y92473D01*
X529343Y92430D01*
X529111Y92275D01*
X526351Y89515D01*
X526251Y89535D01*
X526087Y90077D01*
X548830Y112821D01*
X548985Y113052D01*
X549039Y113325D01*
Y114669D01*
X549625D01*
Y121169D01*
X547026D01*
Y114669D01*
X547612D01*
Y113621D01*
X524379Y90389D01*
X524138Y90421D01*
X523959Y90950D01*
X545680Y112671D01*
X545835Y112902D01*
X545889Y113176D01*
Y114669D01*
X546475D01*
Y121169D01*
X543876D01*
Y114669D01*
X544462D01*
Y113471D01*
X522379Y91389D01*
X522138Y91421D01*
X521959Y91950D01*
X542564Y112554D01*
X542718Y112786D01*
X542773Y113059D01*
Y114669D01*
X543325D01*
Y121169D01*
X540726D01*
Y114669D01*
X541345D01*
Y113355D01*
X520246Y92255D01*
X516826D01*
X516634Y92717D01*
X538586Y114669D01*
X540176D01*
Y121169D01*
X537577D01*
Y115678D01*
X515154Y93255D01*
X485971D01*
X485698Y93201D01*
X485466Y93046D01*
X463128Y70707D01*
X462231Y71225D01*
X461102Y71527D01*
X459934D01*
X458805Y71225D01*
X457793Y70640D01*
X456966Y69814D01*
X456382Y68802D01*
X456079Y67673D01*
Y66504D01*
X456382Y65375D01*
X456966Y64363D01*
X457793Y63536D01*
X458026Y63401D01*
Y62901D01*
X457793Y62766D01*
X456966Y61940D01*
X456382Y60928D01*
X456079Y59799D01*
Y58630D01*
X456382Y57501D01*
X456966Y56489D01*
X457793Y55662D01*
X458805Y55078D01*
X459934Y54775D01*
X461102D01*
X462231Y55078D01*
X463244Y55662D01*
X464070Y56489D01*
X464205Y56722D01*
X464705D01*
X464840Y56489D01*
X465666Y55662D01*
X466679Y55078D01*
X466990Y54994D01*
X467119Y54512D01*
X461781Y49173D01*
X318237D01*
X317904Y49673D01*
X317991Y49881D01*
Y50438D01*
X317777Y50953D01*
X317384Y51346D01*
X316869Y51560D01*
X316312D01*
X315797Y51346D01*
X315404Y50953D01*
X315191Y50438D01*
Y49881D01*
X315277Y49673D01*
X314944Y49173D01*
X283237D01*
X283187Y49293D01*
X282793Y49687D01*
X282278Y49900D01*
X281721D01*
X281492Y49805D01*
X281220Y50163D01*
X281193Y50222D01*
X281400Y50722D01*
Y51279D01*
X281187Y51793D01*
X280793Y52187D01*
X280278Y52400D01*
X279721D01*
X279207Y52187D01*
X278813Y51793D01*
X278600Y51279D01*
Y50722D01*
X278813Y50207D01*
X279207Y49813D01*
X279721Y49600D01*
X280278D01*
X280508Y49695D01*
X280780Y49337D01*
X280807Y49278D01*
X280600Y48779D01*
Y48221D01*
X280686Y48014D01*
X280353Y47514D01*
X177687D01*
X155367Y69833D01*
X155400Y69912D01*
Y70469D01*
X155369Y70545D01*
X155646Y70961D01*
X329155D01*
X344058Y56058D01*
X344720Y55616D01*
X345500Y55461D01*
X435500D01*
X436280Y55616D01*
X436942Y56058D01*
X451942Y71058D01*
X452384Y71720D01*
X452539Y72500D01*
Y116500D01*
X452384Y117280D01*
X451942Y117942D01*
X451280Y118384D01*
X450500Y118539D01*
X101845D01*
X40039Y180345D01*
Y233961D01*
X105155Y233961D01*
X121070Y218046D01*
X121070Y197041D01*
X121134Y196718D01*
X121176Y196391D01*
X121211Y196330D01*
X121225Y196260D01*
X121408Y195986D01*
X121572Y195701D01*
X121628Y195658D01*
X121667Y195599D01*
X121941Y195416D01*
X122202Y195214D01*
X122692Y194971D01*
X122948Y194902D01*
X122951Y194884D01*
X123020Y194781D01*
X123059Y194663D01*
X123240Y194453D01*
X123393Y194223D01*
X123393Y194223D01*
X168146Y149471D01*
X168146Y149471D01*
X168563Y149192D01*
X168841Y148775D01*
X182558Y135058D01*
X183220Y134616D01*
X184000Y134461D01*
X450500Y134461D01*
X451280Y134616D01*
X451942Y135058D01*
X452384Y135720D01*
X452539Y136500D01*
X452539Y185727D01*
X452384Y186507D01*
X451942Y187169D01*
X439669Y199442D01*
X439008Y199884D01*
X438227Y200039D01*
X349345D01*
X347122Y202262D01*
X347313Y202724D01*
X353061D01*
Y203001D01*
X355490D01*
X355490Y203001D01*
X359271D01*
X359313Y202900D01*
X359707Y202506D01*
X360222Y202293D01*
X360778D01*
X361293Y202506D01*
X361687Y202900D01*
X361900Y203414D01*
Y203971D01*
X361687Y204486D01*
X361293Y204880D01*
X360778Y205093D01*
X360222D01*
X359707Y204880D01*
X359313Y204486D01*
X359289Y204428D01*
X358350D01*
X358191Y204727D01*
X358120Y204928D01*
X358318Y205405D01*
Y205962D01*
X358120Y206438D01*
X358191Y206639D01*
X358350Y206938D01*
X359271D01*
X359313Y206837D01*
X359707Y206443D01*
X360222Y206230D01*
X360778D01*
X361293Y206443D01*
X361687Y206837D01*
X361900Y207351D01*
Y207908D01*
X361687Y208423D01*
X361293Y208817D01*
X360778Y209030D01*
X360222D01*
X359707Y208817D01*
X359313Y208423D01*
X359289Y208365D01*
X358350D01*
X358191Y208664D01*
X358120Y208865D01*
X358318Y209342D01*
Y209899D01*
X358120Y210375D01*
X358191Y210576D01*
X358350Y210875D01*
X359271D01*
X359313Y210774D01*
X359707Y210380D01*
X360222Y210167D01*
X360778D01*
X361293Y210380D01*
X361687Y210774D01*
X361900Y211288D01*
Y211845D01*
X361687Y212360D01*
X361293Y212754D01*
X360778Y212967D01*
X360222D01*
X359707Y212754D01*
X359313Y212360D01*
X359289Y212302D01*
X358350D01*
X358191Y212601D01*
X358120Y212802D01*
X358318Y213279D01*
Y213836D01*
X358120Y214312D01*
X358191Y214513D01*
X358350Y214812D01*
X359271D01*
X359313Y214711D01*
X359707Y214317D01*
X360222Y214104D01*
X360778D01*
X361293Y214317D01*
X361687Y214711D01*
X361900Y215226D01*
Y215782D01*
X361687Y216297D01*
X361293Y216691D01*
X360778Y216904D01*
X360222D01*
X359707Y216691D01*
X359313Y216297D01*
X359289Y216239D01*
X358350D01*
X358191Y216538D01*
X358120Y216739D01*
X358318Y217216D01*
Y217773D01*
X358120Y218249D01*
X358191Y218450D01*
X358350Y218749D01*
X359271D01*
X359313Y218648D01*
X359707Y218254D01*
X360222Y218041D01*
X360778D01*
X361293Y218254D01*
X361687Y218648D01*
X361900Y219163D01*
Y219719D01*
X361687Y220234D01*
X361293Y220628D01*
X360778Y220841D01*
X360222D01*
X359707Y220628D01*
X359313Y220234D01*
X359289Y220176D01*
X358350D01*
X358191Y220475D01*
X358120Y220676D01*
X358318Y221153D01*
Y221710D01*
X358120Y222186D01*
X358191Y222387D01*
X358350Y222686D01*
X359271D01*
X359313Y222585D01*
X359707Y222191D01*
X360222Y221978D01*
X360778D01*
X361293Y222191D01*
X361687Y222585D01*
X361900Y223099D01*
Y223656D01*
X361687Y224171D01*
X361293Y224565D01*
X360778Y224778D01*
X360222D01*
X359707Y224565D01*
X359313Y224171D01*
X359289Y224113D01*
X358350D01*
X358191Y224412D01*
X358120Y224613D01*
X358318Y225090D01*
Y225647D01*
X358120Y226123D01*
X358191Y226324D01*
X358350Y226623D01*
X359271D01*
X359313Y226522D01*
X359707Y226128D01*
X360222Y225915D01*
X360778D01*
X361293Y226128D01*
X361687Y226522D01*
X361900Y227036D01*
Y227593D01*
X361687Y228108D01*
X361293Y228502D01*
X360778Y228715D01*
X360222D01*
X359707Y228502D01*
X359313Y228108D01*
X359289Y228050D01*
X358350D01*
X358191Y228349D01*
X358120Y228550D01*
X358318Y229027D01*
Y229584D01*
X358120Y230060D01*
X358191Y230261D01*
X358350Y230560D01*
X359271D01*
X359313Y230459D01*
X359707Y230065D01*
X360222Y229852D01*
X360778D01*
X361293Y230065D01*
X361687Y230459D01*
X361900Y230974D01*
Y231530D01*
X361687Y232045D01*
X361293Y232439D01*
X360778Y232652D01*
X360222D01*
X359707Y232439D01*
X359313Y232045D01*
X359289Y231987D01*
X358350D01*
X358191Y232286D01*
X358120Y232487D01*
X358318Y232964D01*
Y233521D01*
X358120Y233997D01*
X358191Y234198D01*
X358350Y234497D01*
X359271D01*
X359313Y234396D01*
X359707Y234002D01*
X360222Y233789D01*
X360778D01*
X361293Y234002D01*
X361687Y234396D01*
X361900Y234910D01*
Y235468D01*
X361687Y235982D01*
X361293Y236376D01*
X360778Y236589D01*
X360222D01*
X359707Y236376D01*
X359313Y235982D01*
X359289Y235924D01*
X358350D01*
X358191Y236223D01*
X358120Y236424D01*
X358318Y236901D01*
Y237458D01*
X358120Y237934D01*
X358191Y238135D01*
X358350Y238434D01*
X359271D01*
X359313Y238333D01*
X359707Y237939D01*
X360222Y237726D01*
X360778D01*
X361293Y237939D01*
X361687Y238333D01*
X361900Y238847D01*
Y239405D01*
X361687Y239919D01*
X361293Y240313D01*
X360778Y240526D01*
X360222D01*
X359707Y240313D01*
X359313Y239919D01*
X359289Y239861D01*
X358350D01*
X358191Y240160D01*
X358120Y240361D01*
X358318Y240838D01*
Y241395D01*
X358120Y241871D01*
X358191Y242072D01*
X358350Y242371D01*
X359212D01*
X359536Y242047D01*
X360051Y241834D01*
X360608D01*
X361122Y242047D01*
X361516Y242441D01*
X361729Y242955D01*
Y243512D01*
X361516Y244027D01*
X361122Y244420D01*
X360608Y244634D01*
X360051D01*
X359536Y244420D01*
X359143Y244027D01*
X359048Y243798D01*
X358350D01*
X358191Y244097D01*
X358120Y244298D01*
X358318Y244775D01*
Y245332D01*
X358120Y245808D01*
X358191Y246009D01*
X358350Y246308D01*
X359271D01*
X359313Y246207D01*
X359707Y245813D01*
X360222Y245600D01*
X360778D01*
X361293Y245813D01*
X361687Y246207D01*
X361900Y246722D01*
Y247278D01*
X361687Y247793D01*
X361293Y248187D01*
X360778Y248400D01*
X360222D01*
X359707Y248187D01*
X359313Y247793D01*
X359289Y247735D01*
X358350D01*
X358191Y248034D01*
X358120Y248235D01*
X358318Y248712D01*
Y249269D01*
X358120Y249745D01*
X358191Y249946D01*
X358350Y250245D01*
X466555D01*
X565874Y150926D01*
X565841Y150846D01*
Y150289D01*
X566054Y149775D01*
X566314Y149515D01*
Y145468D01*
X565923D01*
Y138968D01*
X568522D01*
Y145468D01*
X568150D01*
Y149497D01*
X568428Y149775D01*
X568514Y149983D01*
X569103Y150101D01*
X569754Y149450D01*
X569707Y148955D01*
X569313Y148561D01*
X569100Y148046D01*
Y147490D01*
X569313Y146975D01*
X569707Y146581D01*
X569723Y146575D01*
Y145468D01*
X569073D01*
Y138968D01*
X571672D01*
Y145468D01*
X571150D01*
Y146522D01*
X571293Y146581D01*
X571687Y146975D01*
X571900Y147490D01*
Y148046D01*
X571687Y148561D01*
X571293Y148955D01*
X571214Y148988D01*
Y149713D01*
X571159Y149986D01*
X571005Y150218D01*
X456898Y264324D01*
X457090Y264786D01*
X458272D01*
X572133Y150926D01*
X572100Y150846D01*
Y150289D01*
X572313Y149775D01*
X572707Y149381D01*
X572797Y149344D01*
Y145468D01*
X572222D01*
Y138968D01*
X574822D01*
Y145468D01*
X574225D01*
Y149353D01*
X574293Y149381D01*
X574687Y149775D01*
X574900Y150289D01*
Y150846D01*
X574687Y151361D01*
X574293Y151755D01*
X573778Y151968D01*
X573221D01*
X573142Y151935D01*
X459753Y265324D01*
X459944Y265786D01*
X463806D01*
X578667Y150926D01*
X578634Y150846D01*
Y150289D01*
X578847Y149775D01*
X579214Y149408D01*
Y145468D01*
X578522D01*
Y138968D01*
X581121D01*
Y145468D01*
X580641D01*
Y149304D01*
X580827Y149381D01*
X581221Y149775D01*
X581307Y149983D01*
X581896Y150101D01*
X582286Y149710D01*
Y148988D01*
X582207Y148955D01*
X581813Y148561D01*
X581600Y148046D01*
Y147490D01*
X581813Y146975D01*
X582207Y146581D01*
X582272Y146554D01*
Y145468D01*
X581671D01*
Y138968D01*
X584270D01*
Y145468D01*
X583699D01*
Y146542D01*
X583793Y146581D01*
X584187Y146975D01*
X584400Y147490D01*
Y148046D01*
X584187Y148561D01*
X583793Y148955D01*
X583714Y148988D01*
Y150006D01*
X583659Y150279D01*
X583505Y150511D01*
X466011Y268005D01*
X465779Y268159D01*
X465506Y268214D01*
X342552D01*
X342345Y268714D01*
X355167Y281535D01*
X528455D01*
X528607Y281273D01*
X528685Y281035D01*
X528427Y280076D01*
Y279022D01*
X528700Y278005D01*
X529227Y277093D01*
X529971Y276348D01*
X530884Y275821D01*
X531901Y275549D01*
X532954D01*
X533971Y275821D01*
X534883Y276348D01*
X535628Y277093D01*
X536155Y278005D01*
X536427Y279022D01*
Y280076D01*
X536170Y281035D01*
X536248Y281273D01*
X536400Y281535D01*
X626254D01*
X626527Y281590D01*
X626758Y281744D01*
X640168Y295154D01*
X640323Y295386D01*
X640377Y295659D01*
Y296448D01*
X640963D01*
Y302949D01*
X640868D01*
X640661Y303449D01*
X641078Y303866D01*
X641578Y303659D01*
Y302949D01*
X641514D01*
Y296448D01*
X644113D01*
Y302949D01*
X644025D01*
Y303850D01*
X660777Y320602D01*
X661453D01*
X661644Y320140D01*
X645458Y303954D01*
X645304Y303722D01*
X645249Y303449D01*
Y302949D01*
X644663D01*
Y296448D01*
X647263D01*
Y302949D01*
X647180D01*
X646972Y303449D01*
X663135Y319611D01*
X663600D01*
X663792Y319149D01*
X648596Y303954D01*
X648441Y303722D01*
X648387Y303449D01*
Y302949D01*
X647813D01*
Y296448D01*
X650412D01*
Y302949D01*
X650317D01*
X650110Y303449D01*
X665272Y318611D01*
X713660D01*
X713776Y318111D01*
X698288Y302624D01*
X663011D01*
Y302949D01*
X660411D01*
Y302624D01*
X659861D01*
Y302949D01*
X657262D01*
Y302949D01*
X657211Y302932D01*
X656711Y302949D01*
Y302949D01*
X654112D01*
Y301576D01*
X654062Y301538D01*
X653562Y301788D01*
Y302949D01*
X650963D01*
Y296448D01*
X653562D01*
Y297201D01*
X654062Y297445D01*
X654112Y297406D01*
Y296448D01*
X656711D01*
Y296448D01*
X657211Y296494D01*
X657262Y296448D01*
Y296448D01*
X659861D01*
Y296774D01*
X660411D01*
Y296448D01*
X663011D01*
Y296774D01*
X696575D01*
Y173368D01*
X663473Y140265D01*
X663011Y140456D01*
Y145468D01*
X662935D01*
Y147681D01*
X662900Y147854D01*
Y148278D01*
X662687Y148793D01*
X662293Y149187D01*
X661778Y149400D01*
X661222D01*
X660707Y149187D01*
X660313Y148793D01*
X660100Y148278D01*
Y147722D01*
X660313Y147207D01*
X660488Y147033D01*
Y146557D01*
X660461Y146069D01*
X659311D01*
Y142218D01*
Y138368D01*
X660016D01*
X660223Y137868D01*
X646394Y124039D01*
X645929Y123433D01*
X645637Y122728D01*
X645538Y121970D01*
Y121630D01*
X645138Y121231D01*
X644663Y121169D01*
Y121169D01*
X644613Y121136D01*
X644113Y121169D01*
Y121169D01*
X641514D01*
Y119802D01*
X641512Y119795D01*
X641463Y119762D01*
X640963Y120024D01*
Y121169D01*
X638364D01*
Y114669D01*
X638983D01*
Y112803D01*
X639038Y112530D01*
X639192Y112299D01*
X657298Y94193D01*
X657119Y93664D01*
X656878Y93632D01*
X637261Y113248D01*
Y114669D01*
X637814D01*
Y121169D01*
X635214D01*
Y114669D01*
X635834D01*
Y112953D01*
X635888Y112680D01*
X636043Y112448D01*
X655298Y93193D01*
X655119Y92664D01*
X654878Y92632D01*
X634111Y113398D01*
Y114669D01*
X634664D01*
Y121169D01*
X632065D01*
Y114669D01*
X632684D01*
Y113102D01*
X632738Y112829D01*
X632893Y112598D01*
X653298Y92193D01*
X653119Y91664D01*
X652878Y91632D01*
X630962Y113548D01*
Y114669D01*
X631514D01*
Y121169D01*
X628915D01*
Y114669D01*
X629534D01*
Y113252D01*
X629589Y112979D01*
X629743Y112747D01*
X651531Y90960D01*
X651340Y90498D01*
X650528D01*
X627779Y113247D01*
Y114669D01*
X628365D01*
Y121169D01*
X625766D01*
Y114669D01*
X626351D01*
Y112952D01*
X626406Y112678D01*
X626561Y112447D01*
X648700Y90308D01*
X648535Y89765D01*
X648416Y89742D01*
X624629Y113528D01*
Y114669D01*
X625215D01*
Y121169D01*
X622616D01*
Y114669D01*
X623202D01*
Y113233D01*
X623256Y112960D01*
X623411Y112728D01*
X647179Y88960D01*
X646988Y88498D01*
X646512D01*
X621480Y113530D01*
Y114669D01*
X622066D01*
Y121169D01*
X619466D01*
Y114669D01*
X620052D01*
Y113234D01*
X620107Y112961D01*
X620261Y112729D01*
X644798Y88193D01*
X644619Y87664D01*
X644378Y87632D01*
X618330Y113679D01*
Y114669D01*
X618916D01*
Y121169D01*
X616317D01*
Y114669D01*
X616903D01*
Y113384D01*
X616957Y113110D01*
X617112Y112879D01*
X642806Y87185D01*
X642627Y86657D01*
X642378Y86624D01*
X615181Y113821D01*
Y114669D01*
X615766D01*
Y121169D01*
X613167D01*
Y114669D01*
X613753D01*
Y113525D01*
X613807Y113252D01*
X613962Y113021D01*
X641023Y85960D01*
X640832Y85498D01*
X640012D01*
X612031Y113478D01*
Y114669D01*
X612617D01*
Y121169D01*
X610018D01*
Y114669D01*
X610604D01*
Y113183D01*
X610658Y112910D01*
X610813Y112678D01*
X638233Y85258D01*
X638057Y84727D01*
X637868Y84699D01*
X609391Y113175D01*
Y114669D01*
X609467D01*
Y121169D01*
X606868D01*
Y114669D01*
X606944D01*
Y112669D01*
X607037Y112200D01*
X607303Y111803D01*
X636687Y82419D01*
X637084Y82154D01*
X637552Y82060D01*
X640666D01*
X650902Y71824D01*
X650643Y71376D01*
X650079Y71527D01*
X648910D01*
X647781Y71225D01*
X646885Y70707D01*
X605765Y111827D01*
Y114669D01*
X606318D01*
Y121169D01*
X603718D01*
Y114669D01*
X604338D01*
Y111531D01*
X604392Y111258D01*
X604547Y111027D01*
X644369Y71205D01*
X644062Y70804D01*
X643334Y71225D01*
X642205Y71527D01*
X641036D01*
X639907Y71225D01*
X639011Y70707D01*
X602615Y107103D01*
Y114669D01*
X603168D01*
Y121169D01*
X600569D01*
Y114669D01*
X601188D01*
Y106807D01*
X601242Y106534D01*
X601397Y106302D01*
X638001Y69698D01*
X637484Y68802D01*
X637182Y67673D01*
Y66504D01*
X637484Y65375D01*
X638068Y64363D01*
X638895Y63536D01*
X639129Y63401D01*
Y62901D01*
X638895Y62766D01*
X638068Y61940D01*
X637484Y60928D01*
X637182Y59799D01*
Y58630D01*
X637484Y57501D01*
X638068Y56489D01*
X638895Y55662D01*
X639907Y55078D01*
X641036Y54775D01*
X642205D01*
X643334Y55078D01*
X644346Y55662D01*
X645173Y56489D01*
X645307Y56722D01*
X645807D01*
X645942Y56489D01*
X646769Y55662D01*
X647781Y55078D01*
X648910Y54775D01*
X650079D01*
X651208Y55078D01*
X652220Y55662D01*
X653047Y56489D01*
X653181Y56722D01*
X653681D01*
X653816Y56489D01*
X654643Y55662D01*
X655655Y55078D01*
X656784Y54775D01*
X657953D01*
X659082Y55078D01*
X660094Y55662D01*
X660920Y56489D01*
X661055Y56722D01*
X661555D01*
X661690Y56489D01*
X662517Y55662D01*
X663529Y55078D01*
X664658Y54775D01*
X665827D01*
X666956Y55078D01*
X667968Y55662D01*
X668794Y56489D01*
X668929Y56722D01*
X669429D01*
X669564Y56489D01*
X670391Y55662D01*
X671403Y55078D01*
X672532Y54775D01*
X673701D01*
X674830Y55078D01*
X675842Y55662D01*
X676669Y56489D01*
X676803Y56723D01*
X677304D01*
X677439Y56489D01*
X678265Y55662D01*
X679277Y55078D01*
X680406Y54775D01*
X681575D01*
X682704Y55078D01*
X683716Y55662D01*
X684543Y56489D01*
X684678Y56722D01*
X685178D01*
X685313Y56489D01*
X686139Y55662D01*
X687151Y55078D01*
X688280Y54775D01*
X689449D01*
X690578Y55078D01*
X691590Y55662D01*
X692417Y56489D01*
X692552Y56722D01*
X693052D01*
X693187Y56489D01*
X694013Y55662D01*
X695025Y55078D01*
X696154Y54775D01*
X697323D01*
X698452Y55078D01*
X699464Y55662D01*
X700291Y56489D01*
X700426Y56722D01*
X700926D01*
X701061Y56489D01*
X701887Y55662D01*
X702899Y55078D01*
X704028Y54775D01*
X705197D01*
X706326Y55078D01*
X707338Y55662D01*
X708165Y56489D01*
X708300Y56722D01*
X708800D01*
X708935Y56489D01*
X709761Y55662D01*
X710773Y55078D01*
X711902Y54775D01*
X713071D01*
X714200Y55078D01*
X715212Y55662D01*
X716039Y56489D01*
X716174Y56722D01*
X716674D01*
X716809Y56489D01*
X717635Y55662D01*
X718647Y55078D01*
X719776Y54775D01*
X720945D01*
X722074Y55078D01*
X723086Y55662D01*
X723913Y56489D01*
X724048Y56722D01*
X724548D01*
X724683Y56489D01*
X725509Y55662D01*
X726521Y55078D01*
X727650Y54775D01*
X728819D01*
X729948Y55078D01*
X730960Y55662D01*
X731787Y56489D01*
X731922Y56722D01*
X732422D01*
X732557Y56489D01*
X733383Y55662D01*
X734395Y55078D01*
X735524Y54775D01*
X736693D01*
X737822Y55078D01*
X738834Y55662D01*
X739661Y56489D01*
X739796Y56722D01*
X740296D01*
X740431Y56489D01*
X741257Y55662D01*
X742269Y55078D01*
X743398Y54775D01*
X744567D01*
X745696Y55078D01*
X746708Y55662D01*
X747535Y56489D01*
X747670Y56722D01*
X748170D01*
X748305Y56489D01*
X749131Y55662D01*
X750143Y55078D01*
X751272Y54775D01*
X752441D01*
X753570Y55078D01*
X754582Y55662D01*
X755409Y56489D01*
X755544Y56722D01*
X756044D01*
X756179Y56489D01*
X757005Y55662D01*
X758017Y55078D01*
X759146Y54775D01*
X760315D01*
X761444Y55078D01*
X762456Y55662D01*
X763283Y56489D01*
X763418Y56722D01*
X763918D01*
X764053Y56489D01*
X764879Y55662D01*
X765891Y55078D01*
X767020Y54775D01*
X768189D01*
X769318Y55078D01*
X770330Y55662D01*
X771157Y56489D01*
X771741Y57501D01*
X771805Y57739D01*
X771972Y57792D01*
X772334Y57783D01*
X772727Y57103D01*
X773367Y56463D01*
X774151Y56010D01*
X774729Y55855D01*
Y59214D01*
X775479D01*
Y59964D01*
X778838D01*
X778683Y60542D01*
X778230Y61326D01*
X777590Y61966D01*
X776910Y62359D01*
X776901Y62721D01*
X776954Y62888D01*
X777192Y62952D01*
X778204Y63536D01*
X778831Y64163D01*
X780000D01*
X780627Y63536D01*
X781639Y62952D01*
X781878Y62888D01*
X781930Y62721D01*
X781921Y62359D01*
X781241Y61966D01*
X780601Y61326D01*
X780148Y60542D01*
X779993Y59964D01*
X783353D01*
Y59214D01*
X784103D01*
Y55855D01*
X784680Y56010D01*
X785464Y56463D01*
X786105Y57103D01*
X786497Y57783D01*
X786860Y57792D01*
X787027Y57739D01*
X787090Y57501D01*
X787675Y56489D01*
X788501Y55662D01*
X789513Y55078D01*
X790642Y54775D01*
X791811D01*
X792940Y55078D01*
X793952Y55662D01*
X794779Y56489D01*
X795363Y57501D01*
X795666Y58630D01*
Y59799D01*
X795363Y60928D01*
X794779Y61940D01*
X794531Y62187D01*
X794723Y62649D01*
X795666D01*
Y71527D01*
X790925D01*
X780089Y82363D01*
X779484Y82827D01*
X778778Y83119D01*
X778021Y83219D01*
X773561D01*
X766193Y90588D01*
X766384Y91049D01*
X767146D01*
X767323Y91073D01*
X767500Y91049D01*
X775500D01*
X776257Y91149D01*
X776354Y91189D01*
X783103D01*
X783243Y91131D01*
X784000Y91032D01*
X784757Y91131D01*
X785147Y91293D01*
X787254D01*
Y96621D01*
X785340D01*
X785305Y96647D01*
X784600Y96939D01*
X783843Y97039D01*
X777100D01*
X776875Y97539D01*
X776931Y97602D01*
X783366D01*
X784123Y97702D01*
X784829Y97994D01*
X785330Y98379D01*
X787254D01*
Y100043D01*
X789286Y102075D01*
X791500D01*
X792257Y102175D01*
X792963Y102467D01*
X793568Y102932D01*
X794033Y103537D01*
X794325Y104243D01*
X794425Y105000D01*
X794325Y105757D01*
X794033Y106463D01*
X793568Y107068D01*
X792963Y107533D01*
X792257Y107825D01*
X791500Y107925D01*
X788075D01*
X787318Y107825D01*
X786612Y107533D01*
X786006Y107068D01*
X782645Y103707D01*
X780746D01*
Y103453D01*
X775736D01*
X774979Y103353D01*
X774649Y103216D01*
X770754D01*
Y103707D01*
X764246D01*
Y103216D01*
X758750D01*
X757993Y103117D01*
X757288Y102824D01*
X757124Y102699D01*
X755456D01*
Y97883D01*
X757124D01*
X757288Y97758D01*
X757993Y97466D01*
X758330Y97422D01*
X758460Y96900D01*
X758392Y96851D01*
X758356Y96856D01*
X747206D01*
X726125Y117937D01*
X725520Y118402D01*
X724814Y118694D01*
X724057Y118794D01*
X671249D01*
X671042Y119294D01*
X671361Y119613D01*
X671887Y120525D01*
X672160Y121542D01*
Y122595D01*
X671887Y123612D01*
X671361Y124525D01*
X670616Y125269D01*
X669704Y125796D01*
X668686Y126068D01*
X667633D01*
X666616Y125796D01*
X665704Y125269D01*
X664959Y124525D01*
X664432Y123612D01*
X664160Y122595D01*
Y121542D01*
X664432Y120525D01*
X664959Y119613D01*
X665278Y119294D01*
X665071Y118794D01*
X664488D01*
X664244Y119381D01*
X663779Y119987D01*
X663173Y120452D01*
X663011Y120520D01*
Y121169D01*
X660411D01*
Y120844D01*
X659861D01*
Y121169D01*
X657262D01*
Y121169D01*
X657211Y121158D01*
X656711Y121169D01*
Y121169D01*
X654112D01*
Y118202D01*
X654075Y117919D01*
X654112Y117636D01*
Y117074D01*
X653612Y116807D01*
X653585Y116825D01*
Y117827D01*
X653562Y117945D01*
Y121169D01*
X652451D01*
X652260Y121631D01*
X664226Y133597D01*
X664569Y133642D01*
X665274Y133935D01*
X665880Y134399D01*
X701568Y170088D01*
X702033Y170693D01*
X702325Y171399D01*
X702425Y172156D01*
Y298487D01*
X717138Y313200D01*
X741051D01*
X741808Y313300D01*
X742513Y313592D01*
X743119Y314057D01*
X775176Y346114D01*
X776063D01*
X777192Y346416D01*
X778204Y347001D01*
X778831Y347628D01*
X780000D01*
X780627Y347001D01*
X781639Y346416D01*
X782768Y346114D01*
X783937D01*
X785066Y346416D01*
X786078Y347001D01*
X786705Y347628D01*
X787874D01*
X788501Y347001D01*
X789513Y346416D01*
X790642Y346114D01*
X791811D01*
X792940Y346416D01*
X793952Y347001D01*
X794779Y347827D01*
X795363Y348840D01*
X795666Y349969D01*
Y351137D01*
X795363Y352266D01*
X794779Y353278D01*
X794531Y353526D01*
X794723Y353988D01*
X795666D01*
Y362866D01*
X786788D01*
Y361923D01*
X786326Y361732D01*
X786078Y361979D01*
X785066Y362563D01*
X783937Y362866D01*
X782768D01*
X781639Y362563D01*
X780627Y361979D01*
X779801Y361153D01*
X779666Y360919D01*
X779166D01*
X779031Y361153D01*
X778204Y361979D01*
X777192Y362563D01*
X776063Y362866D01*
X774894D01*
X773765Y362563D01*
X772753Y361979D01*
X771927Y361153D01*
X771792Y360919D01*
X771292D01*
X771157Y361153D01*
X770330Y361979D01*
X769318Y362563D01*
X768189Y362866D01*
X767020D01*
X765891Y362563D01*
X764879Y361979D01*
X764053Y361153D01*
X763918Y360919D01*
X763418D01*
X763283Y361153D01*
X762456Y361979D01*
X761444Y362563D01*
X760315Y362866D01*
X759146D01*
X758017Y362563D01*
X757005Y361979D01*
X756179Y361153D01*
X756044Y360919D01*
X755544D01*
X755409Y361153D01*
X754582Y361979D01*
X753570Y362563D01*
X752441Y362866D01*
X751272D01*
X750143Y362563D01*
X749131Y361979D01*
X748305Y361153D01*
X748170Y360919D01*
X747670D01*
X747535Y361153D01*
X746708Y361979D01*
X745696Y362563D01*
X744567Y362866D01*
X743398D01*
X742269Y362563D01*
X741257Y361979D01*
X740431Y361153D01*
X740296Y360919D01*
X739796D01*
X739661Y361153D01*
X738834Y361979D01*
X737822Y362563D01*
X736693Y362866D01*
X735524D01*
X734395Y362563D01*
X733383Y361979D01*
X732557Y361153D01*
X732422Y360919D01*
X731922D01*
X731787Y361153D01*
X730960Y361979D01*
X729948Y362563D01*
X728819Y362866D01*
X727650D01*
X726521Y362563D01*
X725509Y361979D01*
X724683Y361153D01*
X724548Y360919D01*
X724048D01*
X723913Y361153D01*
X723086Y361979D01*
X722074Y362563D01*
X720945Y362866D01*
X719776D01*
X718647Y362563D01*
X717635Y361979D01*
X716809Y361153D01*
X716674Y360919D01*
X716174D01*
X716039Y361153D01*
X715212Y361979D01*
X714200Y362563D01*
X713071Y362866D01*
X711902D01*
X710773Y362563D01*
X709761Y361979D01*
X708935Y361153D01*
X708800Y360919D01*
X708300D01*
X708165Y361153D01*
X707338Y361979D01*
X706326Y362563D01*
X705197Y362866D01*
X704028D01*
X702899Y362563D01*
X701887Y361979D01*
X701061Y361153D01*
X700926Y360919D01*
X700426D01*
X700291Y361153D01*
X699464Y361979D01*
X698452Y362563D01*
X697323Y362866D01*
X696154D01*
X695025Y362563D01*
X694013Y361979D01*
X693187Y361153D01*
X693052Y360919D01*
X692552D01*
X692417Y361153D01*
X691590Y361979D01*
X690578Y362563D01*
X689449Y362866D01*
X688280D01*
X687151Y362563D01*
X686139Y361979D01*
X685313Y361153D01*
X685178Y360919D01*
X684678D01*
X684543Y361153D01*
X683716Y361979D01*
X682704Y362563D01*
X681575Y362866D01*
X680406D01*
X679277Y362563D01*
X678265Y361979D01*
X677439Y361153D01*
X677304Y360919D01*
X676803D01*
X676669Y361153D01*
X675842Y361979D01*
X674830Y362563D01*
X673701Y362866D01*
X672532D01*
X671403Y362563D01*
X670391Y361979D01*
X669564Y361153D01*
X669429Y360919D01*
X668929D01*
X668794Y361153D01*
X667968Y361979D01*
X666956Y362563D01*
X665827Y362866D01*
X664658D01*
X663529Y362563D01*
X662517Y361979D01*
X661690Y361153D01*
X661555Y360919D01*
X661055D01*
X660920Y361153D01*
X660094Y361979D01*
X659082Y362563D01*
X657953Y362866D01*
X656784D01*
X655655Y362563D01*
X654643Y361979D01*
X653816Y361153D01*
X653681Y360919D01*
X653181D01*
X653047Y361153D01*
X652220Y361979D01*
X651208Y362563D01*
X650079Y362866D01*
X648910D01*
X647781Y362563D01*
X646769Y361979D01*
X645942Y361153D01*
X645807Y360919D01*
X645307D01*
X645173Y361153D01*
X644346Y361979D01*
X643334Y362563D01*
X642205Y362866D01*
X641036D01*
X639907Y362563D01*
X638895Y361979D01*
X638068Y361153D01*
X637484Y360140D01*
X637182Y359011D01*
Y357842D01*
X637484Y356714D01*
X638068Y355701D01*
X638895Y354875D01*
X639129Y354740D01*
Y354240D01*
X638895Y354105D01*
X638068Y353278D01*
X637484Y352266D01*
X637182Y351137D01*
Y349969D01*
X637484Y348840D01*
X638001Y347943D01*
X601352Y311294D01*
X601197Y311062D01*
X601143Y310789D01*
Y302949D01*
X600569D01*
Y296448D01*
X601155D01*
Y294664D01*
X601013Y294522D01*
X452040D01*
X451889Y295022D01*
X451942Y295058D01*
X452384Y295720D01*
X452539Y296500D01*
Y315500D01*
X452539Y315500D01*
X452384Y316280D01*
X451942Y316942D01*
X427039Y341845D01*
Y360852D01*
X456293D01*
X456543Y360419D01*
X456382Y360140D01*
X456079Y359011D01*
Y357842D01*
X456382Y356714D01*
X456966Y355701D01*
X457793Y354875D01*
X458026Y354740D01*
Y354240D01*
X457793Y354105D01*
X456966Y353278D01*
X456382Y352266D01*
X456079Y351137D01*
Y349969D01*
X456382Y348840D01*
X456966Y347827D01*
X457793Y347001D01*
X458805Y346416D01*
X459934Y346114D01*
X461102D01*
X462231Y346416D01*
X463244Y347001D01*
X463557Y347314D01*
X513241Y297630D01*
X513847Y297165D01*
X514552Y296873D01*
X515309Y296774D01*
X537577D01*
Y296448D01*
X540176D01*
Y296448D01*
X540226Y296454D01*
X540726Y296448D01*
Y296448D01*
X543325D01*
Y302949D01*
X542044D01*
X541926Y302972D01*
X541808Y302949D01*
X540726D01*
Y302949D01*
X540226Y302943D01*
X540176Y302949D01*
Y302949D01*
X537577D01*
Y302624D01*
X516521D01*
X471631Y347514D01*
X471944Y347827D01*
X472079Y348061D01*
X472579D01*
X472714Y347827D01*
X473540Y347001D01*
X474553Y346416D01*
X475682Y346114D01*
X476850D01*
X477979Y346416D01*
X478876Y346934D01*
X502697Y323113D01*
X502929Y322958D01*
X503202Y322903D01*
X524587D01*
X544042Y303449D01*
X543876Y302949D01*
X543876D01*
Y296448D01*
X546475D01*
Y302949D01*
X545889D01*
Y303324D01*
X545835Y303597D01*
X545680Y303829D01*
X526068Y323442D01*
X526259Y323903D01*
X526738D01*
X547192Y303449D01*
X547026Y302949D01*
X547026D01*
Y296448D01*
X549625D01*
Y302949D01*
X549039D01*
Y303325D01*
X548985Y303598D01*
X548830Y303830D01*
X528218Y324442D01*
X528410Y324903D01*
X529087D01*
X550542Y303449D01*
X550335Y302949D01*
X550175D01*
Y296448D01*
X552774D01*
Y302949D01*
X552189D01*
Y303525D01*
X552134Y303798D01*
X551979Y304030D01*
X530801Y325209D01*
X530979Y325737D01*
X531221Y325770D01*
X553542Y303449D01*
X553335Y302949D01*
X553325D01*
Y296448D01*
X555924D01*
Y302949D01*
X555338D01*
Y303376D01*
X555284Y303649D01*
X555129Y303880D01*
X533205Y325804D01*
X533396Y326266D01*
X534724D01*
X557060Y303930D01*
Y302949D01*
X556474D01*
Y296448D01*
X559074D01*
Y302949D01*
X558488D01*
Y304226D01*
X558433Y304499D01*
X558279Y304731D01*
X535525Y327485D01*
X535293Y327640D01*
X535020Y327694D01*
X532730D01*
X514721Y345703D01*
X514971Y346136D01*
X515052Y346114D01*
X516221D01*
X517350Y346416D01*
X518246Y346934D01*
X560210Y304970D01*
Y302949D01*
X559624D01*
Y296448D01*
X562223D01*
Y302949D01*
X561637D01*
Y305265D01*
X561583Y305539D01*
X561428Y305770D01*
X520762Y346437D01*
X521069Y346837D01*
X521797Y346416D01*
X522926Y346114D01*
X524095D01*
X525224Y346416D01*
X526120Y346934D01*
X563359Y309694D01*
Y302949D01*
X562774D01*
Y296448D01*
X565373D01*
Y302949D01*
X564787D01*
Y309990D01*
X564733Y310263D01*
X564578Y310495D01*
X528636Y346437D01*
X528943Y346837D01*
X529671Y346416D01*
X530800Y346114D01*
X531969D01*
X533098Y346416D01*
X533994Y346934D01*
X566497Y314430D01*
Y302949D01*
X565923D01*
Y296448D01*
X568522D01*
Y302949D01*
X567925D01*
Y314726D01*
X567870Y314999D01*
X567716Y315231D01*
X536510Y346437D01*
X536817Y346837D01*
X537545Y346416D01*
X538674Y346114D01*
X539843D01*
X540972Y346416D01*
X541868Y346934D01*
X569659Y319143D01*
Y302949D01*
X569073D01*
Y296448D01*
X571672D01*
Y302949D01*
X571086D01*
Y319439D01*
X571032Y319712D01*
X570877Y319943D01*
X544384Y346437D01*
X544691Y346837D01*
X545419Y346416D01*
X546548Y346114D01*
X547717D01*
X548846Y346416D01*
X549742Y346934D01*
X572796Y323879D01*
Y302949D01*
X572222D01*
Y296448D01*
X574822D01*
Y302949D01*
X574224D01*
Y324175D01*
X574170Y324448D01*
X574015Y324680D01*
X552258Y346437D01*
X552565Y346837D01*
X553293Y346416D01*
X554422Y346114D01*
X555591D01*
X556720Y346416D01*
X557159Y346670D01*
X575436Y328393D01*
Y302949D01*
X575372D01*
Y296448D01*
X577971D01*
Y302949D01*
X577883D01*
Y328899D01*
X577790Y329367D01*
X577525Y329765D01*
X561473Y345817D01*
X561731Y346265D01*
X562296Y346114D01*
X563465D01*
X564594Y346416D01*
X565490Y346934D01*
X579096Y333328D01*
Y302949D01*
X578522D01*
Y296448D01*
X581121D01*
Y302949D01*
X580523D01*
Y333624D01*
X580469Y333897D01*
X580314Y334128D01*
X568006Y346437D01*
X568313Y346837D01*
X569041Y346416D01*
X570170Y346114D01*
X571339D01*
X572468Y346416D01*
X573364Y346934D01*
X582245Y338053D01*
Y302949D01*
X581671D01*
Y296448D01*
X584270D01*
Y302949D01*
X583673D01*
Y338348D01*
X583618Y338621D01*
X583464Y338853D01*
X575879Y346437D01*
X576187Y346837D01*
X576915Y346416D01*
X578044Y346114D01*
X579213D01*
X580342Y346416D01*
X581238Y346934D01*
X585407Y342765D01*
Y302949D01*
X584821D01*
Y296448D01*
X587420D01*
Y302949D01*
X586834D01*
Y343061D01*
X586780Y343334D01*
X586625Y343566D01*
X583754Y346437D01*
X584061Y346837D01*
X584789Y346416D01*
X585918Y346114D01*
X587087D01*
X588056Y346374D01*
X588556Y346095D01*
Y302949D01*
X587970D01*
Y296448D01*
X590570D01*
Y302949D01*
X589984D01*
Y347757D01*
X590055Y347827D01*
X590189Y348061D01*
X590689D01*
X590824Y347827D01*
X591651Y347001D01*
X591706Y346969D01*
Y302949D01*
X591120D01*
Y296448D01*
X593719D01*
Y302949D01*
X593133D01*
Y345880D01*
X593530Y346184D01*
X593792Y346114D01*
X594961D01*
X596090Y346416D01*
X596818Y346837D01*
X597125Y346437D01*
X595065Y344376D01*
X594910Y344145D01*
X594855Y343872D01*
Y302949D01*
X594270D01*
Y296448D01*
X596869D01*
Y302949D01*
X596283D01*
Y343576D01*
X599641Y346934D01*
X600537Y346416D01*
X601666Y346114D01*
X602835D01*
X603964Y346416D01*
X604692Y346837D01*
X604999Y346437D01*
X598214Y339652D01*
X598060Y339421D01*
X598005Y339147D01*
Y302949D01*
X597419D01*
Y296448D01*
X600018D01*
Y302949D01*
X599433D01*
Y338852D01*
X607515Y346934D01*
X608411Y346416D01*
X609540Y346114D01*
X610709D01*
X611838Y346416D01*
X612850Y347001D01*
X613677Y347827D01*
X614261Y348840D01*
X614563Y349969D01*
Y351137D01*
X614261Y352266D01*
X613677Y353278D01*
X613429Y353526D01*
X613620Y353988D01*
X614563D01*
Y362866D01*
X605686D01*
Y361923D01*
X605224Y361732D01*
X604976Y361979D01*
X603964Y362563D01*
X603416Y362710D01*
X595055Y371071D01*
X594824Y371225D01*
X594551Y371280D01*
X427039D01*
Y427961D01*
X802961D01*
Y2039D01*
D02*
G37*
G36*
X425000Y371280D02*
X384162D01*
X383889Y371225D01*
X383657Y371071D01*
X332043Y319457D01*
X331222Y320278D01*
X321500Y330000D01*
X293000D01*
X271000Y308000D01*
X271000Y254864D01*
X278786D01*
Y251786D01*
X278841Y251513D01*
X278995Y251282D01*
X279823Y250454D01*
X280054Y250299D01*
X280328Y250245D01*
X281590D01*
X281824Y249772D01*
X281611Y249258D01*
Y248701D01*
X281824Y248186D01*
X282218Y247792D01*
X282733Y247579D01*
X283290D01*
X283804Y247792D01*
X283839Y247827D01*
X283972Y247772D01*
X288587D01*
X292835D01*
Y248612D01*
X292235D01*
Y251949D01*
X284939D01*
Y251672D01*
X280623D01*
X280214Y252082D01*
Y254864D01*
X291636D01*
X348500Y198000D01*
X438227D01*
X450500Y185727D01*
X450500Y136500D01*
X184000Y136500D01*
X170283Y150217D01*
X170490Y150717D01*
X180584D01*
Y161213D01*
X178567D01*
X178437Y161696D01*
X178558Y161766D01*
X179535Y162743D01*
X180226Y163939D01*
X180584Y165274D01*
Y166656D01*
X180226Y167991D01*
X179535Y169187D01*
X178558Y170164D01*
X177361Y170855D01*
X176026Y171213D01*
X174645D01*
X173310Y170855D01*
X172113Y170164D01*
X171136Y169187D01*
X170445Y167991D01*
X170088Y166656D01*
Y165274D01*
X170445Y163939D01*
X171136Y162743D01*
X172113Y161766D01*
X172234Y161696D01*
X172104Y161213D01*
X170088D01*
Y151120D01*
X169588Y150912D01*
X124835Y195665D01*
Y195665D01*
X124835D01*
X124868Y195783D01*
X124888Y195854D01*
X124865Y196245D01*
X124678Y196588D01*
X124363Y196819D01*
X123978Y196894D01*
X123600Y196797D01*
X123109Y197041D01*
X123109Y218891D01*
X106000Y236000D01*
X38000Y236000D01*
Y179500D01*
X101000Y116500D01*
X450500D01*
Y72500D01*
X435500Y57500D01*
X345500D01*
X330000Y73000D01*
X144500D01*
X138500Y67000D01*
X110000D01*
X100500Y57500D01*
Y32500D01*
X425500D01*
Y2039D01*
X2039D01*
Y427961D01*
X425000D01*
Y371280D01*
D02*
G37*
G36*
Y341000D02*
X450500Y315500D01*
Y296500D01*
X355000D01*
X343505Y307995D01*
X396361Y360852D01*
X425000D01*
Y341000D01*
D02*
G37*
%LPC*%
G36*
X781932Y411842D02*
X780068D01*
X778227Y411551D01*
X776454Y410975D01*
X774793Y410129D01*
X773285Y409033D01*
X771967Y407715D01*
X770871Y406207D01*
X770025Y404546D01*
X769449Y402773D01*
X769158Y400932D01*
Y399068D01*
X769449Y397227D01*
X770025Y395454D01*
X770871Y393793D01*
X771967Y392285D01*
X773285Y390967D01*
X774793Y389871D01*
X776454Y389025D01*
X778227Y388449D01*
X780068Y388158D01*
X781932D01*
X783773Y388449D01*
X785546Y389025D01*
X787207Y389871D01*
X788715Y390967D01*
X790033Y392285D01*
X791129Y393793D01*
X791975Y395454D01*
X792551Y397227D01*
X792842Y399068D01*
Y400932D01*
X792551Y402773D01*
X791975Y404546D01*
X791129Y406207D01*
X790033Y407715D01*
X788715Y409033D01*
X787207Y410129D01*
X785546Y410975D01*
X783773Y411551D01*
X781932Y411842D01*
D02*
G37*
G36*
X784285Y307277D02*
X782421D01*
X780580Y306986D01*
X778807Y306410D01*
X777146Y305563D01*
X775638Y304468D01*
X774320Y303150D01*
X773224Y301642D01*
X772378Y299981D01*
X771802Y298208D01*
X771510Y296367D01*
Y294503D01*
X771802Y292662D01*
X772378Y290889D01*
X773224Y289228D01*
X774320Y287720D01*
X775638Y286402D01*
X777146Y285306D01*
X778807Y284460D01*
X780580Y283884D01*
X782421Y283592D01*
X784285D01*
X786126Y283884D01*
X787899Y284460D01*
X789560Y285306D01*
X791068Y286402D01*
X792386Y287720D01*
X793481Y289228D01*
X794328Y290889D01*
X794904Y292662D01*
X795195Y294503D01*
Y296367D01*
X794904Y298208D01*
X794328Y299981D01*
X793481Y301642D01*
X792386Y303150D01*
X791068Y304468D01*
X789560Y305563D01*
X787899Y306410D01*
X786126Y306986D01*
X784285Y307277D01*
D02*
G37*
G36*
X668686Y283549D02*
X667633D01*
X666616Y283276D01*
X665704Y282750D01*
X664959Y282005D01*
X664432Y281093D01*
X664160Y280076D01*
Y279022D01*
X664432Y278005D01*
X664959Y277093D01*
X665704Y276348D01*
X666616Y275821D01*
X667633Y275549D01*
X668686D01*
X669704Y275821D01*
X670616Y276348D01*
X671361Y277093D01*
X671887Y278005D01*
X672160Y279022D01*
Y280076D01*
X671887Y281093D01*
X671361Y282005D01*
X670616Y282750D01*
X669704Y283276D01*
X668686Y283549D01*
D02*
G37*
G36*
X656711Y278650D02*
X654112D01*
Y272149D01*
X656711D01*
Y278650D01*
D02*
G37*
G36*
X653562D02*
X650963D01*
Y272149D01*
X653562D01*
Y278650D01*
D02*
G37*
G36*
X650412D02*
X647813D01*
Y272149D01*
X650412D01*
Y278650D01*
D02*
G37*
G36*
X663011D02*
X660411D01*
Y272149D01*
X660480D01*
Y270474D01*
X660449Y270399D01*
X660234Y270301D01*
X659734Y270623D01*
Y272149D01*
X659861D01*
Y278650D01*
X657262D01*
Y272149D01*
X657389D01*
Y270682D01*
X656025Y269319D01*
X655707Y269187D01*
X655313Y268793D01*
X655100Y268279D01*
Y267722D01*
X655313Y267207D01*
X655707Y266813D01*
X656141Y266634D01*
X656273Y266325D01*
X656314Y266100D01*
X652438Y262224D01*
X645632D01*
X645533Y262462D01*
X645068Y263068D01*
X644462Y263533D01*
X644427Y263548D01*
Y265274D01*
X644347Y265680D01*
X644403Y265811D01*
X644423Y265824D01*
X644976Y265887D01*
X644984Y265883D01*
X645203Y265665D01*
X645718Y265451D01*
X646275D01*
X646789Y265665D01*
X647183Y266058D01*
X647396Y266573D01*
Y267130D01*
X647183Y267644D01*
X646897Y267930D01*
Y272149D01*
X647263D01*
Y278650D01*
X644663D01*
Y272149D01*
X645062D01*
Y267897D01*
X644809Y267644D01*
X644724Y267438D01*
X644223Y267537D01*
Y269751D01*
X644196Y269889D01*
Y270030D01*
X644142Y270160D01*
X644115Y270298D01*
X644037Y270414D01*
X644028Y270435D01*
Y272149D01*
X644113D01*
Y278650D01*
X641514D01*
Y272149D01*
X641581D01*
Y270477D01*
X641555Y270414D01*
X641477Y270298D01*
X641450Y270160D01*
X641396Y270030D01*
Y269889D01*
X641369Y269751D01*
Y267945D01*
X640875Y267764D01*
X640801Y267820D01*
X640597Y268042D01*
Y272149D01*
X640963D01*
Y278650D01*
X638364D01*
Y272149D01*
X638762D01*
Y267897D01*
X638509Y267644D01*
X638296Y267130D01*
Y266573D01*
X638509Y266058D01*
X638903Y265665D01*
X639418Y265451D01*
X639974D01*
X640489Y265665D01*
X640869Y266044D01*
X640946Y266041D01*
X641369Y265924D01*
Y265478D01*
X641369Y265478D01*
X641477Y264931D01*
X641573Y264789D01*
Y263548D01*
X641538Y263533D01*
X640932Y263068D01*
X628625Y250762D01*
X563573D01*
X563349Y250791D01*
X546224D01*
X546000Y250821D01*
X545243Y250721D01*
X544537Y250429D01*
X544092Y250087D01*
X542864D01*
Y245705D01*
X544083D01*
X544567Y245333D01*
X545272Y245041D01*
X546030Y244941D01*
X563154D01*
X563379Y244912D01*
X629837D01*
X630594Y245011D01*
X631299Y245304D01*
X631905Y245768D01*
X645068Y258932D01*
X645533Y259538D01*
X645632Y259776D01*
X652945D01*
X653413Y259870D01*
X653810Y260135D01*
X662063Y268388D01*
X662489Y268565D01*
X662883Y268958D01*
X663096Y269473D01*
Y270030D01*
X662927Y270438D01*
Y272149D01*
X663011D01*
Y278650D01*
D02*
G37*
G36*
X637814D02*
X635214D01*
Y272149D01*
X635587D01*
Y270823D01*
X635309Y270544D01*
X635096Y270030D01*
Y269473D01*
X635309Y268958D01*
X635703Y268565D01*
X636218Y268351D01*
X636774D01*
X637289Y268565D01*
X637683Y268958D01*
X637896Y269473D01*
Y270030D01*
X637683Y270544D01*
X637423Y270805D01*
Y272149D01*
X637814D01*
Y278650D01*
D02*
G37*
G36*
X631514D02*
X628915D01*
Y272149D01*
X629288D01*
Y270823D01*
X629009Y270544D01*
X628796Y270030D01*
Y269473D01*
X629009Y268958D01*
X629403Y268565D01*
X629918Y268351D01*
X630475D01*
X630989Y268565D01*
X631383Y268958D01*
X631596Y269473D01*
Y270030D01*
X631383Y270544D01*
X631123Y270804D01*
Y272149D01*
X631514D01*
Y278650D01*
D02*
G37*
G36*
X625215D02*
X622616D01*
Y272149D01*
X622988D01*
Y270823D01*
X622709Y270544D01*
X622496Y270030D01*
Y269473D01*
X622709Y268958D01*
X623103Y268565D01*
X623618Y268351D01*
X624174D01*
X624689Y268565D01*
X625083Y268958D01*
X625296Y269473D01*
Y270030D01*
X625083Y270544D01*
X624824Y270804D01*
Y272149D01*
X625215D01*
Y278650D01*
D02*
G37*
G36*
X618916D02*
X616317D01*
Y272149D01*
X616689D01*
Y270824D01*
X616409Y270544D01*
X616196Y270030D01*
Y269473D01*
X616409Y268958D01*
X616803Y268565D01*
X617318Y268351D01*
X617874D01*
X618389Y268565D01*
X618783Y268958D01*
X618996Y269473D01*
Y270030D01*
X618783Y270544D01*
X618524Y270803D01*
Y272149D01*
X618916D01*
Y278650D01*
D02*
G37*
G36*
X612617D02*
X610018D01*
Y272149D01*
X610540D01*
Y270673D01*
X610411Y270544D01*
X610198Y270030D01*
Y269473D01*
X610411Y268958D01*
X610805Y268565D01*
X611319Y268351D01*
X611876D01*
X612391Y268565D01*
X612785Y268958D01*
X612998Y269473D01*
Y270030D01*
X612785Y270544D01*
X612391Y270938D01*
X612375Y270945D01*
Y272149D01*
X612617D01*
Y278650D01*
D02*
G37*
G36*
X606318D02*
X603718D01*
Y272149D01*
X604089D01*
Y270825D01*
X603809Y270544D01*
X603596Y270030D01*
Y269473D01*
X603809Y268958D01*
X604203Y268565D01*
X604718Y268351D01*
X605274D01*
X605789Y268565D01*
X606183Y268958D01*
X606396Y269473D01*
Y270030D01*
X606183Y270544D01*
X605925Y270803D01*
Y272149D01*
X606318D01*
Y278650D01*
D02*
G37*
G36*
X600018D02*
X597419D01*
Y272149D01*
X597840D01*
Y270775D01*
X597609Y270544D01*
X597396Y270030D01*
Y269473D01*
X597609Y268958D01*
X598003Y268565D01*
X598518Y268351D01*
X599075D01*
X599589Y268565D01*
X599983Y268958D01*
X600196Y269473D01*
Y270030D01*
X599983Y270544D01*
X599675Y270852D01*
Y272149D01*
X600018D01*
Y278650D01*
D02*
G37*
G36*
X593719D02*
X591120D01*
Y272149D01*
X591540D01*
Y270775D01*
X591309Y270544D01*
X591096Y270030D01*
Y269473D01*
X591309Y268958D01*
X591703Y268565D01*
X592218Y268351D01*
X592774D01*
X593289Y268565D01*
X593683Y268958D01*
X593896Y269473D01*
Y270030D01*
X593683Y270544D01*
X593375Y270852D01*
Y272149D01*
X593719D01*
Y278650D01*
D02*
G37*
G36*
X587420D02*
X584821D01*
Y272149D01*
X585241D01*
Y270776D01*
X585009Y270544D01*
X584796Y270030D01*
Y269473D01*
X585009Y268958D01*
X585403Y268565D01*
X585918Y268351D01*
X586475D01*
X586989Y268565D01*
X587383Y268958D01*
X587596Y269473D01*
Y270030D01*
X587383Y270544D01*
X587076Y270851D01*
Y272149D01*
X587420D01*
Y278650D01*
D02*
G37*
G36*
X568522D02*
X565923D01*
Y272149D01*
X566342D01*
Y270777D01*
X566109Y270544D01*
X565896Y270030D01*
Y269473D01*
X566109Y268958D01*
X566503Y268565D01*
X567018Y268351D01*
X567575D01*
X568089Y268565D01*
X568483Y268958D01*
X568696Y269473D01*
Y270030D01*
X568483Y270544D01*
X568177Y270850D01*
Y272149D01*
X568522D01*
Y278650D01*
D02*
G37*
G36*
X562223D02*
X559624D01*
Y272149D01*
X560248D01*
Y270955D01*
X560207Y270938D01*
X559813Y270544D01*
X559600Y270030D01*
Y269473D01*
X559813Y268958D01*
X560207Y268565D01*
X560721Y268351D01*
X561278D01*
X561793Y268565D01*
X562187Y268958D01*
X562400Y269473D01*
Y270030D01*
X562187Y270544D01*
X561793Y270938D01*
X561676Y270987D01*
Y272149D01*
X562223D01*
Y278650D01*
D02*
G37*
G36*
X555924D02*
X553325D01*
Y272149D01*
X553849D01*
Y270997D01*
X553707Y270938D01*
X553313Y270544D01*
X553100Y270030D01*
Y269473D01*
X553313Y268958D01*
X553707Y268565D01*
X554221Y268351D01*
X554778D01*
X555293Y268565D01*
X555687Y268958D01*
X555900Y269473D01*
Y270030D01*
X555687Y270544D01*
X555293Y270938D01*
X555276Y270945D01*
Y272149D01*
X555924D01*
Y278650D01*
D02*
G37*
G36*
X549625D02*
X547026D01*
Y272149D01*
X547393D01*
Y270828D01*
X547109Y270544D01*
X546896Y270030D01*
Y269473D01*
X547109Y268958D01*
X547503Y268565D01*
X548018Y268351D01*
X548574D01*
X549089Y268565D01*
X549483Y268958D01*
X549696Y269473D01*
Y270030D01*
X549483Y270544D01*
X549228Y270799D01*
Y272149D01*
X549625D01*
Y278650D01*
D02*
G37*
G36*
X543325D02*
X540726D01*
Y272149D01*
X541093D01*
Y270829D01*
X540809Y270544D01*
X540596Y270030D01*
Y269473D01*
X540809Y268958D01*
X541203Y268565D01*
X541718Y268351D01*
X542275D01*
X542789Y268565D01*
X543183Y268958D01*
X543396Y269473D01*
Y270030D01*
X543183Y270544D01*
X542929Y270799D01*
Y272149D01*
X543325D01*
Y278650D01*
D02*
G37*
G36*
X609467D02*
X606868D01*
Y272149D01*
X607264D01*
Y267913D01*
X607187Y267861D01*
X605688Y266361D01*
X603486D01*
X603152Y266862D01*
X603232Y267056D01*
Y267613D01*
X603019Y268127D01*
X602768Y268378D01*
Y272149D01*
X603168D01*
Y278650D01*
X600569D01*
Y272149D01*
X600933D01*
Y268414D01*
X600645Y268127D01*
X600432Y267613D01*
Y267056D01*
X600513Y266862D01*
X600178Y266361D01*
X597236D01*
X596902Y266862D01*
X596983Y267056D01*
Y267613D01*
X596770Y268127D01*
X596494Y268403D01*
Y272149D01*
X596869D01*
Y278650D01*
X594270D01*
Y272149D01*
X594658D01*
Y268390D01*
X594396Y268127D01*
X594183Y267613D01*
Y267056D01*
X594263Y266862D01*
X593929Y266361D01*
X590937D01*
X590603Y266862D01*
X590683Y267056D01*
Y267613D01*
X590470Y268127D01*
X590194Y268403D01*
Y272149D01*
X590570D01*
Y278650D01*
X587970D01*
Y272149D01*
X588359D01*
Y268390D01*
X588096Y268127D01*
X587883Y267613D01*
Y267056D01*
X587963Y266862D01*
X587629Y266361D01*
X584637D01*
X584303Y266862D01*
X584383Y267056D01*
Y267613D01*
X584170Y268127D01*
X583895Y268403D01*
Y272149D01*
X584270D01*
Y278650D01*
X581671D01*
Y272149D01*
X582059D01*
Y268390D01*
X581797Y268127D01*
X581583Y267613D01*
Y267056D01*
X581664Y266862D01*
X581330Y266361D01*
X580212D01*
X580139Y266396D01*
X579790Y266805D01*
X579860Y267334D01*
X579790Y267863D01*
X580104Y268298D01*
X580193Y268351D01*
X580376D01*
X580891Y268565D01*
X581285Y268958D01*
X581498Y269473D01*
Y270030D01*
X581285Y270544D01*
X580891Y270938D01*
X580877Y270944D01*
Y272149D01*
X581121D01*
Y278650D01*
X578522D01*
Y272149D01*
X579042D01*
Y270675D01*
X578911Y270544D01*
X578772Y270210D01*
X578549Y270006D01*
X578198Y269950D01*
X577721Y270147D01*
Y272149D01*
X577971D01*
Y278650D01*
X575372D01*
Y272149D01*
X575885D01*
Y270038D01*
X575472Y269867D01*
X575396Y269809D01*
X574897Y270029D01*
X574888Y270049D01*
X574683Y270544D01*
X574427Y270801D01*
Y272149D01*
X574822D01*
Y278650D01*
X572222D01*
Y272149D01*
X572591D01*
Y270827D01*
X572309Y270544D01*
X572096Y270030D01*
Y269473D01*
X572309Y268958D01*
X572703Y268565D01*
X573140Y268383D01*
X573270Y268082D01*
X573315Y267851D01*
X572208Y266744D01*
X571784Y267027D01*
X571796Y267056D01*
Y267613D01*
X571583Y268127D01*
X571302Y268408D01*
Y272149D01*
X571672D01*
Y278650D01*
X569073D01*
Y272149D01*
X569467D01*
Y268385D01*
X569209Y268127D01*
X568996Y267613D01*
Y267056D01*
X569209Y266541D01*
X569603Y266147D01*
X570118Y265934D01*
X570675D01*
X570703Y265946D01*
X570986Y265522D01*
X569919Y264455D01*
X569381Y264232D01*
X568775Y263768D01*
X562433Y257425D01*
X546236D01*
X546000Y257394D01*
X545764Y257425D01*
X522425D01*
X521668Y257325D01*
X520962Y257033D01*
X520357Y256568D01*
X519892Y255962D01*
X519600Y255257D01*
X519500Y254500D01*
Y225575D01*
X519600Y224818D01*
X519892Y224113D01*
X520357Y223507D01*
X575903Y167960D01*
X576360Y167610D01*
X576710Y167153D01*
X588015Y155849D01*
X588621Y155384D01*
X589326Y155092D01*
X589457Y155074D01*
X592100Y152432D01*
X592102Y152430D01*
X592002Y151877D01*
X591707Y151755D01*
X591313Y151361D01*
X591100Y150846D01*
Y150289D01*
X591313Y149775D01*
X591707Y149381D01*
X591746Y149365D01*
Y145468D01*
X591120D01*
Y138968D01*
X593719D01*
Y145468D01*
X593174D01*
Y149332D01*
X593293Y149381D01*
X593687Y149775D01*
X593900Y150289D01*
Y150846D01*
X593786Y151121D01*
X594120Y151581D01*
X594168Y151575D01*
X597228D01*
X597362Y151373D01*
X597479Y151075D01*
X597296Y150634D01*
Y150077D01*
X597509Y149563D01*
X597790Y149282D01*
Y145468D01*
X597419D01*
Y138968D01*
X600018D01*
Y145468D01*
X599625D01*
Y149305D01*
X599883Y149563D01*
X600096Y150077D01*
Y150634D01*
X599883Y151149D01*
X599639Y151393D01*
X599695Y151957D01*
X599718Y151967D01*
X600324Y152432D01*
X600789Y153038D01*
X600909Y153328D01*
X603452D01*
X604564Y152215D01*
X604447Y151625D01*
X604248Y151543D01*
X603854Y151149D01*
X603641Y150634D01*
Y150077D01*
X603854Y149563D01*
X604112Y149305D01*
Y145468D01*
X603718D01*
Y138968D01*
X606318D01*
Y145468D01*
X605947D01*
Y149282D01*
X606228Y149563D01*
X606765Y149554D01*
X606973Y149384D01*
Y148552D01*
X606841Y148234D01*
Y147677D01*
X607032Y147217D01*
Y145468D01*
X606868D01*
Y138968D01*
X609467D01*
Y145468D01*
X609377D01*
Y147112D01*
X609428Y147163D01*
X609641Y147677D01*
Y148234D01*
X609428Y148749D01*
X609318Y148859D01*
Y150292D01*
X609229Y150741D01*
X608975Y151121D01*
X604766Y155329D01*
X604386Y155583D01*
X603937Y155673D01*
X600909D01*
X600789Y155963D01*
X600324Y156568D01*
X599718Y157033D01*
X599013Y157325D01*
X598256Y157425D01*
X595380D01*
X593006Y159799D01*
X593246Y160213D01*
X593952Y159920D01*
X594061Y159906D01*
X595451Y158516D01*
X596756Y159821D01*
X629254D01*
X636851Y152224D01*
X636612Y151756D01*
X636218D01*
X635703Y151543D01*
X635309Y151149D01*
X635096Y150634D01*
Y150077D01*
X635309Y149563D01*
X635587Y149285D01*
Y145468D01*
X635214D01*
Y138968D01*
X637814D01*
Y145468D01*
X637423D01*
Y149302D01*
X637683Y149563D01*
X637896Y150077D01*
Y150472D01*
X638365Y150710D01*
X639217Y149858D01*
X639100Y149268D01*
X638903Y149187D01*
X638509Y148793D01*
X638296Y148278D01*
Y147722D01*
X638509Y147207D01*
X638762Y146954D01*
Y145468D01*
X638364D01*
Y138968D01*
X640963D01*
Y145468D01*
X640597D01*
Y146922D01*
X640883Y147207D01*
X640900Y147249D01*
X641508Y147411D01*
X641604Y147337D01*
Y145468D01*
X641514D01*
Y138968D01*
X644113D01*
Y145468D01*
X644051D01*
Y146944D01*
X644551Y147098D01*
X644836Y146813D01*
X645082Y146711D01*
Y145468D01*
X644663D01*
Y138968D01*
X647263D01*
Y145468D01*
X646510D01*
Y146901D01*
X646816Y147207D01*
X647029Y147722D01*
Y148278D01*
X646816Y148793D01*
X646422Y149187D01*
X645907Y149400D01*
X645867D01*
X645685Y149588D01*
X645502Y149900D01*
X645587Y150549D01*
X645488Y151306D01*
X645196Y152012D01*
X644731Y152617D01*
X632534Y164814D01*
X631928Y165279D01*
X631223Y165571D01*
X630466Y165671D01*
X595920D01*
X585295Y176295D01*
X584690Y176760D01*
X583984Y177052D01*
X583780Y177079D01*
X582601Y178259D01*
X579195Y174854D01*
X580375Y173674D01*
X580402Y173470D01*
X580694Y172765D01*
X581159Y172159D01*
X585498Y167820D01*
X585419Y167741D01*
X588741Y164419D01*
X588820Y164498D01*
X592453Y160864D01*
X592214Y160450D01*
X591508Y160742D01*
X591377Y160760D01*
X580847Y171290D01*
X580390Y171640D01*
X580040Y172097D01*
X525350Y226787D01*
Y251575D01*
X545764D01*
X546000Y251606D01*
X546236Y251575D01*
X562985D01*
X563742Y251675D01*
X563828Y251710D01*
X563962Y251728D01*
X566672D01*
Y253392D01*
X572224Y258943D01*
X572762Y259166D01*
X573368Y259631D01*
X577987Y264249D01*
X578325Y263925D01*
X578788Y263615D01*
X579335Y263507D01*
X606279D01*
X606279Y263507D01*
X606825Y263615D01*
X607288Y263925D01*
X609205Y265842D01*
X609283Y265959D01*
X609383Y266058D01*
X609437Y266188D01*
X609515Y266305D01*
X609542Y266443D01*
X609596Y266573D01*
Y266713D01*
X609623Y266851D01*
X609596Y266989D01*
Y267130D01*
X609542Y267260D01*
X609515Y267398D01*
X609437Y267514D01*
X609383Y267644D01*
X609283Y267744D01*
X609205Y267861D01*
X609099Y267931D01*
Y272149D01*
X609467D01*
Y278650D01*
D02*
G37*
G36*
X565373D02*
X562774D01*
Y272149D01*
X563323D01*
Y268569D01*
X563207Y268521D01*
X562813Y268127D01*
X562600Y267613D01*
Y267056D01*
X562813Y266541D01*
X563207Y266147D01*
X563722Y265934D01*
X564279D01*
X564793Y266147D01*
X565187Y266541D01*
X565400Y267056D01*
Y267613D01*
X565187Y268127D01*
X564793Y268521D01*
X564750Y268539D01*
Y272149D01*
X565373D01*
Y278650D01*
D02*
G37*
G36*
X559074D02*
X556474D01*
Y272149D01*
X557050D01*
Y268558D01*
X556961Y268521D01*
X556567Y268127D01*
X556354Y267613D01*
Y267056D01*
X556567Y266541D01*
X556961Y266147D01*
X557476Y265934D01*
X558033D01*
X558547Y266147D01*
X558941Y266541D01*
X559154Y267056D01*
Y267613D01*
X558941Y268127D01*
X558547Y268521D01*
X558478Y268550D01*
Y272149D01*
X559074D01*
Y278650D01*
D02*
G37*
G36*
X552774D02*
X550175D01*
Y272149D01*
X550774D01*
Y268548D01*
X550707Y268521D01*
X550313Y268127D01*
X550100Y267613D01*
Y267056D01*
X550313Y266541D01*
X550707Y266147D01*
X551222Y265934D01*
X551779D01*
X552293Y266147D01*
X552687Y266541D01*
X552900Y267056D01*
Y267613D01*
X552687Y268127D01*
X552293Y268521D01*
X552201Y268559D01*
Y272149D01*
X552774D01*
Y278650D01*
D02*
G37*
G36*
X546475D02*
X543876D01*
Y272149D01*
X544239D01*
Y268415D01*
X543952Y268127D01*
X543738Y267613D01*
Y267056D01*
X543952Y266541D01*
X544345Y266147D01*
X544860Y265934D01*
X545417D01*
X545931Y266147D01*
X546325Y266541D01*
X546538Y267056D01*
Y267613D01*
X546325Y268127D01*
X546075Y268378D01*
Y272149D01*
X546475D01*
Y278650D01*
D02*
G37*
G36*
X540176D02*
X537577D01*
Y272149D01*
X537949D01*
Y268406D01*
X537671Y268127D01*
X537458Y267613D01*
Y267056D01*
X537671Y266541D01*
X538065Y266147D01*
X538579Y265934D01*
X539136D01*
X539651Y266147D01*
X540045Y266541D01*
X540258Y267056D01*
Y267613D01*
X540045Y268127D01*
X539785Y268387D01*
Y272149D01*
X540176D01*
Y278650D01*
D02*
G37*
G36*
X634664D02*
X632065D01*
Y272149D01*
X632463D01*
Y267898D01*
X632209Y267644D01*
X631996Y267130D01*
Y266573D01*
X632209Y266058D01*
X632603Y265665D01*
X633118Y265451D01*
X633674D01*
X634189Y265665D01*
X634583Y266058D01*
X634796Y266573D01*
Y267130D01*
X634583Y267644D01*
X634298Y267929D01*
Y272149D01*
X634664D01*
Y278650D01*
D02*
G37*
G36*
X628365D02*
X625766D01*
Y272149D01*
X626163D01*
Y267898D01*
X625909Y267644D01*
X625696Y267130D01*
Y266573D01*
X625909Y266058D01*
X626303Y265665D01*
X626818Y265451D01*
X627375D01*
X627889Y265665D01*
X628283Y266058D01*
X628496Y266573D01*
Y267130D01*
X628283Y267644D01*
X627998Y267929D01*
Y272149D01*
X628365D01*
Y278650D01*
D02*
G37*
G36*
X622066D02*
X619466D01*
Y272149D01*
X619863D01*
Y267899D01*
X619609Y267644D01*
X619396Y267130D01*
Y266573D01*
X619609Y266058D01*
X620003Y265665D01*
X620518Y265451D01*
X621074D01*
X621589Y265665D01*
X621983Y266058D01*
X622196Y266573D01*
Y267130D01*
X621983Y267644D01*
X621699Y267929D01*
Y272149D01*
X622066D01*
Y278650D01*
D02*
G37*
G36*
X615766D02*
X613167D01*
Y272149D01*
X613564D01*
Y267899D01*
X613309Y267644D01*
X613096Y267130D01*
Y266573D01*
X613309Y266058D01*
X613703Y265665D01*
X614218Y265451D01*
X614775D01*
X615289Y265665D01*
X615683Y266058D01*
X615896Y266573D01*
Y267130D01*
X615683Y267644D01*
X615399Y267928D01*
Y272149D01*
X615766D01*
Y278650D01*
D02*
G37*
G36*
X50711Y220824D02*
X50154D01*
X49640Y220610D01*
X49246Y220217D01*
X49033Y219702D01*
Y219145D01*
X49246Y218631D01*
X49640Y218237D01*
X50154Y218023D01*
X50711D01*
X51226Y218237D01*
X51620Y218631D01*
X51833Y219145D01*
Y219702D01*
X51620Y220217D01*
X51226Y220610D01*
X50711Y220824D01*
D02*
G37*
G36*
X48243Y218320D02*
X47686D01*
X47171Y218107D01*
X46777Y217713D01*
X46564Y217199D01*
Y216642D01*
X46777Y216127D01*
X47171Y215733D01*
X47686Y215520D01*
X48243D01*
X48757Y215733D01*
X49151Y216127D01*
X49364Y216642D01*
Y217199D01*
X49151Y217713D01*
X48757Y218107D01*
X48243Y218320D01*
D02*
G37*
G36*
X109174Y216399D02*
X108617D01*
X108103Y216186D01*
X107709Y215792D01*
X107496Y215277D01*
Y214720D01*
X107709Y214206D01*
X108103Y213812D01*
X108617Y213599D01*
X109174D01*
X109689Y213812D01*
X110082Y214206D01*
X110296Y214720D01*
Y215277D01*
X110082Y215792D01*
X109689Y216186D01*
X109174Y216399D01*
D02*
G37*
G36*
X106689Y213912D02*
X106132D01*
X105618Y213699D01*
X105224Y213305D01*
X105011Y212790D01*
Y212233D01*
X105224Y211719D01*
X105618Y211325D01*
X106132Y211112D01*
X106689D01*
X107204Y211325D01*
X107597Y211719D01*
X107811Y212233D01*
Y212790D01*
X107597Y213305D01*
X107204Y213699D01*
X106689Y213912D01*
D02*
G37*
G36*
X48814Y183854D02*
X48257D01*
X47742Y183641D01*
X47349Y183247D01*
X47135Y182732D01*
Y182175D01*
X47349Y181661D01*
X47742Y181267D01*
X48257Y181054D01*
X48814D01*
X49329Y181267D01*
X49722Y181661D01*
X49935Y182175D01*
Y182732D01*
X49722Y183247D01*
X49329Y183641D01*
X48814Y183854D01*
D02*
G37*
G36*
X66314Y182154D02*
X65757D01*
X65242Y181941D01*
X64849Y181547D01*
X64635Y181032D01*
Y180475D01*
X64849Y179961D01*
X65242Y179567D01*
X65757Y179354D01*
X66314D01*
X66829Y179567D01*
X67222Y179961D01*
X67435Y180475D01*
Y181032D01*
X67222Y181547D01*
X66829Y181941D01*
X66314Y182154D01*
D02*
G37*
G36*
X51118Y179203D02*
X50561D01*
X50046Y178990D01*
X49653Y178596D01*
X49439Y178082D01*
Y177525D01*
X49653Y177010D01*
X50046Y176617D01*
X50561Y176403D01*
X51118D01*
X51632Y176617D01*
X52026Y177010D01*
X52239Y177525D01*
Y178082D01*
X52026Y178596D01*
X51632Y178990D01*
X51118Y179203D01*
D02*
G37*
G36*
X125800Y177922D02*
X125243D01*
X124729Y177708D01*
X124335Y177315D01*
X124122Y176800D01*
Y176243D01*
X124335Y175729D01*
X124729Y175335D01*
X125243Y175122D01*
X125800D01*
X126315Y175335D01*
X126708Y175729D01*
X126922Y176243D01*
Y176800D01*
X126708Y177315D01*
X126315Y177708D01*
X125800Y177922D01*
D02*
G37*
G36*
X476278Y263900D02*
X475722D01*
X475207Y263687D01*
X474813Y263293D01*
X474600Y262778D01*
Y262222D01*
X474813Y261707D01*
X475207Y261313D01*
X475722Y261100D01*
X476278D01*
X476337Y261124D01*
X584488Y152973D01*
X584447Y152873D01*
Y152316D01*
X584660Y151802D01*
X585054Y151408D01*
X585569Y151195D01*
X586126D01*
X586640Y151408D01*
X587034Y151802D01*
X587247Y152316D01*
Y152873D01*
X587034Y153388D01*
X586640Y153782D01*
X586126Y153995D01*
X585569D01*
X585510Y153971D01*
X477359Y262122D01*
X477400Y262222D01*
Y262778D01*
X477187Y263293D01*
X476793Y263687D01*
X476278Y263900D01*
D02*
G37*
G36*
X491279Y151400D02*
X490722D01*
X490207Y151187D01*
X489813Y150793D01*
X489780Y150714D01*
X463220D01*
X463187Y150793D01*
X462793Y151187D01*
X462279Y151400D01*
X461722D01*
X461207Y151187D01*
X460813Y150793D01*
X460600Y150278D01*
Y149722D01*
X460813Y149207D01*
X461207Y148813D01*
X461722Y148600D01*
X462279D01*
X462793Y148813D01*
X463187Y149207D01*
X463220Y149286D01*
X489780D01*
X489813Y149207D01*
X490207Y148813D01*
X490722Y148600D01*
X491279D01*
X491793Y148813D01*
X492187Y149207D01*
X492400Y149722D01*
Y150278D01*
X492187Y150793D01*
X491793Y151187D01*
X491279Y151400D01*
D02*
G37*
G36*
X542319Y151968D02*
X541763D01*
X541248Y151755D01*
X540854Y151361D01*
X540641Y150846D01*
Y150289D01*
X540836Y149820D01*
Y148060D01*
X540341Y148046D01*
X540128Y148561D01*
X539734Y148955D01*
X539220Y149168D01*
X538663D01*
X538148Y148955D01*
X537754Y148561D01*
X537541Y148046D01*
Y147490D01*
X537685Y147142D01*
Y145468D01*
X537577D01*
Y138968D01*
X540176D01*
Y145468D01*
X540132D01*
Y146985D01*
X540341Y147489D01*
X540836Y147476D01*
Y145468D01*
X540726D01*
Y138968D01*
X543325D01*
Y145468D01*
X543283D01*
Y149907D01*
X543441Y150289D01*
Y150846D01*
X543228Y151361D01*
X542834Y151755D01*
X542319Y151968D01*
D02*
G37*
G36*
X649278Y151756D02*
X648722D01*
X648207Y151543D01*
X647813Y151149D01*
X647600Y150634D01*
Y150077D01*
X647813Y149563D01*
X648139Y149237D01*
Y145468D01*
X647813D01*
Y138968D01*
X650412D01*
Y145468D01*
X649974D01*
Y149350D01*
X650187Y149563D01*
X650400Y150077D01*
Y150634D01*
X650187Y151149D01*
X649793Y151543D01*
X649278Y151756D01*
D02*
G37*
G36*
X633719Y149400D02*
X633163D01*
X632648Y149187D01*
X632254Y148793D01*
X632041Y148278D01*
Y147722D01*
X632254Y147207D01*
X632485Y146976D01*
Y145468D01*
X632065D01*
Y138968D01*
X634664D01*
Y145468D01*
X634320D01*
Y146899D01*
X634628Y147207D01*
X634841Y147722D01*
Y148278D01*
X634628Y148793D01*
X634234Y149187D01*
X633719Y149400D01*
D02*
G37*
G36*
X630519Y151756D02*
X629963D01*
X629448Y151543D01*
X629054Y151149D01*
X628841Y150634D01*
Y150077D01*
X629054Y149563D01*
X629310Y149307D01*
Y145468D01*
X628915D01*
Y138968D01*
X631514D01*
Y145468D01*
X631146D01*
Y149280D01*
X631428Y149563D01*
X631641Y150077D01*
Y150634D01*
X631428Y151149D01*
X631034Y151543D01*
X630519Y151756D01*
D02*
G37*
G36*
X627279Y149400D02*
X626721D01*
X626207Y149187D01*
X625813Y148793D01*
X625600Y148278D01*
Y147722D01*
X625813Y147207D01*
X626207Y146813D01*
X626319Y146767D01*
Y145468D01*
X625766D01*
Y138968D01*
X628365D01*
Y145468D01*
X627746D01*
Y146794D01*
X627793Y146813D01*
X628187Y147207D01*
X628400Y147722D01*
Y148278D01*
X628187Y148793D01*
X627793Y149187D01*
X627279Y149400D01*
D02*
G37*
G36*
X623928Y151846D02*
X623577Y151776D01*
X623279Y151577D01*
X623275Y151571D01*
X623207Y151543D01*
X622813Y151149D01*
X622600Y150634D01*
Y150077D01*
X622813Y149563D01*
X623011Y149365D01*
Y145468D01*
X622616D01*
Y138968D01*
X625215D01*
Y145468D01*
X624846D01*
Y149222D01*
X625187Y149563D01*
X625400Y150077D01*
Y150634D01*
X625187Y151149D01*
X624793Y151543D01*
X624361Y151721D01*
X624279Y151776D01*
X623928Y151846D01*
D02*
G37*
G36*
X621307Y149356D02*
X620750D01*
X620236Y149143D01*
X619842Y148749D01*
X619629Y148234D01*
Y147677D01*
X619842Y147163D01*
X619980Y147025D01*
Y145468D01*
X619466D01*
Y138968D01*
X622066D01*
Y145468D01*
X621815D01*
Y146766D01*
X621822Y146769D01*
X622216Y147163D01*
X622429Y147677D01*
Y148234D01*
X622216Y148749D01*
X621822Y149143D01*
X621307Y149356D01*
D02*
G37*
G36*
X617991Y151756D02*
X617434D01*
X616920Y151543D01*
X616526Y151149D01*
X616313Y150634D01*
Y150077D01*
X616526Y149563D01*
X616747Y149342D01*
Y145468D01*
X616317D01*
Y138968D01*
X618916D01*
Y145468D01*
X618582D01*
Y149245D01*
X618900Y149563D01*
X619113Y150077D01*
Y150634D01*
X618900Y151149D01*
X618506Y151543D01*
X617991Y151756D01*
D02*
G37*
G36*
X614779Y149400D02*
X614221D01*
X613707Y149187D01*
X613313Y148793D01*
X613100Y148278D01*
Y147722D01*
X613313Y147207D01*
X613566Y146954D01*
Y145468D01*
X613167D01*
Y138968D01*
X615766D01*
Y145468D01*
X615401D01*
Y146921D01*
X615687Y147207D01*
X615900Y147722D01*
Y148278D01*
X615687Y148793D01*
X615293Y149187D01*
X614779Y149400D01*
D02*
G37*
G36*
X611687Y151756D02*
X611130D01*
X610616Y151543D01*
X610222Y151149D01*
X610009Y150634D01*
Y150077D01*
X610222Y149563D01*
X610616Y149169D01*
X610649Y149155D01*
Y145468D01*
X610018D01*
Y138968D01*
X612617D01*
Y145468D01*
X612077D01*
Y149117D01*
X612202Y149169D01*
X612596Y149563D01*
X612809Y150077D01*
Y150634D01*
X612596Y151149D01*
X612202Y151543D01*
X611687Y151756D01*
D02*
G37*
G36*
X602119Y149356D02*
X601563D01*
X601048Y149143D01*
X600654Y148749D01*
X600441Y148234D01*
Y147677D01*
X600654Y147163D01*
X601048Y146769D01*
X601141Y146730D01*
Y145468D01*
X600569D01*
Y138968D01*
X603168D01*
Y145468D01*
X602568D01*
Y146742D01*
X602634Y146769D01*
X603028Y147163D01*
X603241Y147677D01*
Y148234D01*
X603028Y148749D01*
X602634Y149143D01*
X602119Y149356D01*
D02*
G37*
G36*
X595775D02*
X595218D01*
X594703Y149143D01*
X594309Y148749D01*
X594096Y148234D01*
Y147677D01*
X594309Y147163D01*
X594615Y146857D01*
Y145468D01*
X594270D01*
Y138968D01*
X596869D01*
Y145468D01*
X596450D01*
Y146930D01*
X596683Y147163D01*
X596896Y147677D01*
Y148234D01*
X596683Y148749D01*
X596289Y149143D01*
X595775Y149356D01*
D02*
G37*
G36*
X589474Y149180D02*
X588918D01*
X588403Y148967D01*
X588009Y148574D01*
X587796Y148059D01*
Y147502D01*
X588009Y146987D01*
X588315Y146681D01*
Y145468D01*
X587970D01*
Y138968D01*
X590570D01*
Y145468D01*
X590151D01*
Y146755D01*
X590383Y146987D01*
X590596Y147502D01*
Y148059D01*
X590383Y148574D01*
X589989Y148967D01*
X589474Y149180D01*
D02*
G37*
G36*
X587420Y145468D02*
X584821D01*
Y138968D01*
X587420D01*
Y145468D01*
D02*
G37*
G36*
X576874Y149081D02*
X576318D01*
X575803Y148867D01*
X575409Y148474D01*
X575196Y147959D01*
Y147402D01*
X575409Y146888D01*
X575461Y146835D01*
Y145468D01*
X575372D01*
Y138968D01*
X577971D01*
Y145468D01*
X577806D01*
Y146944D01*
X577996Y147402D01*
Y147959D01*
X577783Y148474D01*
X577389Y148867D01*
X576874Y149081D01*
D02*
G37*
G36*
X564298Y149168D02*
X563741D01*
X563227Y148955D01*
X562833Y148561D01*
X562620Y148046D01*
Y147490D01*
X562833Y146975D01*
X563129Y146679D01*
Y145468D01*
X562774D01*
Y138968D01*
X565373D01*
Y145468D01*
X564964D01*
Y146732D01*
X565206Y146975D01*
X565420Y147490D01*
Y148046D01*
X565206Y148561D01*
X564813Y148955D01*
X564298Y149168D01*
D02*
G37*
G36*
X561298Y151968D02*
X560741D01*
X560227Y151755D01*
X559833Y151361D01*
X559620Y150846D01*
Y150289D01*
X559833Y149775D01*
X560054Y149554D01*
Y145468D01*
X559624D01*
Y138968D01*
X562223D01*
Y145468D01*
X561889D01*
Y149458D01*
X562207Y149775D01*
X562420Y150289D01*
Y150846D01*
X562207Y151361D01*
X561813Y151755D01*
X561298Y151968D01*
D02*
G37*
G36*
X558052Y149174D02*
X557496D01*
X556981Y148961D01*
X556587Y148567D01*
X556374Y148053D01*
Y147496D01*
X556587Y146981D01*
X556981Y146587D01*
X557060Y146554D01*
Y145468D01*
X556474D01*
Y138968D01*
X559074D01*
Y145468D01*
X558488D01*
Y146554D01*
X558567Y146587D01*
X558961Y146981D01*
X559174Y147496D01*
Y148053D01*
X558961Y148567D01*
X558567Y148961D01*
X558052Y149174D01*
D02*
G37*
G36*
X554903Y151968D02*
X554346D01*
X553831Y151755D01*
X553438Y151361D01*
X553224Y150846D01*
Y150289D01*
X553438Y149775D01*
X553831Y149381D01*
X553911Y149348D01*
Y145468D01*
X553325D01*
Y138968D01*
X555924D01*
Y145468D01*
X555338D01*
Y149348D01*
X555417Y149381D01*
X555811Y149775D01*
X556024Y150289D01*
Y150846D01*
X555811Y151361D01*
X555417Y151755D01*
X554903Y151968D01*
D02*
G37*
G36*
X551229Y157037D02*
X550672D01*
X550158Y156824D01*
X549764Y156430D01*
X549551Y155915D01*
Y155359D01*
X549764Y154844D01*
X550158Y154450D01*
X550672Y154237D01*
X550761D01*
Y148994D01*
X550682Y148961D01*
X550288Y148567D01*
X550075Y148053D01*
Y147496D01*
X550288Y146981D01*
X550682Y146587D01*
X550761Y146554D01*
Y145468D01*
X550175D01*
Y138968D01*
X552774D01*
Y145468D01*
X552189D01*
Y146554D01*
X552268Y146587D01*
X552662Y146981D01*
X552875Y147496D01*
Y148053D01*
X552662Y148567D01*
X552268Y148961D01*
X552189Y148994D01*
Y154734D01*
X552157Y154891D01*
X552351Y155359D01*
Y155915D01*
X552138Y156430D01*
X551744Y156824D01*
X551229Y157037D01*
D02*
G37*
G36*
X547779Y156900D02*
X547222D01*
X546707Y156687D01*
X546313Y156293D01*
X546100Y155779D01*
Y155221D01*
X546313Y154707D01*
X546707Y154313D01*
X547222Y154100D01*
X547512D01*
X547706Y153906D01*
Y151788D01*
X547627Y151755D01*
X547233Y151361D01*
X547020Y150846D01*
Y150289D01*
X547233Y149775D01*
X547627Y149381D01*
X547659Y149368D01*
Y145468D01*
X547026D01*
Y138968D01*
X549625D01*
Y145468D01*
X549086D01*
Y149329D01*
X549213Y149381D01*
X549607Y149775D01*
X549820Y150289D01*
Y150846D01*
X549607Y151361D01*
X549213Y151755D01*
X549133Y151788D01*
Y154201D01*
X549079Y154475D01*
X548924Y154706D01*
X548756Y154874D01*
X548900Y155221D01*
Y155779D01*
X548687Y156293D01*
X548293Y156687D01*
X547779Y156900D01*
D02*
G37*
G36*
X545498Y149168D02*
X544941D01*
X544427Y148955D01*
X544033Y148561D01*
X543820Y148046D01*
Y147490D01*
X544033Y146975D01*
X544280Y146728D01*
Y145468D01*
X543876D01*
Y138968D01*
X546475D01*
Y145468D01*
X546115D01*
Y146684D01*
X546407Y146975D01*
X546620Y147490D01*
Y148046D01*
X546407Y148561D01*
X546013Y148955D01*
X545498Y149168D01*
D02*
G37*
G36*
X656162Y146069D02*
Y142218D01*
Y138368D01*
X657811D01*
Y142218D01*
Y146069D01*
X656162D01*
D02*
G37*
G36*
X652778Y149400D02*
X652221D01*
X651707Y149187D01*
X651313Y148793D01*
X651100Y148278D01*
Y147722D01*
X651313Y147207D01*
X651464Y147057D01*
Y145468D01*
X650963D01*
Y138968D01*
X653512D01*
Y138368D01*
X654662D01*
Y142218D01*
Y146069D01*
X653512D01*
X653299Y146480D01*
Y146819D01*
X653687Y147207D01*
X653900Y147722D01*
Y148278D01*
X653687Y148793D01*
X653293Y149187D01*
X652778Y149400D01*
D02*
G37*
G36*
X135382Y142900D02*
X134618D01*
X133881Y142702D01*
X133219Y142321D01*
X132679Y141781D01*
X132298Y141119D01*
X132100Y140382D01*
Y139618D01*
X132298Y138881D01*
X132679Y138219D01*
X133219Y137679D01*
X133881Y137298D01*
X134618Y137100D01*
X135382D01*
X136119Y137298D01*
X136781Y137679D01*
X137321Y138219D01*
X137702Y138881D01*
X137900Y139618D01*
Y140382D01*
X137702Y141119D01*
X137321Y141781D01*
X136781Y142321D01*
X136119Y142702D01*
X135382Y142900D01*
D02*
G37*
G36*
X106779Y179100D02*
X106221D01*
X105707Y178887D01*
X105313Y178493D01*
X105100Y177979D01*
Y177421D01*
X105313Y176907D01*
X105707Y176513D01*
X106221Y176300D01*
X106779D01*
X107293Y176513D01*
X107687Y176907D01*
X107720Y176986D01*
X108230D01*
X108563Y176486D01*
X108477Y176278D01*
Y175722D01*
X108690Y175207D01*
X109084Y174813D01*
X109599Y174600D01*
X110156D01*
X110670Y174813D01*
X111064Y175207D01*
X111277Y175722D01*
Y176278D01*
X111191Y176486D01*
X111524Y176986D01*
X114504D01*
X163133Y128358D01*
X163100Y128279D01*
Y127722D01*
X163313Y127207D01*
X163707Y126813D01*
X164222Y126600D01*
X164778D01*
X165293Y126813D01*
X165687Y127207D01*
X165900Y127722D01*
Y128279D01*
X165687Y128793D01*
X165293Y129187D01*
X164778Y129400D01*
X164222D01*
X164142Y129367D01*
X115305Y178205D01*
X115073Y178359D01*
X114800Y178414D01*
X107720D01*
X107687Y178493D01*
X107293Y178887D01*
X106779Y179100D01*
D02*
G37*
G36*
X532954Y126068D02*
X531901D01*
X530884Y125796D01*
X529971Y125269D01*
X529227Y124525D01*
X528700Y123612D01*
X528427Y122595D01*
Y121542D01*
X528700Y120525D01*
X529227Y119613D01*
X529971Y118868D01*
X530884Y118341D01*
X531901Y118069D01*
X532954D01*
X533971Y118341D01*
X534883Y118868D01*
X535628Y119613D01*
X536155Y120525D01*
X536427Y121542D01*
Y122595D01*
X536155Y123612D01*
X535628Y124525D01*
X534883Y125269D01*
X533971Y125796D01*
X532954Y126068D01*
D02*
G37*
G36*
X784285Y134049D02*
X782421D01*
X780580Y133757D01*
X778807Y133181D01*
X777146Y132335D01*
X775638Y131239D01*
X774320Y129921D01*
X773224Y128413D01*
X772378Y126752D01*
X771802Y124980D01*
X771510Y123139D01*
Y121274D01*
X771802Y119433D01*
X772378Y117661D01*
X773224Y116000D01*
X774320Y114492D01*
X775638Y113174D01*
X777146Y112078D01*
X778807Y111232D01*
X780580Y110656D01*
X782421Y110364D01*
X784285D01*
X786126Y110656D01*
X787899Y111232D01*
X789560Y112078D01*
X791068Y113174D01*
X792386Y114492D01*
X793481Y116000D01*
X794328Y117661D01*
X794904Y119433D01*
X795195Y121274D01*
Y123139D01*
X794904Y124980D01*
X794328Y126752D01*
X793481Y128413D01*
X792386Y129921D01*
X791068Y131239D01*
X789560Y132335D01*
X787899Y133181D01*
X786126Y133757D01*
X784285Y134049D01*
D02*
G37*
G36*
X316869Y69560D02*
X316312D01*
X315797Y69346D01*
X315404Y68953D01*
X315191Y68438D01*
Y67881D01*
X315404Y67366D01*
X315797Y66973D01*
X316312Y66760D01*
X316869D01*
X317384Y66973D01*
X317777Y67366D01*
X317991Y67881D01*
Y68438D01*
X317777Y68953D01*
X317384Y69346D01*
X316869Y69560D01*
D02*
G37*
G36*
X782603Y58464D02*
X779993D01*
X780148Y57887D01*
X780601Y57103D01*
X781241Y56463D01*
X782025Y56010D01*
X782603Y55855D01*
Y58464D01*
D02*
G37*
G36*
X778838D02*
X776229D01*
Y55855D01*
X776806Y56010D01*
X777590Y56463D01*
X778230Y57103D01*
X778683Y57887D01*
X778838Y58464D01*
D02*
G37*
G36*
X213382Y57900D02*
X212618D01*
X211881Y57702D01*
X211219Y57321D01*
X210679Y56781D01*
X210298Y56119D01*
X210100Y55382D01*
Y54618D01*
X210298Y53881D01*
X210679Y53219D01*
X211219Y52679D01*
X211881Y52298D01*
X212618Y52100D01*
X213382D01*
X214119Y52298D01*
X214781Y52679D01*
X215321Y53219D01*
X215702Y53881D01*
X215900Y54618D01*
Y55382D01*
X215702Y56119D01*
X215321Y56781D01*
X214781Y57321D01*
X214119Y57702D01*
X213382Y57900D01*
D02*
G37*
G36*
X319470Y53949D02*
X318913D01*
X318398Y53736D01*
X318004Y53342D01*
X317791Y52828D01*
Y52271D01*
X318004Y51756D01*
X318398Y51363D01*
X318913Y51149D01*
X319470D01*
X319984Y51363D01*
X320378Y51756D01*
X320591Y52271D01*
Y52828D01*
X320378Y53342D01*
X319984Y53736D01*
X319470Y53949D01*
D02*
G37*
G36*
X781932Y41842D02*
X780068D01*
X778227Y41551D01*
X776454Y40975D01*
X774793Y40129D01*
X773285Y39033D01*
X771967Y37715D01*
X770871Y36207D01*
X770025Y34546D01*
X769449Y32773D01*
X769158Y30932D01*
Y29068D01*
X769449Y27227D01*
X770025Y25454D01*
X770871Y23793D01*
X771967Y22285D01*
X773285Y20967D01*
X774793Y19871D01*
X776454Y19025D01*
X778227Y18449D01*
X780068Y18158D01*
X781932D01*
X783773Y18449D01*
X785546Y19025D01*
X787207Y19871D01*
X788715Y20967D01*
X790033Y22285D01*
X791129Y23793D01*
X791975Y25454D01*
X792551Y27227D01*
X792842Y29068D01*
Y30932D01*
X792551Y32773D01*
X791975Y34546D01*
X791129Y36207D01*
X790033Y37715D01*
X788715Y39033D01*
X787207Y40129D01*
X785546Y40975D01*
X783773Y41551D01*
X781932Y41842D01*
D02*
G37*
G36*
X417100Y424228D02*
X406604D01*
Y422212D01*
X406121Y422082D01*
X406051Y422203D01*
X405074Y423180D01*
X403878Y423871D01*
X402543Y424228D01*
X401161D01*
X399826Y423871D01*
X398630Y423180D01*
X397653Y422203D01*
X396962Y421006D01*
X396604Y419671D01*
Y418289D01*
X396962Y416955D01*
X397653Y415758D01*
X398630Y414781D01*
X399826Y414090D01*
X401161Y413732D01*
X402543D01*
X403878Y414090D01*
X405074Y414781D01*
X406051Y415758D01*
X406121Y415878D01*
X406604Y415749D01*
Y413732D01*
X417100D01*
Y424228D01*
D02*
G37*
G36*
X417134Y412067D02*
X406638D01*
Y410050D01*
X406155Y409921D01*
X406086Y410042D01*
X405108Y411019D01*
X403912Y411709D01*
X402577Y412067D01*
X401195D01*
X399860Y411709D01*
X398664Y411019D01*
X397687Y410042D01*
X396996Y408845D01*
X396638Y407510D01*
Y406128D01*
X396996Y404793D01*
X397687Y403597D01*
X398664Y402620D01*
X399860Y401929D01*
X401195Y401571D01*
X402577D01*
X403912Y401929D01*
X405108Y402620D01*
X406086Y403597D01*
X406155Y403717D01*
X406638Y403588D01*
Y401571D01*
X417134D01*
Y412067D01*
D02*
G37*
G36*
X334278Y407400D02*
X333721D01*
X333207Y407187D01*
X332813Y406793D01*
X332600Y406279D01*
Y405722D01*
X332813Y405207D01*
X333207Y404813D01*
X333721Y404600D01*
X334278D01*
X334793Y404813D01*
X335187Y405207D01*
X335400Y405722D01*
Y406279D01*
X335187Y406793D01*
X334793Y407187D01*
X334278Y407400D01*
D02*
G37*
G36*
X417137Y399676D02*
X406641D01*
Y397659D01*
X406158Y397530D01*
X406088Y397650D01*
X405111Y398627D01*
X403915Y399318D01*
X402580Y399676D01*
X401198D01*
X399863Y399318D01*
X398667Y398627D01*
X397689Y397650D01*
X396999Y396453D01*
X396641Y395118D01*
Y393737D01*
X396999Y392402D01*
X397689Y391205D01*
X398667Y390228D01*
X399863Y389537D01*
X401198Y389180D01*
X402580D01*
X403915Y389537D01*
X405111Y390228D01*
X406088Y391205D01*
X406158Y391326D01*
X406641Y391196D01*
Y389180D01*
X417137D01*
Y399676D01*
D02*
G37*
G36*
X29932Y411842D02*
X28068D01*
X26227Y411551D01*
X24454Y410975D01*
X22793Y410129D01*
X21285Y409033D01*
X19967Y407715D01*
X18871Y406207D01*
X18025Y404546D01*
X17449Y402773D01*
X17157Y400932D01*
Y399068D01*
X17449Y397227D01*
X18025Y395454D01*
X18871Y393793D01*
X19967Y392285D01*
X21285Y390967D01*
X22793Y389871D01*
X24454Y389025D01*
X26227Y388449D01*
X28068Y388158D01*
X29932D01*
X31773Y388449D01*
X33546Y389025D01*
X35207Y389871D01*
X36715Y390967D01*
X38033Y392285D01*
X39129Y393793D01*
X39975Y395454D01*
X40551Y397227D01*
X40843Y399068D01*
Y400932D01*
X40551Y402773D01*
X39975Y404546D01*
X39129Y406207D01*
X38033Y407715D01*
X36715Y409033D01*
X35207Y410129D01*
X33546Y410975D01*
X31773Y411551D01*
X29932Y411842D01*
D02*
G37*
G36*
X169691Y379248D02*
X168309D01*
X166974Y378890D01*
X165778Y378200D01*
X164801Y377222D01*
X164110Y376026D01*
X163752Y374691D01*
Y373309D01*
X164110Y371974D01*
X164801Y370778D01*
X165778Y369800D01*
X166664Y369289D01*
Y368711D01*
X165778Y368199D01*
X164801Y367222D01*
X164110Y366026D01*
X163752Y364691D01*
Y363309D01*
X164110Y361974D01*
X164801Y360778D01*
X165778Y359801D01*
X165898Y359731D01*
X165769Y359248D01*
X163752D01*
Y348752D01*
X174248D01*
Y359248D01*
X172231D01*
X172102Y359731D01*
X172222Y359801D01*
X173199Y360778D01*
X173890Y361974D01*
X174248Y363309D01*
Y364691D01*
X173890Y366026D01*
X173199Y367222D01*
X172222Y368199D01*
X171336Y368711D01*
Y369289D01*
X172222Y369800D01*
X173199Y370778D01*
X173890Y371974D01*
X174248Y373309D01*
Y374691D01*
X173890Y376026D01*
X173199Y377222D01*
X172222Y378200D01*
X171026Y378890D01*
X169691Y379248D01*
D02*
G37*
G36*
X108691D02*
X107309D01*
X105974Y378890D01*
X104778Y378200D01*
X103800Y377222D01*
X103110Y376026D01*
X102752Y374691D01*
Y373309D01*
X103110Y371974D01*
X103800Y370778D01*
X104778Y369800D01*
X105664Y369289D01*
Y368711D01*
X104778Y368199D01*
X103800Y367222D01*
X103110Y366026D01*
X102752Y364691D01*
Y363309D01*
X103110Y361974D01*
X103800Y360778D01*
X104778Y359801D01*
X104898Y359731D01*
X104769Y359248D01*
X102752D01*
Y348752D01*
X113248D01*
Y359248D01*
X111231D01*
X111102Y359731D01*
X111222Y359801D01*
X112199Y360778D01*
X112890Y361974D01*
X113248Y363309D01*
Y364691D01*
X112890Y366026D01*
X112199Y367222D01*
X111222Y368199D01*
X110336Y368711D01*
Y369289D01*
X111222Y369800D01*
X112199Y370778D01*
X112890Y371974D01*
X113248Y373309D01*
Y374691D01*
X112890Y376026D01*
X112199Y377222D01*
X111222Y378200D01*
X110026Y378890D01*
X108691Y379248D01*
D02*
G37*
G36*
X49691D02*
X48309D01*
X46974Y378890D01*
X45778Y378200D01*
X44800Y377222D01*
X44110Y376026D01*
X43752Y374691D01*
Y373309D01*
X44110Y371974D01*
X44800Y370778D01*
X45778Y369800D01*
X46664Y369289D01*
Y368711D01*
X45778Y368199D01*
X44800Y367222D01*
X44110Y366026D01*
X43752Y364691D01*
Y363309D01*
X44110Y361974D01*
X44800Y360778D01*
X45778Y359801D01*
X45898Y359731D01*
X45769Y359248D01*
X43752D01*
Y348752D01*
X54248D01*
Y359248D01*
X52231D01*
X52102Y359731D01*
X52222Y359801D01*
X53199Y360778D01*
X53890Y361974D01*
X54248Y363309D01*
Y364691D01*
X53890Y366026D01*
X53199Y367222D01*
X52222Y368199D01*
X51336Y368711D01*
Y369289D01*
X52222Y369800D01*
X53199Y370778D01*
X53890Y371974D01*
X54248Y373309D01*
Y374691D01*
X53890Y376026D01*
X53199Y377222D01*
X52222Y378200D01*
X51026Y378890D01*
X49691Y379248D01*
D02*
G37*
G36*
X228320Y378793D02*
X226938D01*
X225603Y378435D01*
X224406Y377744D01*
X223429Y376767D01*
X222738Y375570D01*
X222381Y374236D01*
Y372854D01*
X222738Y371519D01*
X223429Y370322D01*
X224406Y369345D01*
X225293Y368833D01*
Y368256D01*
X224406Y367744D01*
X223429Y366767D01*
X222738Y365570D01*
X222381Y364236D01*
Y362854D01*
X222738Y361519D01*
X223429Y360322D01*
X224406Y359345D01*
X224527Y359276D01*
X224397Y358793D01*
X222381D01*
Y348297D01*
X232877D01*
Y358793D01*
X230860D01*
X230731Y359276D01*
X230851Y359345D01*
X231828Y360322D01*
X232519Y361519D01*
X232877Y362854D01*
Y364236D01*
X232519Y365570D01*
X231828Y366767D01*
X230851Y367744D01*
X229965Y368256D01*
Y368833D01*
X230851Y369345D01*
X231828Y370322D01*
X232519Y371519D01*
X232877Y372854D01*
Y374236D01*
X232519Y375570D01*
X231828Y376767D01*
X230851Y377744D01*
X229655Y378435D01*
X228320Y378793D01*
D02*
G37*
G36*
X349191Y378748D02*
X347809D01*
X346474Y378390D01*
X345278Y377699D01*
X344301Y376722D01*
X343610Y375526D01*
X343252Y374191D01*
Y372809D01*
X343610Y371474D01*
X344301Y370278D01*
X345278Y369301D01*
X346164Y368789D01*
Y368211D01*
X345278Y367700D01*
X344301Y366722D01*
X343610Y365526D01*
X343252Y364191D01*
Y362809D01*
X343610Y361474D01*
X344301Y360278D01*
X345278Y359300D01*
X345398Y359231D01*
X345269Y358748D01*
X343252D01*
Y348252D01*
X353748D01*
Y358748D01*
X351731D01*
X351602Y359231D01*
X351722Y359300D01*
X352699Y360278D01*
X353390Y361474D01*
X353748Y362809D01*
Y364191D01*
X353390Y365526D01*
X352699Y366722D01*
X351722Y367700D01*
X350836Y368211D01*
Y368789D01*
X351722Y369301D01*
X352699Y370278D01*
X353390Y371474D01*
X353748Y372809D01*
Y374191D01*
X353390Y375526D01*
X352699Y376722D01*
X351722Y377699D01*
X350526Y378390D01*
X349191Y378748D01*
D02*
G37*
G36*
X290191D02*
X288809D01*
X287474Y378390D01*
X286278Y377699D01*
X285300Y376722D01*
X284610Y375526D01*
X284252Y374191D01*
Y372809D01*
X284610Y371474D01*
X285300Y370278D01*
X286278Y369301D01*
X287164Y368789D01*
Y368211D01*
X286278Y367700D01*
X285300Y366722D01*
X284610Y365526D01*
X284252Y364191D01*
Y362809D01*
X284610Y361474D01*
X285300Y360278D01*
X286278Y359300D01*
X286398Y359231D01*
X286269Y358748D01*
X284252D01*
Y348252D01*
X294748D01*
Y358748D01*
X292731D01*
X292602Y359231D01*
X292722Y359300D01*
X293700Y360278D01*
X294390Y361474D01*
X294748Y362809D01*
Y364191D01*
X294390Y365526D01*
X293700Y366722D01*
X292722Y367700D01*
X291836Y368211D01*
Y368789D01*
X292722Y369301D01*
X293700Y370278D01*
X294390Y371474D01*
X294748Y372809D01*
Y374191D01*
X294390Y375526D01*
X293700Y376722D01*
X292722Y377699D01*
X291526Y378390D01*
X290191Y378748D01*
D02*
G37*
G36*
X213970Y320165D02*
X212589D01*
X211254Y319808D01*
X210057Y319117D01*
X209080Y318140D01*
X208389Y316943D01*
X208031Y315608D01*
Y314227D01*
X208389Y312892D01*
X209080Y311695D01*
X210057Y310718D01*
X210177Y310648D01*
X210048Y310166D01*
X208031D01*
Y299669D01*
X218527D01*
Y310166D01*
X216511D01*
X216381Y310648D01*
X216502Y310718D01*
X217479Y311695D01*
X218170Y312892D01*
X218527Y314227D01*
Y315608D01*
X218170Y316943D01*
X217479Y318140D01*
X216502Y319117D01*
X215305Y319808D01*
X213970Y320165D01*
D02*
G37*
G36*
X69685Y324349D02*
X59189D01*
Y313853D01*
X61206D01*
X61335Y313370D01*
X61215Y313300D01*
X60237Y312323D01*
X59547Y311126D01*
X59189Y309791D01*
Y308410D01*
X59547Y307075D01*
X60237Y305878D01*
X61215Y304901D01*
X62101Y304389D01*
Y303812D01*
X61215Y303300D01*
X60237Y302323D01*
X59547Y301126D01*
X59189Y299792D01*
Y298410D01*
X59547Y297075D01*
X60237Y295878D01*
X61215Y294901D01*
X62411Y294210D01*
X63746Y293853D01*
X65128D01*
X66463Y294210D01*
X67659Y294901D01*
X68637Y295878D01*
X69327Y297075D01*
X69685Y298410D01*
Y299792D01*
X69327Y301126D01*
X68637Y302323D01*
X67659Y303300D01*
X66773Y303812D01*
Y304389D01*
X67659Y304901D01*
X68637Y305878D01*
X69327Y307075D01*
X69685Y308410D01*
Y309791D01*
X69327Y311126D01*
X68637Y312323D01*
X67659Y313300D01*
X67539Y313370D01*
X67668Y313853D01*
X69685D01*
Y324349D01*
D02*
G37*
G36*
X136156Y324349D02*
X125660D01*
Y313853D01*
X127677D01*
X127806Y313370D01*
X127686Y313300D01*
X126709Y312323D01*
X126018Y311126D01*
X125660Y309791D01*
Y308410D01*
X126018Y307075D01*
X126709Y305878D01*
X127686Y304901D01*
X128572Y304389D01*
Y303812D01*
X127686Y303300D01*
X126709Y302323D01*
X126018Y301126D01*
X125660Y299792D01*
Y298410D01*
X126018Y297075D01*
X126709Y295878D01*
X127686Y294901D01*
X128882Y294210D01*
X130217Y293853D01*
X131599D01*
X132934Y294210D01*
X134131Y294901D01*
X135108Y295878D01*
X135799Y297075D01*
X136156Y298410D01*
Y299792D01*
X135799Y301126D01*
X135108Y302323D01*
X134131Y303300D01*
X133244Y303812D01*
Y304389D01*
X134131Y304901D01*
X135108Y305878D01*
X135799Y307075D01*
X136156Y308410D01*
Y309791D01*
X135799Y311126D01*
X135108Y312323D01*
X134131Y313300D01*
X134010Y313370D01*
X134139Y313853D01*
X136156D01*
Y324349D01*
D02*
G37*
G36*
X176026Y309213D02*
X174645D01*
X173310Y308855D01*
X172113Y308164D01*
X171136Y307187D01*
X170445Y305991D01*
X170088Y304656D01*
Y303274D01*
X170445Y301939D01*
X171136Y300743D01*
X172113Y299765D01*
X172234Y299696D01*
X172104Y299213D01*
X170088D01*
Y288717D01*
X180584D01*
Y299213D01*
X178567D01*
X178437Y299696D01*
X178558Y299765D01*
X179535Y300743D01*
X180226Y301939D01*
X180584Y303274D01*
Y304656D01*
X180226Y305991D01*
X179535Y307187D01*
X178558Y308164D01*
X177361Y308855D01*
X176026Y309213D01*
D02*
G37*
G36*
X213970Y297165D02*
X212589D01*
X211254Y296808D01*
X210057Y296117D01*
X209080Y295140D01*
X208389Y293943D01*
X208031Y292608D01*
Y291227D01*
X208389Y289892D01*
X209080Y288695D01*
X210057Y287718D01*
X210177Y287649D01*
X210048Y287165D01*
X208031D01*
Y276669D01*
X218527D01*
Y287165D01*
X216511D01*
X216381Y287649D01*
X216502Y287718D01*
X217479Y288695D01*
X218170Y289892D01*
X218527Y291227D01*
Y292608D01*
X218170Y293943D01*
X217479Y295140D01*
X216502Y296117D01*
X215305Y296808D01*
X213970Y297165D01*
D02*
G37*
G36*
X176026Y286213D02*
X174645D01*
X173310Y285855D01*
X172113Y285164D01*
X171136Y284187D01*
X170445Y282991D01*
X170088Y281656D01*
Y280274D01*
X170445Y278939D01*
X171136Y277743D01*
X172113Y276765D01*
X172234Y276696D01*
X172104Y276213D01*
X170088D01*
Y265717D01*
X180584D01*
Y276213D01*
X178567D01*
X178437Y276696D01*
X178558Y276765D01*
X179535Y277743D01*
X180226Y278939D01*
X180584Y280274D01*
Y281656D01*
X180226Y282991D01*
X179535Y284187D01*
X178558Y285164D01*
X177361Y285855D01*
X176026Y286213D01*
D02*
G37*
G36*
X213970Y274166D02*
X212589D01*
X211254Y273808D01*
X210057Y273117D01*
X209080Y272140D01*
X208389Y270943D01*
X208031Y269608D01*
Y268227D01*
X208389Y266892D01*
X209080Y265695D01*
X210057Y264718D01*
X210177Y264649D01*
X210048Y264165D01*
X208031D01*
Y253669D01*
X218527D01*
Y264165D01*
X216511D01*
X216381Y264649D01*
X216502Y264718D01*
X217479Y265695D01*
X218170Y266892D01*
X218527Y268227D01*
Y269608D01*
X218170Y270943D01*
X217479Y272140D01*
X216502Y273117D01*
X215305Y273808D01*
X213970Y274166D01*
D02*
G37*
G36*
X176026Y263213D02*
X174645D01*
X173310Y262855D01*
X172113Y262164D01*
X171136Y261187D01*
X170445Y259991D01*
X170088Y258656D01*
Y257274D01*
X170445Y255939D01*
X171136Y254743D01*
X172113Y253766D01*
X172234Y253696D01*
X172104Y253213D01*
X170088D01*
Y242717D01*
X180584D01*
Y253213D01*
X178567D01*
X178437Y253696D01*
X178558Y253766D01*
X179535Y254743D01*
X180226Y255939D01*
X180584Y257274D01*
Y258656D01*
X180226Y259991D01*
X179535Y261187D01*
X178558Y262164D01*
X177361Y262855D01*
X176026Y263213D01*
D02*
G37*
G36*
X280384Y246464D02*
X279827D01*
X279312Y246251D01*
X278919Y245857D01*
X278706Y245343D01*
Y244786D01*
X278919Y244271D01*
X279312Y243877D01*
X279827Y243664D01*
X280384D01*
X280899Y243877D01*
X281000Y243979D01*
X281377Y243940D01*
X281658Y243464D01*
X281611Y243352D01*
Y242795D01*
X281626Y242760D01*
X281331Y242271D01*
X280976Y242237D01*
X280899Y242314D01*
X280384Y242527D01*
X279827D01*
X279312Y242314D01*
X278919Y241920D01*
X278706Y241406D01*
Y240849D01*
X278919Y240334D01*
X279312Y239940D01*
X279827Y239727D01*
X280384D01*
X280899Y239940D01*
X281000Y240042D01*
X281377Y240003D01*
X281658Y239527D01*
X281611Y239415D01*
Y238858D01*
X281626Y238823D01*
X281331Y238334D01*
X280976Y238300D01*
X280899Y238377D01*
X280384Y238590D01*
X279827D01*
X279312Y238377D01*
X278919Y237983D01*
X278706Y237469D01*
Y236912D01*
X278919Y236397D01*
X279312Y236003D01*
X279827Y235790D01*
X280384D01*
X280899Y236003D01*
X281160Y235966D01*
X281529Y235560D01*
Y235003D01*
X281640Y234736D01*
X281341Y234236D01*
X280308D01*
X279962Y234582D01*
X279448Y234795D01*
X278891D01*
X278376Y234582D01*
X277982Y234188D01*
X277769Y233673D01*
Y233116D01*
X277982Y232602D01*
X278376Y232208D01*
X278891Y231995D01*
X279448D01*
X279962Y232208D01*
X280155Y232401D01*
X281516D01*
X281754Y231901D01*
X281600Y231530D01*
Y230973D01*
X281813Y230458D01*
X282207Y230065D01*
X282721Y229852D01*
X283278D01*
X283793Y230065D01*
X283839Y230110D01*
X283972Y230055D01*
X288587D01*
X292835D01*
Y230896D01*
X292235D01*
Y234220D01*
Y238157D01*
Y242094D01*
Y245431D01*
X292835D01*
Y246272D01*
X288587D01*
X284339D01*
Y245976D01*
X281173D01*
X280899Y246251D01*
X280384Y246464D01*
D02*
G37*
G36*
X213970Y251166D02*
X212589D01*
X211254Y250808D01*
X210057Y250117D01*
X209080Y249140D01*
X208389Y247943D01*
X208031Y246608D01*
Y245227D01*
X208389Y243892D01*
X209080Y242695D01*
X210057Y241718D01*
X210177Y241649D01*
X210048Y241165D01*
X208031D01*
Y230669D01*
X218527D01*
Y241165D01*
X216511D01*
X216381Y241649D01*
X216502Y241718D01*
X217479Y242695D01*
X218170Y243892D01*
X218527Y245227D01*
Y246608D01*
X218170Y247943D01*
X217479Y249140D01*
X216502Y250117D01*
X215305Y250808D01*
X213970Y251166D01*
D02*
G37*
G36*
X282706Y228728D02*
X282149D01*
X281635Y228515D01*
X281241Y228121D01*
X281028Y227606D01*
Y227049D01*
X281241Y226535D01*
X281635Y226141D01*
X282149Y225928D01*
X282706D01*
X283221Y226141D01*
X283494Y226415D01*
X284339D01*
Y226118D01*
X288587D01*
X292835D01*
Y226959D01*
X292235D01*
Y227715D01*
X292835D01*
Y228555D01*
X288587D01*
X284339D01*
Y228250D01*
X283486D01*
X283221Y228515D01*
X282706Y228728D01*
D02*
G37*
G36*
X283278Y224647D02*
X282721D01*
X282207Y224434D01*
X281825Y224052D01*
X281757Y224091D01*
X280994Y224296D01*
X280205D01*
X279441Y224091D01*
X278757Y223696D01*
X278199Y223138D01*
X277804Y222454D01*
X277599Y221691D01*
Y220901D01*
X277804Y220138D01*
X278199Y219454D01*
X278389Y219264D01*
X278199Y219074D01*
X277804Y218390D01*
X277599Y217627D01*
Y216837D01*
X277804Y216073D01*
X278199Y215389D01*
X278262Y215327D01*
X278199Y215264D01*
X277804Y214580D01*
X277599Y213817D01*
Y213027D01*
X277804Y212264D01*
X278199Y211580D01*
X278757Y211021D01*
X279087Y210831D01*
X279126Y210532D01*
X278913Y210018D01*
Y209461D01*
X279126Y208946D01*
X279520Y208553D01*
X280035Y208340D01*
X280592D01*
X281106Y208553D01*
X281320Y208496D01*
X281602Y207930D01*
X281600Y207926D01*
Y207369D01*
X281645Y207262D01*
X281221Y206978D01*
X281200Y206999D01*
X280686Y207212D01*
X280129D01*
X279614Y206999D01*
X279221Y206605D01*
X279007Y206090D01*
Y205533D01*
X279221Y205019D01*
X279614Y204625D01*
X280129Y204412D01*
X280686D01*
X281200Y204625D01*
X281517Y204583D01*
X281812Y204075D01*
X281806Y204062D01*
Y203505D01*
X282019Y202990D01*
X282413Y202596D01*
X282928Y202383D01*
X283485D01*
X283999Y202596D01*
X284234Y202831D01*
X284939D01*
Y202724D01*
X292235D01*
Y204693D01*
Y208998D01*
X293835D01*
Y210966D01*
Y214903D01*
Y218841D01*
Y224022D01*
X292835D01*
Y224618D01*
X288587D01*
X284339D01*
Y224596D01*
X283839Y224389D01*
X283793Y224434D01*
X283278Y224647D01*
D02*
G37*
G36*
X176026Y240213D02*
X174645D01*
X173310Y239855D01*
X172113Y239164D01*
X171136Y238187D01*
X170445Y236991D01*
X170088Y235656D01*
Y234274D01*
X170445Y232939D01*
X171136Y231743D01*
X172113Y230766D01*
X172234Y230696D01*
X172104Y230213D01*
X170088D01*
Y219717D01*
X180584D01*
Y230213D01*
X178567D01*
X178437Y230696D01*
X178558Y230766D01*
X179535Y231743D01*
X180226Y232939D01*
X180584Y234274D01*
Y235656D01*
X180226Y236991D01*
X179535Y238187D01*
X178558Y239164D01*
X177361Y239855D01*
X176026Y240213D01*
D02*
G37*
G36*
X213970Y228166D02*
X212589D01*
X211254Y227808D01*
X210057Y227117D01*
X209080Y226140D01*
X208389Y224943D01*
X208031Y223608D01*
Y222227D01*
X208389Y220892D01*
X209080Y219695D01*
X210057Y218718D01*
X210177Y218649D01*
X210048Y218165D01*
X208031D01*
Y207669D01*
X218527D01*
Y218165D01*
X216511D01*
X216381Y218649D01*
X216502Y218718D01*
X217479Y219695D01*
X218170Y220892D01*
X218527Y222227D01*
Y223608D01*
X218170Y224943D01*
X217479Y226140D01*
X216502Y227117D01*
X215305Y227808D01*
X213970Y228166D01*
D02*
G37*
G36*
X319000Y212771D02*
X317675Y212596D01*
X316441Y212085D01*
X315380Y211271D01*
X314567Y210211D01*
X314055Y208977D01*
X313881Y207652D01*
X314055Y206327D01*
X314567Y205092D01*
X315380Y204032D01*
X316441Y203218D01*
X317675Y202707D01*
X319000Y202533D01*
X320325Y202707D01*
X321560Y203218D01*
X322620Y204032D01*
X323433Y205092D01*
X323944Y206327D01*
X324119Y207652D01*
X323944Y208977D01*
X323433Y210211D01*
X322620Y211271D01*
X321560Y212085D01*
X320325Y212596D01*
X319000Y212771D01*
D02*
G37*
G36*
X341872Y201171D02*
X341032D01*
Y200571D01*
X340276D01*
Y201171D01*
X339435D01*
Y196923D01*
X337935D01*
Y201171D01*
X337094D01*
Y200571D01*
X316653D01*
Y201171D01*
X315813D01*
Y196923D01*
Y192675D01*
X316140D01*
Y189456D01*
X315897Y189213D01*
X315684Y188698D01*
Y188142D01*
X315897Y187627D01*
X316290Y187233D01*
X316805Y187020D01*
X317362D01*
X317877Y187233D01*
X318270Y187627D01*
X318483Y188142D01*
Y188698D01*
X318270Y189213D01*
X318188Y189295D01*
X318221Y189639D01*
X318716Y189939D01*
X318722Y189937D01*
X319279D01*
X319533Y190042D01*
X319956Y189792D01*
X319997Y189313D01*
X319813Y189130D01*
X319600Y188615D01*
Y188058D01*
X319813Y187544D01*
X320207Y187150D01*
X320722Y186937D01*
X321279D01*
X321793Y187150D01*
X322187Y187544D01*
X322400Y188058D01*
Y188615D01*
X322187Y189130D01*
X321972Y189344D01*
X322015Y189803D01*
X322447Y190050D01*
X322722Y189937D01*
X323278D01*
X323513Y190034D01*
X323926Y189781D01*
X323965Y189282D01*
X323813Y189130D01*
X323600Y188615D01*
Y188058D01*
X323813Y187544D01*
X324207Y187150D01*
X324722Y186937D01*
X325278D01*
X325793Y187150D01*
X326187Y187544D01*
X326400Y188058D01*
Y188615D01*
X326187Y189130D01*
X325940Y189376D01*
X325981Y189855D01*
X326404Y190105D01*
X326659Y190000D01*
X327216D01*
X327582Y190152D01*
X328082Y189912D01*
Y189399D01*
X327813Y189130D01*
X327600Y188615D01*
Y188058D01*
X327813Y187544D01*
X328207Y187150D01*
X328721Y186937D01*
X329278D01*
X329793Y187150D01*
X330187Y187544D01*
X330400Y188058D01*
Y188615D01*
X330187Y189130D01*
X330070Y189246D01*
X330103Y189682D01*
X330551Y189966D01*
X330622Y189937D01*
X331178D01*
X331582Y190104D01*
X332082Y189886D01*
Y189399D01*
X331813Y189130D01*
X331600Y188615D01*
Y188058D01*
X331813Y187544D01*
X332207Y187150D01*
X332721Y186937D01*
X333278D01*
X333793Y187150D01*
X334187Y187544D01*
X334400Y188058D01*
Y188615D01*
X334187Y189130D01*
X333988Y189329D01*
X334030Y189797D01*
X334457Y190046D01*
X334721Y189937D01*
X335279D01*
X335793Y190150D01*
X336187Y190544D01*
X336271Y190747D01*
X336861Y190865D01*
X338174Y189551D01*
Y189290D01*
X338387Y188776D01*
X338781Y188382D01*
X339296Y188169D01*
X339853D01*
X340367Y188382D01*
X340761Y188776D01*
X340974Y189290D01*
Y189847D01*
X340761Y190362D01*
X340367Y190756D01*
X339853Y190969D01*
X339353D01*
X338108Y192213D01*
X338299Y192675D01*
X340138D01*
X340327Y192617D01*
X340600Y192310D01*
Y191976D01*
X340813Y191461D01*
X341207Y191067D01*
X341722Y190854D01*
X342279D01*
X342793Y191067D01*
X343187Y191461D01*
X343400Y191976D01*
Y192533D01*
X343495Y192675D01*
X344213D01*
Y196173D01*
X342622D01*
Y196923D01*
X341872D01*
Y201171D01*
D02*
G37*
G36*
X344213D02*
X343372D01*
Y197673D01*
X344213D01*
Y201171D01*
D02*
G37*
G36*
X176026Y217213D02*
X174645D01*
X173310Y216855D01*
X172113Y216164D01*
X171136Y215187D01*
X170445Y213991D01*
X170088Y212656D01*
Y211274D01*
X170445Y209939D01*
X171136Y208742D01*
X172113Y207766D01*
X172234Y207696D01*
X172104Y207213D01*
X170088D01*
Y196717D01*
X180584D01*
Y207213D01*
X178567D01*
X178437Y207696D01*
X178558Y207766D01*
X179535Y208742D01*
X180226Y209939D01*
X180584Y211274D01*
Y212656D01*
X180226Y213991D01*
X179535Y215187D01*
X178558Y216164D01*
X177361Y216855D01*
X176026Y217213D01*
D02*
G37*
G36*
X314313Y201171D02*
X313472D01*
Y200571D01*
X294387D01*
Y195093D01*
X294209D01*
X293858Y195023D01*
X293560Y194824D01*
X293345Y194609D01*
X293279Y194637D01*
X292722D01*
X292207Y194423D01*
X291813Y194030D01*
X291600Y193515D01*
Y192958D01*
X291813Y192444D01*
X292207Y192050D01*
X292722Y191837D01*
X293279D01*
X293793Y192050D01*
X294187Y192444D01*
X294400Y192958D01*
Y193068D01*
X294589Y193257D01*
X295287D01*
X295376Y193275D01*
X296463D01*
Y192365D01*
X296228Y192130D01*
X296015Y191615D01*
Y191058D01*
X296228Y190544D01*
X296622Y190150D01*
X297136Y189937D01*
X297547D01*
X297933Y189641D01*
X298022Y189532D01*
X298021Y189337D01*
X297793Y189110D01*
X297580Y188595D01*
Y188038D01*
X297793Y187523D01*
X298187Y187130D01*
X298701Y186916D01*
X299258D01*
X299773Y187130D01*
X300167Y187523D01*
X300380Y188038D01*
Y188595D01*
X300233Y188951D01*
Y189838D01*
X300733Y190084D01*
X301089Y189937D01*
X301646D01*
X302101Y189619D01*
X302131Y189260D01*
X302000Y189130D01*
X301787Y188615D01*
Y188058D01*
X302000Y187544D01*
X302394Y187150D01*
X302909Y186937D01*
X303466D01*
X303980Y187150D01*
X304374Y187544D01*
X304587Y188058D01*
Y188615D01*
X304374Y189130D01*
X304271Y189233D01*
X304306Y189747D01*
X304713Y190009D01*
X304889Y189937D01*
X305446D01*
X305616Y190007D01*
X306069Y189739D01*
X306108Y189317D01*
X305921Y189130D01*
X305708Y188615D01*
Y188058D01*
X305921Y187544D01*
X306315Y187150D01*
X306830Y186937D01*
X307386D01*
X307901Y187150D01*
X308295Y187544D01*
X308508Y188058D01*
Y188615D01*
X308295Y189130D01*
X308185Y189240D01*
X308219Y189715D01*
X308646Y189988D01*
X308770Y189937D01*
X309327D01*
X309708Y190095D01*
X309893Y190053D01*
X310093Y189951D01*
X310237Y189838D01*
X310278Y189630D01*
X310477Y189332D01*
X310619Y189191D01*
X310591Y189124D01*
Y188567D01*
X310804Y188052D01*
X311198Y187659D01*
X311713Y187445D01*
X312270D01*
X312784Y187659D01*
X313178Y188052D01*
X313391Y188567D01*
Y189124D01*
X313262Y189437D01*
X313290Y189769D01*
X313504Y190019D01*
X313819Y190150D01*
X314213Y190544D01*
X314426Y191058D01*
Y191615D01*
X314213Y192130D01*
X314167Y192175D01*
X314313Y192527D01*
Y196923D01*
Y201171D01*
D02*
G37*
G36*
X434351Y196387D02*
X423855D01*
Y185891D01*
X434351D01*
Y196387D01*
D02*
G37*
G36*
X420670D02*
X410174D01*
Y185891D01*
X420670D01*
Y196387D01*
D02*
G37*
G36*
X406727D02*
X396231D01*
Y185891D01*
X406727D01*
Y196387D01*
D02*
G37*
G36*
X213970Y205166D02*
X212589D01*
X211254Y204808D01*
X210057Y204117D01*
X209080Y203140D01*
X208389Y201943D01*
X208031Y200608D01*
Y199226D01*
X208389Y197892D01*
X209080Y196695D01*
X210057Y195718D01*
X210177Y195649D01*
X210048Y195166D01*
X208031D01*
Y184669D01*
X218527D01*
Y195166D01*
X216511D01*
X216381Y195649D01*
X216502Y195718D01*
X217479Y196695D01*
X218170Y197892D01*
X218527Y199226D01*
Y200608D01*
X218170Y201943D01*
X217479Y203140D01*
X216502Y204117D01*
X215305Y204808D01*
X213970Y205166D01*
D02*
G37*
G36*
X402229Y185336D02*
Y181889D01*
X405676D01*
X405437Y182778D01*
X404878Y183747D01*
X404087Y184538D01*
X403118Y185097D01*
X402229Y185336D01*
D02*
G37*
G36*
X400729Y185336D02*
X399839Y185097D01*
X398870Y184538D01*
X398079Y183747D01*
X397520Y182778D01*
X397282Y181889D01*
X400729D01*
Y185336D01*
D02*
G37*
G36*
X429853Y185336D02*
Y181889D01*
X433300D01*
X433061Y182778D01*
X432502Y183747D01*
X431711Y184538D01*
X430743Y185097D01*
X429853Y185336D01*
D02*
G37*
G36*
X416172D02*
Y181889D01*
X419619D01*
X419380Y182778D01*
X418821Y183747D01*
X418030Y184538D01*
X417062Y185097D01*
X416172Y185336D01*
D02*
G37*
G36*
X428353Y185336D02*
X427463Y185097D01*
X426494Y184538D01*
X425703Y183747D01*
X425144Y182778D01*
X424906Y181889D01*
X428353D01*
Y185336D01*
D02*
G37*
G36*
X414672D02*
X413782Y185097D01*
X412814Y184538D01*
X412023Y183747D01*
X411463Y182778D01*
X411225Y181889D01*
X414672D01*
Y185336D01*
D02*
G37*
G36*
X400729Y180389D02*
X397282D01*
X397520Y179499D01*
X398079Y178530D01*
X398870Y177739D01*
X399839Y177180D01*
X400729Y176942D01*
Y180389D01*
D02*
G37*
G36*
X414672Y180389D02*
X411225D01*
X411463Y179499D01*
X412023Y178530D01*
X412814Y177739D01*
X413782Y177180D01*
X414672Y176942D01*
Y180389D01*
D02*
G37*
G36*
X428353D02*
X424906D01*
X425144Y179499D01*
X425703Y178530D01*
X426494Y177739D01*
X427463Y177180D01*
X428353Y176942D01*
Y180389D01*
D02*
G37*
G36*
X433300D02*
X429853D01*
Y176942D01*
X430743Y177180D01*
X431711Y177739D01*
X432502Y178530D01*
X433061Y179499D01*
X433300Y180389D01*
D02*
G37*
G36*
X419619D02*
X416172D01*
Y176942D01*
X417062Y177180D01*
X418030Y177739D01*
X418821Y178530D01*
X419380Y179499D01*
X419619Y180389D01*
D02*
G37*
G36*
X405676Y180389D02*
X402229D01*
Y176942D01*
X403118Y177180D01*
X404087Y177739D01*
X404878Y178530D01*
X405437Y179499D01*
X405676Y180389D01*
D02*
G37*
G36*
X176026Y194213D02*
X174645D01*
X173310Y193855D01*
X172113Y193164D01*
X171136Y192187D01*
X170445Y190991D01*
X170088Y189656D01*
Y188274D01*
X170445Y186939D01*
X171136Y185743D01*
X172113Y184766D01*
X172234Y184696D01*
X172104Y184213D01*
X170088D01*
Y173717D01*
X180584D01*
Y184213D01*
X178567D01*
X178437Y184696D01*
X178558Y184766D01*
X179535Y185743D01*
X180226Y186939D01*
X180584Y188274D01*
Y189656D01*
X180226Y190991D01*
X179535Y192187D01*
X178558Y193164D01*
X177361Y193855D01*
X176026Y194213D01*
D02*
G37*
G36*
X434351Y173863D02*
X423855D01*
Y163367D01*
X434351D01*
Y173863D01*
D02*
G37*
G36*
X420670D02*
X410174D01*
Y163367D01*
X420670D01*
Y173863D01*
D02*
G37*
G36*
X406727D02*
X396231D01*
Y163367D01*
X406727D01*
Y173863D01*
D02*
G37*
G36*
X213970Y182166D02*
X212589D01*
X211254Y181808D01*
X210057Y181117D01*
X209080Y180140D01*
X208389Y178943D01*
X208031Y177608D01*
Y176226D01*
X208389Y174892D01*
X209080Y173695D01*
X210057Y172718D01*
X210177Y172649D01*
X210048Y172166D01*
X208031D01*
Y161669D01*
X218527D01*
Y172166D01*
X216511D01*
X216381Y172649D01*
X216502Y172718D01*
X217479Y173695D01*
X218170Y174892D01*
X218527Y176226D01*
Y177608D01*
X218170Y178943D01*
X217479Y180140D01*
X216502Y181117D01*
X215305Y181808D01*
X213970Y182166D01*
D02*
G37*
G36*
X402229Y162812D02*
Y159365D01*
X405676D01*
X405437Y160254D01*
X404878Y161223D01*
X404087Y162014D01*
X403118Y162573D01*
X402229Y162812D01*
D02*
G37*
G36*
X400729Y162812D02*
X399839Y162573D01*
X398870Y162014D01*
X398079Y161223D01*
X397520Y160254D01*
X397282Y159365D01*
X400729D01*
Y162812D01*
D02*
G37*
G36*
X429853D02*
Y159365D01*
X433300D01*
X433061Y160254D01*
X432502Y161223D01*
X431711Y162014D01*
X430743Y162573D01*
X429853Y162812D01*
D02*
G37*
G36*
X416172D02*
Y159365D01*
X419619D01*
X419380Y160254D01*
X418821Y161223D01*
X418030Y162014D01*
X417062Y162573D01*
X416172Y162812D01*
D02*
G37*
G36*
X428353Y162812D02*
X427463Y162573D01*
X426494Y162014D01*
X425703Y161223D01*
X425144Y160254D01*
X424906Y159365D01*
X428353D01*
Y162812D01*
D02*
G37*
G36*
X414672D02*
X413782Y162573D01*
X412814Y162014D01*
X412023Y161223D01*
X411463Y160254D01*
X411225Y159365D01*
X414672D01*
Y162812D01*
D02*
G37*
G36*
X433300Y157865D02*
X429853D01*
Y154418D01*
X430743Y154656D01*
X431711Y155216D01*
X432502Y156006D01*
X433061Y156975D01*
X433300Y157865D01*
D02*
G37*
G36*
X419619D02*
X416172D01*
Y154418D01*
X417062Y154656D01*
X418030Y155216D01*
X418821Y156006D01*
X419380Y156975D01*
X419619Y157865D01*
D02*
G37*
G36*
X400729Y157865D02*
X397282D01*
X397520Y156975D01*
X398079Y156006D01*
X398870Y155216D01*
X399839Y154656D01*
X400729Y154418D01*
Y157865D01*
D02*
G37*
G36*
X405676D02*
X402229D01*
Y154418D01*
X403118Y154656D01*
X404087Y155216D01*
X404878Y156006D01*
X405437Y156975D01*
X405676Y157865D01*
D02*
G37*
G36*
X428353Y157865D02*
X424906D01*
X425144Y156975D01*
X425703Y156006D01*
X426494Y155216D01*
X427463Y154656D01*
X428353Y154418D01*
Y157865D01*
D02*
G37*
G36*
X414672D02*
X411225D01*
X411463Y156975D01*
X412023Y156006D01*
X412814Y155216D01*
X413782Y154656D01*
X414672Y154418D01*
Y157865D01*
D02*
G37*
G36*
X213970Y159166D02*
X212589D01*
X211254Y158808D01*
X210057Y158117D01*
X209080Y157140D01*
X208389Y155943D01*
X208031Y154608D01*
Y153226D01*
X208389Y151892D01*
X209080Y150695D01*
X210057Y149718D01*
X210177Y149648D01*
X210048Y149165D01*
X208031D01*
Y138669D01*
X218527D01*
Y149165D01*
X216511D01*
X216381Y149648D01*
X216502Y149718D01*
X217479Y150695D01*
X218170Y151892D01*
X218527Y153226D01*
Y154608D01*
X218170Y155943D01*
X217479Y157140D01*
X216502Y158117D01*
X215305Y158808D01*
X213970Y159166D01*
D02*
G37*
G36*
X64748Y114585D02*
X54252D01*
Y112568D01*
X53769Y112439D01*
X53699Y112559D01*
X52722Y113536D01*
X51526Y114227D01*
X50191Y114585D01*
X48809D01*
X47474Y114227D01*
X46278Y113536D01*
X45300Y112559D01*
X44610Y111362D01*
X44252Y110028D01*
Y108646D01*
X44610Y107311D01*
X45300Y106114D01*
X46278Y105137D01*
X47474Y104446D01*
X48809Y104089D01*
X50191D01*
X51526Y104446D01*
X52722Y105137D01*
X53699Y106114D01*
X53769Y106235D01*
X54252Y106105D01*
Y104089D01*
X64748D01*
Y114585D01*
D02*
G37*
G36*
X409748D02*
X399252D01*
Y112568D01*
X398769Y112439D01*
X398699Y112559D01*
X397722Y113536D01*
X396526Y114227D01*
X395191Y114585D01*
X393809D01*
X392474Y114227D01*
X391278Y113536D01*
X390301Y112559D01*
X389610Y111362D01*
X389252Y110028D01*
Y108646D01*
X389610Y107311D01*
X390301Y106114D01*
X391278Y105137D01*
X392474Y104446D01*
X393809Y104089D01*
X395191D01*
X396526Y104446D01*
X397722Y105137D01*
X398699Y106114D01*
X398769Y106235D01*
X399252Y106105D01*
Y104089D01*
X409748D01*
Y114585D01*
D02*
G37*
G36*
X386748D02*
X376252D01*
Y112568D01*
X375769Y112439D01*
X375699Y112559D01*
X374722Y113536D01*
X373526Y114227D01*
X372191Y114585D01*
X370809D01*
X369474Y114227D01*
X368278Y113536D01*
X367301Y112559D01*
X366610Y111362D01*
X366252Y110028D01*
Y108646D01*
X366610Y107311D01*
X367301Y106114D01*
X368278Y105137D01*
X369474Y104446D01*
X370809Y104089D01*
X372191D01*
X373526Y104446D01*
X374722Y105137D01*
X375699Y106114D01*
X375769Y106235D01*
X376252Y106105D01*
Y104089D01*
X386748D01*
Y114585D01*
D02*
G37*
G36*
X363748D02*
X353252D01*
Y112568D01*
X352769Y112439D01*
X352699Y112559D01*
X351722Y113536D01*
X350526Y114227D01*
X349191Y114585D01*
X347809D01*
X346474Y114227D01*
X345278Y113536D01*
X344301Y112559D01*
X343610Y111362D01*
X343252Y110028D01*
Y108646D01*
X343610Y107311D01*
X344301Y106114D01*
X345278Y105137D01*
X346474Y104446D01*
X347809Y104089D01*
X349191D01*
X350526Y104446D01*
X351722Y105137D01*
X352699Y106114D01*
X352769Y106235D01*
X353252Y106105D01*
Y104089D01*
X363748D01*
Y114585D01*
D02*
G37*
G36*
X341100D02*
X330604D01*
Y112568D01*
X330121Y112439D01*
X330051Y112559D01*
X329074Y113536D01*
X327878Y114227D01*
X326543Y114585D01*
X325161D01*
X323826Y114227D01*
X322630Y113536D01*
X321653Y112559D01*
X320962Y111362D01*
X320604Y110028D01*
Y108646D01*
X320962Y107311D01*
X321653Y106114D01*
X322630Y105137D01*
X323826Y104446D01*
X325161Y104089D01*
X326543D01*
X327878Y104446D01*
X329074Y105137D01*
X330051Y106114D01*
X330121Y106235D01*
X330604Y106105D01*
Y104089D01*
X341100D01*
Y114585D01*
D02*
G37*
G36*
X318748D02*
X308252D01*
Y112568D01*
X307769Y112439D01*
X307699Y112559D01*
X306722Y113536D01*
X305526Y114227D01*
X304191Y114585D01*
X302809D01*
X301474Y114227D01*
X300278Y113536D01*
X299301Y112559D01*
X298610Y111362D01*
X298252Y110028D01*
Y108646D01*
X298610Y107311D01*
X299301Y106114D01*
X300278Y105137D01*
X301474Y104446D01*
X302809Y104089D01*
X304191D01*
X305526Y104446D01*
X306722Y105137D01*
X307699Y106114D01*
X307769Y106235D01*
X308252Y106105D01*
Y104089D01*
X318748D01*
Y114585D01*
D02*
G37*
G36*
X295748D02*
X285252D01*
Y112568D01*
X284769Y112439D01*
X284700Y112559D01*
X283722Y113536D01*
X282526Y114227D01*
X281191Y114585D01*
X279809D01*
X278474Y114227D01*
X277278Y113536D01*
X276301Y112559D01*
X275610Y111362D01*
X275252Y110028D01*
Y108646D01*
X275610Y107311D01*
X276301Y106114D01*
X277278Y105137D01*
X278474Y104446D01*
X279809Y104089D01*
X281191D01*
X282526Y104446D01*
X283722Y105137D01*
X284700Y106114D01*
X284769Y106235D01*
X285252Y106105D01*
Y104089D01*
X295748D01*
Y114585D01*
D02*
G37*
G36*
X272748D02*
X262252D01*
Y112568D01*
X261769Y112439D01*
X261700Y112559D01*
X260722Y113536D01*
X259526Y114227D01*
X258191Y114585D01*
X256809D01*
X255474Y114227D01*
X254278Y113536D01*
X253301Y112559D01*
X252610Y111362D01*
X252252Y110028D01*
Y108646D01*
X252610Y107311D01*
X253301Y106114D01*
X254278Y105137D01*
X255474Y104446D01*
X256809Y104089D01*
X258191D01*
X259526Y104446D01*
X260722Y105137D01*
X261700Y106114D01*
X261769Y106235D01*
X262252Y106105D01*
Y104089D01*
X272748D01*
Y114585D01*
D02*
G37*
G36*
X249748D02*
X239252D01*
Y112568D01*
X238769Y112439D01*
X238700Y112559D01*
X237722Y113536D01*
X236526Y114227D01*
X235191Y114585D01*
X233809D01*
X232474Y114227D01*
X231278Y113536D01*
X230301Y112559D01*
X229610Y111362D01*
X229252Y110028D01*
Y108646D01*
X229610Y107311D01*
X230301Y106114D01*
X231278Y105137D01*
X232474Y104446D01*
X233809Y104089D01*
X235191D01*
X236526Y104446D01*
X237722Y105137D01*
X238700Y106114D01*
X238769Y106235D01*
X239252Y106105D01*
Y104089D01*
X249748D01*
Y114585D01*
D02*
G37*
G36*
X226748D02*
X216252D01*
Y112568D01*
X215769Y112439D01*
X215700Y112559D01*
X214722Y113536D01*
X213526Y114227D01*
X212191Y114585D01*
X210809D01*
X209474Y114227D01*
X208278Y113536D01*
X207301Y112559D01*
X206610Y111362D01*
X206252Y110028D01*
Y108646D01*
X206610Y107311D01*
X207301Y106114D01*
X208278Y105137D01*
X209474Y104446D01*
X210809Y104089D01*
X212191D01*
X213526Y104446D01*
X214722Y105137D01*
X215700Y106114D01*
X215769Y106235D01*
X216252Y106105D01*
Y104089D01*
X226748D01*
Y114585D01*
D02*
G37*
G36*
X203748D02*
X193252D01*
Y112568D01*
X192769Y112439D01*
X192700Y112559D01*
X191722Y113536D01*
X190526Y114227D01*
X189191Y114585D01*
X187809D01*
X186474Y114227D01*
X185278Y113536D01*
X184300Y112559D01*
X183610Y111362D01*
X183252Y110028D01*
Y108646D01*
X183610Y107311D01*
X184300Y106114D01*
X185278Y105137D01*
X186474Y104446D01*
X187809Y104089D01*
X189191D01*
X190526Y104446D01*
X191722Y105137D01*
X192700Y106114D01*
X192769Y106235D01*
X193252Y106105D01*
Y104089D01*
X203748D01*
Y114585D01*
D02*
G37*
G36*
X180748D02*
X170252D01*
Y112568D01*
X169769Y112439D01*
X169700Y112559D01*
X168722Y113536D01*
X167526Y114227D01*
X166191Y114585D01*
X164809D01*
X163474Y114227D01*
X162278Y113536D01*
X161301Y112559D01*
X160610Y111362D01*
X160252Y110028D01*
Y108646D01*
X160610Y107311D01*
X161301Y106114D01*
X162278Y105137D01*
X163474Y104446D01*
X164809Y104089D01*
X166191D01*
X167526Y104446D01*
X168722Y105137D01*
X169700Y106114D01*
X169769Y106235D01*
X170252Y106105D01*
Y104089D01*
X180748D01*
Y114585D01*
D02*
G37*
G36*
X156748D02*
X146252D01*
Y112568D01*
X145769Y112439D01*
X145700Y112559D01*
X144722Y113536D01*
X143526Y114227D01*
X142191Y114585D01*
X140809D01*
X139474Y114227D01*
X138278Y113536D01*
X137301Y112559D01*
X136610Y111362D01*
X136252Y110028D01*
Y108646D01*
X136610Y107311D01*
X137301Y106114D01*
X138278Y105137D01*
X139474Y104446D01*
X140809Y104089D01*
X142191D01*
X143526Y104446D01*
X144722Y105137D01*
X145700Y106114D01*
X145769Y106235D01*
X146252Y106105D01*
Y104089D01*
X156748D01*
Y114585D01*
D02*
G37*
G36*
X133748D02*
X123252D01*
Y112568D01*
X122769Y112439D01*
X122699Y112559D01*
X121722Y113536D01*
X120526Y114227D01*
X119191Y114585D01*
X117809D01*
X116474Y114227D01*
X115278Y113536D01*
X114301Y112559D01*
X113610Y111362D01*
X113252Y110028D01*
Y108646D01*
X113610Y107311D01*
X114301Y106114D01*
X115278Y105137D01*
X116474Y104446D01*
X117809Y104089D01*
X119191D01*
X120526Y104446D01*
X121722Y105137D01*
X122699Y106114D01*
X122769Y106235D01*
X123252Y106105D01*
Y104089D01*
X133748D01*
Y114585D01*
D02*
G37*
G36*
X110748D02*
X100252D01*
Y112568D01*
X99769Y112439D01*
X99699Y112559D01*
X98722Y113536D01*
X97526Y114227D01*
X96191Y114585D01*
X94809D01*
X93474Y114227D01*
X92278Y113536D01*
X91300Y112559D01*
X90610Y111362D01*
X90252Y110028D01*
Y108646D01*
X90610Y107311D01*
X91300Y106114D01*
X92278Y105137D01*
X93474Y104446D01*
X94809Y104089D01*
X96191D01*
X97526Y104446D01*
X98722Y105137D01*
X99699Y106114D01*
X99769Y106235D01*
X100252Y106105D01*
Y104089D01*
X110748D01*
Y114585D01*
D02*
G37*
G36*
X87748D02*
X77252D01*
Y112568D01*
X76769Y112439D01*
X76700Y112559D01*
X75722Y113536D01*
X74526Y114227D01*
X73191Y114585D01*
X71809D01*
X70474Y114227D01*
X69278Y113536D01*
X68300Y112559D01*
X67610Y111362D01*
X67252Y110028D01*
Y108646D01*
X67610Y107311D01*
X68300Y106114D01*
X69278Y105137D01*
X70474Y104446D01*
X71809Y104089D01*
X73191D01*
X74526Y104446D01*
X75722Y105137D01*
X76700Y106114D01*
X76769Y106235D01*
X77252Y106105D01*
Y104089D01*
X87748D01*
Y114585D01*
D02*
G37*
G36*
X436196Y114161D02*
X434814D01*
X433479Y113804D01*
X432282Y113113D01*
X431305Y112136D01*
X431236Y112015D01*
X430753Y112145D01*
Y114161D01*
X420257D01*
Y103665D01*
X430753D01*
Y105682D01*
X431236Y105811D01*
X431305Y105691D01*
X432282Y104714D01*
X433479Y104023D01*
X434814Y103665D01*
X436196D01*
X437530Y104023D01*
X438727Y104714D01*
X439704Y105691D01*
X440395Y106888D01*
X440753Y108222D01*
Y109604D01*
X440395Y110939D01*
X439704Y112136D01*
X438727Y113113D01*
X437530Y113804D01*
X436196Y114161D01*
D02*
G37*
G36*
Y102231D02*
X434814D01*
X433479Y101873D01*
X432282Y101182D01*
X431305Y100205D01*
X431236Y100085D01*
X430753Y100214D01*
Y102231D01*
X420257D01*
Y91735D01*
X430753D01*
Y93751D01*
X431236Y93881D01*
X431305Y93760D01*
X432282Y92783D01*
X433479Y92092D01*
X434814Y91735D01*
X436196D01*
X437530Y92092D01*
X438727Y92783D01*
X439704Y93760D01*
X440395Y94957D01*
X440753Y96292D01*
Y97674D01*
X440395Y99008D01*
X439704Y100205D01*
X438727Y101182D01*
X437530Y101873D01*
X436196Y102231D01*
D02*
G37*
G36*
Y90231D02*
X434814D01*
X433479Y89873D01*
X432282Y89182D01*
X431305Y88205D01*
X431236Y88085D01*
X430753Y88214D01*
Y90231D01*
X420257D01*
Y79735D01*
X430753D01*
Y81751D01*
X431236Y81881D01*
X431305Y81760D01*
X432282Y80783D01*
X433479Y80092D01*
X434814Y79735D01*
X436196D01*
X437530Y80092D01*
X438727Y80783D01*
X439704Y81760D01*
X440395Y82957D01*
X440753Y84292D01*
Y85674D01*
X440395Y87008D01*
X439704Y88205D01*
X438727Y89182D01*
X437530Y89873D01*
X436196Y90231D01*
D02*
G37*
G36*
X401748Y30248D02*
X391252D01*
Y28231D01*
X390769Y28102D01*
X390700Y28222D01*
X389722Y29199D01*
X388526Y29890D01*
X387191Y30248D01*
X385809D01*
X384474Y29890D01*
X383278Y29199D01*
X382300Y28222D01*
X381610Y27026D01*
X381252Y25691D01*
Y24309D01*
X381610Y22974D01*
X382300Y21778D01*
X383278Y20800D01*
X384474Y20110D01*
X385809Y19752D01*
X387191D01*
X388526Y20110D01*
X389722Y20800D01*
X390700Y21778D01*
X390769Y21898D01*
X391252Y21769D01*
Y19752D01*
X401748D01*
Y30248D01*
D02*
G37*
G36*
X29932Y41842D02*
X28068D01*
X26227Y41551D01*
X24454Y40975D01*
X22793Y40129D01*
X21285Y39033D01*
X19967Y37715D01*
X18871Y36207D01*
X18025Y34546D01*
X17449Y32773D01*
X17157Y30932D01*
Y29068D01*
X17449Y27227D01*
X18025Y25454D01*
X18871Y23793D01*
X19967Y22285D01*
X21285Y20967D01*
X22793Y19871D01*
X24454Y19025D01*
X26227Y18449D01*
X28068Y18158D01*
X29932D01*
X31773Y18449D01*
X33546Y19025D01*
X35207Y19871D01*
X36715Y20967D01*
X38033Y22285D01*
X39129Y23793D01*
X39975Y25454D01*
X40551Y27227D01*
X40843Y29068D01*
Y30932D01*
X40551Y32773D01*
X39975Y34546D01*
X39129Y36207D01*
X38033Y37715D01*
X36715Y39033D01*
X35207Y40129D01*
X33546Y40975D01*
X31773Y41551D01*
X29932Y41842D01*
D02*
G37*
G36*
X409700Y350694D02*
X399204D01*
Y340198D01*
X401221D01*
X401350Y339715D01*
X401230Y339645D01*
X400253Y338668D01*
X399562Y337472D01*
X399204Y336137D01*
Y334755D01*
X399562Y333420D01*
X400253Y332224D01*
X401230Y331246D01*
X402427Y330556D01*
X403761Y330198D01*
X405143D01*
X406478Y330556D01*
X407675Y331246D01*
X408652Y332224D01*
X409343Y333420D01*
X409700Y334755D01*
Y336137D01*
X409343Y337472D01*
X408652Y338668D01*
X407675Y339645D01*
X407554Y339715D01*
X407684Y340198D01*
X409700D01*
Y350694D01*
D02*
G37*
G36*
X397700D02*
X387204D01*
Y340198D01*
X389221D01*
X389350Y339715D01*
X389230Y339645D01*
X388253Y338668D01*
X387562Y337472D01*
X387204Y336137D01*
Y334755D01*
X387562Y333420D01*
X388253Y332224D01*
X389230Y331246D01*
X390427Y330556D01*
X391761Y330198D01*
X393143D01*
X394478Y330556D01*
X395675Y331246D01*
X396652Y332224D01*
X397343Y333420D01*
X397700Y334755D01*
Y336137D01*
X397343Y337472D01*
X396652Y338668D01*
X395675Y339645D01*
X395554Y339715D01*
X395684Y340198D01*
X397700D01*
Y350694D01*
D02*
G37*
G36*
X419700Y328748D02*
X409204D01*
Y326731D01*
X408721Y326602D01*
X408652Y326722D01*
X407675Y327699D01*
X406478Y328390D01*
X405143Y328748D01*
X403761D01*
X402427Y328390D01*
X401230Y327699D01*
X400253Y326722D01*
X399562Y325526D01*
X399204Y324191D01*
Y322809D01*
X399562Y321474D01*
X400253Y320278D01*
X401230Y319301D01*
X402427Y318610D01*
X403761Y318252D01*
X405143D01*
X406478Y318610D01*
X407675Y319301D01*
X408652Y320278D01*
X408721Y320398D01*
X409204Y320269D01*
Y318252D01*
X419700D01*
Y328748D01*
D02*
G37*
%LPD*%
D15*
X614483Y147983D02*
X614500Y148000D01*
X598707Y142787D02*
Y150434D01*
X614467Y142218D02*
X614483Y142235D01*
Y147983D01*
X567232Y142767D02*
Y150559D01*
Y151059D02*
X567241Y151068D01*
Y150568D02*
X567256Y150553D01*
X567241Y151068D02*
Y151068D01*
X545157Y267305D02*
Y274669D01*
X538867Y274674D02*
X538881Y274689D01*
X538858Y267326D02*
X538867Y267335D01*
Y274674D01*
X545157Y274669D02*
X545184Y274695D01*
X589233Y147660D02*
X589303Y147730D01*
X655207Y150044D02*
X655357Y149894D01*
Y147856D02*
Y149894D01*
Y147856D02*
X655445Y147768D01*
Y142743D02*
Y147768D01*
X658594Y142743D02*
Y146569D01*
X657395Y147768D02*
X658594Y146569D01*
X655445Y147768D02*
X657395D01*
X545198Y142754D02*
Y147746D01*
X545220Y147768D01*
X589233Y142813D02*
X589303Y142743D01*
X589233Y142813D02*
Y147660D01*
X617616Y142218D02*
X617665Y142266D01*
Y150339D01*
X617713Y150387D01*
X633398Y142743D02*
X633403Y142748D01*
Y147719D01*
X633398Y147724D02*
X633403Y147719D01*
X567232Y150529D02*
X567256Y150553D01*
X630228Y142763D02*
Y150555D01*
X564046Y142803D02*
Y147741D01*
X564020Y147768D02*
X564046Y147741D01*
X560957Y142743D02*
X560972Y142758D01*
Y150520D01*
X639680Y142760D02*
Y147707D01*
X639697Y147724D01*
X595533Y142813D02*
X595602Y142743D01*
X595533Y142813D02*
Y147660D01*
X595602Y147729D01*
X649056Y142832D02*
X649127Y142762D01*
X649056Y142832D02*
Y150444D01*
X636505Y142785D02*
Y150520D01*
X652295Y142743D02*
X652381Y142829D01*
Y147538D01*
X652500D01*
X605029Y142764D02*
Y150556D01*
X620799Y142743D02*
X620897Y142841D01*
Y147824D01*
X621029Y147956D01*
X623928Y142763D02*
Y150928D01*
X280111Y237185D02*
X288592D01*
X319000Y191337D02*
Y196923D01*
X339455Y189569D02*
X339574D01*
X336717Y192307D02*
X339455Y189569D01*
X282940Y219377D02*
X288501D01*
X282854Y219292D02*
X282940Y219377D01*
X288501D02*
X288587Y219463D01*
X541996Y269751D02*
X542011Y269766D01*
Y274712D01*
X542014Y274715D01*
X283206Y203783D02*
X283241Y203749D01*
X288552D01*
X288522Y205747D02*
X288587Y205683D01*
X280472Y205747D02*
X288522D01*
X280407Y205812D02*
X280472Y205747D01*
X283000Y207647D02*
X283002Y207649D01*
X288584D01*
X288587Y207652D01*
X288552Y203749D02*
X288587Y203715D01*
X293000Y193237D02*
X293271D01*
X294209Y194175D02*
X295287D01*
X295378Y194266D01*
X293271Y193237D02*
X294209Y194175D01*
X288576Y231263D02*
X288587Y231274D01*
X340654Y196923D02*
X340744Y196833D01*
Y194175D02*
X341131Y193788D01*
Y193302D02*
X342000Y192434D01*
X283000Y231252D02*
X283011Y231263D01*
X288576D01*
X279246Y233318D02*
X288510D01*
X598757Y269790D02*
Y274665D01*
Y269790D02*
X598796Y269751D01*
X605007Y269762D02*
Y274714D01*
X604996Y269751D02*
X605007Y269762D01*
X595576Y267341D02*
Y274697D01*
X598707Y274715D02*
X598757Y274665D01*
X595576Y267341D02*
X595583Y267334D01*
X601832D02*
X601850Y267352D01*
Y274709D01*
X601857Y274715D01*
X573509Y274714D02*
X573510Y274715D01*
X576803Y267442D02*
X576935Y267310D01*
X573496Y269751D02*
X573509Y269764D01*
Y274714D01*
X576803Y267442D02*
Y275268D01*
X576672Y275399D02*
X576803Y275268D01*
X608168Y275399D02*
X608182Y275385D01*
Y266865D02*
Y275385D01*
Y266865D02*
X608196Y266851D01*
X570384Y267346D02*
Y274692D01*
Y267346D02*
X570396Y267334D01*
X579960Y269890D02*
Y274565D01*
X579809Y274715D02*
X579960Y274565D01*
Y269890D02*
X580098Y269751D01*
X288551Y235246D02*
X288587Y235211D01*
X282929Y235282D02*
X282964Y235246D01*
X288551D01*
X297381Y191371D02*
X297415Y191337D01*
X301325Y191378D02*
X301367Y191337D01*
X297346Y196923D02*
X297381Y196889D01*
Y191371D02*
Y196889D01*
X301284Y196923D02*
X301325Y196881D01*
Y191378D02*
Y196881D01*
X611458Y269892D02*
X611598Y269751D01*
X582977Y267340D02*
Y274697D01*
X611307Y274695D02*
X611458Y274544D01*
X582977Y267340D02*
X582983Y267334D01*
X589277Y267340D02*
Y274697D01*
Y267340D02*
X589283Y267334D01*
X611458Y269892D02*
Y274544D01*
X548296Y269751D02*
X548311Y269766D01*
Y274712D01*
X548313Y274715D01*
X567259Y269788D02*
Y274667D01*
Y269788D02*
X567296Y269751D01*
X567211Y274715D02*
X567259Y274667D01*
X342000Y192254D02*
Y192434D01*
X282432Y227332D02*
X288582D01*
X340744Y194175D02*
Y196833D01*
X288582Y227332D02*
X288587Y227337D01*
X341131Y193302D02*
Y193788D01*
X282428Y227328D02*
X282432Y227332D01*
X328842Y191566D02*
X329000Y191408D01*
X330811Y196923D02*
X330855Y196879D01*
Y191381D02*
Y196879D01*
X333000Y188337D02*
Y191924D01*
X330855Y191381D02*
X330900Y191337D01*
X334839Y191498D02*
Y196833D01*
Y191498D02*
X335000Y191337D01*
X332780Y192144D02*
X333000Y191924D01*
X328842Y191566D02*
Y196923D01*
X329000Y188337D02*
Y191408D01*
X332780Y192144D02*
Y196923D01*
X334748D02*
X334839Y196833D01*
X280599Y213422D02*
X280667Y213489D01*
X288519D01*
X283017Y248985D02*
X288581D01*
X288587Y248990D01*
X283011Y248979D02*
X283017Y248985D01*
X303267Y188121D02*
Y196908D01*
X288510Y233318D02*
X288587Y233242D01*
X592458Y269790D02*
X592496Y269751D01*
X586109Y274715D02*
X586158Y274665D01*
Y269789D02*
X586196Y269751D01*
X586158Y269789D02*
Y274665D01*
X592458Y269790D02*
Y274665D01*
X620781Y266866D02*
X620796Y266851D01*
X620781Y266866D02*
Y274688D01*
X623896Y269751D02*
X623906Y269761D01*
Y274697D01*
X639680Y266867D02*
X639696Y266851D01*
X639680Y266867D02*
Y274687D01*
X633380Y266867D02*
X633396Y266851D01*
X633380Y266867D02*
Y274688D01*
X630205Y269761D02*
Y274698D01*
X636496Y269751D02*
X636505Y269760D01*
X630196Y269751D02*
X630205Y269761D01*
X636505Y269760D02*
Y274700D01*
X283011Y243074D02*
X283017Y243079D01*
X288581D02*
X288587Y243085D01*
X288581Y239142D02*
X288587Y239148D01*
X283011Y239137D02*
X283017Y239142D01*
X283000Y223247D02*
X283076Y223323D01*
X283839Y221431D02*
X288587D01*
X288510Y223323D02*
X288587Y223400D01*
X280599Y221296D02*
X283703D01*
X283839Y221431D01*
X280657Y217289D02*
X283539D01*
X283744Y217494D01*
X288587D01*
X280599Y217231D02*
X280657Y217289D01*
X280111Y245059D02*
X288592D01*
X280105Y245064D02*
X280111Y245059D01*
Y241122D02*
X288592D01*
X280105Y241127D02*
X280111Y241122D01*
X317032Y196923D02*
X317057Y196897D01*
X319000Y191337D02*
X319000Y191337D01*
X317057Y188446D02*
X317084Y188420D01*
X324953Y188384D02*
Y196876D01*
X320969Y196923D02*
X320984Y196907D01*
X324905Y196923D02*
X324953Y196876D01*
X322937Y196923D02*
X322969Y196892D01*
Y191368D02*
Y196892D01*
X326905Y191431D02*
X326937Y191400D01*
X320984Y188352D02*
X321000Y188337D01*
X322969Y191368D02*
X323000Y191337D01*
X324953Y188384D02*
X325000Y188337D01*
X326905Y191431D02*
Y196892D01*
X326874Y196923D02*
X326905Y196892D01*
X280105Y237190D02*
X280111Y237185D01*
X283017Y243079D02*
X288581D01*
X283017Y239142D02*
X288581D01*
X279169Y233395D02*
X279246Y233318D01*
X283068Y215458D02*
X288519D01*
X283000Y215389D02*
X283068Y215458D01*
X288519D02*
X288587Y215526D01*
X288519Y213489D02*
X288587Y213557D01*
X288582Y211584D02*
X288587Y211589D01*
X283004Y211584D02*
X288582D01*
X283000Y211580D02*
X283004Y211584D01*
X280313Y209739D02*
X280373Y209680D01*
X288527D01*
X288587Y209620D01*
X295378Y194266D02*
Y196923D01*
X298980Y188317D02*
Y188587D01*
X299315Y188922D01*
Y196923D01*
X303252D02*
X303267Y196908D01*
X305167Y191337D02*
X305194Y191363D01*
Y196897D02*
X305221Y196923D01*
X305194Y191363D02*
Y196897D01*
X307149Y196883D02*
X307189Y196923D01*
X307149Y188377D02*
Y196883D01*
X307108Y188337D02*
X307149Y188377D01*
X309049Y191337D02*
X309103Y191391D01*
Y196869D02*
X309157Y196923D01*
X309103Y191391D02*
Y196869D01*
X311991Y188846D02*
Y189116D01*
X311126Y189981D02*
X311991Y189116D01*
X311126Y189981D02*
Y196923D01*
X313060Y191371D02*
Y196212D01*
X313026Y191337D02*
X313060Y191371D01*
Y196212D02*
X313094Y196246D01*
X317057Y188446D02*
Y196897D01*
X283076Y223323D02*
X288510D01*
X320984Y188352D02*
Y196907D01*
X336717Y192307D02*
Y196923D01*
X592408Y274715D02*
X592458Y274665D01*
X614455Y274715D02*
X614481Y274689D01*
X645951Y274715D02*
X645979Y274687D01*
X627081Y266867D02*
Y274688D01*
X639652Y274715D02*
X639680Y274687D01*
X620754Y274715D02*
X620781Y274688D01*
X645979Y266868D02*
Y274687D01*
Y266868D02*
X645996Y266851D01*
X614481Y266866D02*
X614496Y266851D01*
X614481Y266866D02*
Y274689D01*
X627081Y266867D02*
X627096Y266851D01*
X617596Y269751D02*
X617606Y269761D01*
X627053Y274715D02*
X627081Y274688D01*
X617606Y269761D02*
Y274696D01*
X633353Y274715D02*
X633380Y274688D01*
D49*
X590217Y157717D02*
D03*
X594783Y162283D02*
D03*
D50*
X588449Y167449D02*
D03*
X584551Y163551D02*
D03*
D51*
X578773Y169773D02*
D03*
X583227Y174227D02*
D03*
D52*
X342622Y196923D02*
D03*
X340653D02*
D03*
X338685D02*
D03*
X336717D02*
D03*
X334748D02*
D03*
X332780D02*
D03*
X330811D02*
D03*
X328842D02*
D03*
X326874D02*
D03*
X324905D02*
D03*
X322937D02*
D03*
X320969D02*
D03*
X319000D02*
D03*
X317032D02*
D03*
X315063D02*
D03*
X313094D02*
D03*
X311126D02*
D03*
X309157D02*
D03*
X307189D02*
D03*
X305221D02*
D03*
X303252D02*
D03*
X301284D02*
D03*
X299315D02*
D03*
X297346D02*
D03*
X295378D02*
D03*
Y257750D02*
D03*
X297346D02*
D03*
X299315D02*
D03*
X301284D02*
D03*
X303252D02*
D03*
X305221D02*
D03*
X307189D02*
D03*
X309157D02*
D03*
X311126D02*
D03*
X313094D02*
D03*
X315063D02*
D03*
X317032D02*
D03*
X319000D02*
D03*
X320969D02*
D03*
X322937D02*
D03*
X324905D02*
D03*
X326874D02*
D03*
X328842D02*
D03*
X330811D02*
D03*
X332780D02*
D03*
X334748D02*
D03*
X336717D02*
D03*
X338685D02*
D03*
X340653D02*
D03*
X342622D02*
D03*
D53*
X288587Y203715D02*
D03*
Y205683D02*
D03*
Y207652D02*
D03*
Y209620D02*
D03*
Y211589D02*
D03*
Y213557D02*
D03*
Y215526D02*
D03*
Y217494D02*
D03*
Y219463D02*
D03*
Y221431D02*
D03*
Y223400D02*
D03*
Y225368D02*
D03*
Y227337D02*
D03*
Y229305D02*
D03*
Y231274D02*
D03*
Y233242D02*
D03*
Y235211D02*
D03*
Y237179D02*
D03*
Y239148D02*
D03*
Y241116D02*
D03*
Y243085D02*
D03*
Y245053D02*
D03*
Y247022D02*
D03*
Y248990D02*
D03*
Y250959D02*
D03*
X349413D02*
D03*
Y248990D02*
D03*
Y247022D02*
D03*
Y245053D02*
D03*
Y243085D02*
D03*
Y241116D02*
D03*
Y239148D02*
D03*
Y237179D02*
D03*
Y235211D02*
D03*
Y233242D02*
D03*
Y231274D02*
D03*
Y229305D02*
D03*
Y227337D02*
D03*
Y225368D02*
D03*
Y223400D02*
D03*
Y221431D02*
D03*
Y219463D02*
D03*
Y217494D02*
D03*
Y215526D02*
D03*
Y213557D02*
D03*
Y211589D02*
D03*
Y209620D02*
D03*
Y207652D02*
D03*
Y205683D02*
D03*
Y203715D02*
D03*
D54*
X538876Y299698D02*
D03*
Y275399D02*
D03*
X542026Y299698D02*
D03*
Y275399D02*
D03*
X545176Y299698D02*
D03*
Y275399D02*
D03*
X548325Y299698D02*
D03*
Y275399D02*
D03*
X551475Y299698D02*
D03*
Y275399D02*
D03*
X554624Y299698D02*
D03*
Y275399D02*
D03*
X557774Y299698D02*
D03*
Y275399D02*
D03*
X560924Y299698D02*
D03*
Y275399D02*
D03*
X564073Y299698D02*
D03*
Y275399D02*
D03*
X567223Y299698D02*
D03*
Y275399D02*
D03*
X570372Y299698D02*
D03*
Y275399D02*
D03*
X573522Y299698D02*
D03*
Y275399D02*
D03*
X576672Y299698D02*
D03*
Y275399D02*
D03*
X579821Y299698D02*
D03*
Y275399D02*
D03*
X582971Y299698D02*
D03*
Y275399D02*
D03*
X586120Y299698D02*
D03*
Y275399D02*
D03*
X589270Y299698D02*
D03*
Y275399D02*
D03*
X592420Y299698D02*
D03*
Y275399D02*
D03*
X595569Y299698D02*
D03*
Y275399D02*
D03*
X598719Y299698D02*
D03*
Y275399D02*
D03*
X601868Y299698D02*
D03*
Y275399D02*
D03*
X605018Y299698D02*
D03*
Y275399D02*
D03*
X608168Y299698D02*
D03*
Y275399D02*
D03*
X611317Y299698D02*
D03*
Y275399D02*
D03*
X614467Y299698D02*
D03*
Y275399D02*
D03*
X617616Y299698D02*
D03*
Y275399D02*
D03*
X620766Y299698D02*
D03*
Y275399D02*
D03*
X623916Y299698D02*
D03*
Y275399D02*
D03*
X627065Y299698D02*
D03*
Y275399D02*
D03*
X630215Y299698D02*
D03*
Y275399D02*
D03*
X633364Y299698D02*
D03*
Y275399D02*
D03*
X636514Y299698D02*
D03*
Y275399D02*
D03*
X639664Y299698D02*
D03*
Y275399D02*
D03*
X642813Y299698D02*
D03*
Y275399D02*
D03*
X645963Y299698D02*
D03*
Y275399D02*
D03*
X649113Y299698D02*
D03*
Y275399D02*
D03*
X652262Y299698D02*
D03*
Y275399D02*
D03*
X655412Y299698D02*
D03*
Y275399D02*
D03*
X658561Y299698D02*
D03*
Y275399D02*
D03*
X661711Y299698D02*
D03*
Y275399D02*
D03*
Y117919D02*
D03*
Y142218D02*
D03*
X658561Y117919D02*
D03*
Y142218D02*
D03*
X655412Y117919D02*
D03*
Y142218D02*
D03*
X652262Y117919D02*
D03*
Y142218D02*
D03*
X649113Y117919D02*
D03*
Y142218D02*
D03*
X645963Y117919D02*
D03*
Y142218D02*
D03*
X642813Y117919D02*
D03*
Y142218D02*
D03*
X639664Y117919D02*
D03*
Y142218D02*
D03*
X636514Y117919D02*
D03*
Y142218D02*
D03*
X633364Y117919D02*
D03*
Y142218D02*
D03*
X630215Y117919D02*
D03*
Y142218D02*
D03*
X627065Y117919D02*
D03*
Y142218D02*
D03*
X623916Y117919D02*
D03*
Y142218D02*
D03*
X620766Y117919D02*
D03*
Y142218D02*
D03*
X617616Y117919D02*
D03*
Y142218D02*
D03*
X614467Y117919D02*
D03*
Y142218D02*
D03*
X611317Y117919D02*
D03*
Y142218D02*
D03*
X608168Y117919D02*
D03*
Y142218D02*
D03*
X605018Y117919D02*
D03*
Y142218D02*
D03*
X601868Y117919D02*
D03*
Y142218D02*
D03*
X598719Y117919D02*
D03*
Y142218D02*
D03*
X595569Y117919D02*
D03*
Y142218D02*
D03*
X592420Y117919D02*
D03*
Y142218D02*
D03*
X589270Y117919D02*
D03*
Y142218D02*
D03*
X586120Y117919D02*
D03*
Y142218D02*
D03*
X582971Y117919D02*
D03*
Y142218D02*
D03*
X579821Y117919D02*
D03*
Y142218D02*
D03*
X576672Y117919D02*
D03*
Y142218D02*
D03*
X573522Y117919D02*
D03*
Y142218D02*
D03*
X570372Y117919D02*
D03*
Y142218D02*
D03*
X567223Y117919D02*
D03*
Y142218D02*
D03*
X564073Y117919D02*
D03*
Y142218D02*
D03*
X560924Y117919D02*
D03*
Y142218D02*
D03*
X557774Y117919D02*
D03*
Y142218D02*
D03*
X554624Y117919D02*
D03*
Y142218D02*
D03*
X551475Y117919D02*
D03*
Y142218D02*
D03*
X548325Y117919D02*
D03*
Y142218D02*
D03*
X545176Y117919D02*
D03*
Y142218D02*
D03*
X542026Y117919D02*
D03*
Y142218D02*
D03*
X538876Y117919D02*
D03*
Y142218D02*
D03*
D55*
X758750Y93992D02*
D03*
Y100291D02*
D03*
X563379Y247837D02*
D03*
Y254136D02*
D03*
D56*
X546000Y254352D02*
D03*
Y247896D02*
D03*
X775500Y100728D02*
D03*
Y94272D02*
D03*
D57*
X767500Y93957D02*
D03*
Y101043D02*
D03*
X784000Y93957D02*
D03*
Y101043D02*
D03*
D58*
X554750Y253976D02*
D03*
Y248465D02*
D03*
D59*
X645963Y117919D02*
X648463Y120419D01*
X546236Y254500D02*
X562985D01*
X590751Y157917D02*
X594168Y154500D01*
X657000Y117919D02*
X661711D01*
X775479Y350553D02*
X791227D01*
X658561Y299698D02*
X699500D01*
X583227Y174227D02*
X594709Y162746D01*
X642662Y150549D02*
Y150549D01*
X630466Y162746D02*
X642662Y150549D01*
X594709Y162746D02*
X630466D01*
X578778Y169222D02*
X590083Y157917D01*
X522425Y225575D02*
Y254500D01*
Y225575D02*
X577972Y170028D01*
X594168Y154500D02*
X598256D01*
X743983Y67088D02*
X759731D01*
X741051Y316125D02*
X775479Y350553D01*
X699500Y299698D02*
X715927Y316125D01*
X741051D01*
X515309Y299698D02*
X540201D01*
X464455Y350553D02*
X515309Y299698D01*
X464455Y350553D02*
X468392D01*
X460518D02*
X464455D01*
X546030Y247866D02*
X563349D01*
X629837Y247837D02*
X643000Y261000D01*
X563379Y247837D02*
X629837D01*
X546000Y247896D02*
X546030Y247866D01*
X563349D02*
X563379Y247837D01*
X775736Y100528D02*
X783366D01*
X788075Y105000D02*
X791500D01*
X758750Y100291D02*
X775500D01*
X784354Y101279D02*
X788075Y105000D01*
X783366Y100528D02*
X783646Y100807D01*
X775479Y67088D02*
X791227D01*
X570843Y261699D02*
X571300D01*
X576935Y267334D01*
X563772Y254628D02*
X570843Y261699D01*
X522425Y254500D02*
X545764D01*
X662960Y136468D02*
X663812D01*
X648463Y121970D02*
X662960Y136468D01*
X648463Y120419D02*
Y121970D01*
X663812Y136468D02*
X699500Y172156D01*
Y299698D01*
X724057Y115868D02*
X745995Y93931D01*
X661811Y115868D02*
X724057D01*
X772350Y80294D02*
X778021D01*
X791227Y67088D01*
X745995Y93931D02*
X758356D01*
X759144Y93500D02*
X772350Y80294D01*
X775736Y94114D02*
X783843D01*
X784000Y93957D01*
X656500Y299500D02*
X658561Y299698D01*
X759144Y93974D02*
X767146D01*
X767500D02*
X775500D01*
D60*
X605018Y306077D02*
X649494Y350553D01*
X605018Y299698D02*
Y306077D01*
X638825Y332325D02*
X647015D01*
X643325Y330325D02*
X660763D01*
X611317Y304817D02*
X638825Y332325D01*
X667637Y329325D02*
X688865Y350553D01*
X645325Y329325D02*
X667637D01*
X660763Y330325D02*
X680991Y350553D01*
X617616Y304616D02*
X643325Y330325D01*
X623916Y304916D02*
X647325Y328325D01*
X614467Y304967D02*
X640825Y331325D01*
X653889D02*
X673116Y350553D01*
X647015Y332325D02*
X665242Y350553D01*
X640825Y331325D02*
X653889D01*
X674511Y328325D02*
X696739Y350553D01*
X647325Y328325D02*
X674511D01*
X620766Y304766D02*
X645325Y329325D01*
X627065Y301649D02*
X629203Y303787D01*
Y303863D01*
X652665Y327325D02*
X681385D01*
X633353Y303449D02*
X655229Y325325D01*
X645963Y303449D02*
X662839Y320325D01*
X629203Y303863D02*
X652665Y327325D01*
X353431Y284809D02*
X624309D01*
X352871Y284249D02*
X353431Y284809D01*
X630203Y303449D02*
X653079Y326325D01*
X657378Y324325D02*
X702007D01*
X627065Y299698D02*
Y301649D01*
X649101Y303449D02*
X664977Y319325D01*
X626399Y283809D02*
X636090Y293500D01*
X681385Y327325D02*
X704613Y350553D01*
X653079Y326325D02*
X688259D01*
X662839Y320325D02*
X721629D01*
X659528Y323325D02*
X708881D01*
X354690Y283809D02*
X626399D01*
X664977Y319325D02*
X728503D01*
X639652Y303449D02*
X659528Y323325D01*
X636502Y303449D02*
X657378Y324325D01*
X476000Y262471D02*
Y262500D01*
Y262471D02*
X585847Y152624D01*
Y152595D02*
Y152624D01*
X465506Y267500D02*
X583000Y150006D01*
X464102Y266500D02*
X580034Y150568D01*
X341996Y267500D02*
X465506D01*
X342996Y266500D02*
X464102D01*
X458568Y265500D02*
X573500Y150568D01*
X343996Y265500D02*
X458568D01*
X355041Y250959D02*
X466850D01*
X567241Y150568D01*
X455713Y264500D02*
X570500Y149713D01*
X583000Y147768D02*
Y150006D01*
X570500Y147768D02*
Y149713D01*
X570436Y142282D02*
Y147936D01*
X345224Y264500D02*
X455713D01*
X622123Y285809D02*
X629803Y293488D01*
X350557Y287809D02*
X618309D01*
X350997Y286249D02*
X351557Y286809D01*
X349557Y288809D02*
X616309D01*
X348557Y289809D02*
X614042D01*
X347683Y290809D02*
X611309D01*
X560924Y299698D02*
Y305265D01*
X515636Y350553D02*
X560924Y305265D01*
X564073Y299698D02*
Y309990D01*
X523510Y350553D02*
X564073Y309990D01*
X583004Y79338D02*
Y117919D01*
X579854Y84062D02*
Y117919D01*
X608457Y291809D02*
X611317Y294669D01*
X532434Y326980D02*
X535020D01*
X548372Y150521D02*
X548420Y150568D01*
X603309Y292809D02*
X605018Y294518D01*
X601309Y293809D02*
X601868Y294368D01*
X550951Y155258D02*
Y155637D01*
X551475Y142218D02*
Y154734D01*
X550951Y155258D02*
X551475Y154734D01*
X547500Y155121D02*
Y155500D01*
Y155121D02*
X548420Y154201D01*
X548325Y142218D02*
X548372Y142265D01*
X548420Y150568D02*
Y154201D01*
X548372Y142265D02*
Y150521D01*
X557774Y142218D02*
Y147774D01*
X554624Y142218D02*
Y150568D01*
X123468Y43800D02*
X488913D01*
X534270Y89770D02*
X557774Y113274D01*
X503027Y57914D02*
Y62353D01*
X488913Y43800D02*
X503027Y57914D01*
X495153D02*
Y62353D01*
X482039Y44800D02*
X495153Y57914D01*
X475165Y45800D02*
X487279Y57914D01*
Y62353D02*
X513467Y88541D01*
X479405Y57914D02*
Y62353D01*
X468291Y46800D02*
X479405Y57914D01*
Y62353D02*
X506593Y89541D01*
X471531Y57914D02*
Y62353D01*
X462076Y48460D02*
X471531Y57914D01*
Y62353D02*
X499719Y90541D01*
X282041Y48460D02*
X462076D01*
X582985Y142233D02*
Y147768D01*
X336996Y262500D02*
X341996Y267500D01*
X338996Y262500D02*
X342996Y266500D01*
X340996Y262500D02*
X343996Y265500D01*
X342622Y261898D02*
X345224Y264500D01*
X611363Y150310D02*
X611409Y150356D01*
X611363Y142264D02*
Y150310D01*
X611317Y142218D02*
X611363Y142264D01*
X614467Y113525D02*
Y117919D01*
Y113525D02*
X642208Y85784D01*
X611317Y113183D02*
Y117919D01*
X639716Y84784D02*
X647547D01*
X665242Y67088D01*
X611317Y113183D02*
X639716Y84784D01*
X654421Y85784D02*
X673116Y67088D01*
X642208Y85784D02*
X654421D01*
X617616Y113384D02*
X644216Y86784D01*
X617616Y113384D02*
Y117919D01*
X661295Y86784D02*
X680991Y67088D01*
X668169Y87784D02*
X688865Y67088D01*
X620766Y113234D02*
Y117919D01*
Y113234D02*
X646216Y87784D01*
X644216Y86784D02*
X661295D01*
X648364Y88784D02*
X675043D01*
X623916Y113233D02*
X648364Y88784D01*
X646216Y87784D02*
X668169D01*
X681917Y89784D02*
X704613Y67088D01*
X656716Y92784D02*
X702539D01*
X709413Y93784D02*
X735592Y67605D01*
X695665Y91784D02*
X719844Y67605D01*
X639697Y112803D02*
X658716Y93784D01*
X652716Y90784D02*
X688791D01*
X650233Y89784D02*
X681917D01*
X654716Y91784D02*
X695665D01*
X702539Y92784D02*
X727718Y67605D01*
X658716Y93784D02*
X709413D01*
X675043Y88784D02*
X696739Y67088D01*
X688791Y90784D02*
X711970Y67605D01*
X573500Y150500D02*
X573511Y150489D01*
X579927Y150394D02*
X580034Y150500D01*
X579821Y142218D02*
X579927Y142324D01*
Y150394D01*
X573511Y142229D02*
Y150489D01*
Y142229D02*
X573522Y142218D01*
X570372D02*
X570436Y142282D01*
X279500Y265904D02*
X384162Y370566D01*
X605389Y355288D02*
X610124Y350553D01*
X384162Y370566D02*
X594551D01*
X605389Y359727D01*
Y355288D02*
Y359727D01*
X279500Y251786D02*
Y265904D01*
X309157Y257750D02*
Y276072D01*
X301284Y273854D02*
X393995Y366566D01*
X299315Y273300D02*
X393581Y367566D01*
X297346Y257750D02*
Y272746D01*
X299315Y257750D02*
Y273300D01*
X301284Y257750D02*
Y273854D01*
X303252Y274409D02*
X394409Y365566D01*
X307189Y257750D02*
Y275517D01*
X394823Y364566D02*
X553306D01*
X305221Y274963D02*
X394823Y364566D01*
X295378Y257750D02*
Y272192D01*
X393581Y367566D02*
X573929D01*
X303252Y257750D02*
Y274409D01*
X395652Y362566D02*
X531684D01*
X295378Y272192D02*
X392752Y369566D01*
X297346Y272746D02*
X393166Y368566D01*
X396066Y361566D02*
X524810D01*
X581767Y355288D02*
X589270Y347785D01*
X311126Y276626D02*
X396066Y361566D01*
X573893Y355288D02*
X586120Y343061D01*
X307189Y275517D02*
X395237Y363566D01*
X538558D01*
X393995Y366566D02*
X567054D01*
X305221Y257750D02*
Y274963D01*
X535062Y354749D02*
X570372Y319439D01*
X394409Y365566D02*
X560180D01*
X311126Y257750D02*
Y276626D01*
X309157Y276072D02*
X395652Y362566D01*
X393166Y368566D02*
X580803D01*
X392752Y369566D02*
X587677D01*
X542436Y355249D02*
X547132Y350553D01*
X531684Y362566D02*
X535062Y359188D01*
X542436Y355249D02*
Y359688D01*
X535062Y354749D02*
Y359188D01*
X538558Y363566D02*
X542436Y359688D01*
X587677Y369566D02*
X597515Y359727D01*
Y355288D02*
X602250Y350553D01*
X580803Y368566D02*
X589641Y359727D01*
Y355288D02*
X594376Y350553D01*
X573929Y367566D02*
X581767Y359727D01*
X586120Y299698D02*
Y343061D01*
X567054Y366566D02*
X573893Y359727D01*
Y355288D02*
Y359727D01*
X570754Y349853D02*
X571454D01*
X566019Y355288D02*
X570754Y350553D01*
X566019Y355288D02*
Y359727D01*
X562880Y349853D02*
X563580D01*
X558145Y355288D02*
Y359727D01*
X547132Y349853D02*
X547832D01*
X531384D02*
X532084D01*
X524810Y361566D02*
X527688Y358688D01*
X597515Y355288D02*
Y359727D01*
X589641Y355288D02*
Y359727D01*
X527688Y354249D02*
X531384Y350553D01*
X581767Y355288D02*
Y359727D01*
X553306Y364566D02*
X558145Y359727D01*
X527688Y354249D02*
Y358688D01*
X560180Y365566D02*
X566019Y359727D01*
X558145Y355288D02*
X562880Y350553D01*
X279500Y251786D02*
X280328Y250959D01*
X288587D01*
X313094Y262094D02*
X344249Y293249D01*
X344809Y293809D02*
X601309D01*
X344249Y293249D02*
X344809Y293809D01*
X345249Y292249D02*
X345809Y292809D01*
X315063Y262063D02*
X345249Y292249D01*
X345809Y292809D02*
X603309D01*
X346123Y291249D02*
X346683Y291809D01*
X608457D01*
X317374Y262500D02*
X346123Y291249D01*
X347123Y290249D02*
X347683Y290809D01*
X319374Y262500D02*
X347123Y290249D01*
X611309Y290809D02*
X614467Y293967D01*
X321248Y262500D02*
X347997Y289249D01*
X348557Y289809D01*
X614042D02*
X617616Y293384D01*
X325248Y262500D02*
X349997Y287249D01*
X331122Y262500D02*
X352871Y284249D01*
X348997Y288249D02*
X349557Y288809D01*
X354131Y283249D02*
X354690Y283809D01*
X351871Y285249D02*
X352431Y285809D01*
X655229Y325325D02*
X695133D01*
X329122Y262500D02*
X351871Y285249D01*
X332780Y261898D02*
X354131Y283249D01*
X352431Y285809D02*
X622123D01*
X332780Y257750D02*
Y261898D01*
X624309Y284809D02*
X633143Y293643D01*
X335122Y262500D02*
X354871Y282249D01*
X327248Y262500D02*
X350997Y286249D01*
X618309Y287809D02*
X623916Y293416D01*
X620309Y286809D02*
X627065Y293565D01*
X351557Y286809D02*
X620309D01*
X626254Y282249D02*
X639664Y295659D01*
X354871Y282249D02*
X626254D01*
X349997Y287249D02*
X350557Y287809D01*
X323248Y262500D02*
X348997Y288249D01*
X616309Y288809D02*
X620766Y293266D01*
X601868Y294368D02*
Y299698D01*
X601857D02*
Y310789D01*
X313094Y257750D02*
Y262094D01*
X315063Y257750D02*
Y262063D01*
X605018Y294518D02*
Y299698D01*
X611317Y294669D02*
Y299698D01*
X614467Y293967D02*
Y299698D01*
X617616Y293384D02*
Y299698D01*
X620766Y293266D02*
Y299698D01*
X623916Y293416D02*
Y299698D01*
X627065Y293565D02*
Y299698D01*
X629803Y293488D02*
X630227Y293912D01*
X639664Y295659D02*
Y299698D01*
X623916D02*
Y304916D01*
X620766Y299698D02*
Y304766D01*
X688259Y326325D02*
X711787Y349853D01*
X728503Y319325D02*
X759031Y349853D01*
X702007Y324325D02*
X727535Y349853D01*
X708881Y323325D02*
X735409Y349853D01*
X695133Y325325D02*
X719661Y349853D01*
X721629Y320325D02*
X751857Y350553D01*
X617616Y299698D02*
Y304616D01*
X614467Y299698D02*
Y304967D01*
X611317Y299698D02*
Y304817D01*
X630227Y299006D02*
Y299687D01*
Y293912D02*
Y299006D01*
X630215Y299698D02*
X630227Y299687D01*
X598719Y339147D02*
X610124Y350553D01*
X598719Y299698D02*
Y339147D01*
X595569Y299698D02*
Y343872D01*
X602250Y350553D01*
X592420Y299698D02*
Y347788D01*
X589270Y299698D02*
Y347785D01*
X592420Y347788D02*
X594376Y349745D01*
Y350553D01*
X570372Y299698D02*
Y319439D01*
X532084Y349853D02*
X567211Y314726D01*
Y299006D02*
Y314726D01*
X551475Y299698D02*
Y303525D01*
X529383Y325617D02*
X551475Y303525D01*
X516950Y325617D02*
X529383D01*
X507762Y350553D02*
X508861D01*
X535020Y326980D02*
X557774Y304226D01*
Y299698D02*
Y304226D01*
X508861Y350553D02*
X532434Y326980D01*
X531383Y326617D02*
X554624Y303376D01*
X523824Y326617D02*
X531383D01*
X527033Y324617D02*
X548325Y303325D01*
X503202Y323617D02*
X524883D01*
X510076Y324617D02*
X527033D01*
X499888Y350553D02*
X523824Y326617D01*
X476266Y350553D02*
X503202Y323617D01*
X492014Y350553D02*
X516950Y325617D01*
X545176Y299698D02*
Y303324D01*
X524883Y323617D02*
X545176Y303324D01*
X484140Y350553D02*
X510076Y324617D01*
X554624Y299698D02*
Y303376D01*
X548325Y299698D02*
Y303325D01*
X551487Y267513D02*
X551500Y267500D01*
X551487Y267513D02*
Y275387D01*
X554562Y269562D02*
Y275337D01*
X557764Y267310D02*
Y275389D01*
X560962Y269538D02*
Y275361D01*
X564037Y267037D02*
Y275363D01*
X551475Y275399D02*
X551487Y275387D01*
X554562Y275337D02*
X554624Y275399D01*
X557764Y275389D02*
X557774Y275399D01*
X564037Y275363D02*
X564073Y275399D01*
X560924D02*
X560962Y275361D01*
X282000Y48500D02*
X282041Y48460D01*
X342622Y257750D02*
Y261898D01*
X114800Y177700D02*
X164500Y128000D01*
X106500Y177700D02*
X114800D01*
X645963Y299698D02*
Y303449D01*
X554624Y113634D02*
Y117919D01*
X526801Y87541D02*
X530030Y90770D01*
X531761D02*
X554624Y113634D01*
X551475Y113377D02*
Y117919D01*
X513467Y88541D02*
X526387D01*
X529616Y91770D02*
X529869D01*
X551475Y113377D01*
X506593Y89541D02*
X524541D01*
X548325Y113325D01*
X520341Y87541D02*
X526801D01*
X530030Y90770D02*
X531761D01*
X495153Y62353D02*
X520341Y87541D01*
X526387Y88541D02*
X529616Y91770D01*
X487279Y57914D02*
Y62353D01*
X548325Y113325D02*
Y117919D01*
X522541Y90541D02*
X545176Y113176D01*
X499719Y90541D02*
X522541D01*
X545176Y113176D02*
Y117919D01*
X570405Y98235D02*
Y117919D01*
X586153Y74613D02*
Y117919D01*
X547132Y67088D02*
X573522Y93478D01*
Y117919D01*
X586502Y67088D02*
X589270Y69856D01*
Y117919D01*
X595602Y73736D02*
Y117919D01*
X582971Y142218D02*
X582985Y142233D01*
X592460Y142258D02*
Y149960D01*
X592500Y150000D01*
X592420Y142218D02*
X592460Y142258D01*
X462000Y150000D02*
X491000D01*
X636547Y112953D02*
X656716Y92784D01*
X639697Y112803D02*
Y117919D01*
X636547Y112953D02*
Y118451D01*
X633398Y113102D02*
X654716Y91784D01*
X633398Y113102D02*
Y118451D01*
X630248Y113252D02*
Y118451D01*
Y113252D02*
X652716Y90784D01*
X633376Y295936D02*
Y299006D01*
X156183Y44800D02*
X482039D01*
X627065Y112952D02*
X650233Y89784D01*
X627065Y112952D02*
Y117919D01*
X623916Y113233D02*
Y117919D01*
X177391Y46800D02*
X468291D01*
X162576Y45800D02*
X475165D01*
X648978Y67605D02*
X649539D01*
X605051Y111531D02*
Y117919D01*
Y111531D02*
X648978Y67605D01*
X154000Y70191D02*
X177391Y46800D01*
X641104Y67605D02*
X641665D01*
X601902Y106807D02*
X641104Y67605D01*
X601902Y106807D02*
Y117919D01*
X515681Y67605D02*
X560957Y112881D01*
X503027Y62353D02*
X530444Y89770D01*
X534270D01*
X468437Y67605D02*
X468909D01*
X460563D02*
X461035D01*
X601855Y142790D02*
Y147754D01*
X601841Y147768D02*
X601855Y147754D01*
X645796Y142943D02*
X645996Y142743D01*
X645796Y142943D02*
Y147353D01*
X645793Y147356D02*
X645796Y147353D01*
X627033Y142808D02*
X627072Y142769D01*
X627033Y142808D02*
Y147967D01*
X627000Y148000D02*
X627033Y147967D01*
X461035Y67605D02*
X485971Y92541D01*
X515449D01*
X492845Y91541D02*
X520541D01*
X542059Y113059D01*
X515449Y92541D02*
X538909Y116001D01*
X468909Y67605D02*
X492845Y91541D01*
X560957Y112881D02*
Y118451D01*
X557774Y113274D02*
Y117919D01*
X542059Y113059D02*
Y114169D01*
X148514Y52469D02*
X156183Y44800D01*
X156214Y52162D02*
X162576Y45800D01*
X601734Y67605D02*
X602295D01*
X595602Y73736D02*
X601734Y67605D01*
X594421D02*
Y67918D01*
X592453Y69886D02*
Y118451D01*
Y69886D02*
X594421Y67918D01*
X578673Y67605D02*
X579145D01*
X586153Y74613D01*
X570799Y67605D02*
X571271D01*
X583004Y79338D01*
X562925Y67605D02*
X563397D01*
X579854Y84062D01*
X610169Y67605D02*
Y86589D01*
X598752Y98006D02*
Y118451D01*
Y98006D02*
X610169Y86589D01*
X115497Y52469D02*
X148514D01*
X636514Y295948D02*
Y299006D01*
Y293924D02*
Y295948D01*
X633376Y299006D02*
Y299687D01*
X633353D02*
Y303449D01*
X633376Y293912D02*
Y295936D01*
X636514Y299006D02*
Y299698D01*
X639652Y299710D02*
Y303449D01*
X735409Y349853D02*
X736109D01*
X639652Y299710D02*
X639664Y299698D01*
X636502Y299710D02*
X636514Y299698D01*
X636090Y293500D02*
X636514Y293924D01*
X636502Y299710D02*
Y303449D01*
X630203Y299687D02*
Y303449D01*
X632953Y293488D02*
X633376Y293912D01*
X633364Y299698D02*
X633376Y299687D01*
X573510Y299006D02*
Y324175D01*
X547832Y349853D02*
X573510Y324175D01*
X579809Y299006D02*
Y333624D01*
X563580Y349853D02*
X579809Y333624D01*
X582959Y299710D02*
Y338348D01*
X571454Y349853D02*
X582959Y338348D01*
X711787Y349853D02*
X712487D01*
X719661D02*
X720361D01*
X727535D02*
X728235D01*
X355490Y239148D02*
X360478D01*
X360500Y239126D01*
X360180Y243085D02*
X360329Y243234D01*
X355490Y243085D02*
X360180D01*
X360478Y247022D02*
X360500Y247000D01*
X355490Y247022D02*
X360478D01*
X355490Y205683D02*
X356918D01*
X360478Y203715D02*
X360500Y203693D01*
X355490Y203715D02*
X360478D01*
X355490Y209620D02*
X356918D01*
X360478Y207652D02*
X360500Y207630D01*
X355490Y207652D02*
X360478D01*
X355490Y213557D02*
X356918D01*
X360478Y211589D02*
X360500Y211567D01*
X355490Y211589D02*
X360478D01*
X355490Y217494D02*
X356918D01*
X360478Y215526D02*
X360500Y215504D01*
X355490Y215526D02*
X360478D01*
X355490Y221431D02*
X356918D01*
X360478Y219463D02*
X360500Y219441D01*
X355490Y219463D02*
X360478D01*
X355490Y225368D02*
X356918D01*
X360478Y223400D02*
X360500Y223378D01*
X355490Y223400D02*
X360478D01*
X355490Y229305D02*
X356918D01*
X360478Y227337D02*
X360500Y227315D01*
X355490Y227337D02*
X360478D01*
X355490Y233242D02*
X356918D01*
X360478Y231274D02*
X360500Y231252D01*
X355490Y231274D02*
X360478D01*
X355490Y237179D02*
X356918D01*
X360478Y235211D02*
X360500Y235189D01*
X355490Y235211D02*
X360478D01*
X355490Y241116D02*
X356918D01*
X355490Y245053D02*
X356918D01*
X355490Y248990D02*
X356918D01*
X349413Y250959D02*
X355041D01*
X349413Y245053D02*
X355490D01*
X349413Y248990D02*
X355490D01*
X349413Y209620D02*
X355490D01*
X349413Y207652D02*
X355490D01*
X349413Y205683D02*
X355490D01*
X349413Y203715D02*
X355490D01*
X349413Y217494D02*
X355490D01*
X349413Y215526D02*
X355490D01*
X349413Y213557D02*
X355490D01*
X349413Y211589D02*
X355490D01*
X349413Y225368D02*
X355490D01*
X349413Y223400D02*
X355490D01*
X349413Y221431D02*
X355490D01*
X349413Y219463D02*
X355490D01*
X349413Y233242D02*
X355490D01*
X349413Y231274D02*
X355490D01*
X349413Y229305D02*
X355490D01*
X349413Y227337D02*
X355490D01*
X349413Y241116D02*
X355490D01*
X349413Y239148D02*
X355490D01*
X349413Y237179D02*
X355490D01*
X349413Y235211D02*
X355490D01*
X349413Y243085D02*
X355490D01*
X349413Y247022D02*
X355490D01*
X336717Y262221D02*
X336996Y262500D01*
X336717Y257750D02*
Y262221D01*
X338685Y262189D02*
X338996Y262500D01*
X338685Y257750D02*
Y262189D01*
X340654Y257750D02*
Y262158D01*
X340996Y262500D01*
X328842Y262221D02*
X329122Y262500D01*
X328842Y257750D02*
Y262221D01*
X330811Y262189D02*
X331122Y262500D01*
X330811Y257750D02*
Y262189D01*
X334748Y257750D02*
Y262126D01*
X335122Y262500D01*
X320969Y262221D02*
X321248Y262500D01*
X320969Y257750D02*
Y262221D01*
X322937Y262189D02*
X323248Y262500D01*
X322937Y257750D02*
Y262189D01*
X324905Y257750D02*
Y262158D01*
X325248Y262500D01*
X326874Y257750D02*
Y262126D01*
X327248Y262500D01*
X317032Y257750D02*
Y262158D01*
X317374Y262500D01*
X319000Y257750D02*
Y262126D01*
X319374Y262500D01*
X711970Y67605D02*
X712531D01*
X649101Y299006D02*
Y303449D01*
X564106Y107684D02*
Y118451D01*
X524027Y67605D02*
X564106Y107684D01*
X531429Y67605D02*
X531901D01*
X539775D02*
X570405Y98235D01*
X539303Y67605D02*
X539775D01*
X727718D02*
X728280D01*
X719844D02*
X720405D01*
X117379Y49889D02*
X123468Y43800D01*
X531901Y67605D02*
X567256Y102960D01*
X542059Y114169D02*
Y118451D01*
X523555Y67605D02*
X524027D01*
X538909Y116001D02*
Y118451D01*
X567256Y102960D02*
Y118451D01*
X735592Y67605D02*
X736154D01*
X640920Y349853D02*
X641620D01*
X601857Y310789D02*
X640920Y349853D01*
X759031D02*
X759731D01*
D61*
X660270Y321825D02*
X715255D01*
X608156Y304949D02*
X637032Y333825D01*
X640640D01*
X656668Y349853D01*
X642801Y304357D02*
X660270Y321825D01*
X608168Y112669D02*
Y118418D01*
X641173Y83284D02*
X656852Y67605D01*
X608168Y112669D02*
X637552Y83284D01*
X641173D01*
X737409Y97284D02*
X767605Y67088D01*
X670600Y97284D02*
X737409D01*
X645963Y112669D02*
X663348Y95284D01*
X715787D01*
X743466Y67605D01*
X653312Y114571D02*
X670600Y97284D01*
X715255Y321825D02*
X743283Y349853D01*
X542014Y299006D02*
Y301661D01*
X652945Y261000D02*
X661703Y269759D01*
X643000Y261000D02*
X652945D01*
X652362Y115868D02*
Y117827D01*
X538909Y142744D02*
Y147736D01*
X538941Y147768D01*
X542059Y142743D02*
Y150550D01*
X542041Y150568D02*
X542059Y150550D01*
X642827Y142762D02*
Y150049D01*
X642629Y150248D02*
X642827Y150049D01*
X642629Y150248D02*
Y150356D01*
X661711Y142776D02*
Y147681D01*
X661577Y147815D02*
X661711Y147681D01*
X661500Y147815D02*
X661577D01*
X661711Y117919D02*
X661811Y117819D01*
Y115868D02*
Y117819D01*
X645963Y112669D02*
Y117919D01*
X652362Y115868D02*
X653312Y114918D01*
Y114571D02*
Y114918D01*
X743466Y67605D02*
X744028D01*
X655412Y299900D02*
X656500Y299500D01*
X642796Y269751D02*
X642805Y269760D01*
Y274701D01*
X661703Y269759D02*
Y274711D01*
X576660Y299006D02*
Y328899D01*
X576672Y88754D02*
Y118418D01*
X642801Y299006D02*
Y304357D01*
X652295Y117893D02*
X652362Y117827D01*
X555523Y67605D02*
X576672Y88754D01*
X656668Y349853D02*
X657368D01*
X555006D02*
X555706D01*
X743283D02*
X743983D01*
X541926Y301749D02*
X542014Y301661D01*
X608156Y299006D02*
Y304949D01*
X555051Y67605D02*
X555523D01*
X460518Y59214D02*
X468392D01*
X555706Y349853D02*
X576660Y328899D01*
D62*
X608204Y142218D02*
Y147731D01*
X598256Y154500D02*
X603937D01*
X608145Y150292D01*
X658561Y270197D02*
Y275399D01*
X656500Y268135D02*
X658561Y270197D01*
X656500Y268000D02*
Y268135D01*
X576634Y142370D02*
Y147643D01*
X576596Y147680D02*
X576634Y147643D01*
X608145Y148051D02*
Y150292D01*
Y148051D02*
X608241Y147956D01*
D63*
X642796Y265478D02*
Y269751D01*
X643000Y261000D02*
Y265274D01*
X642796Y265478D02*
X643000Y265274D01*
X576935Y267334D02*
X579335Y264934D01*
X606279D01*
X608196Y266851D01*
D64*
X642813Y117919D02*
X645963D01*
X648463D02*
X649113D01*
D65*
X319000Y247022D02*
D03*
Y207652D02*
D03*
D66*
X130908Y299101D02*
D03*
Y309101D02*
D03*
X404452Y323500D02*
D03*
X169000Y374000D02*
D03*
Y364000D02*
D03*
X49000Y374000D02*
D03*
Y364000D02*
D03*
X227629Y363545D02*
D03*
Y373545D02*
D03*
X371500Y109337D02*
D03*
X213279Y153918D02*
D03*
Y176918D02*
D03*
Y199917D02*
D03*
Y222918D02*
D03*
X108000Y374000D02*
D03*
Y364000D02*
D03*
X394500Y109337D02*
D03*
X348500D02*
D03*
X325852D02*
D03*
X401889Y394428D02*
D03*
X401852Y418980D02*
D03*
X401886Y406819D02*
D03*
X404452Y335446D02*
D03*
X392452D02*
D03*
X386500Y25000D02*
D03*
X435505Y84983D02*
D03*
Y108913D02*
D03*
Y96983D02*
D03*
X72500Y109337D02*
D03*
X415422Y158615D02*
D03*
Y181139D02*
D03*
X401479D02*
D03*
Y158615D02*
D03*
X141500Y109337D02*
D03*
X165500D02*
D03*
X95500D02*
D03*
X118500D02*
D03*
X213279Y268917D02*
D03*
X175336Y257965D02*
D03*
X289500Y373500D02*
D03*
Y363500D02*
D03*
X348500Y373500D02*
D03*
Y363500D02*
D03*
X303500Y109337D02*
D03*
X175336Y211965D02*
D03*
X429103Y158615D02*
D03*
Y181139D02*
D03*
X213279Y245918D02*
D03*
X175336Y303965D02*
D03*
Y280965D02*
D03*
X64437Y299101D02*
D03*
Y309101D02*
D03*
X213279Y291917D02*
D03*
X49500Y109337D02*
D03*
X188500D02*
D03*
X280500D02*
D03*
X257500D02*
D03*
X234500D02*
D03*
X211500D02*
D03*
X213279Y314917D02*
D03*
X175336Y165965D02*
D03*
Y188965D02*
D03*
Y234965D02*
D03*
D67*
X130908Y319101D02*
D03*
X169000Y354000D02*
D03*
X49000D02*
D03*
X227629Y353545D02*
D03*
X213279Y143918D02*
D03*
Y166918D02*
D03*
Y189918D02*
D03*
Y212917D02*
D03*
X108000Y354000D02*
D03*
X404452Y345446D02*
D03*
X392452D02*
D03*
X415422Y168615D02*
D03*
Y191139D02*
D03*
X401479D02*
D03*
Y168615D02*
D03*
X213279Y258917D02*
D03*
X175336Y247965D02*
D03*
X289500Y353500D02*
D03*
X348500D02*
D03*
X175336Y201965D02*
D03*
X429103Y168615D02*
D03*
Y191139D02*
D03*
X213279Y235917D02*
D03*
X175336Y293965D02*
D03*
Y270965D02*
D03*
X64437Y319101D02*
D03*
X213279Y281918D02*
D03*
Y304918D02*
D03*
X175336Y155965D02*
D03*
Y178965D02*
D03*
Y224965D02*
D03*
D68*
X414452Y323500D02*
D03*
X381500Y109337D02*
D03*
X404500D02*
D03*
X358500D02*
D03*
X335852D02*
D03*
X411889Y394428D02*
D03*
X411852Y418980D02*
D03*
X411886Y406819D02*
D03*
X396500Y25000D02*
D03*
X425505Y84983D02*
D03*
Y108913D02*
D03*
Y96983D02*
D03*
X82500Y109337D02*
D03*
X151500D02*
D03*
X175500D02*
D03*
X105500D02*
D03*
X128500D02*
D03*
X313500D02*
D03*
X59500D02*
D03*
X198500D02*
D03*
X290500D02*
D03*
X267500D02*
D03*
X244500D02*
D03*
X221500D02*
D03*
D69*
X791227Y67088D02*
D03*
X610124Y358427D02*
D03*
X791227D02*
D03*
X610124Y67088D02*
D03*
D70*
X791227Y59214D02*
D03*
X783353Y67088D02*
D03*
Y59214D02*
D03*
X775479Y67088D02*
D03*
Y59214D02*
D03*
X767605Y67088D02*
D03*
Y59214D02*
D03*
X759731Y67088D02*
D03*
Y59214D02*
D03*
X751857Y67088D02*
D03*
Y59214D02*
D03*
X743983Y67088D02*
D03*
Y59214D02*
D03*
X736109Y67088D02*
D03*
Y59214D02*
D03*
X728235Y67088D02*
D03*
Y59214D02*
D03*
X720361Y67088D02*
D03*
Y59214D02*
D03*
X712487Y67088D02*
D03*
Y59214D02*
D03*
X704613Y67088D02*
D03*
Y59214D02*
D03*
X696739Y67088D02*
D03*
Y59214D02*
D03*
X688865Y67088D02*
D03*
Y59214D02*
D03*
X680991Y67088D02*
D03*
Y59214D02*
D03*
X673116Y67088D02*
D03*
Y59214D02*
D03*
X665242Y67088D02*
D03*
Y59214D02*
D03*
X657368Y67088D02*
D03*
Y59214D02*
D03*
X649494Y67088D02*
D03*
Y59214D02*
D03*
X641620Y67088D02*
D03*
Y59214D02*
D03*
X610124Y350553D02*
D03*
X602250Y358427D02*
D03*
Y350553D02*
D03*
X594376Y358427D02*
D03*
Y350553D02*
D03*
X586502Y358427D02*
D03*
Y350553D02*
D03*
X578628Y358427D02*
D03*
Y350553D02*
D03*
X570754Y358427D02*
D03*
Y350553D02*
D03*
X562880Y358427D02*
D03*
Y350553D02*
D03*
X555006Y358427D02*
D03*
Y350553D02*
D03*
X547132Y358427D02*
D03*
Y350553D02*
D03*
X539258Y358427D02*
D03*
Y350553D02*
D03*
X531384Y358427D02*
D03*
Y350553D02*
D03*
X523510Y358427D02*
D03*
Y350553D02*
D03*
X515636Y358427D02*
D03*
Y350553D02*
D03*
X507762Y358427D02*
D03*
Y350553D02*
D03*
X499888Y358427D02*
D03*
Y350553D02*
D03*
X492014Y358427D02*
D03*
Y350553D02*
D03*
X484140Y358427D02*
D03*
Y350553D02*
D03*
X476266Y358427D02*
D03*
Y350553D02*
D03*
X468392Y358427D02*
D03*
Y350553D02*
D03*
X460518Y358427D02*
D03*
Y350553D02*
D03*
X791227D02*
D03*
X783353Y358427D02*
D03*
Y350553D02*
D03*
X775479Y358427D02*
D03*
Y350553D02*
D03*
X767605Y358427D02*
D03*
Y350553D02*
D03*
X759731Y358427D02*
D03*
Y350553D02*
D03*
X751857Y358427D02*
D03*
Y350553D02*
D03*
X743983Y358427D02*
D03*
Y350553D02*
D03*
X736109Y358427D02*
D03*
Y350553D02*
D03*
X728235Y358427D02*
D03*
Y350553D02*
D03*
X720361Y358427D02*
D03*
Y350553D02*
D03*
X712487Y358427D02*
D03*
Y350553D02*
D03*
X704613Y358427D02*
D03*
Y350553D02*
D03*
X696739Y358427D02*
D03*
Y350553D02*
D03*
X688865Y358427D02*
D03*
Y350553D02*
D03*
X680991Y358427D02*
D03*
Y350553D02*
D03*
X673116Y358427D02*
D03*
Y350553D02*
D03*
X665242Y358427D02*
D03*
Y350553D02*
D03*
X657368Y358427D02*
D03*
Y350553D02*
D03*
X649494Y358427D02*
D03*
Y350553D02*
D03*
X641620Y358427D02*
D03*
Y350553D02*
D03*
X460518Y59214D02*
D03*
Y67088D02*
D03*
X468392Y59214D02*
D03*
Y67088D02*
D03*
X476266Y59214D02*
D03*
Y67088D02*
D03*
X484140Y59214D02*
D03*
Y67088D02*
D03*
X492014Y59214D02*
D03*
Y67088D02*
D03*
X499888Y59214D02*
D03*
Y67088D02*
D03*
X507762Y59214D02*
D03*
Y67088D02*
D03*
X515636Y59214D02*
D03*
Y67088D02*
D03*
X523510Y59214D02*
D03*
Y67088D02*
D03*
X531384Y59214D02*
D03*
Y67088D02*
D03*
X539258Y59214D02*
D03*
Y67088D02*
D03*
X547132Y59214D02*
D03*
Y67088D02*
D03*
X555006Y59214D02*
D03*
Y67088D02*
D03*
X562880Y59214D02*
D03*
Y67088D02*
D03*
X570754Y59214D02*
D03*
Y67088D02*
D03*
X578628Y59214D02*
D03*
Y67088D02*
D03*
X586502Y59214D02*
D03*
Y67088D02*
D03*
X594376Y59214D02*
D03*
Y67088D02*
D03*
X602250Y59214D02*
D03*
Y67088D02*
D03*
X610124Y59214D02*
D03*
D71*
X532427Y279549D02*
D03*
X668160D02*
D03*
Y122069D02*
D03*
X532427D02*
D03*
X585847Y152595D02*
D03*
X476000Y262500D02*
D03*
X317050Y296766D02*
D03*
X547500Y155500D02*
D03*
X550951Y155637D02*
D03*
X548420Y150568D02*
D03*
X551475Y147774D02*
D03*
X611409Y150356D02*
D03*
X614500Y148000D02*
D03*
X580034Y150568D02*
D03*
X573500D02*
D03*
X567241D02*
D03*
X561020D02*
D03*
X570500Y147768D02*
D03*
X401000Y262800D02*
D03*
X551500Y267334D02*
D03*
X522425Y254500D02*
D03*
X564000Y267334D02*
D03*
X538858D02*
D03*
X545138D02*
D03*
X554500Y269751D02*
D03*
X557754Y267334D02*
D03*
X561000Y269751D02*
D03*
X397000Y260500D02*
D03*
X109877Y176000D02*
D03*
X164500Y128000D02*
D03*
X280700Y296000D02*
D03*
X656500Y268000D02*
D03*
X554624Y150568D02*
D03*
X557774Y147774D02*
D03*
X583000Y147768D02*
D03*
X592500Y150568D02*
D03*
X791500Y105000D02*
D03*
X491000Y150000D02*
D03*
X462000D02*
D03*
X280000Y51000D02*
D03*
X282000Y48500D02*
D03*
X106500Y177700D02*
D03*
X48535Y182454D02*
D03*
X106411Y212512D02*
D03*
X316221Y316400D02*
D03*
X66035Y180754D02*
D03*
X627000Y148000D02*
D03*
X542041Y150568D02*
D03*
X403500Y256000D02*
D03*
X339574Y189569D02*
D03*
X282854Y219292D02*
D03*
X115497Y52469D02*
D03*
X117379Y49889D02*
D03*
X399300Y256200D02*
D03*
X541996Y269751D02*
D03*
X315500Y299500D02*
D03*
X283206Y203783D02*
D03*
X283000Y207647D02*
D03*
X293000Y193237D02*
D03*
X280407Y205812D02*
D03*
X283000Y231252D02*
D03*
X282428Y227328D02*
D03*
X604996Y269751D02*
D03*
X598796D02*
D03*
X595583Y267334D02*
D03*
X601832D02*
D03*
X573496Y269751D02*
D03*
X576935Y267334D02*
D03*
X570396D02*
D03*
X580098Y269751D02*
D03*
X360500Y239126D02*
D03*
X360329Y243234D02*
D03*
X360500Y247000D02*
D03*
X356918Y205683D02*
D03*
X360500Y203693D02*
D03*
X356918Y209620D02*
D03*
X360500Y207630D02*
D03*
X356918Y213557D02*
D03*
X360500Y211567D02*
D03*
X356918Y217494D02*
D03*
X360500Y215504D02*
D03*
X356918Y221431D02*
D03*
X360500Y219441D02*
D03*
X356918Y225368D02*
D03*
X360500Y223378D02*
D03*
X356918Y229305D02*
D03*
X360500Y227315D02*
D03*
X356918Y233242D02*
D03*
X360500Y231252D02*
D03*
X356918Y237179D02*
D03*
X360500Y235189D02*
D03*
X356918Y241116D02*
D03*
Y245053D02*
D03*
Y248990D02*
D03*
X282929Y235282D02*
D03*
X297415Y191337D02*
D03*
X301367D02*
D03*
X50839Y177804D02*
D03*
X108896Y214999D02*
D03*
X316591Y50160D02*
D03*
X154000Y70191D02*
D03*
X642796Y269751D02*
D03*
X589283Y267334D02*
D03*
X582983D02*
D03*
X611598Y269751D02*
D03*
X548296D02*
D03*
X567296D02*
D03*
X342000Y192254D02*
D03*
X335000Y191337D02*
D03*
X330900D02*
D03*
X280599Y213422D02*
D03*
X283011Y248979D02*
D03*
X298980Y188317D02*
D03*
X303187Y188337D02*
D03*
X305167Y191337D02*
D03*
X307108Y188337D02*
D03*
X309049Y191337D02*
D03*
X311991Y188846D02*
D03*
X313026Y191337D02*
D03*
X317084Y188420D02*
D03*
X329000Y188337D02*
D03*
X333000D02*
D03*
X283000Y215389D02*
D03*
X154546Y48841D02*
D03*
X279169Y233395D02*
D03*
X661500Y148000D02*
D03*
X279000Y299500D02*
D03*
X617713Y150356D02*
D03*
X630241D02*
D03*
X605041D02*
D03*
X636496D02*
D03*
X624000D02*
D03*
X642629D02*
D03*
X598696D02*
D03*
X655188D02*
D03*
X633441Y148000D02*
D03*
X639696D02*
D03*
X649000Y150356D02*
D03*
X645629Y148000D02*
D03*
X652500D02*
D03*
X621029Y147956D02*
D03*
X545220Y147768D02*
D03*
X608241Y147956D02*
D03*
X601841D02*
D03*
X595496D02*
D03*
X592496Y269751D02*
D03*
X586196D02*
D03*
X661696D02*
D03*
X620796Y266851D02*
D03*
X623896Y269751D02*
D03*
X639696Y266851D02*
D03*
X633396D02*
D03*
X630196Y269751D02*
D03*
X636496D02*
D03*
X334000Y406000D02*
D03*
X283011Y243074D02*
D03*
Y239137D02*
D03*
X283000Y223247D02*
D03*
X280105Y245064D02*
D03*
Y241127D02*
D03*
X125522Y176522D02*
D03*
X50433Y219424D02*
D03*
X47964Y216920D02*
D03*
X319000Y191337D02*
D03*
X326937Y191400D02*
D03*
X323000Y191337D02*
D03*
X280599Y221296D02*
D03*
X156214Y52162D02*
D03*
X319191Y52549D02*
D03*
X316591Y68160D02*
D03*
X576596Y147680D02*
D03*
X280105Y237190D02*
D03*
X280599Y217231D02*
D03*
X283000Y211580D02*
D03*
X280313Y209739D02*
D03*
X325000Y188337D02*
D03*
X321000D02*
D03*
X538941Y147768D02*
D03*
X645996Y266851D02*
D03*
X564020Y147768D02*
D03*
X589196Y147781D02*
D03*
X617596Y269751D02*
D03*
X614496Y266851D02*
D03*
X608196D02*
D03*
X627096D02*
D03*
D72*
X783353Y122206D02*
D03*
Y295435D02*
D03*
X29000Y400000D02*
D03*
Y30000D02*
D03*
X781000D02*
D03*
Y400000D02*
D03*
D73*
X348000Y393000D02*
D03*
X185000Y140000D02*
D03*
X435000Y320000D02*
D03*
X405000Y80000D02*
D03*
Y20000D02*
D03*
X315000Y80000D02*
D03*
X285000D02*
D03*
X240000Y410000D02*
D03*
X225000Y200000D02*
D03*
X135000Y140000D02*
D03*
X75000Y320000D02*
D03*
X45000Y20000D02*
D03*
X15000Y380000D02*
D03*
X30000Y350000D02*
D03*
X15000Y200000D02*
D03*
Y20000D02*
D03*
X135495Y76000D02*
D03*
X389500D02*
D03*
X213000Y55000D02*
D03*
X383000Y319500D02*
D03*
X286500Y393000D02*
D03*
X49500Y389000D02*
D03*
X107000Y393000D02*
D03*
X167500D02*
D03*
X226500D02*
D03*
X49000Y55000D02*
D03*
M02*
