G04*
G04 #@! TF.GenerationSoftware,Altium Limited,Altium Designer,22.4.2 (48)*
G04*
G04 Layer_Physical_Order=3*
G04 Layer_Color=36540*
%FSLAX25Y25*%
%MOIN*%
G70*
G04*
G04 #@! TF.SameCoordinates,2DCEC4E4-29E6-4739-8FF7-65C193B2F985*
G04*
G04*
G04 #@! TF.FilePolarity,Positive*
G04*
G01*
G75*
%ADD65C,0.02953*%
%ADD66C,0.06496*%
%ADD67R,0.06496X0.06496*%
%ADD68R,0.06496X0.06496*%
%ADD69R,0.04878X0.04878*%
%ADD70C,0.04878*%
%ADD71C,0.02000*%
%ADD72C,0.19685*%
%ADD73C,0.05000*%
G36*
X802961Y2039D02*
X2039D01*
Y427961D01*
X802961D01*
Y2039D01*
D02*
G37*
%LPC*%
G36*
X417100Y424228D02*
X406604D01*
Y422212D01*
X406121Y422082D01*
X406051Y422203D01*
X405074Y423180D01*
X403878Y423871D01*
X402543Y424228D01*
X401161D01*
X399826Y423871D01*
X398630Y423180D01*
X397653Y422203D01*
X396962Y421006D01*
X396604Y419671D01*
Y418289D01*
X396962Y416955D01*
X397653Y415758D01*
X398630Y414781D01*
X399826Y414090D01*
X401161Y413732D01*
X402543D01*
X403878Y414090D01*
X405074Y414781D01*
X406051Y415758D01*
X406121Y415878D01*
X406604Y415749D01*
Y413732D01*
X417100D01*
Y424228D01*
D02*
G37*
G36*
X417134Y412067D02*
X406638D01*
Y410050D01*
X406155Y409921D01*
X406086Y410042D01*
X405108Y411019D01*
X403912Y411709D01*
X402577Y412067D01*
X401195D01*
X399860Y411709D01*
X398664Y411019D01*
X397687Y410042D01*
X396996Y408845D01*
X396638Y407510D01*
Y406128D01*
X396996Y404793D01*
X397687Y403597D01*
X398664Y402620D01*
X399860Y401929D01*
X401195Y401571D01*
X402577D01*
X403912Y401929D01*
X405108Y402620D01*
X406086Y403597D01*
X406155Y403717D01*
X406638Y403588D01*
Y401571D01*
X417134D01*
Y412067D01*
D02*
G37*
G36*
X334278Y407400D02*
X333721D01*
X333207Y407187D01*
X332813Y406793D01*
X332600Y406279D01*
Y405722D01*
X332813Y405207D01*
X333207Y404813D01*
X333721Y404600D01*
X334278D01*
X334793Y404813D01*
X335187Y405207D01*
X335400Y405722D01*
Y406279D01*
X335187Y406793D01*
X334793Y407187D01*
X334278Y407400D01*
D02*
G37*
G36*
X417137Y399676D02*
X406641D01*
Y397659D01*
X406158Y397530D01*
X406088Y397650D01*
X405111Y398627D01*
X403915Y399318D01*
X402580Y399676D01*
X401198D01*
X399863Y399318D01*
X398667Y398627D01*
X397689Y397650D01*
X396999Y396453D01*
X396641Y395118D01*
Y393737D01*
X396999Y392402D01*
X397689Y391205D01*
X398667Y390228D01*
X399863Y389537D01*
X401198Y389180D01*
X402580D01*
X403915Y389537D01*
X405111Y390228D01*
X406088Y391205D01*
X406158Y391326D01*
X406641Y391196D01*
Y389180D01*
X417137D01*
Y399676D01*
D02*
G37*
G36*
X781932Y411842D02*
X780068D01*
X778227Y411551D01*
X776454Y410975D01*
X774793Y410129D01*
X773285Y409033D01*
X771967Y407715D01*
X770871Y406207D01*
X770025Y404546D01*
X769449Y402773D01*
X769158Y400932D01*
Y399068D01*
X769449Y397227D01*
X770025Y395454D01*
X770871Y393793D01*
X771967Y392285D01*
X773285Y390967D01*
X774793Y389871D01*
X776454Y389025D01*
X778227Y388449D01*
X780068Y388158D01*
X781932D01*
X783773Y388449D01*
X785546Y389025D01*
X787207Y389871D01*
X788715Y390967D01*
X790033Y392285D01*
X791129Y393793D01*
X791975Y395454D01*
X792551Y397227D01*
X792842Y399068D01*
Y400932D01*
X792551Y402773D01*
X791975Y404546D01*
X791129Y406207D01*
X790033Y407715D01*
X788715Y409033D01*
X787207Y410129D01*
X785546Y410975D01*
X783773Y411551D01*
X781932Y411842D01*
D02*
G37*
G36*
X29932D02*
X28068D01*
X26227Y411551D01*
X24454Y410975D01*
X22793Y410129D01*
X21285Y409033D01*
X19967Y407715D01*
X18871Y406207D01*
X18025Y404546D01*
X17449Y402773D01*
X17157Y400932D01*
Y399068D01*
X17449Y397227D01*
X18025Y395454D01*
X18871Y393793D01*
X19967Y392285D01*
X21285Y390967D01*
X22793Y389871D01*
X24454Y389025D01*
X26227Y388449D01*
X28068Y388158D01*
X29932D01*
X31773Y388449D01*
X33546Y389025D01*
X35207Y389871D01*
X36715Y390967D01*
X38033Y392285D01*
X39129Y393793D01*
X39975Y395454D01*
X40551Y397227D01*
X40843Y399068D01*
Y400932D01*
X40551Y402773D01*
X39975Y404546D01*
X39129Y406207D01*
X38033Y407715D01*
X36715Y409033D01*
X35207Y410129D01*
X33546Y410975D01*
X31773Y411551D01*
X29932Y411842D01*
D02*
G37*
G36*
X614563Y362866D02*
X605686D01*
Y361923D01*
X605224Y361732D01*
X604976Y361979D01*
X603964Y362563D01*
X602835Y362866D01*
X601666D01*
X600537Y362563D01*
X599525Y361979D01*
X598698Y361153D01*
X598563Y360919D01*
X598063D01*
X597928Y361153D01*
X597102Y361979D01*
X596090Y362563D01*
X594961Y362866D01*
X593792D01*
X592663Y362563D01*
X591651Y361979D01*
X590824Y361153D01*
X590689Y360919D01*
X590189D01*
X590055Y361153D01*
X589228Y361979D01*
X588216Y362563D01*
X587087Y362866D01*
X585918D01*
X584789Y362563D01*
X583777Y361979D01*
X582950Y361153D01*
X582815Y360919D01*
X582315D01*
X582181Y361153D01*
X581354Y361979D01*
X580342Y362563D01*
X579213Y362866D01*
X578044D01*
X576915Y362563D01*
X575903Y361979D01*
X575076Y361153D01*
X574941Y360919D01*
X574441D01*
X574306Y361153D01*
X573480Y361979D01*
X572468Y362563D01*
X571339Y362866D01*
X570170D01*
X569041Y362563D01*
X568029Y361979D01*
X567202Y361153D01*
X567067Y360919D01*
X566567D01*
X566432Y361153D01*
X565606Y361979D01*
X564594Y362563D01*
X563465Y362866D01*
X562296D01*
X561167Y362563D01*
X560155Y361979D01*
X559328Y361153D01*
X559193Y360919D01*
X558693D01*
X558558Y361153D01*
X557732Y361979D01*
X556720Y362563D01*
X555591Y362866D01*
X554422D01*
X553293Y362563D01*
X552281Y361979D01*
X551454Y361153D01*
X551319Y360919D01*
X550819D01*
X550684Y361153D01*
X549858Y361979D01*
X548846Y362563D01*
X547717Y362866D01*
X546548D01*
X545419Y362563D01*
X544407Y361979D01*
X543580Y361153D01*
X543445Y360919D01*
X542945D01*
X542810Y361153D01*
X541984Y361979D01*
X540972Y362563D01*
X539843Y362866D01*
X538674D01*
X537545Y362563D01*
X536533Y361979D01*
X535706Y361153D01*
X535571Y360919D01*
X535071D01*
X534936Y361153D01*
X534110Y361979D01*
X533098Y362563D01*
X531969Y362866D01*
X530800D01*
X529671Y362563D01*
X528659Y361979D01*
X527832Y361153D01*
X527697Y360919D01*
X527197D01*
X527062Y361153D01*
X526236Y361979D01*
X525224Y362563D01*
X524095Y362866D01*
X522926D01*
X521797Y362563D01*
X520785Y361979D01*
X519958Y361153D01*
X519823Y360919D01*
X519323D01*
X519188Y361153D01*
X518362Y361979D01*
X517350Y362563D01*
X516221Y362866D01*
X515052D01*
X513923Y362563D01*
X512911Y361979D01*
X512084Y361153D01*
X511949Y360919D01*
X511449D01*
X511314Y361153D01*
X510488Y361979D01*
X509476Y362563D01*
X508347Y362866D01*
X507178D01*
X506049Y362563D01*
X505037Y361979D01*
X504210Y361153D01*
X504075Y360919D01*
X503575D01*
X503440Y361153D01*
X502614Y361979D01*
X501602Y362563D01*
X500473Y362866D01*
X499304D01*
X498175Y362563D01*
X497163Y361979D01*
X496336Y361153D01*
X496201Y360919D01*
X495701D01*
X495566Y361153D01*
X494740Y361979D01*
X493728Y362563D01*
X492599Y362866D01*
X491430D01*
X490301Y362563D01*
X489289Y361979D01*
X488462Y361153D01*
X488327Y360919D01*
X487827D01*
X487692Y361153D01*
X486866Y361979D01*
X485854Y362563D01*
X484725Y362866D01*
X483556D01*
X482427Y362563D01*
X481415Y361979D01*
X480588Y361153D01*
X480453Y360919D01*
X479953D01*
X479818Y361153D01*
X478992Y361979D01*
X477979Y362563D01*
X476850Y362866D01*
X475682D01*
X474553Y362563D01*
X473540Y361979D01*
X472714Y361153D01*
X472579Y360919D01*
X472079D01*
X471944Y361153D01*
X471118Y361979D01*
X470105Y362563D01*
X468976Y362866D01*
X467808D01*
X466679Y362563D01*
X465666Y361979D01*
X464840Y361153D01*
X464705Y360919D01*
X464205D01*
X464070Y361153D01*
X463244Y361979D01*
X462231Y362563D01*
X461102Y362866D01*
X459934D01*
X458805Y362563D01*
X457793Y361979D01*
X456966Y361153D01*
X456382Y360140D01*
X456079Y359011D01*
Y357842D01*
X456382Y356714D01*
X456966Y355701D01*
X457793Y354875D01*
X458805Y354291D01*
X459043Y354227D01*
X459096Y354060D01*
X459086Y353697D01*
X458406Y353305D01*
X457766Y352664D01*
X457313Y351880D01*
X457159Y351303D01*
X460518D01*
Y350553D01*
D01*
Y351303D01*
X463877D01*
X463723Y351880D01*
X463270Y352664D01*
X462630Y353305D01*
X461950Y353697D01*
X461940Y354060D01*
X461993Y354227D01*
X462231Y354291D01*
X463244Y354875D01*
X464070Y355701D01*
X464205Y355935D01*
X464705D01*
X464840Y355701D01*
X465666Y354875D01*
X466679Y354291D01*
X466917Y354227D01*
X466970Y354060D01*
X466960Y353697D01*
X466281Y353305D01*
X465640Y352664D01*
X465187Y351880D01*
X465033Y351303D01*
X468392D01*
Y350553D01*
X469142D01*
Y347194D01*
X469719Y347348D01*
X470504Y347801D01*
X471144Y348441D01*
X471536Y349121D01*
X471899Y349131D01*
X472066Y349078D01*
X472130Y348840D01*
X472714Y347827D01*
X473540Y347001D01*
X474553Y346416D01*
X475682Y346114D01*
X476850D01*
X477979Y346416D01*
X478992Y347001D01*
X479818Y347827D01*
X479953Y348061D01*
X480453D01*
X480588Y347827D01*
X481415Y347001D01*
X482427Y346416D01*
X483556Y346114D01*
X484725D01*
X485854Y346416D01*
X486866Y347001D01*
X487692Y347827D01*
X487827Y348061D01*
X488327D01*
X488462Y347827D01*
X489289Y347001D01*
X490301Y346416D01*
X491430Y346114D01*
X492599D01*
X493728Y346416D01*
X494740Y347001D01*
X495566Y347827D01*
X495701Y348061D01*
X496201D01*
X496336Y347827D01*
X497163Y347001D01*
X498175Y346416D01*
X499304Y346114D01*
X500473D01*
X501602Y346416D01*
X502614Y347001D01*
X503440Y347827D01*
X503575Y348061D01*
X504075D01*
X504210Y347827D01*
X505037Y347001D01*
X506049Y346416D01*
X507178Y346114D01*
X508347D01*
X509476Y346416D01*
X510488Y347001D01*
X511314Y347827D01*
X511449Y348061D01*
X511949D01*
X512084Y347827D01*
X512911Y347001D01*
X513923Y346416D01*
X515052Y346114D01*
X516221D01*
X517350Y346416D01*
X518362Y347001D01*
X519188Y347827D01*
X519323Y348061D01*
X519823D01*
X519958Y347827D01*
X520785Y347001D01*
X521797Y346416D01*
X522926Y346114D01*
X524095D01*
X525224Y346416D01*
X526236Y347001D01*
X527062Y347827D01*
X527197Y348061D01*
X527697D01*
X527832Y347827D01*
X528659Y347001D01*
X529671Y346416D01*
X530800Y346114D01*
X531969D01*
X533098Y346416D01*
X534110Y347001D01*
X534936Y347827D01*
X535071Y348061D01*
X535571D01*
X535706Y347827D01*
X536533Y347001D01*
X537545Y346416D01*
X538674Y346114D01*
X539843D01*
X540972Y346416D01*
X541984Y347001D01*
X542810Y347827D01*
X542945Y348061D01*
X543445D01*
X543580Y347827D01*
X544407Y347001D01*
X545419Y346416D01*
X546548Y346114D01*
X547717D01*
X548846Y346416D01*
X549858Y347001D01*
X550684Y347827D01*
X551269Y348840D01*
X551333Y349078D01*
X551500Y349131D01*
X551862Y349121D01*
X552254Y348441D01*
X552895Y347801D01*
X553679Y347348D01*
X554256Y347194D01*
Y350553D01*
X555756D01*
Y347194D01*
X556334Y347348D01*
X557118Y347801D01*
X557758Y348441D01*
X558151Y349121D01*
X558513Y349131D01*
X558680Y349078D01*
X558744Y348840D01*
X559328Y347827D01*
X560155Y347001D01*
X561167Y346416D01*
X562296Y346114D01*
X563465D01*
X564594Y346416D01*
X565606Y347001D01*
X566432Y347827D01*
X566567Y348061D01*
X567067D01*
X567202Y347827D01*
X568029Y347001D01*
X569041Y346416D01*
X570170Y346114D01*
X571339D01*
X572468Y346416D01*
X573480Y347001D01*
X574306Y347827D01*
X574441Y348061D01*
X574941D01*
X575076Y347827D01*
X575903Y347001D01*
X576915Y346416D01*
X578044Y346114D01*
X579213D01*
X580342Y346416D01*
X581354Y347001D01*
X582181Y347827D01*
X582315Y348061D01*
X582815D01*
X582950Y347827D01*
X583777Y347001D01*
X584789Y346416D01*
X585918Y346114D01*
X587087D01*
X588216Y346416D01*
X589228Y347001D01*
X590055Y347827D01*
X590189Y348061D01*
X590689D01*
X590824Y347827D01*
X591651Y347001D01*
X592663Y346416D01*
X593792Y346114D01*
X594961D01*
X596090Y346416D01*
X597102Y347001D01*
X597928Y347827D01*
X598063Y348061D01*
X598563D01*
X598698Y347827D01*
X599525Y347001D01*
X600537Y346416D01*
X601666Y346114D01*
X602835D01*
X603964Y346416D01*
X604976Y347001D01*
X605802Y347827D01*
X605937Y348061D01*
X606437D01*
X606572Y347827D01*
X607399Y347001D01*
X608411Y346416D01*
X609540Y346114D01*
X610709D01*
X611838Y346416D01*
X612850Y347001D01*
X613677Y347827D01*
X614261Y348840D01*
X614563Y349969D01*
Y351137D01*
X614261Y352266D01*
X613677Y353278D01*
X613429Y353526D01*
X613620Y353988D01*
X614563D01*
Y362866D01*
D02*
G37*
G36*
X736693D02*
X735524D01*
X734395Y362563D01*
X733383Y361979D01*
X732557Y361153D01*
X732422Y360919D01*
X731922D01*
X731787Y361153D01*
X730960Y361979D01*
X729948Y362563D01*
X728819Y362866D01*
X727650D01*
X726521Y362563D01*
X725509Y361979D01*
X724683Y361153D01*
X724548Y360919D01*
X724048D01*
X723913Y361153D01*
X723086Y361979D01*
X722074Y362563D01*
X720945Y362866D01*
X719776D01*
X718647Y362563D01*
X717635Y361979D01*
X716809Y361153D01*
X716674Y360919D01*
X716174D01*
X716039Y361153D01*
X715212Y361979D01*
X714200Y362563D01*
X713071Y362866D01*
X711902D01*
X710773Y362563D01*
X709761Y361979D01*
X708935Y361153D01*
X708800Y360919D01*
X708300D01*
X708165Y361153D01*
X707338Y361979D01*
X706326Y362563D01*
X705197Y362866D01*
X704028D01*
X702899Y362563D01*
X701887Y361979D01*
X701061Y361153D01*
X700926Y360919D01*
X700426D01*
X700291Y361153D01*
X699464Y361979D01*
X698452Y362563D01*
X697323Y362866D01*
X696154D01*
X695025Y362563D01*
X694013Y361979D01*
X693187Y361153D01*
X693052Y360919D01*
X692552D01*
X692417Y361153D01*
X691590Y361979D01*
X690578Y362563D01*
X689449Y362866D01*
X688280D01*
X687151Y362563D01*
X686139Y361979D01*
X685313Y361153D01*
X685178Y360919D01*
X684678D01*
X684543Y361153D01*
X683716Y361979D01*
X682704Y362563D01*
X681575Y362866D01*
X680406D01*
X679277Y362563D01*
X678265Y361979D01*
X677439Y361153D01*
X677304Y360919D01*
X676803D01*
X676669Y361153D01*
X675842Y361979D01*
X674830Y362563D01*
X673701Y362866D01*
X672532D01*
X671403Y362563D01*
X670391Y361979D01*
X669564Y361153D01*
X669429Y360919D01*
X668929D01*
X668794Y361153D01*
X667968Y361979D01*
X666956Y362563D01*
X665827Y362866D01*
X664658D01*
X663529Y362563D01*
X662517Y361979D01*
X661690Y361153D01*
X661555Y360919D01*
X661055D01*
X660920Y361153D01*
X660094Y361979D01*
X659082Y362563D01*
X657953Y362866D01*
X656784D01*
X655655Y362563D01*
X654643Y361979D01*
X653816Y361153D01*
X653681Y360919D01*
X653181D01*
X653047Y361153D01*
X652220Y361979D01*
X651208Y362563D01*
X650079Y362866D01*
X648910D01*
X647781Y362563D01*
X646769Y361979D01*
X645942Y361153D01*
X645807Y360919D01*
X645307D01*
X645173Y361153D01*
X644346Y361979D01*
X643334Y362563D01*
X642205Y362866D01*
X641036D01*
X639907Y362563D01*
X638895Y361979D01*
X638068Y361153D01*
X637484Y360140D01*
X637182Y359011D01*
Y357842D01*
X637484Y356714D01*
X638068Y355701D01*
X638895Y354875D01*
X639129Y354740D01*
Y354240D01*
X638895Y354105D01*
X638068Y353278D01*
X637484Y352266D01*
X637182Y351137D01*
Y349969D01*
X637484Y348840D01*
X638068Y347827D01*
X638895Y347001D01*
X639907Y346416D01*
X641036Y346114D01*
X642205D01*
X643334Y346416D01*
X644346Y347001D01*
X645173Y347827D01*
X645307Y348061D01*
X645807D01*
X645942Y347827D01*
X646769Y347001D01*
X647781Y346416D01*
X648910Y346114D01*
X650079D01*
X651208Y346416D01*
X652220Y347001D01*
X653047Y347827D01*
X653631Y348840D01*
X653695Y349078D01*
X653862Y349131D01*
X654224Y349121D01*
X654617Y348441D01*
X655257Y347801D01*
X656041Y347348D01*
X656618Y347194D01*
Y350553D01*
X658118D01*
Y347194D01*
X658696Y347348D01*
X659480Y347801D01*
X660120Y348441D01*
X660513Y349121D01*
X660875Y349131D01*
X661042Y349078D01*
X661106Y348840D01*
X661690Y347827D01*
X662517Y347001D01*
X663529Y346416D01*
X664658Y346114D01*
X665827D01*
X666956Y346416D01*
X667968Y347001D01*
X668794Y347827D01*
X668929Y348061D01*
X669429D01*
X669564Y347827D01*
X670391Y347001D01*
X671403Y346416D01*
X672532Y346114D01*
X673701D01*
X674830Y346416D01*
X675842Y347001D01*
X676669Y347827D01*
X676803Y348061D01*
X677304D01*
X677439Y347827D01*
X678265Y347001D01*
X679277Y346416D01*
X680406Y346114D01*
X681575D01*
X682704Y346416D01*
X683716Y347001D01*
X684543Y347827D01*
X684678Y348061D01*
X685178D01*
X685313Y347827D01*
X686139Y347001D01*
X687151Y346416D01*
X688280Y346114D01*
X689449D01*
X690578Y346416D01*
X691590Y347001D01*
X692417Y347827D01*
X692552Y348061D01*
X693052D01*
X693187Y347827D01*
X694013Y347001D01*
X695025Y346416D01*
X696154Y346114D01*
X697323D01*
X698452Y346416D01*
X699464Y347001D01*
X700291Y347827D01*
X700426Y348061D01*
X700926D01*
X701061Y347827D01*
X701887Y347001D01*
X702899Y346416D01*
X704028Y346114D01*
X705197D01*
X706326Y346416D01*
X707338Y347001D01*
X708165Y347827D01*
X708300Y348061D01*
X708800D01*
X708935Y347827D01*
X709761Y347001D01*
X710773Y346416D01*
X711902Y346114D01*
X713071D01*
X714200Y346416D01*
X715212Y347001D01*
X716039Y347827D01*
X716174Y348061D01*
X716674D01*
X716809Y347827D01*
X717635Y347001D01*
X718647Y346416D01*
X719776Y346114D01*
X720945D01*
X722074Y346416D01*
X723086Y347001D01*
X723913Y347827D01*
X724048Y348061D01*
X724548D01*
X724683Y347827D01*
X725509Y347001D01*
X726521Y346416D01*
X727650Y346114D01*
X728819D01*
X729948Y346416D01*
X730960Y347001D01*
X731787Y347827D01*
X731922Y348061D01*
X732422D01*
X732557Y347827D01*
X733383Y347001D01*
X734395Y346416D01*
X735524Y346114D01*
X736693D01*
X737822Y346416D01*
X738834Y347001D01*
X739661Y347827D01*
X740245Y348840D01*
X740309Y349078D01*
X740476Y349131D01*
X740838Y349121D01*
X741231Y348441D01*
X741871Y347801D01*
X742655Y347348D01*
X743233Y347194D01*
Y350553D01*
Y353912D01*
X742655Y353758D01*
X741871Y353305D01*
X741231Y352664D01*
X740838Y351985D01*
X740476Y351975D01*
X740309Y352028D01*
X740245Y352266D01*
X739661Y353278D01*
X738834Y354105D01*
X738600Y354240D01*
Y354740D01*
X738834Y354875D01*
X739661Y355701D01*
X740245Y356714D01*
X740309Y356952D01*
X740476Y357004D01*
X740838Y356995D01*
X741231Y356315D01*
X741871Y355675D01*
X742655Y355222D01*
X743233Y355068D01*
Y358427D01*
Y361786D01*
X742655Y361631D01*
X741871Y361179D01*
X741231Y360539D01*
X740838Y359859D01*
X740476Y359849D01*
X740309Y359902D01*
X740245Y360140D01*
X739661Y361153D01*
X738834Y361979D01*
X737822Y362563D01*
X736693Y362866D01*
D02*
G37*
G36*
X783937D02*
X782768D01*
X781639Y362563D01*
X780627Y361979D01*
X779801Y361153D01*
X779666Y360919D01*
X779166D01*
X779031Y361153D01*
X778204Y361979D01*
X777192Y362563D01*
X776063Y362866D01*
X774894D01*
X773765Y362563D01*
X772753Y361979D01*
X771927Y361153D01*
X771792Y360919D01*
X771292D01*
X771157Y361153D01*
X770330Y361979D01*
X769318Y362563D01*
X768189Y362866D01*
X767020D01*
X765891Y362563D01*
X764879Y361979D01*
X764053Y361153D01*
X763918Y360919D01*
X763418D01*
X763283Y361153D01*
X762456Y361979D01*
X761444Y362563D01*
X760315Y362866D01*
X759146D01*
X758017Y362563D01*
X757005Y361979D01*
X756179Y361153D01*
X756044Y360919D01*
X755544D01*
X755409Y361153D01*
X754582Y361979D01*
X753570Y362563D01*
X752441Y362866D01*
X751272D01*
X750143Y362563D01*
X749131Y361979D01*
X748305Y361153D01*
X747720Y360140D01*
X747656Y359902D01*
X747489Y359849D01*
X747127Y359859D01*
X746735Y360539D01*
X746094Y361179D01*
X745310Y361631D01*
X744733Y361786D01*
Y358427D01*
Y355068D01*
X745310Y355222D01*
X746094Y355675D01*
X746735Y356315D01*
X747127Y356995D01*
X747489Y357004D01*
X747656Y356952D01*
X747720Y356714D01*
X748305Y355701D01*
X749131Y354875D01*
X749365Y354740D01*
Y354240D01*
X749131Y354105D01*
X748305Y353278D01*
X747720Y352266D01*
X747656Y352028D01*
X747489Y351975D01*
X747127Y351985D01*
X746735Y352664D01*
X746094Y353305D01*
X745310Y353758D01*
X744733Y353912D01*
Y350553D01*
Y347194D01*
X745310Y347348D01*
X746094Y347801D01*
X746735Y348441D01*
X747127Y349121D01*
X747489Y349131D01*
X747656Y349078D01*
X747720Y348840D01*
X748305Y347827D01*
X749131Y347001D01*
X750143Y346416D01*
X751272Y346114D01*
X752441D01*
X753570Y346416D01*
X754582Y347001D01*
X755409Y347827D01*
X755544Y348061D01*
X756044D01*
X756179Y347827D01*
X757005Y347001D01*
X758017Y346416D01*
X759146Y346114D01*
X760315D01*
X761444Y346416D01*
X762456Y347001D01*
X763283Y347827D01*
X763418Y348061D01*
X763918D01*
X764053Y347827D01*
X764879Y347001D01*
X765891Y346416D01*
X767020Y346114D01*
X768189D01*
X769318Y346416D01*
X770330Y347001D01*
X771157Y347827D01*
X771292Y348061D01*
X771792D01*
X771927Y347827D01*
X772753Y347001D01*
X773765Y346416D01*
X774894Y346114D01*
X776063D01*
X777192Y346416D01*
X778204Y347001D01*
X779031Y347827D01*
X779166Y348061D01*
X779666D01*
X779801Y347827D01*
X780627Y347001D01*
X781639Y346416D01*
X782768Y346114D01*
X783937D01*
X785066Y346416D01*
X786078Y347001D01*
X786905Y347827D01*
X787040Y348061D01*
X787540D01*
X787675Y347827D01*
X788501Y347001D01*
X789513Y346416D01*
X790642Y346114D01*
X791811D01*
X792940Y346416D01*
X793952Y347001D01*
X794779Y347827D01*
X795363Y348840D01*
X795666Y349969D01*
Y351137D01*
X795363Y352266D01*
X794779Y353278D01*
X793952Y354105D01*
X793289Y354488D01*
X793423Y354988D01*
X794666D01*
Y357677D01*
X791227D01*
Y358427D01*
X790477D01*
Y361866D01*
X787788D01*
Y360623D01*
X787288Y360489D01*
X786905Y361153D01*
X786078Y361979D01*
X785066Y362563D01*
X783937Y362866D01*
D02*
G37*
G36*
X794666Y361866D02*
X791977D01*
Y359177D01*
X794666D01*
Y361866D01*
D02*
G37*
G36*
X169691Y379248D02*
X168309D01*
X166974Y378890D01*
X165778Y378200D01*
X164801Y377222D01*
X164110Y376026D01*
X163752Y374691D01*
Y373309D01*
X164110Y371974D01*
X164801Y370778D01*
X165778Y369800D01*
X166664Y369289D01*
Y368711D01*
X165778Y368199D01*
X164801Y367222D01*
X164110Y366026D01*
X163752Y364691D01*
Y363309D01*
X164110Y361974D01*
X164801Y360778D01*
X165778Y359801D01*
X165898Y359731D01*
X165769Y359248D01*
X163752D01*
Y348752D01*
X174248D01*
Y359248D01*
X172231D01*
X172102Y359731D01*
X172222Y359801D01*
X173199Y360778D01*
X173890Y361974D01*
X174248Y363309D01*
Y364691D01*
X173890Y366026D01*
X173199Y367222D01*
X172222Y368199D01*
X171336Y368711D01*
Y369289D01*
X172222Y369800D01*
X173199Y370778D01*
X173890Y371974D01*
X174248Y373309D01*
Y374691D01*
X173890Y376026D01*
X173199Y377222D01*
X172222Y378200D01*
X171026Y378890D01*
X169691Y379248D01*
D02*
G37*
G36*
X108691D02*
X107309D01*
X105974Y378890D01*
X104778Y378200D01*
X103800Y377222D01*
X103110Y376026D01*
X102752Y374691D01*
Y373309D01*
X103110Y371974D01*
X103800Y370778D01*
X104778Y369800D01*
X105664Y369289D01*
Y368711D01*
X104778Y368199D01*
X103800Y367222D01*
X103110Y366026D01*
X102752Y364691D01*
Y363309D01*
X103110Y361974D01*
X103800Y360778D01*
X104778Y359801D01*
X104898Y359731D01*
X104769Y359248D01*
X102752D01*
Y348752D01*
X113248D01*
Y359248D01*
X111231D01*
X111102Y359731D01*
X111222Y359801D01*
X112199Y360778D01*
X112890Y361974D01*
X113248Y363309D01*
Y364691D01*
X112890Y366026D01*
X112199Y367222D01*
X111222Y368199D01*
X110336Y368711D01*
Y369289D01*
X111222Y369800D01*
X112199Y370778D01*
X112890Y371974D01*
X113248Y373309D01*
Y374691D01*
X112890Y376026D01*
X112199Y377222D01*
X111222Y378200D01*
X110026Y378890D01*
X108691Y379248D01*
D02*
G37*
G36*
X49691D02*
X48309D01*
X46974Y378890D01*
X45778Y378200D01*
X44800Y377222D01*
X44110Y376026D01*
X43752Y374691D01*
Y373309D01*
X44110Y371974D01*
X44800Y370778D01*
X45778Y369800D01*
X46664Y369289D01*
Y368711D01*
X45778Y368199D01*
X44800Y367222D01*
X44110Y366026D01*
X43752Y364691D01*
Y363309D01*
X44110Y361974D01*
X44800Y360778D01*
X45778Y359801D01*
X45898Y359731D01*
X45769Y359248D01*
X43752D01*
Y348752D01*
X54248D01*
Y359248D01*
X52231D01*
X52102Y359731D01*
X52222Y359801D01*
X53199Y360778D01*
X53890Y361974D01*
X54248Y363309D01*
Y364691D01*
X53890Y366026D01*
X53199Y367222D01*
X52222Y368199D01*
X51336Y368711D01*
Y369289D01*
X52222Y369800D01*
X53199Y370778D01*
X53890Y371974D01*
X54248Y373309D01*
Y374691D01*
X53890Y376026D01*
X53199Y377222D01*
X52222Y378200D01*
X51026Y378890D01*
X49691Y379248D01*
D02*
G37*
G36*
X228320Y378793D02*
X226938D01*
X225603Y378435D01*
X224406Y377744D01*
X223429Y376767D01*
X222738Y375570D01*
X222381Y374236D01*
Y372854D01*
X222738Y371519D01*
X223429Y370322D01*
X224406Y369345D01*
X225293Y368833D01*
Y368256D01*
X224406Y367744D01*
X223429Y366767D01*
X222738Y365570D01*
X222381Y364236D01*
Y362854D01*
X222738Y361519D01*
X223429Y360322D01*
X224406Y359345D01*
X224527Y359276D01*
X224397Y358793D01*
X222381D01*
Y348297D01*
X232877D01*
Y358793D01*
X230860D01*
X230731Y359276D01*
X230851Y359345D01*
X231828Y360322D01*
X232519Y361519D01*
X232877Y362854D01*
Y364236D01*
X232519Y365570D01*
X231828Y366767D01*
X230851Y367744D01*
X229965Y368256D01*
Y368833D01*
X230851Y369345D01*
X231828Y370322D01*
X232519Y371519D01*
X232877Y372854D01*
Y374236D01*
X232519Y375570D01*
X231828Y376767D01*
X230851Y377744D01*
X229655Y378435D01*
X228320Y378793D01*
D02*
G37*
G36*
X349191Y378748D02*
X347809D01*
X346474Y378390D01*
X345278Y377699D01*
X344301Y376722D01*
X343610Y375526D01*
X343252Y374191D01*
Y372809D01*
X343610Y371474D01*
X344301Y370278D01*
X345278Y369301D01*
X346164Y368789D01*
Y368211D01*
X345278Y367700D01*
X344301Y366722D01*
X343610Y365526D01*
X343252Y364191D01*
Y362809D01*
X343610Y361474D01*
X344301Y360278D01*
X345278Y359300D01*
X345398Y359231D01*
X345269Y358748D01*
X343252D01*
Y348252D01*
X353748D01*
Y358748D01*
X351731D01*
X351602Y359231D01*
X351722Y359300D01*
X352699Y360278D01*
X353390Y361474D01*
X353748Y362809D01*
Y364191D01*
X353390Y365526D01*
X352699Y366722D01*
X351722Y367700D01*
X350836Y368211D01*
Y368789D01*
X351722Y369301D01*
X352699Y370278D01*
X353390Y371474D01*
X353748Y372809D01*
Y374191D01*
X353390Y375526D01*
X352699Y376722D01*
X351722Y377699D01*
X350526Y378390D01*
X349191Y378748D01*
D02*
G37*
G36*
X290191D02*
X288809D01*
X287474Y378390D01*
X286278Y377699D01*
X285300Y376722D01*
X284610Y375526D01*
X284252Y374191D01*
Y372809D01*
X284610Y371474D01*
X285300Y370278D01*
X286278Y369301D01*
X287164Y368789D01*
Y368211D01*
X286278Y367700D01*
X285300Y366722D01*
X284610Y365526D01*
X284252Y364191D01*
Y362809D01*
X284610Y361474D01*
X285300Y360278D01*
X286278Y359300D01*
X286398Y359231D01*
X286269Y358748D01*
X284252D01*
Y348252D01*
X294748D01*
Y358748D01*
X292731D01*
X292602Y359231D01*
X292722Y359300D01*
X293700Y360278D01*
X294390Y361474D01*
X294748Y362809D01*
Y364191D01*
X294390Y365526D01*
X293700Y366722D01*
X292722Y367700D01*
X291836Y368211D01*
Y368789D01*
X292722Y369301D01*
X293700Y370278D01*
X294390Y371474D01*
X294748Y372809D01*
Y374191D01*
X294390Y375526D01*
X293700Y376722D01*
X292722Y377699D01*
X291526Y378390D01*
X290191Y378748D01*
D02*
G37*
G36*
X463877Y349803D02*
X461268D01*
Y347194D01*
X461845Y347348D01*
X462630Y347801D01*
X463270Y348441D01*
X463723Y349225D01*
X463877Y349803D01*
D02*
G37*
G36*
X467642D02*
X465033D01*
X465187Y349225D01*
X465640Y348441D01*
X466281Y347801D01*
X467065Y347348D01*
X467642Y347194D01*
Y349803D01*
D02*
G37*
G36*
X459768D02*
X457159D01*
X457313Y349225D01*
X457766Y348441D01*
X458406Y347801D01*
X459191Y347348D01*
X459768Y347194D01*
Y349803D01*
D02*
G37*
G36*
X409700Y350694D02*
X399204D01*
Y340198D01*
X401221D01*
X401350Y339715D01*
X401230Y339645D01*
X400253Y338668D01*
X399562Y337472D01*
X399204Y336137D01*
Y334755D01*
X399562Y333420D01*
X400253Y332224D01*
X401230Y331246D01*
X402427Y330556D01*
X403761Y330198D01*
X405143D01*
X406478Y330556D01*
X407675Y331246D01*
X408652Y332224D01*
X409343Y333420D01*
X409700Y334755D01*
Y336137D01*
X409343Y337472D01*
X408652Y338668D01*
X407675Y339645D01*
X407554Y339715D01*
X407684Y340198D01*
X409700D01*
Y350694D01*
D02*
G37*
G36*
X397700D02*
X387204D01*
Y340198D01*
X389221D01*
X389350Y339715D01*
X389230Y339645D01*
X388253Y338668D01*
X387562Y337472D01*
X387204Y336137D01*
Y334755D01*
X387562Y333420D01*
X388253Y332224D01*
X389230Y331246D01*
X390427Y330556D01*
X391761Y330198D01*
X393143D01*
X394478Y330556D01*
X395675Y331246D01*
X396652Y332224D01*
X397343Y333420D01*
X397700Y334755D01*
Y336137D01*
X397343Y337472D01*
X396652Y338668D01*
X395675Y339645D01*
X395554Y339715D01*
X395684Y340198D01*
X397700D01*
Y350694D01*
D02*
G37*
G36*
X419700Y328748D02*
X409204D01*
Y326731D01*
X408721Y326602D01*
X408652Y326722D01*
X407675Y327699D01*
X406478Y328390D01*
X405143Y328748D01*
X403761D01*
X402427Y328390D01*
X401230Y327699D01*
X400253Y326722D01*
X399562Y325526D01*
X399204Y324191D01*
Y322809D01*
X399562Y321474D01*
X400253Y320278D01*
X401230Y319301D01*
X402427Y318610D01*
X403761Y318252D01*
X405143D01*
X406478Y318610D01*
X407675Y319301D01*
X408652Y320278D01*
X408721Y320398D01*
X409204Y320269D01*
Y318252D01*
X419700D01*
Y328748D01*
D02*
G37*
G36*
X316500Y317800D02*
X315943D01*
X315428Y317587D01*
X315035Y317193D01*
X314822Y316679D01*
Y316122D01*
X315035Y315607D01*
X315428Y315213D01*
X315943Y315000D01*
X316500D01*
X317015Y315213D01*
X317408Y315607D01*
X317621Y316122D01*
Y316679D01*
X317408Y317193D01*
X317015Y317587D01*
X316500Y317800D01*
D02*
G37*
G36*
X213970Y320165D02*
X212589D01*
X211254Y319808D01*
X210057Y319117D01*
X209080Y318140D01*
X208389Y316943D01*
X208031Y315608D01*
Y314227D01*
X208389Y312892D01*
X209080Y311695D01*
X210057Y310718D01*
X210177Y310648D01*
X210048Y310166D01*
X208031D01*
Y299669D01*
X218527D01*
Y310166D01*
X216511D01*
X216381Y310648D01*
X216502Y310718D01*
X217479Y311695D01*
X218170Y312892D01*
X218527Y314227D01*
Y315608D01*
X218170Y316943D01*
X217479Y318140D01*
X216502Y319117D01*
X215305Y319808D01*
X213970Y320165D01*
D02*
G37*
G36*
X279278Y300900D02*
X278721D01*
X278207Y300687D01*
X277813Y300293D01*
X277600Y299779D01*
Y299221D01*
X277813Y298707D01*
X278207Y298313D01*
X278721Y298100D01*
X279278D01*
X279793Y298313D01*
X280187Y298707D01*
X280400Y299221D01*
Y299779D01*
X280187Y300293D01*
X279793Y300687D01*
X279278Y300900D01*
D02*
G37*
G36*
X315778D02*
X315222D01*
X314707Y300687D01*
X314313Y300293D01*
X314100Y299779D01*
Y299221D01*
X314313Y298707D01*
X314707Y298313D01*
X315222Y298100D01*
X315697D01*
X315857Y297878D01*
X315943Y297638D01*
X315863Y297559D01*
X315650Y297044D01*
Y296487D01*
X315863Y295973D01*
X316257Y295579D01*
X316772Y295366D01*
X317329D01*
X317843Y295579D01*
X318237Y295973D01*
X318450Y296487D01*
Y297044D01*
X318237Y297559D01*
X317843Y297953D01*
X317329Y298166D01*
X316853D01*
X316693Y298388D01*
X316608Y298628D01*
X316687Y298707D01*
X316900Y299221D01*
Y299779D01*
X316687Y300293D01*
X316293Y300687D01*
X315778Y300900D01*
D02*
G37*
G36*
X280978Y297400D02*
X280421D01*
X279907Y297187D01*
X279513Y296793D01*
X279300Y296279D01*
Y295722D01*
X279513Y295207D01*
X279907Y294813D01*
X280421Y294600D01*
X280978D01*
X281493Y294813D01*
X281887Y295207D01*
X282100Y295722D01*
Y296279D01*
X281887Y296793D01*
X281493Y297187D01*
X280978Y297400D01*
D02*
G37*
G36*
X69685Y324349D02*
X59189D01*
Y313853D01*
X61206D01*
X61335Y313370D01*
X61215Y313300D01*
X60237Y312323D01*
X59547Y311126D01*
X59189Y309791D01*
Y308410D01*
X59547Y307075D01*
X60237Y305878D01*
X61215Y304901D01*
X62101Y304389D01*
Y303812D01*
X61215Y303300D01*
X60237Y302323D01*
X59547Y301126D01*
X59189Y299792D01*
Y298410D01*
X59547Y297075D01*
X60237Y295878D01*
X61215Y294901D01*
X62411Y294210D01*
X63746Y293853D01*
X65128D01*
X66463Y294210D01*
X67659Y294901D01*
X68637Y295878D01*
X69327Y297075D01*
X69685Y298410D01*
Y299792D01*
X69327Y301126D01*
X68637Y302323D01*
X67659Y303300D01*
X66773Y303812D01*
Y304389D01*
X67659Y304901D01*
X68637Y305878D01*
X69327Y307075D01*
X69685Y308410D01*
Y309791D01*
X69327Y311126D01*
X68637Y312323D01*
X67659Y313300D01*
X67539Y313370D01*
X67668Y313853D01*
X69685D01*
Y324349D01*
D02*
G37*
G36*
X136156Y324349D02*
X125660D01*
Y313853D01*
X127677D01*
X127806Y313370D01*
X127686Y313300D01*
X126709Y312323D01*
X126018Y311126D01*
X125660Y309791D01*
Y308410D01*
X126018Y307075D01*
X126709Y305878D01*
X127686Y304901D01*
X128572Y304389D01*
Y303812D01*
X127686Y303300D01*
X126709Y302323D01*
X126018Y301126D01*
X125660Y299792D01*
Y298410D01*
X126018Y297075D01*
X126709Y295878D01*
X127686Y294901D01*
X128882Y294210D01*
X130217Y293853D01*
X131599D01*
X132934Y294210D01*
X134131Y294901D01*
X135108Y295878D01*
X135799Y297075D01*
X136156Y298410D01*
Y299792D01*
X135799Y301126D01*
X135108Y302323D01*
X134131Y303300D01*
X133244Y303812D01*
Y304389D01*
X134131Y304901D01*
X135108Y305878D01*
X135799Y307075D01*
X136156Y308410D01*
Y309791D01*
X135799Y311126D01*
X135108Y312323D01*
X134131Y313300D01*
X134010Y313370D01*
X134139Y313853D01*
X136156D01*
Y324349D01*
D02*
G37*
G36*
X176026Y309213D02*
X174645D01*
X173310Y308855D01*
X172113Y308164D01*
X171136Y307187D01*
X170445Y305991D01*
X170088Y304656D01*
Y303274D01*
X170445Y301939D01*
X171136Y300743D01*
X172113Y299765D01*
X172234Y299696D01*
X172104Y299213D01*
X170088D01*
Y288717D01*
X180584D01*
Y299213D01*
X178567D01*
X178437Y299696D01*
X178558Y299765D01*
X179535Y300743D01*
X180226Y301939D01*
X180584Y303274D01*
Y304656D01*
X180226Y305991D01*
X179535Y307187D01*
X178558Y308164D01*
X177361Y308855D01*
X176026Y309213D01*
D02*
G37*
G36*
X784285Y307277D02*
X782421D01*
X780580Y306986D01*
X778807Y306410D01*
X777146Y305563D01*
X775638Y304468D01*
X774320Y303150D01*
X773224Y301642D01*
X772378Y299981D01*
X771802Y298208D01*
X771510Y296367D01*
Y294503D01*
X771802Y292662D01*
X772378Y290889D01*
X773224Y289228D01*
X774320Y287720D01*
X775638Y286402D01*
X777146Y285306D01*
X778807Y284460D01*
X780580Y283884D01*
X782421Y283592D01*
X784285D01*
X786126Y283884D01*
X787899Y284460D01*
X789560Y285306D01*
X791068Y286402D01*
X792386Y287720D01*
X793481Y289228D01*
X794328Y290889D01*
X794904Y292662D01*
X795195Y294503D01*
Y296367D01*
X794904Y298208D01*
X794328Y299981D01*
X793481Y301642D01*
X792386Y303150D01*
X791068Y304468D01*
X789560Y305563D01*
X787899Y306410D01*
X786126Y306986D01*
X784285Y307277D01*
D02*
G37*
G36*
X213970Y297165D02*
X212589D01*
X211254Y296808D01*
X210057Y296117D01*
X209080Y295140D01*
X208389Y293943D01*
X208031Y292608D01*
Y291227D01*
X208389Y289892D01*
X209080Y288695D01*
X210057Y287718D01*
X210177Y287649D01*
X210048Y287165D01*
X208031D01*
Y276669D01*
X218527D01*
Y287165D01*
X216511D01*
X216381Y287649D01*
X216502Y287718D01*
X217479Y288695D01*
X218170Y289892D01*
X218527Y291227D01*
Y292608D01*
X218170Y293943D01*
X217479Y295140D01*
X216502Y296117D01*
X215305Y296808D01*
X213970Y297165D01*
D02*
G37*
G36*
X668686Y283549D02*
X667633D01*
X666616Y283276D01*
X665704Y282750D01*
X664959Y282005D01*
X664432Y281093D01*
X664160Y280076D01*
Y279022D01*
X664432Y278005D01*
X664959Y277093D01*
X665704Y276348D01*
X666616Y275821D01*
X667633Y275549D01*
X668686D01*
X669704Y275821D01*
X670616Y276348D01*
X671361Y277093D01*
X671887Y278005D01*
X672160Y279022D01*
Y280076D01*
X671887Y281093D01*
X671361Y282005D01*
X670616Y282750D01*
X669704Y283276D01*
X668686Y283549D01*
D02*
G37*
G36*
X532954D02*
X531901D01*
X530884Y283276D01*
X529971Y282750D01*
X529227Y282005D01*
X528700Y281093D01*
X528427Y280076D01*
Y279022D01*
X528700Y278005D01*
X529227Y277093D01*
X529971Y276348D01*
X530884Y275821D01*
X531901Y275549D01*
X532954D01*
X533971Y275821D01*
X534883Y276348D01*
X535628Y277093D01*
X536155Y278005D01*
X536427Y279022D01*
Y280076D01*
X536155Y281093D01*
X535628Y282005D01*
X534883Y282750D01*
X533971Y283276D01*
X532954Y283549D01*
D02*
G37*
G36*
X176026Y286213D02*
X174645D01*
X173310Y285855D01*
X172113Y285164D01*
X171136Y284187D01*
X170445Y282991D01*
X170088Y281656D01*
Y280274D01*
X170445Y278939D01*
X171136Y277743D01*
X172113Y276765D01*
X172234Y276696D01*
X172104Y276213D01*
X170088D01*
Y265717D01*
X180584D01*
Y276213D01*
X178567D01*
X178437Y276696D01*
X178558Y276765D01*
X179535Y277743D01*
X180226Y278939D01*
X180584Y280274D01*
Y281656D01*
X180226Y282991D01*
X179535Y284187D01*
X178558Y285164D01*
X177361Y285855D01*
X176026Y286213D01*
D02*
G37*
G36*
X401278Y264200D02*
X400722D01*
X400207Y263987D01*
X399813Y263593D01*
X399600Y263078D01*
Y262522D01*
X399813Y262007D01*
X400207Y261613D01*
X400722Y261400D01*
X401278D01*
X401793Y261613D01*
X402187Y262007D01*
X402400Y262522D01*
Y263078D01*
X402187Y263593D01*
X401793Y263987D01*
X401278Y264200D01*
D02*
G37*
G36*
X397278Y261900D02*
X396722D01*
X396207Y261687D01*
X395813Y261293D01*
X395600Y260778D01*
Y260222D01*
X395813Y259707D01*
X396207Y259313D01*
X396722Y259100D01*
X397278D01*
X397793Y259313D01*
X398187Y259707D01*
X398400Y260222D01*
Y260778D01*
X398187Y261293D01*
X397793Y261687D01*
X397278Y261900D01*
D02*
G37*
G36*
X399578Y257600D02*
X399022D01*
X398507Y257387D01*
X398113Y256993D01*
X397900Y256479D01*
Y255922D01*
X398113Y255407D01*
X398507Y255013D01*
X399022Y254800D01*
X399578D01*
X400093Y255013D01*
X400487Y255407D01*
X400700Y255922D01*
Y256479D01*
X400487Y256993D01*
X400093Y257387D01*
X399578Y257600D01*
D02*
G37*
G36*
X403779Y257400D02*
X403222D01*
X402707Y257187D01*
X402313Y256793D01*
X402100Y256278D01*
Y255721D01*
X402313Y255207D01*
X402707Y254813D01*
X403222Y254600D01*
X403779D01*
X404293Y254813D01*
X404687Y255207D01*
X404900Y255721D01*
Y256278D01*
X404687Y256793D01*
X404293Y257187D01*
X403779Y257400D01*
D02*
G37*
G36*
X213970Y274166D02*
X212589D01*
X211254Y273808D01*
X210057Y273117D01*
X209080Y272140D01*
X208389Y270943D01*
X208031Y269608D01*
Y268227D01*
X208389Y266892D01*
X209080Y265695D01*
X210057Y264718D01*
X210177Y264649D01*
X210048Y264165D01*
X208031D01*
Y253669D01*
X218527D01*
Y264165D01*
X216511D01*
X216381Y264649D01*
X216502Y264718D01*
X217479Y265695D01*
X218170Y266892D01*
X218527Y268227D01*
Y269608D01*
X218170Y270943D01*
X217479Y272140D01*
X216502Y273117D01*
X215305Y273808D01*
X213970Y274166D01*
D02*
G37*
G36*
X522704Y255900D02*
X522147D01*
X521632Y255687D01*
X521238Y255293D01*
X521025Y254779D01*
Y254222D01*
X521238Y253707D01*
X521632Y253313D01*
X522147Y253100D01*
X522704D01*
X523218Y253313D01*
X523612Y253707D01*
X523825Y254222D01*
Y254779D01*
X523612Y255293D01*
X523218Y255687D01*
X522704Y255900D01*
D02*
G37*
G36*
X283290Y250379D02*
X282733D01*
X282218Y250166D01*
X281824Y249772D01*
X281611Y249258D01*
Y248701D01*
X281824Y248186D01*
X282218Y247792D01*
X282733Y247579D01*
X283290D01*
X283804Y247792D01*
X284198Y248186D01*
X284411Y248701D01*
Y249258D01*
X284198Y249772D01*
X283804Y250166D01*
X283290Y250379D01*
D02*
G37*
G36*
X280384Y246464D02*
X279827D01*
X279312Y246251D01*
X278919Y245857D01*
X278706Y245343D01*
Y244786D01*
X278919Y244271D01*
X279312Y243877D01*
X279827Y243664D01*
X280384D01*
X280899Y243877D01*
X281292Y244271D01*
X281505Y244786D01*
Y245343D01*
X281292Y245857D01*
X280899Y246251D01*
X280384Y246464D01*
D02*
G37*
G36*
X176026Y263213D02*
X174645D01*
X173310Y262855D01*
X172113Y262164D01*
X171136Y261187D01*
X170445Y259991D01*
X170088Y258656D01*
Y257274D01*
X170445Y255939D01*
X171136Y254743D01*
X172113Y253766D01*
X172234Y253696D01*
X172104Y253213D01*
X170088D01*
Y242717D01*
X180584D01*
Y253213D01*
X178567D01*
X178437Y253696D01*
X178558Y253766D01*
X179535Y254743D01*
X180226Y255939D01*
X180584Y257274D01*
Y258656D01*
X180226Y259991D01*
X179535Y261187D01*
X178558Y262164D01*
X177361Y262855D01*
X176026Y263213D01*
D02*
G37*
G36*
X319000Y252141D02*
X317675Y251966D01*
X316441Y251455D01*
X315380Y250641D01*
X314567Y249581D01*
X314055Y248346D01*
X313881Y247022D01*
X314055Y245697D01*
X314567Y244462D01*
X315380Y243402D01*
X316441Y242588D01*
X317675Y242077D01*
X319000Y241903D01*
X320325Y242077D01*
X321560Y242588D01*
X322620Y243402D01*
X323433Y244462D01*
X323944Y245697D01*
X324119Y247022D01*
X323944Y248346D01*
X323433Y249581D01*
X322620Y250641D01*
X321560Y251455D01*
X320325Y251966D01*
X319000Y252141D01*
D02*
G37*
G36*
X283290Y244474D02*
X282733D01*
X282218Y244261D01*
X281824Y243867D01*
X281611Y243352D01*
Y242795D01*
X281824Y242281D01*
X282218Y241887D01*
X282733Y241674D01*
X283290D01*
X283804Y241887D01*
X284198Y242281D01*
X284411Y242795D01*
Y243352D01*
X284198Y243867D01*
X283804Y244261D01*
X283290Y244474D01*
D02*
G37*
G36*
X280384Y242527D02*
X279827D01*
X279312Y242314D01*
X278919Y241920D01*
X278706Y241406D01*
Y240849D01*
X278919Y240334D01*
X279312Y239940D01*
X279827Y239727D01*
X280384D01*
X280899Y239940D01*
X281292Y240334D01*
X281505Y240849D01*
Y241406D01*
X281292Y241920D01*
X280899Y242314D01*
X280384Y242527D01*
D02*
G37*
G36*
X283290Y240537D02*
X282733D01*
X282218Y240323D01*
X281824Y239930D01*
X281611Y239415D01*
Y238858D01*
X281824Y238344D01*
X282218Y237950D01*
X282733Y237737D01*
X283290D01*
X283804Y237950D01*
X284198Y238344D01*
X284411Y238858D01*
Y239415D01*
X284198Y239930D01*
X283804Y240323D01*
X283290Y240537D01*
D02*
G37*
G36*
X280384Y238590D02*
X279827D01*
X279312Y238377D01*
X278919Y237983D01*
X278706Y237469D01*
Y236912D01*
X278919Y236397D01*
X279312Y236003D01*
X279827Y235790D01*
X280384D01*
X280899Y236003D01*
X281292Y236397D01*
X281505Y236912D01*
Y237469D01*
X281292Y237983D01*
X280899Y238377D01*
X280384Y238590D01*
D02*
G37*
G36*
X283207Y236682D02*
X282650D01*
X282136Y236469D01*
X281742Y236075D01*
X281529Y235560D01*
Y235003D01*
X281742Y234489D01*
X282136Y234095D01*
X282650Y233882D01*
X283207D01*
X283722Y234095D01*
X284116Y234489D01*
X284329Y235003D01*
Y235560D01*
X284116Y236075D01*
X283722Y236469D01*
X283207Y236682D01*
D02*
G37*
G36*
X279448Y234795D02*
X278891D01*
X278376Y234582D01*
X277982Y234188D01*
X277769Y233673D01*
Y233116D01*
X277982Y232602D01*
X278376Y232208D01*
X278891Y231995D01*
X279448D01*
X279962Y232208D01*
X280356Y232602D01*
X280569Y233116D01*
Y233673D01*
X280356Y234188D01*
X279962Y234582D01*
X279448Y234795D01*
D02*
G37*
G36*
X213970Y251166D02*
X212589D01*
X211254Y250808D01*
X210057Y250117D01*
X209080Y249140D01*
X208389Y247943D01*
X208031Y246608D01*
Y245227D01*
X208389Y243892D01*
X209080Y242695D01*
X210057Y241718D01*
X210177Y241649D01*
X210048Y241165D01*
X208031D01*
Y230669D01*
X218527D01*
Y241165D01*
X216511D01*
X216381Y241649D01*
X216502Y241718D01*
X217479Y242695D01*
X218170Y243892D01*
X218527Y245227D01*
Y246608D01*
X218170Y247943D01*
X217479Y249140D01*
X216502Y250117D01*
X215305Y250808D01*
X213970Y251166D01*
D02*
G37*
G36*
X283278Y232652D02*
X282721D01*
X282207Y232438D01*
X281813Y232045D01*
X281600Y231530D01*
Y230973D01*
X281813Y230458D01*
X282207Y230065D01*
X282721Y229852D01*
X283278D01*
X283793Y230065D01*
X284187Y230458D01*
X284400Y230973D01*
Y231530D01*
X284187Y232045D01*
X283793Y232438D01*
X283278Y232652D01*
D02*
G37*
G36*
X282706Y228728D02*
X282149D01*
X281635Y228515D01*
X281241Y228121D01*
X281028Y227606D01*
Y227049D01*
X281241Y226535D01*
X281635Y226141D01*
X282149Y225928D01*
X282706D01*
X283221Y226141D01*
X283615Y226535D01*
X283828Y227049D01*
Y227606D01*
X283615Y228121D01*
X283221Y228515D01*
X282706Y228728D01*
D02*
G37*
G36*
X283278Y224647D02*
X282721D01*
X282207Y224434D01*
X281825Y224052D01*
X281757Y224091D01*
X280994Y224296D01*
X280205D01*
X279441Y224091D01*
X278757Y223696D01*
X278199Y223138D01*
X277804Y222454D01*
X277599Y221691D01*
Y220901D01*
X277804Y220138D01*
X278199Y219454D01*
X278389Y219264D01*
X278199Y219074D01*
X277804Y218390D01*
X277599Y217627D01*
Y216837D01*
X277804Y216073D01*
X278199Y215389D01*
X278262Y215327D01*
X278199Y215264D01*
X277804Y214580D01*
X277599Y213817D01*
Y213027D01*
X277804Y212264D01*
X278199Y211580D01*
X278757Y211021D01*
X279087Y210831D01*
X279126Y210532D01*
X278913Y210018D01*
Y209461D01*
X279126Y208946D01*
X279520Y208553D01*
X280035Y208340D01*
X280592D01*
X281106Y208553D01*
X281181Y208627D01*
X281309Y208603D01*
X281424Y208522D01*
X281645Y208034D01*
X281600Y207926D01*
Y207369D01*
X281645Y207262D01*
X281221Y206978D01*
X281200Y206999D01*
X280686Y207212D01*
X280129D01*
X279614Y206999D01*
X279221Y206605D01*
X279007Y206090D01*
Y205533D01*
X279221Y205019D01*
X279614Y204625D01*
X280129Y204412D01*
X280686D01*
X281200Y204625D01*
X281594Y205019D01*
X281807Y205533D01*
Y206090D01*
X281763Y206198D01*
X282187Y206481D01*
X282207Y206460D01*
X282721Y206247D01*
X283278D01*
X283793Y206460D01*
X284187Y206854D01*
X284400Y207369D01*
Y207926D01*
X284249Y208291D01*
X284211Y208495D01*
X284407Y208928D01*
X284842Y209179D01*
X285401Y209738D01*
X285796Y210422D01*
X286000Y211185D01*
Y211975D01*
X285796Y212738D01*
X285401Y213422D01*
X285338Y213485D01*
X285401Y213547D01*
X285796Y214231D01*
X286000Y214995D01*
Y215784D01*
X285796Y216547D01*
X285401Y217231D01*
X285219Y217413D01*
X285255Y217450D01*
X285650Y218134D01*
X285854Y218897D01*
Y219687D01*
X285650Y220450D01*
X285255Y221134D01*
X284696Y221692D01*
X284338Y221899D01*
X284187Y222454D01*
X284400Y222969D01*
Y223526D01*
X284187Y224040D01*
X283793Y224434D01*
X283278Y224647D01*
D02*
G37*
G36*
X176026Y240213D02*
X174645D01*
X173310Y239855D01*
X172113Y239164D01*
X171136Y238187D01*
X170445Y236991D01*
X170088Y235656D01*
Y234274D01*
X170445Y232939D01*
X171136Y231743D01*
X172113Y230766D01*
X172234Y230696D01*
X172104Y230213D01*
X170088D01*
Y219717D01*
X180584D01*
Y230213D01*
X178567D01*
X178437Y230696D01*
X178558Y230766D01*
X179535Y231743D01*
X180226Y232939D01*
X180584Y234274D01*
Y235656D01*
X180226Y236991D01*
X179535Y238187D01*
X178558Y239164D01*
X177361Y239855D01*
X176026Y240213D01*
D02*
G37*
G36*
X50711Y220824D02*
X50154D01*
X49640Y220610D01*
X49246Y220217D01*
X49033Y219702D01*
Y219145D01*
X49246Y218631D01*
X49640Y218237D01*
X50154Y218023D01*
X50711D01*
X51226Y218237D01*
X51620Y218631D01*
X51833Y219145D01*
Y219702D01*
X51620Y220217D01*
X51226Y220610D01*
X50711Y220824D01*
D02*
G37*
G36*
X48243Y218320D02*
X47686D01*
X47171Y218107D01*
X46777Y217713D01*
X46564Y217199D01*
Y216642D01*
X46777Y216127D01*
X47171Y215733D01*
X47686Y215520D01*
X48243D01*
X48757Y215733D01*
X49151Y216127D01*
X49364Y216642D01*
Y217199D01*
X49151Y217713D01*
X48757Y218107D01*
X48243Y218320D01*
D02*
G37*
G36*
X109174Y216399D02*
X108617D01*
X108103Y216186D01*
X107709Y215792D01*
X107496Y215277D01*
Y214720D01*
X107709Y214206D01*
X108103Y213812D01*
X108617Y213599D01*
X109174D01*
X109689Y213812D01*
X110082Y214206D01*
X110296Y214720D01*
Y215277D01*
X110082Y215792D01*
X109689Y216186D01*
X109174Y216399D01*
D02*
G37*
G36*
X106689Y213912D02*
X106132D01*
X105618Y213699D01*
X105224Y213305D01*
X105011Y212790D01*
Y212233D01*
X105224Y211719D01*
X105618Y211325D01*
X106132Y211112D01*
X106689D01*
X107204Y211325D01*
X107597Y211719D01*
X107811Y212233D01*
Y212790D01*
X107597Y213305D01*
X107204Y213699D01*
X106689Y213912D01*
D02*
G37*
G36*
X213970Y228166D02*
X212589D01*
X211254Y227808D01*
X210057Y227117D01*
X209080Y226140D01*
X208389Y224943D01*
X208031Y223608D01*
Y222227D01*
X208389Y220892D01*
X209080Y219695D01*
X210057Y218718D01*
X210177Y218649D01*
X210048Y218165D01*
X208031D01*
Y207669D01*
X218527D01*
Y218165D01*
X216511D01*
X216381Y218649D01*
X216502Y218718D01*
X217479Y219695D01*
X218170Y220892D01*
X218527Y222227D01*
Y223608D01*
X218170Y224943D01*
X217479Y226140D01*
X216502Y227117D01*
X215305Y227808D01*
X213970Y228166D01*
D02*
G37*
G36*
X319000Y212771D02*
X317675Y212596D01*
X316441Y212085D01*
X315380Y211271D01*
X314567Y210211D01*
X314055Y208977D01*
X313881Y207652D01*
X314055Y206327D01*
X314567Y205092D01*
X315380Y204032D01*
X316441Y203218D01*
X317675Y202707D01*
X319000Y202533D01*
X320325Y202707D01*
X321560Y203218D01*
X322620Y204032D01*
X323433Y205092D01*
X323944Y206327D01*
X324119Y207652D01*
X323944Y208977D01*
X323433Y210211D01*
X322620Y211271D01*
X321560Y212085D01*
X320325Y212596D01*
X319000Y212771D01*
D02*
G37*
G36*
X283485Y205183D02*
X282928D01*
X282413Y204970D01*
X282019Y204576D01*
X281806Y204062D01*
Y203505D01*
X282019Y202990D01*
X282413Y202596D01*
X282928Y202383D01*
X283485D01*
X283999Y202596D01*
X284393Y202990D01*
X284606Y203505D01*
Y204062D01*
X284393Y204576D01*
X283999Y204970D01*
X283485Y205183D01*
D02*
G37*
G36*
X176026Y217213D02*
X174645D01*
X173310Y216855D01*
X172113Y216164D01*
X171136Y215187D01*
X170445Y213991D01*
X170088Y212656D01*
Y211274D01*
X170445Y209939D01*
X171136Y208742D01*
X172113Y207766D01*
X172234Y207696D01*
X172104Y207213D01*
X170088D01*
Y196717D01*
X180584D01*
Y207213D01*
X178567D01*
X178437Y207696D01*
X178558Y207766D01*
X179535Y208742D01*
X180226Y209939D01*
X180584Y211274D01*
Y212656D01*
X180226Y213991D01*
X179535Y215187D01*
X178558Y216164D01*
X177361Y216855D01*
X176026Y217213D01*
D02*
G37*
G36*
X293279Y194637D02*
X292722D01*
X292207Y194423D01*
X291813Y194030D01*
X291600Y193515D01*
Y192958D01*
X291813Y192444D01*
X292207Y192050D01*
X292722Y191837D01*
X293279D01*
X293793Y192050D01*
X294187Y192444D01*
X294400Y192958D01*
Y193515D01*
X294187Y194030D01*
X293793Y194423D01*
X293279Y194637D01*
D02*
G37*
G36*
X342279Y193654D02*
X341722D01*
X341207Y193441D01*
X340813Y193047D01*
X340600Y192533D01*
Y191976D01*
X340813Y191461D01*
X341207Y191067D01*
X341722Y190854D01*
X342279D01*
X342793Y191067D01*
X343187Y191461D01*
X343400Y191976D01*
Y192533D01*
X343187Y193047D01*
X342793Y193441D01*
X342279Y193654D01*
D02*
G37*
G36*
X327216Y192800D02*
X326659D01*
X326144Y192587D01*
X325750Y192193D01*
X325537Y191678D01*
Y191121D01*
X325750Y190607D01*
X326144Y190213D01*
X326659Y190000D01*
X327216D01*
X327730Y190213D01*
X328124Y190607D01*
X328337Y191121D01*
Y191678D01*
X328124Y192193D01*
X327730Y192587D01*
X327216Y192800D01*
D02*
G37*
G36*
X335279Y192737D02*
X334721D01*
X334207Y192524D01*
X333813Y192130D01*
X333600Y191615D01*
Y191058D01*
X333813Y190544D01*
X334207Y190150D01*
X334721Y189937D01*
X335279D01*
X335793Y190150D01*
X336187Y190544D01*
X336400Y191058D01*
Y191615D01*
X336187Y192130D01*
X335793Y192524D01*
X335279Y192737D01*
D02*
G37*
G36*
X331178D02*
X330622D01*
X330107Y192524D01*
X329713Y192130D01*
X329500Y191615D01*
Y191058D01*
X329713Y190544D01*
X330107Y190150D01*
X330622Y189937D01*
X331178D01*
X331693Y190150D01*
X332087Y190544D01*
X332300Y191058D01*
Y191615D01*
X332087Y192130D01*
X331693Y192524D01*
X331178Y192737D01*
D02*
G37*
G36*
X323278D02*
X322722D01*
X322207Y192524D01*
X321813Y192130D01*
X321600Y191615D01*
Y191058D01*
X321813Y190544D01*
X322207Y190150D01*
X322722Y189937D01*
X323278D01*
X323793Y190150D01*
X324187Y190544D01*
X324400Y191058D01*
Y191615D01*
X324187Y192130D01*
X323793Y192524D01*
X323278Y192737D01*
D02*
G37*
G36*
X319279D02*
X318722D01*
X318207Y192524D01*
X317813Y192130D01*
X317600Y191615D01*
Y191058D01*
X317813Y190544D01*
X318207Y190150D01*
X318722Y189937D01*
X319279D01*
X319793Y190150D01*
X320187Y190544D01*
X320400Y191058D01*
Y191615D01*
X320187Y192130D01*
X319793Y192524D01*
X319279Y192737D01*
D02*
G37*
G36*
X309327D02*
X308770D01*
X308255Y192524D01*
X307862Y192130D01*
X307648Y191615D01*
Y191058D01*
X307862Y190544D01*
X308255Y190150D01*
X308770Y189937D01*
X309327D01*
X309841Y190150D01*
X310235Y190544D01*
X310449Y191058D01*
Y191615D01*
X310235Y192130D01*
X309841Y192524D01*
X309327Y192737D01*
D02*
G37*
G36*
X305446D02*
X304889D01*
X304374Y192524D01*
X303980Y192130D01*
X303767Y191615D01*
Y191058D01*
X303980Y190544D01*
X304374Y190150D01*
X304889Y189937D01*
X305446D01*
X305960Y190150D01*
X306354Y190544D01*
X306567Y191058D01*
Y191615D01*
X306354Y192130D01*
X305960Y192524D01*
X305446Y192737D01*
D02*
G37*
G36*
X301646D02*
X301089D01*
X300574Y192524D01*
X300180Y192130D01*
X299967Y191615D01*
Y191058D01*
X300180Y190544D01*
X300574Y190150D01*
X301089Y189937D01*
X301646D01*
X302160Y190150D01*
X302554Y190544D01*
X302767Y191058D01*
Y191615D01*
X302554Y192130D01*
X302160Y192524D01*
X301646Y192737D01*
D02*
G37*
G36*
X297693D02*
X297136D01*
X296622Y192524D01*
X296228Y192130D01*
X296015Y191615D01*
Y191058D01*
X296228Y190544D01*
X296622Y190150D01*
X297136Y189937D01*
X297693D01*
X298208Y190150D01*
X298602Y190544D01*
X298815Y191058D01*
Y191615D01*
X298602Y192130D01*
X298208Y192524D01*
X297693Y192737D01*
D02*
G37*
G36*
X339853Y190969D02*
X339296D01*
X338781Y190756D01*
X338387Y190362D01*
X338174Y189847D01*
Y189290D01*
X338387Y188776D01*
X338781Y188382D01*
X339296Y188169D01*
X339853D01*
X340367Y188382D01*
X340761Y188776D01*
X340974Y189290D01*
Y189847D01*
X340761Y190362D01*
X340367Y190756D01*
X339853Y190969D01*
D02*
G37*
G36*
X313304Y192737D02*
X312748D01*
X312233Y192524D01*
X311839Y192130D01*
X311626Y191615D01*
Y191058D01*
X311755Y190745D01*
X311727Y190413D01*
X311513Y190163D01*
X311198Y190032D01*
X310804Y189639D01*
X310591Y189124D01*
Y188567D01*
X310804Y188052D01*
X311198Y187659D01*
X311713Y187445D01*
X312270D01*
X312784Y187659D01*
X313178Y188052D01*
X313391Y188567D01*
Y189124D01*
X313262Y189437D01*
X313290Y189769D01*
X313504Y190019D01*
X313819Y190150D01*
X314213Y190544D01*
X314426Y191058D01*
Y191615D01*
X314213Y192130D01*
X313819Y192524D01*
X313304Y192737D01*
D02*
G37*
G36*
X317362Y189820D02*
X316805D01*
X316290Y189607D01*
X315897Y189213D01*
X315684Y188698D01*
Y188142D01*
X315897Y187627D01*
X316290Y187233D01*
X316805Y187020D01*
X317362D01*
X317877Y187233D01*
X318270Y187627D01*
X318483Y188142D01*
Y188698D01*
X318270Y189213D01*
X317877Y189607D01*
X317362Y189820D01*
D02*
G37*
G36*
X333278Y189737D02*
X332721D01*
X332207Y189523D01*
X331813Y189130D01*
X331600Y188615D01*
Y188058D01*
X331813Y187544D01*
X332207Y187150D01*
X332721Y186937D01*
X333278D01*
X333793Y187150D01*
X334187Y187544D01*
X334400Y188058D01*
Y188615D01*
X334187Y189130D01*
X333793Y189523D01*
X333278Y189737D01*
D02*
G37*
G36*
X329278D02*
X328721D01*
X328207Y189523D01*
X327813Y189130D01*
X327600Y188615D01*
Y188058D01*
X327813Y187544D01*
X328207Y187150D01*
X328721Y186937D01*
X329278D01*
X329793Y187150D01*
X330187Y187544D01*
X330400Y188058D01*
Y188615D01*
X330187Y189130D01*
X329793Y189523D01*
X329278Y189737D01*
D02*
G37*
G36*
X325278D02*
X324722D01*
X324207Y189523D01*
X323813Y189130D01*
X323600Y188615D01*
Y188058D01*
X323813Y187544D01*
X324207Y187150D01*
X324722Y186937D01*
X325278D01*
X325793Y187150D01*
X326187Y187544D01*
X326400Y188058D01*
Y188615D01*
X326187Y189130D01*
X325793Y189523D01*
X325278Y189737D01*
D02*
G37*
G36*
X321279D02*
X320722D01*
X320207Y189523D01*
X319813Y189130D01*
X319600Y188615D01*
Y188058D01*
X319813Y187544D01*
X320207Y187150D01*
X320722Y186937D01*
X321279D01*
X321793Y187150D01*
X322187Y187544D01*
X322400Y188058D01*
Y188615D01*
X322187Y189130D01*
X321793Y189523D01*
X321279Y189737D01*
D02*
G37*
G36*
X307386D02*
X306830D01*
X306315Y189523D01*
X305921Y189130D01*
X305708Y188615D01*
Y188058D01*
X305921Y187544D01*
X306315Y187150D01*
X306830Y186937D01*
X307386D01*
X307901Y187150D01*
X308295Y187544D01*
X308508Y188058D01*
Y188615D01*
X308295Y189130D01*
X307901Y189523D01*
X307386Y189737D01*
D02*
G37*
G36*
X303466D02*
X302909D01*
X302394Y189523D01*
X302000Y189130D01*
X301787Y188615D01*
Y188058D01*
X302000Y187544D01*
X302394Y187150D01*
X302909Y186937D01*
X303466D01*
X303980Y187150D01*
X304374Y187544D01*
X304587Y188058D01*
Y188615D01*
X304374Y189130D01*
X303980Y189523D01*
X303466Y189737D01*
D02*
G37*
G36*
X299258Y189716D02*
X298701D01*
X298187Y189503D01*
X297793Y189110D01*
X297580Y188595D01*
Y188038D01*
X297793Y187523D01*
X298187Y187130D01*
X298701Y186916D01*
X299258D01*
X299773Y187130D01*
X300167Y187523D01*
X300380Y188038D01*
Y188595D01*
X300167Y189110D01*
X299773Y189503D01*
X299258Y189716D01*
D02*
G37*
G36*
X434351Y196387D02*
X423855D01*
Y185891D01*
X434351D01*
Y196387D01*
D02*
G37*
G36*
X420670D02*
X410174D01*
Y185891D01*
X420670D01*
Y196387D01*
D02*
G37*
G36*
X406727D02*
X396231D01*
Y185891D01*
X406727D01*
Y196387D01*
D02*
G37*
G36*
X213970Y205166D02*
X212589D01*
X211254Y204808D01*
X210057Y204117D01*
X209080Y203140D01*
X208389Y201943D01*
X208031Y200608D01*
Y199226D01*
X208389Y197892D01*
X209080Y196695D01*
X210057Y195718D01*
X210177Y195649D01*
X210048Y195166D01*
X208031D01*
Y184669D01*
X218527D01*
Y195166D01*
X216511D01*
X216381Y195649D01*
X216502Y195718D01*
X217479Y196695D01*
X218170Y197892D01*
X218527Y199226D01*
Y200608D01*
X218170Y201943D01*
X217479Y203140D01*
X216502Y204117D01*
X215305Y204808D01*
X213970Y205166D01*
D02*
G37*
G36*
X402229Y185336D02*
Y181889D01*
X405676D01*
X405437Y182778D01*
X404878Y183747D01*
X404087Y184538D01*
X403118Y185097D01*
X402229Y185336D01*
D02*
G37*
G36*
X400729Y185336D02*
X399839Y185097D01*
X398870Y184538D01*
X398079Y183747D01*
X397520Y182778D01*
X397282Y181889D01*
X400729D01*
Y185336D01*
D02*
G37*
G36*
X429853Y185336D02*
Y181889D01*
X433300D01*
X433061Y182778D01*
X432502Y183747D01*
X431711Y184538D01*
X430743Y185097D01*
X429853Y185336D01*
D02*
G37*
G36*
X416172D02*
Y181889D01*
X419619D01*
X419380Y182778D01*
X418821Y183747D01*
X418030Y184538D01*
X417062Y185097D01*
X416172Y185336D01*
D02*
G37*
G36*
X414672Y185336D02*
X413782Y185097D01*
X412814Y184538D01*
X412023Y183747D01*
X411463Y182778D01*
X411225Y181889D01*
X414672D01*
Y185336D01*
D02*
G37*
G36*
X428353D02*
X427463Y185097D01*
X426494Y184538D01*
X425703Y183747D01*
X425144Y182778D01*
X424906Y181889D01*
X428353D01*
Y185336D01*
D02*
G37*
G36*
X48814Y183854D02*
X48257D01*
X47742Y183641D01*
X47349Y183247D01*
X47135Y182732D01*
Y182175D01*
X47349Y181661D01*
X47742Y181267D01*
X48257Y181054D01*
X48814D01*
X49329Y181267D01*
X49722Y181661D01*
X49935Y182175D01*
Y182732D01*
X49722Y183247D01*
X49329Y183641D01*
X48814Y183854D01*
D02*
G37*
G36*
X66314Y182154D02*
X65757D01*
X65242Y181941D01*
X64849Y181547D01*
X64635Y181032D01*
Y180475D01*
X64849Y179961D01*
X65242Y179567D01*
X65757Y179354D01*
X66314D01*
X66829Y179567D01*
X67222Y179961D01*
X67435Y180475D01*
Y181032D01*
X67222Y181547D01*
X66829Y181941D01*
X66314Y182154D01*
D02*
G37*
G36*
X400729Y180389D02*
X397282D01*
X397520Y179499D01*
X398079Y178530D01*
X398870Y177739D01*
X399839Y177180D01*
X400729Y176942D01*
Y180389D01*
D02*
G37*
G36*
X414672Y180389D02*
X411225D01*
X411463Y179499D01*
X412023Y178530D01*
X412814Y177739D01*
X413782Y177180D01*
X414672Y176942D01*
Y180389D01*
D02*
G37*
G36*
X428353D02*
X424906D01*
X425144Y179499D01*
X425703Y178530D01*
X426494Y177739D01*
X427463Y177180D01*
X428353Y176942D01*
Y180389D01*
D02*
G37*
G36*
X433300D02*
X429853D01*
Y176942D01*
X430743Y177180D01*
X431711Y177739D01*
X432502Y178530D01*
X433061Y179499D01*
X433300Y180389D01*
D02*
G37*
G36*
X419619D02*
X416172D01*
Y176942D01*
X417062Y177180D01*
X418030Y177739D01*
X418821Y178530D01*
X419380Y179499D01*
X419619Y180389D01*
D02*
G37*
G36*
X405676Y180389D02*
X402229D01*
Y176942D01*
X403118Y177180D01*
X404087Y177739D01*
X404878Y178530D01*
X405437Y179499D01*
X405676Y180389D01*
D02*
G37*
G36*
X51118Y179203D02*
X50561D01*
X50046Y178990D01*
X49653Y178596D01*
X49439Y178082D01*
Y177525D01*
X49653Y177010D01*
X50046Y176617D01*
X50561Y176403D01*
X51118D01*
X51632Y176617D01*
X52026Y177010D01*
X52239Y177525D01*
Y178082D01*
X52026Y178596D01*
X51632Y178990D01*
X51118Y179203D01*
D02*
G37*
G36*
X106779Y179100D02*
X106221D01*
X105707Y178887D01*
X105313Y178493D01*
X105100Y177979D01*
Y177421D01*
X105313Y176907D01*
X105707Y176513D01*
X106221Y176300D01*
X106779D01*
X107293Y176513D01*
X107687Y176907D01*
X107900Y177421D01*
Y177979D01*
X107687Y178493D01*
X107293Y178887D01*
X106779Y179100D01*
D02*
G37*
G36*
X125800Y177922D02*
X125243D01*
X124729Y177708D01*
X124335Y177315D01*
X124122Y176800D01*
Y176243D01*
X124335Y175729D01*
X124729Y175335D01*
X125243Y175122D01*
X125800D01*
X126315Y175335D01*
X126708Y175729D01*
X126922Y176243D01*
Y176800D01*
X126708Y177315D01*
X126315Y177708D01*
X125800Y177922D01*
D02*
G37*
G36*
X110156Y177400D02*
X109599D01*
X109084Y177187D01*
X108690Y176793D01*
X108477Y176278D01*
Y175722D01*
X108690Y175207D01*
X109084Y174813D01*
X109599Y174600D01*
X110156D01*
X110670Y174813D01*
X111064Y175207D01*
X111277Y175722D01*
Y176278D01*
X111064Y176793D01*
X110670Y177187D01*
X110156Y177400D01*
D02*
G37*
G36*
X176026Y194213D02*
X174645D01*
X173310Y193855D01*
X172113Y193164D01*
X171136Y192187D01*
X170445Y190991D01*
X170088Y189656D01*
Y188274D01*
X170445Y186939D01*
X171136Y185743D01*
X172113Y184766D01*
X172234Y184696D01*
X172104Y184213D01*
X170088D01*
Y173717D01*
X180584D01*
Y184213D01*
X178567D01*
X178437Y184696D01*
X178558Y184766D01*
X179535Y185743D01*
X180226Y186939D01*
X180584Y188274D01*
Y189656D01*
X180226Y190991D01*
X179535Y192187D01*
X178558Y193164D01*
X177361Y193855D01*
X176026Y194213D01*
D02*
G37*
G36*
X434351Y173863D02*
X423855D01*
Y163367D01*
X434351D01*
Y173863D01*
D02*
G37*
G36*
X420670D02*
X410174D01*
Y163367D01*
X420670D01*
Y173863D01*
D02*
G37*
G36*
X406727D02*
X396231D01*
Y163367D01*
X406727D01*
Y173863D01*
D02*
G37*
G36*
X213970Y182166D02*
X212589D01*
X211254Y181808D01*
X210057Y181117D01*
X209080Y180140D01*
X208389Y178943D01*
X208031Y177608D01*
Y176226D01*
X208389Y174892D01*
X209080Y173695D01*
X210057Y172718D01*
X210177Y172649D01*
X210048Y172166D01*
X208031D01*
Y161669D01*
X218527D01*
Y172166D01*
X216511D01*
X216381Y172649D01*
X216502Y172718D01*
X217479Y173695D01*
X218170Y174892D01*
X218527Y176226D01*
Y177608D01*
X218170Y178943D01*
X217479Y180140D01*
X216502Y181117D01*
X215305Y181808D01*
X213970Y182166D01*
D02*
G37*
G36*
X402229Y162812D02*
Y159365D01*
X405676D01*
X405437Y160254D01*
X404878Y161223D01*
X404087Y162014D01*
X403118Y162573D01*
X402229Y162812D01*
D02*
G37*
G36*
X400729Y162812D02*
X399839Y162573D01*
X398870Y162014D01*
X398079Y161223D01*
X397520Y160254D01*
X397282Y159365D01*
X400729D01*
Y162812D01*
D02*
G37*
G36*
X429853D02*
Y159365D01*
X433300D01*
X433061Y160254D01*
X432502Y161223D01*
X431711Y162014D01*
X430743Y162573D01*
X429853Y162812D01*
D02*
G37*
G36*
X416172D02*
Y159365D01*
X419619D01*
X419380Y160254D01*
X418821Y161223D01*
X418030Y162014D01*
X417062Y162573D01*
X416172Y162812D01*
D02*
G37*
G36*
X414672Y162812D02*
X413782Y162573D01*
X412814Y162014D01*
X412023Y161223D01*
X411463Y160254D01*
X411225Y159365D01*
X414672D01*
Y162812D01*
D02*
G37*
G36*
X428353D02*
X427463Y162573D01*
X426494Y162014D01*
X425703Y161223D01*
X425144Y160254D01*
X424906Y159365D01*
X428353D01*
Y162812D01*
D02*
G37*
G36*
X433300Y157865D02*
X429853D01*
Y154418D01*
X430743Y154656D01*
X431711Y155216D01*
X432502Y156006D01*
X433061Y156975D01*
X433300Y157865D01*
D02*
G37*
G36*
X419619D02*
X416172D01*
Y154418D01*
X417062Y154656D01*
X418030Y155216D01*
X418821Y156006D01*
X419380Y156975D01*
X419619Y157865D01*
D02*
G37*
G36*
X400729Y157865D02*
X397282D01*
X397520Y156975D01*
X398079Y156006D01*
X398870Y155216D01*
X399839Y154656D01*
X400729Y154418D01*
Y157865D01*
D02*
G37*
G36*
X405676D02*
X402229D01*
Y154418D01*
X403118Y154656D01*
X404087Y155216D01*
X404878Y156006D01*
X405437Y156975D01*
X405676Y157865D01*
D02*
G37*
G36*
X414672Y157865D02*
X411225D01*
X411463Y156975D01*
X412023Y156006D01*
X412814Y155216D01*
X413782Y154656D01*
X414672Y154418D01*
Y157865D01*
D02*
G37*
G36*
X428353D02*
X424906D01*
X425144Y156975D01*
X425703Y156006D01*
X426494Y155216D01*
X427463Y154656D01*
X428353Y154418D01*
Y157865D01*
D02*
G37*
G36*
X176026Y171213D02*
X174645D01*
X173310Y170855D01*
X172113Y170164D01*
X171136Y169187D01*
X170445Y167991D01*
X170088Y166656D01*
Y165274D01*
X170445Y163939D01*
X171136Y162743D01*
X172113Y161766D01*
X172234Y161696D01*
X172104Y161213D01*
X170088D01*
Y150717D01*
X180584D01*
Y161213D01*
X178567D01*
X178437Y161696D01*
X178558Y161766D01*
X179535Y162743D01*
X180226Y163939D01*
X180584Y165274D01*
Y166656D01*
X180226Y167991D01*
X179535Y169187D01*
X178558Y170164D01*
X177361Y170855D01*
X176026Y171213D01*
D02*
G37*
G36*
X213970Y159166D02*
X212589D01*
X211254Y158808D01*
X210057Y158117D01*
X209080Y157140D01*
X208389Y155943D01*
X208031Y154608D01*
Y153226D01*
X208389Y151892D01*
X209080Y150695D01*
X210057Y149718D01*
X210177Y149648D01*
X210048Y149165D01*
X208031D01*
Y138669D01*
X218527D01*
Y149165D01*
X216511D01*
X216381Y149648D01*
X216502Y149718D01*
X217479Y150695D01*
X218170Y151892D01*
X218527Y153226D01*
Y154608D01*
X218170Y155943D01*
X217479Y157140D01*
X216502Y158117D01*
X215305Y158808D01*
X213970Y159166D01*
D02*
G37*
G36*
X668686Y126068D02*
X667633D01*
X666616Y125796D01*
X665704Y125269D01*
X664959Y124525D01*
X664432Y123612D01*
X664160Y122595D01*
Y121542D01*
X664432Y120525D01*
X664959Y119613D01*
X665704Y118868D01*
X666616Y118341D01*
X667633Y118069D01*
X668686D01*
X669704Y118341D01*
X670616Y118868D01*
X671361Y119613D01*
X671887Y120525D01*
X672160Y121542D01*
Y122595D01*
X671887Y123612D01*
X671361Y124525D01*
X670616Y125269D01*
X669704Y125796D01*
X668686Y126068D01*
D02*
G37*
G36*
X532954D02*
X531901D01*
X530884Y125796D01*
X529971Y125269D01*
X529227Y124525D01*
X528700Y123612D01*
X528427Y122595D01*
Y121542D01*
X528700Y120525D01*
X529227Y119613D01*
X529971Y118868D01*
X530884Y118341D01*
X531901Y118069D01*
X532954D01*
X533971Y118341D01*
X534883Y118868D01*
X535628Y119613D01*
X536155Y120525D01*
X536427Y121542D01*
Y122595D01*
X536155Y123612D01*
X535628Y124525D01*
X534883Y125269D01*
X533971Y125796D01*
X532954Y126068D01*
D02*
G37*
G36*
X64748Y114585D02*
X54252D01*
Y112568D01*
X53769Y112439D01*
X53699Y112559D01*
X52722Y113536D01*
X51526Y114227D01*
X50191Y114585D01*
X48809D01*
X47474Y114227D01*
X46278Y113536D01*
X45300Y112559D01*
X44610Y111362D01*
X44252Y110028D01*
Y108646D01*
X44610Y107311D01*
X45300Y106114D01*
X46278Y105137D01*
X47474Y104446D01*
X48809Y104089D01*
X50191D01*
X51526Y104446D01*
X52722Y105137D01*
X53699Y106114D01*
X53769Y106235D01*
X54252Y106105D01*
Y104089D01*
X64748D01*
Y114585D01*
D02*
G37*
G36*
X409748D02*
X399252D01*
Y112568D01*
X398769Y112439D01*
X398699Y112559D01*
X397722Y113536D01*
X396526Y114227D01*
X395191Y114585D01*
X393809D01*
X392474Y114227D01*
X391278Y113536D01*
X390301Y112559D01*
X389610Y111362D01*
X389252Y110028D01*
Y108646D01*
X389610Y107311D01*
X390301Y106114D01*
X391278Y105137D01*
X392474Y104446D01*
X393809Y104089D01*
X395191D01*
X396526Y104446D01*
X397722Y105137D01*
X398699Y106114D01*
X398769Y106235D01*
X399252Y106105D01*
Y104089D01*
X409748D01*
Y114585D01*
D02*
G37*
G36*
X386748D02*
X376252D01*
Y112568D01*
X375769Y112439D01*
X375699Y112559D01*
X374722Y113536D01*
X373526Y114227D01*
X372191Y114585D01*
X370809D01*
X369474Y114227D01*
X368278Y113536D01*
X367301Y112559D01*
X366610Y111362D01*
X366252Y110028D01*
Y108646D01*
X366610Y107311D01*
X367301Y106114D01*
X368278Y105137D01*
X369474Y104446D01*
X370809Y104089D01*
X372191D01*
X373526Y104446D01*
X374722Y105137D01*
X375699Y106114D01*
X375769Y106235D01*
X376252Y106105D01*
Y104089D01*
X386748D01*
Y114585D01*
D02*
G37*
G36*
X363748D02*
X353252D01*
Y112568D01*
X352769Y112439D01*
X352699Y112559D01*
X351722Y113536D01*
X350526Y114227D01*
X349191Y114585D01*
X347809D01*
X346474Y114227D01*
X345278Y113536D01*
X344301Y112559D01*
X343610Y111362D01*
X343252Y110028D01*
Y108646D01*
X343610Y107311D01*
X344301Y106114D01*
X345278Y105137D01*
X346474Y104446D01*
X347809Y104089D01*
X349191D01*
X350526Y104446D01*
X351722Y105137D01*
X352699Y106114D01*
X352769Y106235D01*
X353252Y106105D01*
Y104089D01*
X363748D01*
Y114585D01*
D02*
G37*
G36*
X341100D02*
X330604D01*
Y112568D01*
X330121Y112439D01*
X330051Y112559D01*
X329074Y113536D01*
X327878Y114227D01*
X326543Y114585D01*
X325161D01*
X323826Y114227D01*
X322630Y113536D01*
X321653Y112559D01*
X320962Y111362D01*
X320604Y110028D01*
Y108646D01*
X320962Y107311D01*
X321653Y106114D01*
X322630Y105137D01*
X323826Y104446D01*
X325161Y104089D01*
X326543D01*
X327878Y104446D01*
X329074Y105137D01*
X330051Y106114D01*
X330121Y106235D01*
X330604Y106105D01*
Y104089D01*
X341100D01*
Y114585D01*
D02*
G37*
G36*
X318748D02*
X308252D01*
Y112568D01*
X307769Y112439D01*
X307699Y112559D01*
X306722Y113536D01*
X305526Y114227D01*
X304191Y114585D01*
X302809D01*
X301474Y114227D01*
X300278Y113536D01*
X299301Y112559D01*
X298610Y111362D01*
X298252Y110028D01*
Y108646D01*
X298610Y107311D01*
X299301Y106114D01*
X300278Y105137D01*
X301474Y104446D01*
X302809Y104089D01*
X304191D01*
X305526Y104446D01*
X306722Y105137D01*
X307699Y106114D01*
X307769Y106235D01*
X308252Y106105D01*
Y104089D01*
X318748D01*
Y114585D01*
D02*
G37*
G36*
X295748D02*
X285252D01*
Y112568D01*
X284769Y112439D01*
X284700Y112559D01*
X283722Y113536D01*
X282526Y114227D01*
X281191Y114585D01*
X279809D01*
X278474Y114227D01*
X277278Y113536D01*
X276301Y112559D01*
X275610Y111362D01*
X275252Y110028D01*
Y108646D01*
X275610Y107311D01*
X276301Y106114D01*
X277278Y105137D01*
X278474Y104446D01*
X279809Y104089D01*
X281191D01*
X282526Y104446D01*
X283722Y105137D01*
X284700Y106114D01*
X284769Y106235D01*
X285252Y106105D01*
Y104089D01*
X295748D01*
Y114585D01*
D02*
G37*
G36*
X272748D02*
X262252D01*
Y112568D01*
X261769Y112439D01*
X261700Y112559D01*
X260722Y113536D01*
X259526Y114227D01*
X258191Y114585D01*
X256809D01*
X255474Y114227D01*
X254278Y113536D01*
X253301Y112559D01*
X252610Y111362D01*
X252252Y110028D01*
Y108646D01*
X252610Y107311D01*
X253301Y106114D01*
X254278Y105137D01*
X255474Y104446D01*
X256809Y104089D01*
X258191D01*
X259526Y104446D01*
X260722Y105137D01*
X261700Y106114D01*
X261769Y106235D01*
X262252Y106105D01*
Y104089D01*
X272748D01*
Y114585D01*
D02*
G37*
G36*
X249748D02*
X239252D01*
Y112568D01*
X238769Y112439D01*
X238700Y112559D01*
X237722Y113536D01*
X236526Y114227D01*
X235191Y114585D01*
X233809D01*
X232474Y114227D01*
X231278Y113536D01*
X230301Y112559D01*
X229610Y111362D01*
X229252Y110028D01*
Y108646D01*
X229610Y107311D01*
X230301Y106114D01*
X231278Y105137D01*
X232474Y104446D01*
X233809Y104089D01*
X235191D01*
X236526Y104446D01*
X237722Y105137D01*
X238700Y106114D01*
X238769Y106235D01*
X239252Y106105D01*
Y104089D01*
X249748D01*
Y114585D01*
D02*
G37*
G36*
X226748D02*
X216252D01*
Y112568D01*
X215769Y112439D01*
X215700Y112559D01*
X214722Y113536D01*
X213526Y114227D01*
X212191Y114585D01*
X210809D01*
X209474Y114227D01*
X208278Y113536D01*
X207301Y112559D01*
X206610Y111362D01*
X206252Y110028D01*
Y108646D01*
X206610Y107311D01*
X207301Y106114D01*
X208278Y105137D01*
X209474Y104446D01*
X210809Y104089D01*
X212191D01*
X213526Y104446D01*
X214722Y105137D01*
X215700Y106114D01*
X215769Y106235D01*
X216252Y106105D01*
Y104089D01*
X226748D01*
Y114585D01*
D02*
G37*
G36*
X203748D02*
X193252D01*
Y112568D01*
X192769Y112439D01*
X192700Y112559D01*
X191722Y113536D01*
X190526Y114227D01*
X189191Y114585D01*
X187809D01*
X186474Y114227D01*
X185278Y113536D01*
X184300Y112559D01*
X183610Y111362D01*
X183252Y110028D01*
Y108646D01*
X183610Y107311D01*
X184300Y106114D01*
X185278Y105137D01*
X186474Y104446D01*
X187809Y104089D01*
X189191D01*
X190526Y104446D01*
X191722Y105137D01*
X192700Y106114D01*
X192769Y106235D01*
X193252Y106105D01*
Y104089D01*
X203748D01*
Y114585D01*
D02*
G37*
G36*
X180748D02*
X170252D01*
Y112568D01*
X169769Y112439D01*
X169700Y112559D01*
X168722Y113536D01*
X167526Y114227D01*
X166191Y114585D01*
X164809D01*
X163474Y114227D01*
X162278Y113536D01*
X161301Y112559D01*
X160610Y111362D01*
X160252Y110028D01*
Y108646D01*
X160610Y107311D01*
X161301Y106114D01*
X162278Y105137D01*
X163474Y104446D01*
X164809Y104089D01*
X166191D01*
X167526Y104446D01*
X168722Y105137D01*
X169700Y106114D01*
X169769Y106235D01*
X170252Y106105D01*
Y104089D01*
X180748D01*
Y114585D01*
D02*
G37*
G36*
X156748D02*
X146252D01*
Y112568D01*
X145769Y112439D01*
X145700Y112559D01*
X144722Y113536D01*
X143526Y114227D01*
X142191Y114585D01*
X140809D01*
X139474Y114227D01*
X138278Y113536D01*
X137301Y112559D01*
X136610Y111362D01*
X136252Y110028D01*
Y108646D01*
X136610Y107311D01*
X137301Y106114D01*
X138278Y105137D01*
X139474Y104446D01*
X140809Y104089D01*
X142191D01*
X143526Y104446D01*
X144722Y105137D01*
X145700Y106114D01*
X145769Y106235D01*
X146252Y106105D01*
Y104089D01*
X156748D01*
Y114585D01*
D02*
G37*
G36*
X133748D02*
X123252D01*
Y112568D01*
X122769Y112439D01*
X122699Y112559D01*
X121722Y113536D01*
X120526Y114227D01*
X119191Y114585D01*
X117809D01*
X116474Y114227D01*
X115278Y113536D01*
X114301Y112559D01*
X113610Y111362D01*
X113252Y110028D01*
Y108646D01*
X113610Y107311D01*
X114301Y106114D01*
X115278Y105137D01*
X116474Y104446D01*
X117809Y104089D01*
X119191D01*
X120526Y104446D01*
X121722Y105137D01*
X122699Y106114D01*
X122769Y106235D01*
X123252Y106105D01*
Y104089D01*
X133748D01*
Y114585D01*
D02*
G37*
G36*
X110748D02*
X100252D01*
Y112568D01*
X99769Y112439D01*
X99699Y112559D01*
X98722Y113536D01*
X97526Y114227D01*
X96191Y114585D01*
X94809D01*
X93474Y114227D01*
X92278Y113536D01*
X91300Y112559D01*
X90610Y111362D01*
X90252Y110028D01*
Y108646D01*
X90610Y107311D01*
X91300Y106114D01*
X92278Y105137D01*
X93474Y104446D01*
X94809Y104089D01*
X96191D01*
X97526Y104446D01*
X98722Y105137D01*
X99699Y106114D01*
X99769Y106235D01*
X100252Y106105D01*
Y104089D01*
X110748D01*
Y114585D01*
D02*
G37*
G36*
X87748D02*
X77252D01*
Y112568D01*
X76769Y112439D01*
X76700Y112559D01*
X75722Y113536D01*
X74526Y114227D01*
X73191Y114585D01*
X71809D01*
X70474Y114227D01*
X69278Y113536D01*
X68300Y112559D01*
X67610Y111362D01*
X67252Y110028D01*
Y108646D01*
X67610Y107311D01*
X68300Y106114D01*
X69278Y105137D01*
X70474Y104446D01*
X71809Y104089D01*
X73191D01*
X74526Y104446D01*
X75722Y105137D01*
X76700Y106114D01*
X76769Y106235D01*
X77252Y106105D01*
Y104089D01*
X87748D01*
Y114585D01*
D02*
G37*
G36*
X436196Y114161D02*
X434814D01*
X433479Y113804D01*
X432282Y113113D01*
X431305Y112136D01*
X431236Y112015D01*
X430753Y112145D01*
Y114161D01*
X420257D01*
Y103665D01*
X430753D01*
Y105682D01*
X431236Y105811D01*
X431305Y105691D01*
X432282Y104714D01*
X433479Y104023D01*
X434814Y103665D01*
X436196D01*
X437530Y104023D01*
X438727Y104714D01*
X439704Y105691D01*
X440395Y106888D01*
X440753Y108222D01*
Y109604D01*
X440395Y110939D01*
X439704Y112136D01*
X438727Y113113D01*
X437530Y113804D01*
X436196Y114161D01*
D02*
G37*
G36*
X784285Y134049D02*
X782421D01*
X780580Y133757D01*
X778807Y133181D01*
X777146Y132335D01*
X775638Y131239D01*
X774320Y129921D01*
X773224Y128413D01*
X772378Y126752D01*
X771802Y124980D01*
X771510Y123139D01*
Y121274D01*
X771802Y119433D01*
X772378Y117661D01*
X773224Y116000D01*
X774320Y114492D01*
X775638Y113174D01*
X777146Y112078D01*
X778807Y111232D01*
X780580Y110656D01*
X782421Y110364D01*
X784285D01*
X786126Y110656D01*
X787899Y111232D01*
X789560Y112078D01*
X791068Y113174D01*
X792386Y114492D01*
X793481Y116000D01*
X794328Y117661D01*
X794904Y119433D01*
X795195Y121274D01*
Y123139D01*
X794904Y124980D01*
X794328Y126752D01*
X793481Y128413D01*
X792386Y129921D01*
X791068Y131239D01*
X789560Y132335D01*
X787899Y133181D01*
X786126Y133757D01*
X784285Y134049D01*
D02*
G37*
G36*
X436196Y102231D02*
X434814D01*
X433479Y101873D01*
X432282Y101182D01*
X431305Y100205D01*
X431236Y100085D01*
X430753Y100214D01*
Y102231D01*
X420257D01*
Y91735D01*
X430753D01*
Y93751D01*
X431236Y93881D01*
X431305Y93760D01*
X432282Y92783D01*
X433479Y92092D01*
X434814Y91735D01*
X436196D01*
X437530Y92092D01*
X438727Y92783D01*
X439704Y93760D01*
X440395Y94957D01*
X440753Y96292D01*
Y97674D01*
X440395Y99008D01*
X439704Y100205D01*
X438727Y101182D01*
X437530Y101873D01*
X436196Y102231D01*
D02*
G37*
G36*
Y90231D02*
X434814D01*
X433479Y89873D01*
X432282Y89182D01*
X431305Y88205D01*
X431236Y88085D01*
X430753Y88214D01*
Y90231D01*
X420257D01*
Y79735D01*
X430753D01*
Y81751D01*
X431236Y81881D01*
X431305Y81760D01*
X432282Y80783D01*
X433479Y80092D01*
X434814Y79735D01*
X436196D01*
X437530Y80092D01*
X438727Y80783D01*
X439704Y81760D01*
X440395Y82957D01*
X440753Y84292D01*
Y85674D01*
X440395Y87008D01*
X439704Y88205D01*
X438727Y89182D01*
X437530Y89873D01*
X436196Y90231D01*
D02*
G37*
G36*
X795666Y71527D02*
X786788D01*
Y70584D01*
X786326Y70393D01*
X786078Y70640D01*
X785066Y71225D01*
X783937Y71527D01*
X782768D01*
X781639Y71225D01*
X780627Y70640D01*
X779801Y69814D01*
X779666Y69580D01*
X779166D01*
X779031Y69814D01*
X778204Y70640D01*
X777192Y71225D01*
X776063Y71527D01*
X774894D01*
X773765Y71225D01*
X772753Y70640D01*
X771927Y69814D01*
X771792Y69580D01*
X771292D01*
X771157Y69814D01*
X770330Y70640D01*
X769318Y71225D01*
X768189Y71527D01*
X767020D01*
X765891Y71225D01*
X764879Y70640D01*
X764053Y69814D01*
X763918Y69580D01*
X763418D01*
X763283Y69814D01*
X762456Y70640D01*
X761444Y71225D01*
X760315Y71527D01*
X759146D01*
X758017Y71225D01*
X757005Y70640D01*
X756179Y69814D01*
X756044Y69580D01*
X755544D01*
X755409Y69814D01*
X754582Y70640D01*
X753570Y71225D01*
X752441Y71527D01*
X751272D01*
X750143Y71225D01*
X749131Y70640D01*
X748305Y69814D01*
X748170Y69580D01*
X747670D01*
X747535Y69814D01*
X746708Y70640D01*
X745696Y71225D01*
X744567Y71527D01*
X743398D01*
X742269Y71225D01*
X741257Y70640D01*
X740431Y69814D01*
X740296Y69580D01*
X739796D01*
X739661Y69814D01*
X738834Y70640D01*
X737822Y71225D01*
X736693Y71527D01*
X735524D01*
X734395Y71225D01*
X733383Y70640D01*
X732557Y69814D01*
X732422Y69580D01*
X731922D01*
X731787Y69814D01*
X730960Y70640D01*
X729948Y71225D01*
X728819Y71527D01*
X727650D01*
X726521Y71225D01*
X725509Y70640D01*
X724683Y69814D01*
X724548Y69580D01*
X724048D01*
X723913Y69814D01*
X723086Y70640D01*
X722074Y71225D01*
X720945Y71527D01*
X719776D01*
X718647Y71225D01*
X717635Y70640D01*
X716809Y69814D01*
X716674Y69580D01*
X716174D01*
X716039Y69814D01*
X715212Y70640D01*
X714200Y71225D01*
X713071Y71527D01*
X711902D01*
X710773Y71225D01*
X709761Y70640D01*
X708935Y69814D01*
X708800Y69580D01*
X708300D01*
X708165Y69814D01*
X707338Y70640D01*
X706326Y71225D01*
X705197Y71527D01*
X704028D01*
X702899Y71225D01*
X701887Y70640D01*
X701061Y69814D01*
X700926Y69580D01*
X700426D01*
X700291Y69814D01*
X699464Y70640D01*
X698452Y71225D01*
X697323Y71527D01*
X696154D01*
X695025Y71225D01*
X694013Y70640D01*
X693187Y69814D01*
X693052Y69580D01*
X692552D01*
X692417Y69814D01*
X691590Y70640D01*
X690578Y71225D01*
X689449Y71527D01*
X688280D01*
X687151Y71225D01*
X686139Y70640D01*
X685313Y69814D01*
X685178Y69580D01*
X684678D01*
X684543Y69814D01*
X683716Y70640D01*
X682704Y71225D01*
X681575Y71527D01*
X680406D01*
X679277Y71225D01*
X678265Y70640D01*
X677439Y69814D01*
X677304Y69580D01*
X676803D01*
X676669Y69814D01*
X675842Y70640D01*
X674830Y71225D01*
X673701Y71527D01*
X672532D01*
X671403Y71225D01*
X670391Y70640D01*
X669564Y69814D01*
X669429Y69580D01*
X668929D01*
X668794Y69814D01*
X667968Y70640D01*
X666956Y71225D01*
X665827Y71527D01*
X664658D01*
X663529Y71225D01*
X662517Y70640D01*
X661690Y69814D01*
X661106Y68802D01*
X661042Y68563D01*
X660875Y68511D01*
X660513Y68520D01*
X660120Y69200D01*
X659480Y69840D01*
X658696Y70293D01*
X658118Y70448D01*
Y67088D01*
X656618D01*
Y70448D01*
X656041Y70293D01*
X655257Y69840D01*
X654617Y69200D01*
X654224Y68520D01*
X653862Y68511D01*
X653695Y68563D01*
X653631Y68802D01*
X653047Y69814D01*
X652220Y70640D01*
X651208Y71225D01*
X650079Y71527D01*
X648910D01*
X647781Y71225D01*
X646769Y70640D01*
X645942Y69814D01*
X645807Y69580D01*
X645307D01*
X645173Y69814D01*
X644346Y70640D01*
X643334Y71225D01*
X642205Y71527D01*
X641036D01*
X639907Y71225D01*
X638895Y70640D01*
X638068Y69814D01*
X637484Y68802D01*
X637182Y67673D01*
Y66504D01*
X637484Y65375D01*
X638068Y64363D01*
X638895Y63536D01*
X639129Y63401D01*
Y62901D01*
X638895Y62766D01*
X638068Y61940D01*
X637484Y60928D01*
X637182Y59799D01*
Y58630D01*
X637484Y57501D01*
X638068Y56489D01*
X638895Y55662D01*
X639907Y55078D01*
X641036Y54775D01*
X642205D01*
X643334Y55078D01*
X644346Y55662D01*
X645173Y56489D01*
X645307Y56722D01*
X645807D01*
X645942Y56489D01*
X646769Y55662D01*
X647781Y55078D01*
X648910Y54775D01*
X650079D01*
X651208Y55078D01*
X652220Y55662D01*
X653047Y56489D01*
X653181Y56722D01*
X653681D01*
X653816Y56489D01*
X654643Y55662D01*
X655655Y55078D01*
X656784Y54775D01*
X657953D01*
X659082Y55078D01*
X660094Y55662D01*
X660920Y56489D01*
X661055Y56722D01*
X661555D01*
X661690Y56489D01*
X662517Y55662D01*
X663529Y55078D01*
X664658Y54775D01*
X665827D01*
X666956Y55078D01*
X667968Y55662D01*
X668794Y56489D01*
X668929Y56722D01*
X669429D01*
X669564Y56489D01*
X670391Y55662D01*
X671403Y55078D01*
X672532Y54775D01*
X673701D01*
X674830Y55078D01*
X675842Y55662D01*
X676669Y56489D01*
X676803Y56723D01*
X677304D01*
X677439Y56489D01*
X678265Y55662D01*
X679277Y55078D01*
X680406Y54775D01*
X681575D01*
X682704Y55078D01*
X683716Y55662D01*
X684543Y56489D01*
X684678Y56722D01*
X685178D01*
X685313Y56489D01*
X686139Y55662D01*
X687151Y55078D01*
X688280Y54775D01*
X689449D01*
X690578Y55078D01*
X691590Y55662D01*
X692417Y56489D01*
X692552Y56722D01*
X693052D01*
X693187Y56489D01*
X694013Y55662D01*
X695025Y55078D01*
X696154Y54775D01*
X697323D01*
X698452Y55078D01*
X699464Y55662D01*
X700291Y56489D01*
X700426Y56722D01*
X700926D01*
X701061Y56489D01*
X701887Y55662D01*
X702899Y55078D01*
X704028Y54775D01*
X705197D01*
X706326Y55078D01*
X707338Y55662D01*
X708165Y56489D01*
X708300Y56722D01*
X708800D01*
X708935Y56489D01*
X709761Y55662D01*
X710773Y55078D01*
X711902Y54775D01*
X713071D01*
X714200Y55078D01*
X715212Y55662D01*
X716039Y56489D01*
X716174Y56722D01*
X716674D01*
X716809Y56489D01*
X717635Y55662D01*
X718647Y55078D01*
X719776Y54775D01*
X720945D01*
X722074Y55078D01*
X723086Y55662D01*
X723913Y56489D01*
X724048Y56722D01*
X724548D01*
X724683Y56489D01*
X725509Y55662D01*
X726521Y55078D01*
X727650Y54775D01*
X728819D01*
X729948Y55078D01*
X730960Y55662D01*
X731787Y56489D01*
X731922Y56722D01*
X732422D01*
X732557Y56489D01*
X733383Y55662D01*
X734395Y55078D01*
X735524Y54775D01*
X736693D01*
X737822Y55078D01*
X738834Y55662D01*
X739661Y56489D01*
X740245Y57501D01*
X740309Y57739D01*
X740476Y57792D01*
X740838Y57783D01*
X741231Y57103D01*
X741871Y56463D01*
X742655Y56010D01*
X743233Y55855D01*
Y59214D01*
X744733D01*
Y55855D01*
X745310Y56010D01*
X746094Y56463D01*
X746735Y57103D01*
X747127Y57783D01*
X747489Y57792D01*
X747656Y57739D01*
X747720Y57501D01*
X748305Y56489D01*
X749131Y55662D01*
X750143Y55078D01*
X751272Y54775D01*
X752441D01*
X753570Y55078D01*
X754582Y55662D01*
X755409Y56489D01*
X755544Y56722D01*
X756044D01*
X756179Y56489D01*
X757005Y55662D01*
X758017Y55078D01*
X759146Y54775D01*
X760315D01*
X761444Y55078D01*
X762456Y55662D01*
X763283Y56489D01*
X763418Y56722D01*
X763918D01*
X764053Y56489D01*
X764879Y55662D01*
X765891Y55078D01*
X767020Y54775D01*
X768189D01*
X769318Y55078D01*
X770330Y55662D01*
X771157Y56489D01*
X771292Y56722D01*
X771792D01*
X771927Y56489D01*
X772753Y55662D01*
X773765Y55078D01*
X774894Y54775D01*
X776063D01*
X777192Y55078D01*
X778204Y55662D01*
X779031Y56489D01*
X779166Y56723D01*
X779666D01*
X779801Y56489D01*
X780627Y55662D01*
X781639Y55078D01*
X782768Y54775D01*
X783937D01*
X785066Y55078D01*
X786078Y55662D01*
X786905Y56489D01*
X787489Y57501D01*
X787553Y57739D01*
X787720Y57792D01*
X788082Y57783D01*
X788475Y57103D01*
X789115Y56463D01*
X789899Y56010D01*
X790477Y55855D01*
Y59214D01*
X791227D01*
Y59964D01*
X794586D01*
X794431Y60542D01*
X793979Y61326D01*
X793338Y61966D01*
X793021Y62149D01*
X793155Y62649D01*
X795666D01*
Y71527D01*
D02*
G37*
G36*
X614563D02*
X605686D01*
Y70584D01*
X605224Y70393D01*
X604976Y70640D01*
X603964Y71225D01*
X602835Y71527D01*
X601666D01*
X600537Y71225D01*
X599525Y70640D01*
X598698Y69814D01*
X598563Y69580D01*
X598063D01*
X597928Y69814D01*
X597102Y70640D01*
X596090Y71225D01*
X594961Y71527D01*
X593792D01*
X592663Y71225D01*
X591651Y70640D01*
X590824Y69814D01*
X590689Y69580D01*
X590189D01*
X590055Y69814D01*
X589228Y70640D01*
X588216Y71225D01*
X587087Y71527D01*
X585918D01*
X584789Y71225D01*
X583777Y70640D01*
X582950Y69814D01*
X582815Y69580D01*
X582315D01*
X582181Y69814D01*
X581354Y70640D01*
X580342Y71225D01*
X579213Y71527D01*
X578044D01*
X576915Y71225D01*
X575903Y70640D01*
X575076Y69814D01*
X574941Y69580D01*
X574441D01*
X574306Y69814D01*
X573480Y70640D01*
X572468Y71225D01*
X571339Y71527D01*
X570170D01*
X569041Y71225D01*
X568029Y70640D01*
X567202Y69814D01*
X567067Y69580D01*
X566567D01*
X566432Y69814D01*
X565606Y70640D01*
X564594Y71225D01*
X563465Y71527D01*
X562296D01*
X561167Y71225D01*
X560155Y70640D01*
X559328Y69814D01*
X558744Y68802D01*
X558680Y68563D01*
X558513Y68511D01*
X558151Y68520D01*
X557758Y69200D01*
X557118Y69840D01*
X556334Y70293D01*
X555756Y70448D01*
Y67088D01*
X554256D01*
Y70448D01*
X553679Y70293D01*
X552895Y69840D01*
X552254Y69200D01*
X551862Y68520D01*
X551500Y68511D01*
X551333Y68563D01*
X551269Y68802D01*
X550684Y69814D01*
X549858Y70640D01*
X548846Y71225D01*
X547717Y71527D01*
X546548D01*
X545419Y71225D01*
X544407Y70640D01*
X543580Y69814D01*
X543445Y69580D01*
X542945D01*
X542810Y69814D01*
X541984Y70640D01*
X540972Y71225D01*
X539843Y71527D01*
X538674D01*
X537545Y71225D01*
X536533Y70640D01*
X535706Y69814D01*
X535571Y69580D01*
X535071D01*
X534936Y69814D01*
X534110Y70640D01*
X533098Y71225D01*
X531969Y71527D01*
X530800D01*
X529671Y71225D01*
X528659Y70640D01*
X527832Y69814D01*
X527697Y69580D01*
X527197D01*
X527062Y69814D01*
X526236Y70640D01*
X525224Y71225D01*
X524095Y71527D01*
X522926D01*
X521797Y71225D01*
X520785Y70640D01*
X519958Y69814D01*
X519823Y69580D01*
X519323D01*
X519188Y69814D01*
X518362Y70640D01*
X517350Y71225D01*
X516221Y71527D01*
X515052D01*
X513923Y71225D01*
X512911Y70640D01*
X512084Y69814D01*
X511949Y69580D01*
X511449D01*
X511314Y69814D01*
X510488Y70640D01*
X509476Y71225D01*
X508347Y71527D01*
X507178D01*
X506049Y71225D01*
X505037Y70640D01*
X504210Y69814D01*
X504075Y69580D01*
X503575D01*
X503440Y69814D01*
X502614Y70640D01*
X501602Y71225D01*
X500473Y71527D01*
X499304D01*
X498175Y71225D01*
X497163Y70640D01*
X496336Y69814D01*
X496201Y69580D01*
X495701D01*
X495566Y69814D01*
X494740Y70640D01*
X493728Y71225D01*
X492599Y71527D01*
X491430D01*
X490301Y71225D01*
X489289Y70640D01*
X488462Y69814D01*
X488327Y69580D01*
X487827D01*
X487692Y69814D01*
X486866Y70640D01*
X485854Y71225D01*
X484725Y71527D01*
X483556D01*
X482427Y71225D01*
X481415Y70640D01*
X480588Y69814D01*
X480453Y69580D01*
X479953D01*
X479818Y69814D01*
X478992Y70640D01*
X477979Y71225D01*
X476850Y71527D01*
X475682D01*
X474553Y71225D01*
X473540Y70640D01*
X472714Y69814D01*
X472579Y69580D01*
X472079D01*
X471944Y69814D01*
X471118Y70640D01*
X470105Y71225D01*
X468976Y71527D01*
X467808D01*
X466679Y71225D01*
X465666Y70640D01*
X464840Y69814D01*
X464705Y69580D01*
X464205D01*
X464070Y69814D01*
X463244Y70640D01*
X462231Y71225D01*
X461102Y71527D01*
X459934D01*
X458805Y71225D01*
X457793Y70640D01*
X456966Y69814D01*
X456382Y68802D01*
X456079Y67673D01*
Y66504D01*
X456382Y65375D01*
X456966Y64363D01*
X457793Y63536D01*
X458805Y62952D01*
X459043Y62888D01*
X459096Y62721D01*
X459086Y62359D01*
X458406Y61966D01*
X457766Y61326D01*
X457313Y60542D01*
X457159Y59964D01*
X460518D01*
X463877D01*
X463723Y60542D01*
X463270Y61326D01*
X462630Y61966D01*
X461950Y62359D01*
X461940Y62721D01*
X461993Y62888D01*
X462231Y62952D01*
X463244Y63536D01*
X464070Y64363D01*
X464205Y64596D01*
X464705D01*
X464840Y64363D01*
X465666Y63536D01*
X466679Y62952D01*
X466917Y62888D01*
X466970Y62721D01*
X466960Y62359D01*
X466281Y61966D01*
X465640Y61326D01*
X465187Y60542D01*
X465033Y59964D01*
X468392D01*
Y59214D01*
X469142D01*
Y55855D01*
X469719Y56010D01*
X470504Y56463D01*
X471144Y57103D01*
X471536Y57783D01*
X471899Y57792D01*
X472066Y57739D01*
X472130Y57501D01*
X472714Y56489D01*
X473540Y55662D01*
X474553Y55078D01*
X475682Y54775D01*
X476850D01*
X477979Y55078D01*
X478992Y55662D01*
X479818Y56489D01*
X479953Y56723D01*
X480453D01*
X480588Y56489D01*
X481415Y55662D01*
X482427Y55078D01*
X483556Y54775D01*
X484725D01*
X485854Y55078D01*
X486866Y55662D01*
X487692Y56489D01*
X487827Y56722D01*
X488327D01*
X488462Y56489D01*
X489289Y55662D01*
X490301Y55078D01*
X491430Y54775D01*
X492599D01*
X493728Y55078D01*
X494740Y55662D01*
X495566Y56489D01*
X495701Y56722D01*
X496201D01*
X496336Y56489D01*
X497163Y55662D01*
X498175Y55078D01*
X499304Y54775D01*
X500473D01*
X501602Y55078D01*
X502614Y55662D01*
X503440Y56489D01*
X503575Y56722D01*
X504075D01*
X504210Y56489D01*
X505037Y55662D01*
X506049Y55078D01*
X507178Y54775D01*
X508347D01*
X509476Y55078D01*
X510488Y55662D01*
X511314Y56489D01*
X511449Y56722D01*
X511949D01*
X512084Y56489D01*
X512911Y55662D01*
X513923Y55078D01*
X515052Y54775D01*
X516221D01*
X517350Y55078D01*
X518362Y55662D01*
X519188Y56489D01*
X519323Y56722D01*
X519823D01*
X519958Y56489D01*
X520785Y55662D01*
X521797Y55078D01*
X522926Y54775D01*
X524095D01*
X525224Y55078D01*
X526236Y55662D01*
X527062Y56489D01*
X527197Y56722D01*
X527697D01*
X527832Y56489D01*
X528659Y55662D01*
X529671Y55078D01*
X530800Y54775D01*
X531969D01*
X533098Y55078D01*
X534110Y55662D01*
X534936Y56489D01*
X535071Y56722D01*
X535571D01*
X535706Y56489D01*
X536533Y55662D01*
X537545Y55078D01*
X538674Y54775D01*
X539843D01*
X540972Y55078D01*
X541984Y55662D01*
X542810Y56489D01*
X542945Y56722D01*
X543445D01*
X543580Y56489D01*
X544407Y55662D01*
X545419Y55078D01*
X546548Y54775D01*
X547717D01*
X548846Y55078D01*
X549858Y55662D01*
X550684Y56489D01*
X550819Y56722D01*
X551319D01*
X551454Y56489D01*
X552281Y55662D01*
X553293Y55078D01*
X554422Y54775D01*
X555591D01*
X556720Y55078D01*
X557732Y55662D01*
X558558Y56489D01*
X558693Y56722D01*
X559193D01*
X559328Y56489D01*
X560155Y55662D01*
X561167Y55078D01*
X562296Y54775D01*
X563465D01*
X564594Y55078D01*
X565606Y55662D01*
X566432Y56489D01*
X566567Y56722D01*
X567067D01*
X567202Y56489D01*
X568029Y55662D01*
X569041Y55078D01*
X570170Y54775D01*
X571339D01*
X572468Y55078D01*
X573480Y55662D01*
X574306Y56489D01*
X574441Y56723D01*
X574941D01*
X575076Y56489D01*
X575903Y55662D01*
X576915Y55078D01*
X578044Y54775D01*
X579213D01*
X580342Y55078D01*
X581354Y55662D01*
X582181Y56489D01*
X582315Y56722D01*
X582815D01*
X582950Y56489D01*
X583777Y55662D01*
X584789Y55078D01*
X585918Y54775D01*
X587087D01*
X588216Y55078D01*
X589228Y55662D01*
X590055Y56489D01*
X590189Y56722D01*
X590689D01*
X590824Y56489D01*
X591651Y55662D01*
X592663Y55078D01*
X593792Y54775D01*
X594961D01*
X596090Y55078D01*
X597102Y55662D01*
X597928Y56489D01*
X598063Y56722D01*
X598563D01*
X598698Y56489D01*
X599525Y55662D01*
X600537Y55078D01*
X601666Y54775D01*
X602835D01*
X603964Y55078D01*
X604976Y55662D01*
X605802Y56489D01*
X605937Y56722D01*
X606437D01*
X606572Y56489D01*
X607399Y55662D01*
X608411Y55078D01*
X609540Y54775D01*
X610709D01*
X611838Y55078D01*
X612850Y55662D01*
X613677Y56489D01*
X614261Y57501D01*
X614563Y58630D01*
Y59799D01*
X614261Y60928D01*
X613677Y61940D01*
X613429Y62187D01*
X613620Y62649D01*
X614563D01*
Y71527D01*
D02*
G37*
G36*
X154279Y71591D02*
X153721D01*
X153207Y71378D01*
X152813Y70984D01*
X152600Y70469D01*
Y69912D01*
X152813Y69398D01*
X153207Y69004D01*
X153721Y68791D01*
X154279D01*
X154793Y69004D01*
X155187Y69398D01*
X155400Y69912D01*
Y70469D01*
X155187Y70984D01*
X154793Y71378D01*
X154279Y71591D01*
D02*
G37*
G36*
X316869Y69560D02*
X316312D01*
X315797Y69346D01*
X315404Y68953D01*
X315191Y68438D01*
Y67881D01*
X315404Y67366D01*
X315797Y66973D01*
X316312Y66760D01*
X316869D01*
X317384Y66973D01*
X317777Y67366D01*
X317991Y67881D01*
Y68438D01*
X317777Y68953D01*
X317384Y69346D01*
X316869Y69560D01*
D02*
G37*
G36*
X794586Y58464D02*
X791977D01*
Y55855D01*
X792554Y56010D01*
X793338Y56463D01*
X793979Y57103D01*
X794431Y57887D01*
X794586Y58464D01*
D02*
G37*
G36*
X463877D02*
X461268D01*
Y55855D01*
X461845Y56010D01*
X462630Y56463D01*
X463270Y57103D01*
X463723Y57887D01*
X463877Y58464D01*
D02*
G37*
G36*
X467642D02*
X465033D01*
X465187Y57887D01*
X465640Y57103D01*
X466281Y56463D01*
X467065Y56010D01*
X467642Y55855D01*
Y58464D01*
D02*
G37*
G36*
X459768D02*
X457159D01*
X457313Y57887D01*
X457766Y57103D01*
X458406Y56463D01*
X459191Y56010D01*
X459768Y55855D01*
Y58464D01*
D02*
G37*
G36*
X319470Y53949D02*
X318913D01*
X318398Y53736D01*
X318004Y53342D01*
X317791Y52828D01*
Y52271D01*
X318004Y51756D01*
X318398Y51363D01*
X318913Y51149D01*
X319470D01*
X319984Y51363D01*
X320378Y51756D01*
X320591Y52271D01*
Y52828D01*
X320378Y53342D01*
X319984Y53736D01*
X319470Y53949D01*
D02*
G37*
G36*
X156492Y53562D02*
X155936D01*
X155421Y53349D01*
X155027Y52956D01*
X154814Y52441D01*
Y51884D01*
X155027Y51369D01*
X155421Y50976D01*
X155936Y50762D01*
X156492D01*
X157007Y50976D01*
X157401Y51369D01*
X157614Y51884D01*
Y52441D01*
X157401Y52956D01*
X157007Y53349D01*
X156492Y53562D01*
D02*
G37*
G36*
X316869Y51560D02*
X316312D01*
X315797Y51346D01*
X315404Y50953D01*
X315191Y50438D01*
Y49881D01*
X315404Y49366D01*
X315797Y48973D01*
X316312Y48759D01*
X316869D01*
X317384Y48973D01*
X317777Y49366D01*
X317991Y49881D01*
Y50438D01*
X317777Y50953D01*
X317384Y51346D01*
X316869Y51560D01*
D02*
G37*
G36*
X115775Y53869D02*
X115218D01*
X114704Y53656D01*
X114310Y53262D01*
X114097Y52747D01*
Y52190D01*
X114310Y51676D01*
X114704Y51282D01*
X115218Y51069D01*
X115775D01*
X115941Y51138D01*
X116224Y50714D01*
X116192Y50682D01*
X115979Y50167D01*
Y49610D01*
X116192Y49096D01*
X116586Y48702D01*
X117101Y48489D01*
X117658D01*
X118172Y48702D01*
X118566Y49096D01*
X118779Y49610D01*
Y50167D01*
X118566Y50682D01*
X118172Y51076D01*
X117658Y51289D01*
X117101D01*
X116935Y51220D01*
X116651Y51644D01*
X116683Y51676D01*
X116897Y52190D01*
Y52747D01*
X116683Y53262D01*
X116290Y53656D01*
X115775Y53869D01*
D02*
G37*
G36*
X154825Y50241D02*
X154268D01*
X153753Y50028D01*
X153359Y49634D01*
X153146Y49119D01*
Y48562D01*
X153359Y48048D01*
X153753Y47654D01*
X154268Y47441D01*
X154825D01*
X155339Y47654D01*
X155733Y48048D01*
X155946Y48562D01*
Y49119D01*
X155733Y49634D01*
X155339Y50028D01*
X154825Y50241D01*
D02*
G37*
G36*
X280278Y52400D02*
X279721D01*
X279207Y52187D01*
X278813Y51793D01*
X278600Y51279D01*
Y50722D01*
X278813Y50207D01*
X279207Y49813D01*
X279721Y49600D01*
X280278D01*
X280508Y49695D01*
X280780Y49337D01*
X280807Y49278D01*
X280600Y48779D01*
Y48221D01*
X280813Y47707D01*
X281207Y47313D01*
X281721Y47100D01*
X282278D01*
X282793Y47313D01*
X283187Y47707D01*
X283400Y48221D01*
Y48779D01*
X283187Y49293D01*
X282793Y49687D01*
X282278Y49900D01*
X281721D01*
X281492Y49805D01*
X281220Y50163D01*
X281193Y50222D01*
X281400Y50722D01*
Y51279D01*
X281187Y51793D01*
X280793Y52187D01*
X280278Y52400D01*
D02*
G37*
G36*
X401748Y30248D02*
X391252D01*
Y28231D01*
X390769Y28102D01*
X390700Y28222D01*
X389722Y29199D01*
X388526Y29890D01*
X387191Y30248D01*
X385809D01*
X384474Y29890D01*
X383278Y29199D01*
X382300Y28222D01*
X381610Y27026D01*
X381252Y25691D01*
Y24309D01*
X381610Y22974D01*
X382300Y21778D01*
X383278Y20800D01*
X384474Y20110D01*
X385809Y19752D01*
X387191D01*
X388526Y20110D01*
X389722Y20800D01*
X390700Y21778D01*
X390769Y21898D01*
X391252Y21769D01*
Y19752D01*
X401748D01*
Y30248D01*
D02*
G37*
G36*
X781932Y41842D02*
X780068D01*
X778227Y41551D01*
X776454Y40975D01*
X774793Y40129D01*
X773285Y39033D01*
X771967Y37715D01*
X770871Y36207D01*
X770025Y34546D01*
X769449Y32773D01*
X769158Y30932D01*
Y29068D01*
X769449Y27227D01*
X770025Y25454D01*
X770871Y23793D01*
X771967Y22285D01*
X773285Y20967D01*
X774793Y19871D01*
X776454Y19025D01*
X778227Y18449D01*
X780068Y18158D01*
X781932D01*
X783773Y18449D01*
X785546Y19025D01*
X787207Y19871D01*
X788715Y20967D01*
X790033Y22285D01*
X791129Y23793D01*
X791975Y25454D01*
X792551Y27227D01*
X792842Y29068D01*
Y30932D01*
X792551Y32773D01*
X791975Y34546D01*
X791129Y36207D01*
X790033Y37715D01*
X788715Y39033D01*
X787207Y40129D01*
X785546Y40975D01*
X783773Y41551D01*
X781932Y41842D01*
D02*
G37*
G36*
X29932D02*
X28068D01*
X26227Y41551D01*
X24454Y40975D01*
X22793Y40129D01*
X21285Y39033D01*
X19967Y37715D01*
X18871Y36207D01*
X18025Y34546D01*
X17449Y32773D01*
X17157Y30932D01*
Y29068D01*
X17449Y27227D01*
X18025Y25454D01*
X18871Y23793D01*
X19967Y22285D01*
X21285Y20967D01*
X22793Y19871D01*
X24454Y19025D01*
X26227Y18449D01*
X28068Y18158D01*
X29932D01*
X31773Y18449D01*
X33546Y19025D01*
X35207Y19871D01*
X36715Y20967D01*
X38033Y22285D01*
X39129Y23793D01*
X39975Y25454D01*
X40551Y27227D01*
X40843Y29068D01*
Y30932D01*
X40551Y32773D01*
X39975Y34546D01*
X39129Y36207D01*
X38033Y37715D01*
X36715Y39033D01*
X35207Y40129D01*
X33546Y40975D01*
X31773Y41551D01*
X29932Y41842D01*
D02*
G37*
%LPD*%
D65*
X319000Y247022D02*
D03*
Y207652D02*
D03*
D66*
X130908Y299101D02*
D03*
Y309101D02*
D03*
X404452Y323500D02*
D03*
X169000Y374000D02*
D03*
Y364000D02*
D03*
X49000Y374000D02*
D03*
Y364000D02*
D03*
X227629Y363545D02*
D03*
Y373545D02*
D03*
X371500Y109337D02*
D03*
X213279Y153918D02*
D03*
Y176918D02*
D03*
Y199917D02*
D03*
Y222918D02*
D03*
X108000Y374000D02*
D03*
Y364000D02*
D03*
X394500Y109337D02*
D03*
X348500D02*
D03*
X325852D02*
D03*
X401889Y394428D02*
D03*
X401852Y418980D02*
D03*
X401886Y406819D02*
D03*
X404452Y335446D02*
D03*
X392452D02*
D03*
X386500Y25000D02*
D03*
X435505Y84983D02*
D03*
Y108913D02*
D03*
Y96983D02*
D03*
X72500Y109337D02*
D03*
X415422Y158615D02*
D03*
Y181139D02*
D03*
X401479D02*
D03*
Y158615D02*
D03*
X141500Y109337D02*
D03*
X165500D02*
D03*
X95500D02*
D03*
X118500D02*
D03*
X213279Y268917D02*
D03*
X175336Y257965D02*
D03*
X289500Y373500D02*
D03*
Y363500D02*
D03*
X348500Y373500D02*
D03*
Y363500D02*
D03*
X303500Y109337D02*
D03*
X175336Y211965D02*
D03*
X429103Y158615D02*
D03*
Y181139D02*
D03*
X213279Y245918D02*
D03*
X175336Y303965D02*
D03*
Y280965D02*
D03*
X64437Y299101D02*
D03*
Y309101D02*
D03*
X213279Y291917D02*
D03*
X49500Y109337D02*
D03*
X188500D02*
D03*
X280500D02*
D03*
X257500D02*
D03*
X234500D02*
D03*
X211500D02*
D03*
X213279Y314917D02*
D03*
X175336Y165965D02*
D03*
Y188965D02*
D03*
Y234965D02*
D03*
D67*
X130908Y319101D02*
D03*
X169000Y354000D02*
D03*
X49000D02*
D03*
X227629Y353545D02*
D03*
X213279Y143918D02*
D03*
Y166918D02*
D03*
Y189918D02*
D03*
Y212917D02*
D03*
X108000Y354000D02*
D03*
X404452Y345446D02*
D03*
X392452D02*
D03*
X415422Y168615D02*
D03*
Y191139D02*
D03*
X401479D02*
D03*
Y168615D02*
D03*
X213279Y258917D02*
D03*
X175336Y247965D02*
D03*
X289500Y353500D02*
D03*
X348500D02*
D03*
X175336Y201965D02*
D03*
X429103Y168615D02*
D03*
Y191139D02*
D03*
X213279Y235917D02*
D03*
X175336Y293965D02*
D03*
Y270965D02*
D03*
X64437Y319101D02*
D03*
X213279Y281918D02*
D03*
Y304918D02*
D03*
X175336Y155965D02*
D03*
Y178965D02*
D03*
Y224965D02*
D03*
D68*
X414452Y323500D02*
D03*
X381500Y109337D02*
D03*
X404500D02*
D03*
X358500D02*
D03*
X335852D02*
D03*
X411889Y394428D02*
D03*
X411852Y418980D02*
D03*
X411886Y406819D02*
D03*
X396500Y25000D02*
D03*
X425505Y84983D02*
D03*
Y108913D02*
D03*
Y96983D02*
D03*
X82500Y109337D02*
D03*
X151500D02*
D03*
X175500D02*
D03*
X105500D02*
D03*
X128500D02*
D03*
X313500D02*
D03*
X59500D02*
D03*
X198500D02*
D03*
X290500D02*
D03*
X267500D02*
D03*
X244500D02*
D03*
X221500D02*
D03*
D69*
X791227Y67088D02*
D03*
X610124Y358427D02*
D03*
X791227D02*
D03*
X610124Y67088D02*
D03*
D70*
X791227Y59214D02*
D03*
X783353Y67088D02*
D03*
Y59214D02*
D03*
X775479Y67088D02*
D03*
Y59214D02*
D03*
X767605Y67088D02*
D03*
Y59214D02*
D03*
X759731Y67088D02*
D03*
Y59214D02*
D03*
X751857Y67088D02*
D03*
Y59214D02*
D03*
X743983Y67088D02*
D03*
Y59214D02*
D03*
X736109Y67088D02*
D03*
Y59214D02*
D03*
X728235Y67088D02*
D03*
Y59214D02*
D03*
X720361Y67088D02*
D03*
Y59214D02*
D03*
X712487Y67088D02*
D03*
Y59214D02*
D03*
X704613Y67088D02*
D03*
Y59214D02*
D03*
X696739Y67088D02*
D03*
Y59214D02*
D03*
X688865Y67088D02*
D03*
Y59214D02*
D03*
X680991Y67088D02*
D03*
Y59214D02*
D03*
X673116Y67088D02*
D03*
Y59214D02*
D03*
X665242Y67088D02*
D03*
Y59214D02*
D03*
X657368Y67088D02*
D03*
Y59214D02*
D03*
X649494Y67088D02*
D03*
Y59214D02*
D03*
X641620Y67088D02*
D03*
Y59214D02*
D03*
X610124Y350553D02*
D03*
X602250Y358427D02*
D03*
Y350553D02*
D03*
X594376Y358427D02*
D03*
Y350553D02*
D03*
X586502Y358427D02*
D03*
Y350553D02*
D03*
X578628Y358427D02*
D03*
Y350553D02*
D03*
X570754Y358427D02*
D03*
Y350553D02*
D03*
X562880Y358427D02*
D03*
Y350553D02*
D03*
X555006Y358427D02*
D03*
Y350553D02*
D03*
X547132Y358427D02*
D03*
Y350553D02*
D03*
X539258Y358427D02*
D03*
Y350553D02*
D03*
X531384Y358427D02*
D03*
Y350553D02*
D03*
X523510Y358427D02*
D03*
Y350553D02*
D03*
X515636Y358427D02*
D03*
Y350553D02*
D03*
X507762Y358427D02*
D03*
Y350553D02*
D03*
X499888Y358427D02*
D03*
Y350553D02*
D03*
X492014Y358427D02*
D03*
Y350553D02*
D03*
X484140Y358427D02*
D03*
Y350553D02*
D03*
X476266Y358427D02*
D03*
Y350553D02*
D03*
X468392Y358427D02*
D03*
Y350553D02*
D03*
X460518Y358427D02*
D03*
Y350553D02*
D03*
X791227D02*
D03*
X783353Y358427D02*
D03*
Y350553D02*
D03*
X775479Y358427D02*
D03*
Y350553D02*
D03*
X767605Y358427D02*
D03*
Y350553D02*
D03*
X759731Y358427D02*
D03*
Y350553D02*
D03*
X751857Y358427D02*
D03*
Y350553D02*
D03*
X743983Y358427D02*
D03*
Y350553D02*
D03*
X736109Y358427D02*
D03*
Y350553D02*
D03*
X728235Y358427D02*
D03*
Y350553D02*
D03*
X720361Y358427D02*
D03*
Y350553D02*
D03*
X712487Y358427D02*
D03*
Y350553D02*
D03*
X704613Y358427D02*
D03*
Y350553D02*
D03*
X696739Y358427D02*
D03*
Y350553D02*
D03*
X688865Y358427D02*
D03*
Y350553D02*
D03*
X680991Y358427D02*
D03*
Y350553D02*
D03*
X673116Y358427D02*
D03*
Y350553D02*
D03*
X665242Y358427D02*
D03*
Y350553D02*
D03*
X657368Y358427D02*
D03*
Y350553D02*
D03*
X649494Y358427D02*
D03*
Y350553D02*
D03*
X641620Y358427D02*
D03*
Y350553D02*
D03*
X460518Y59214D02*
D03*
Y67088D02*
D03*
X468392Y59214D02*
D03*
Y67088D02*
D03*
X476266Y59214D02*
D03*
Y67088D02*
D03*
X484140Y59214D02*
D03*
Y67088D02*
D03*
X492014Y59214D02*
D03*
Y67088D02*
D03*
X499888Y59214D02*
D03*
Y67088D02*
D03*
X507762Y59214D02*
D03*
Y67088D02*
D03*
X515636Y59214D02*
D03*
Y67088D02*
D03*
X523510Y59214D02*
D03*
Y67088D02*
D03*
X531384Y59214D02*
D03*
Y67088D02*
D03*
X539258Y59214D02*
D03*
Y67088D02*
D03*
X547132Y59214D02*
D03*
Y67088D02*
D03*
X555006Y59214D02*
D03*
Y67088D02*
D03*
X562880Y59214D02*
D03*
Y67088D02*
D03*
X570754Y59214D02*
D03*
Y67088D02*
D03*
X578628Y59214D02*
D03*
Y67088D02*
D03*
X586502Y59214D02*
D03*
Y67088D02*
D03*
X594376Y59214D02*
D03*
Y67088D02*
D03*
X602250Y59214D02*
D03*
Y67088D02*
D03*
X610124Y59214D02*
D03*
D71*
X532427Y279549D02*
D03*
X668160D02*
D03*
Y122069D02*
D03*
X532427D02*
D03*
X317050Y296766D02*
D03*
X401000Y262800D02*
D03*
X522425Y254500D02*
D03*
X397000Y260500D02*
D03*
X109877Y176000D02*
D03*
X280700Y296000D02*
D03*
X791500Y105000D02*
D03*
X280000Y51000D02*
D03*
X282000Y48500D02*
D03*
X106500Y177700D02*
D03*
X48535Y182454D02*
D03*
X106411Y212512D02*
D03*
X316221Y316400D02*
D03*
X66035Y180754D02*
D03*
X542041Y150568D02*
D03*
X403500Y256000D02*
D03*
X339574Y189569D02*
D03*
X282854Y219292D02*
D03*
X115497Y52469D02*
D03*
X117379Y49889D02*
D03*
X399300Y256200D02*
D03*
X315500Y299500D02*
D03*
X283206Y203783D02*
D03*
X283000Y207647D02*
D03*
X293000Y193237D02*
D03*
X280407Y205812D02*
D03*
X283000Y231252D02*
D03*
X282428Y227328D02*
D03*
X282929Y235282D02*
D03*
X297415Y191337D02*
D03*
X301367D02*
D03*
X50839Y177804D02*
D03*
X108896Y214999D02*
D03*
X316591Y50160D02*
D03*
X154000Y70191D02*
D03*
X642796Y269751D02*
D03*
X342000Y192254D02*
D03*
X335000Y191337D02*
D03*
X330900D02*
D03*
X280599Y213422D02*
D03*
X283011Y248979D02*
D03*
X298980Y188317D02*
D03*
X303187Y188337D02*
D03*
X305167Y191337D02*
D03*
X307108Y188337D02*
D03*
X309049Y191337D02*
D03*
X311991Y188846D02*
D03*
X313026Y191337D02*
D03*
X317084Y188420D02*
D03*
X329000Y188337D02*
D03*
X333000D02*
D03*
X283000Y215389D02*
D03*
X154546Y48841D02*
D03*
X279169Y233395D02*
D03*
X661500Y148000D02*
D03*
X279000Y299500D02*
D03*
X642629Y150356D02*
D03*
X661696Y269751D02*
D03*
X334000Y406000D02*
D03*
X283011Y243074D02*
D03*
Y239137D02*
D03*
X283000Y223247D02*
D03*
X280105Y245064D02*
D03*
Y241127D02*
D03*
X125522Y176522D02*
D03*
X50433Y219424D02*
D03*
X47964Y216920D02*
D03*
X319000Y191337D02*
D03*
X326937Y191400D02*
D03*
X323000Y191337D02*
D03*
X280599Y221296D02*
D03*
X156214Y52162D02*
D03*
X319191Y52549D02*
D03*
X316591Y68160D02*
D03*
X280105Y237190D02*
D03*
X280599Y217231D02*
D03*
X283000Y211580D02*
D03*
X280313Y209739D02*
D03*
X325000Y188337D02*
D03*
X321000D02*
D03*
X538941Y147768D02*
D03*
D72*
X783353Y122206D02*
D03*
Y295435D02*
D03*
X29000Y400000D02*
D03*
Y30000D02*
D03*
X781000D02*
D03*
Y400000D02*
D03*
D73*
X348000Y393000D02*
D03*
X185000Y140000D02*
D03*
X435000Y320000D02*
D03*
X405000Y80000D02*
D03*
Y20000D02*
D03*
X315000Y80000D02*
D03*
X285000D02*
D03*
X240000Y410000D02*
D03*
X225000Y200000D02*
D03*
X135000Y140000D02*
D03*
X75000Y320000D02*
D03*
X45000Y20000D02*
D03*
X15000Y380000D02*
D03*
X30000Y350000D02*
D03*
X15000Y200000D02*
D03*
Y20000D02*
D03*
X135495Y76000D02*
D03*
X389500D02*
D03*
X213000Y55000D02*
D03*
X383000Y319500D02*
D03*
X286500Y393000D02*
D03*
X49500Y389000D02*
D03*
X107000Y393000D02*
D03*
X167500D02*
D03*
X226500D02*
D03*
X49000Y55000D02*
D03*
M02*
